<svg xmlns="http://www.w3.org/2000/svg" viewBox="0 0 165.42 212.79"><defs><style>.cls-1{opacity:0.33;}.cls-2{fill:#834c20;}.cls-3{fill:#fff;}.cls-4{fill:#3cb9ce;}.cls-5{fill:#1e90b3;}.cls-6{fill:#2ca8c4;}.cls-7{fill:#57d0dd;}.cls-8{fill:#663717;}.cls-10,.cls-9{fill:none;}.cls-10{stroke:#000;stroke-linecap:round;stroke-linejoin:round;stroke-width:0.25px;}</style></defs><title>come cabo verde</title><g id="Camada_4" data-name="Camada 4"><path class="cls-2" d="M85.84,39.74c-23.71,0-44.69,21.7-39.42,46.39,4.66,21.85,36.45,81.56,36.45,81.56a3.31,3.31,0,0,0,5.95,0s32-60.08,36.71-82.06C130.8,60.93,109.57,39.74,85.84,39.74Z"/><circle class="cls-3" cx="86.48" cy="81.85" r="26.45"/><path class="cls-2" d="M88.11,95a.38.38,0,0,0,0-.45,1.45,1.45,0,0,1-.37-1.36,3,3,0,0,0,0-1.37,1.13,1.13,0,0,0-.55-.74.78.78,0,0,0-.37-.08l0,0c0-.07-.08-.14-.13-.2a1.13,1.13,0,0,0-.06-1.42l-.08,0a4.52,4.52,0,0,0-.82-.13.6.6,0,0,1-.24,0,1.05,1.05,0,0,1-1.21-1V88a1,1,0,0,1,.44-.86s0,0,0,0l.07-.1A9.12,9.12,0,0,1,85,85.49c-2.25-.18-4.65-.42-6.45-1.79a34.35,34.35,0,0,1-2.63-2.63c-2.8-2.61-9.91-5.42-9.49,1.16a15.13,15.13,0,0,0,1.78,5.14c.76,1.67,1.38,3.54.87,5.3-.28.94-.86,1.78-1.11,2.73a6.52,6.52,0,0,0,0,2.88,16.26,16.26,0,0,0,9,11.35c1.82.83,4.44,1.06,5.37-.7.76-1.45-.18-3.36.59-4.8a4.91,4.91,0,0,1,1.76-1.62,9.85,9.85,0,0,0,3.17-3.22A4.67,4.67,0,0,0,88.11,95Z"/><path class="cls-2" d="M97.25,59.85c-2.14,1.93-4.67,4.12-7.71,3.82-1-.09-2.16-.35-2.71.35-1,1.23,1.87,3.06.72,4.17-.77.73-2.65.15-3,1.12-.26.79,1.06,1.45.88,2.26s-2,.87-2.27,1.76,1.08,1.52,1.12,2.42-1,1.47-.75,2.23c.27.93,1.77.77,2.81,1,2.07.46,2.55,2.86,2.51,4.75s.08,4.24,2,5.08A5.22,5.22,0,0,0,94,88.9a15.41,15.41,0,0,0,9.91-6.74,12.45,12.45,0,0,0,1-11.07,3.19,3.19,0,0,1-.33-1.26,3.16,3.16,0,0,1,.71-1.53c1.68-2.53,3.79-8.59.84-11C103.3,55,99.25,58.05,97.25,59.85Z"/><path class="cls-4" d="M100.91,64.6a38.6,38.6,0,0,0,1.56,13,1.69,1.69,0,0,0,2.19,1.6l6.44-.84A32.39,32.39,0,0,0,105.84,81c-1.42.89-2.93,2.63-2,4,.53.76,1.65,1,2,1.89s-.18,1.63-.19,2.46A3,3,0,0,0,108.15,92a7.69,7.69,0,0,0,3.84-.49c3-1,6.19-2.4,7.74-5.17s.48-7.12-2.64-7.76c3-1.05,4.69-4.31,4.77-7.44s-1.19-6.13-2.68-8.88a17.25,17.25,0,0,0-5.51-6.59C106.58,51.13,101.25,58,100.91,64.6Z"/><path class="cls-5" d="M53,84.68a21.66,21.66,0,0,0-2.43,9A14,14,0,0,0,50.81,99c1.08,3.57,4.76,6,8.49,6.16a13.41,13.41,0,0,0,9.94-4.34,24.28,24.28,0,0,0,5.35-9.7c1-3.17,1.44-7.1-1-9.41a8.71,8.71,0,0,0-4.67-2C63,78.6,56.32,78.87,53,84.68Z"/><path class="cls-6" d="M71.67,97.36c-2.5,4-7.17,6.88-11.88,6.38a23.23,23.23,0,0,1-5.39-1.5c-.66-.24-1.68-.29-1.8.41a1.11,1.11,0,0,0,.19.72,6.8,6.8,0,0,0,3.61,2.84c5.2,1.93,11.23-1,14.44-5.51S75.05,90.48,75.58,85a1.86,1.86,0,0,0-.21-1.36c-1.19-1.52-1.1,1.33-1.1,1.68,0,1.39.09,2.75,0,4.14A18.57,18.57,0,0,1,71.67,97.36Z"/><path class="cls-4" d="M60.74,89.5c.08-.48-.53-.83-1-.68a1.87,1.87,0,0,0-1,1,3.62,3.62,0,0,0-.53,1.79,1.59,1.59,0,0,0,1,1.47,1.89,1.89,0,0,0,1.92-.88,2.55,2.55,0,0,0,.59-2.1A1.46,1.46,0,0,0,60.09,89"/><path class="cls-7" d="M66.53,74c1.84-.65,4-.94,5.63.18a5.07,5.07,0,0,1,1.87,3,15,15,0,0,1,.25,3.61l0,3.23a3.66,3.66,0,0,1-1.72-.69,17.2,17.2,0,0,0-6.21-2c-1.6-.23-5.3.44-6.57-.41C56.69,78.8,65,74.51,66.53,74Z"/><path class="cls-4" d="M62.46,78a7.45,7.45,0,0,1,4.8,0,7.93,7.93,0,0,1,4,3.73,3.5,3.5,0,0,1,.58,2.39c.17-.81-8.93-2.63-9.83-2.76s-3.32.21-3.32-1S61.67,78.3,62.46,78Z"/><path class="cls-7" d="M55.05,84.83c.72-1,1.45-2,2.11-3.08C56.44,82.76,55.74,83.79,55.05,84.83Z"/><path class="cls-7" d="M55.05,84.83a30.28,30.28,0,0,0-2.92,4.78,16.17,16.17,0,0,0-1,4,9.37,9.37,0,0,0,0,4.28c0,.11.21.1.2,0-.15-3.12-.41-6.38,1.27-9.17C53.43,87.37,54.23,86.09,55.05,84.83Z"/><path class="cls-7" d="M57.63,81l-.47.76c.17-.24.34-.49.52-.73C57.7,81,57.65,81,57.63,81Z"/><path class="cls-7" d="M55.38,90.24a38,38,0,0,0-1.71,9.81c0,.11.15.1.16,0a45.9,45.9,0,0,1,2.24-11.8C55.82,88.9,55.59,89.56,55.38,90.24Z"/><path class="cls-7" d="M59.46,81.16l-.32.61c.12-.19.24-.39.37-.58C59.53,81.16,59.48,81.13,59.46,81.16Z"/><path class="cls-7" d="M56.07,88.25a59.81,59.81,0,0,1,3.07-6.48A30.8,30.8,0,0,0,56.07,88.25Z"/><path class="cls-7" d="M60.41,81.74c-.08.2-.16.39-.23.59.09-.19.18-.38.28-.57C60.48,81.73,60.43,81.7,60.41,81.74Z"/><path class="cls-7" d="M54.44,101.51c0,.22.35.27.39,0a107.74,107.74,0,0,1,2.52-11.91A51.55,51.55,0,0,0,54.44,101.51Z"/><path class="cls-7" d="M57.35,89.65c.87-2.46,1.85-4.9,2.83-7.32A41,41,0,0,0,57.35,89.65Z"/><path class="cls-7" d="M58,92.46c-.55,1.54-1,3.12-1.48,4.7a15.54,15.54,0,0,0-.9,4.35.12.12,0,0,0,.23,0c.48-1.45.54-3.09.88-4.59a37.06,37.06,0,0,1,1.32-4.48A0,0,0,1,0,58,92.46Z"/><path class="cls-7" d="M56.89,102.61c0,.1.16.12.19,0,.58-2.18.93-4.38,1.55-6.54A34.33,34.33,0,0,0,56.89,102.61Z"/><path class="cls-7" d="M59.37,93.78c-.08.27-.17.55-.25.83.1-.27.19-.55.31-.82C59.44,93.76,59.38,93.74,59.37,93.78Z"/><path class="cls-7" d="M58.63,96.09c.17-.49.33-1,.49-1.48C58.94,95.1,58.77,95.59,58.63,96.09Z"/><path class="cls-7" d="M60.64,93.77l-.21.76c.08-.25.17-.5.26-.75C60.71,93.75,60.65,93.73,60.64,93.77Z"/><path class="cls-7" d="M59.91,96.39c.17-.62.34-1.24.52-1.86A18.45,18.45,0,0,0,59.91,96.39Z"/><path class="cls-7" d="M58.86,102.08c0,.15.21.14.23,0a51.28,51.28,0,0,1,.82-5.69A26.91,26.91,0,0,0,58.86,102.08Z"/><path class="cls-7" d="M61.92,82.68l-.28.81c.11-.26.21-.53.33-.79C62,82.67,61.93,82.64,61.92,82.68Z"/><path class="cls-7" d="M61,85.28c.23-.59.46-1.19.68-1.79C61.39,84.08,61.16,84.68,61,85.28Z"/><path class="cls-7" d="M60,88s0,0,0,0c.35-.9.64-1.82,1-2.73C60.6,86.18,60.25,87.08,60,88Z"/><path class="cls-7" d="M63.24,83.8A12.88,12.88,0,0,0,61.35,89a0,0,0,1,0,0,0,12.84,12.84,0,0,1,1.89-5.14S63.26,83.77,63.24,83.8Z"/><path class="cls-7" d="M55.84,102.3l-1.31-.45C55,102,55.4,102.16,55.84,102.3Z"/><path class="cls-7" d="M53.54,101.53l1,.32c-.33-.11-.65-.24-1-.37C53.53,101.46,53.51,101.52,53.54,101.53Z"/><path class="cls-7" d="M63.51,103.55a5.48,5.48,0,0,1-2.87,0,85.41,85.41,0,0,1,1.1-8.77c-.62,2.87-1.13,5.78-1.48,8.69-.6-.14-1.19-.31-1.76-.46-.88-.24-1.78-.48-2.66-.75,1.2.41,2.4.83,3.63,1.17l.76.2a.15.15,0,0,1,0,.07c0,.24.34.25.39,0a4.55,4.55,0,0,0,3-.08A.08.08,0,0,0,63.51,103.55Z"/><path class="cls-7" d="M65.12,82.94a57.75,57.75,0,0,0-3.38,11.88c.12-.56.24-1.13.37-1.69C62.91,89.66,64.05,86.33,65.12,82.94Z"/><path class="cls-7" d="M65.32,82.34l-.2.6c.08-.19.16-.39.25-.58S65.33,82.3,65.32,82.34Z"/><path class="cls-7" d="M66.71,83c-.06.27-.13.53-.19.8l.24-.78S66.72,83,66.71,83Z"/><path class="cls-7" d="M64.55,91.55c.66-2.57,1.36-5.14,2-7.71A75.73,75.73,0,0,0,64.55,91.55Z"/><path class="cls-7" d="M62.48,101.71s0,0,0,0c.76-3.37,1.34-6.79,2-10.17A79.88,79.88,0,0,0,62.48,101.71Z"/><path class="cls-7" d="M67.93,85.44c0,.23,0,.47-.06.7l.12-.69S67.94,85.4,67.93,85.44Z"/><path class="cls-7" d="M66.68,92.81a49.07,49.07,0,0,0,1.19-6.67C67.48,88.37,67.12,90.59,66.68,92.81Z"/><path class="cls-7" d="M66.31,94.31c-.67,2.57-1.24,5.62-3,7.71,0,0,0,.1.06.07,1.88-1.4,2.2-4.63,2.71-6.73.2-.85.39-1.7.56-2.55C66.56,93.31,66.43,93.81,66.31,94.31Z"/><path class="cls-7" d="M68.83,91.3a41.77,41.77,0,0,0,.77-7C69.38,86.63,69.17,89,68.83,91.3Z"/><path class="cls-7" d="M68.49,93q-.45,2.13-1.08,4.23c-.44,1.5-.78,3.83-2.21,4.7a.16.16,0,0,0,.16.27c1.1-.55,1.36-1.84,1.69-2.94.51-1.72.93-3.47,1.29-5.24.19-.92.35-1.84.49-2.76C68.72,91.88,68.61,92.46,68.49,93Z"/><path class="cls-7" d="M69.61,83.6c0,.22,0,.45,0,.67,0-.22.05-.44.07-.67C69.67,83.57,69.61,83.57,69.61,83.6Z"/><path class="cls-7" d="M73.24,85.09a62,62,0,0,1-.83,6.35A21.16,21.16,0,0,1,70.88,97c-.07.15.13.35.25.2,1.16-1.51,1.34-3.61,1.6-5.43.32-2.23.42-4.47.57-6.71C73.3,85.05,73.25,85.05,73.24,85.09Z"/><path class="cls-7" d="M53.8,83.58h0s0,0,0,0,0,0,0,0c.19-.08.37-.14.56-.2l-.56.14Z"/><path class="cls-7" d="M53.77,85.21l.57-.07-.58,0S53.73,85.22,53.77,85.21Z"/><path class="cls-7" d="M51.43,87.53l.51-.25a4.87,4.87,0,0,0-.53.21S51.4,87.55,51.43,87.53Z"/><path class="cls-7" d="M63.6,92.29c.33,0,.66,0,1,.07l-1-.12S63.56,92.29,63.6,92.29Z"/><path class="cls-7" d="M65.13,92.43l-.54-.07Z"/><path class="cls-7" d="M50.11,94.46l.6,0h-.6A0,0,0,1,0,50.11,94.46Z"/><path class="cls-7" d="M52.65,99.24c1.17.19,2.37.36,3.56.54A33.26,33.26,0,0,0,52.65,99.24Z"/><path class="cls-7" d="M66.75,102.79c.08,0,.13-.1.06-.13a35.14,35.14,0,0,0-10.6-2.88c1.18.24,2.35.53,3.5.84C62.09,101.24,64.38,102.17,66.75,102.79Z"/><path class="cls-7" d="M73.67,90.32c-.9-.34-1.82-.64-2.75-.91.07-.81.13-1.62.13-2.43.68.27,1.34.56,2,.88a.11.11,0,0,0,.11-.18,19,19,0,0,0-2.11-1,14,14,0,0,0-.13-1.84,20.23,20.23,0,0,1,1.92.77c.08,0,.15-.07.07-.12a17.73,17.73,0,0,0-9.15-2.2c-1.73,0-3.46,0-5.19-.07l.35,0,4.6.21a24.14,24.14,0,0,1,7.37,1.37,15.45,15.45,0,0,1,0,1.8,24.82,24.82,0,0,0-7.76-1.57,31.11,31.11,0,0,1,7.75,1.86c0,.8-.12,1.6-.22,2.4a64,64,0,0,0-9.24-1.85c-1.91-.25-3.83-.4-5.75-.48H55.4l1.59.15q3,.26,6,.75a77.23,77.23,0,0,1,7.69,1.78c-.11.84-.24,1.67-.35,2.5a15.6,15.6,0,0,0-6.69-1.63s0,0,0,.06a23.62,23.62,0,0,1,6.63,2l0,.19c0,.24,0,.49-.07.73a22.36,22.36,0,0,0-5-1.12,21.51,21.51,0,0,1,5,1.44c0,.45-.07.9-.11,1.36a77.31,77.31,0,0,0-8-2c-2-.42-4-.77-6-1.13a19.26,19.26,0,0,0-2.68-.34c.18-.64.37-1.28.59-1.91a9.76,9.76,0,0,1,3.21,1.17c.09.06.21-.07.12-.15A5.48,5.48,0,0,0,54,89.67,27.5,27.5,0,0,1,55.05,87h.35l-.34,0c.29-.63.61-1.26.95-1.87,2.4-.09,4.79-.16,7.14,0A36.25,36.25,0,0,0,56.09,85q.49-.88,1-1.74l1.25,0h.17l-1.4-.06c.43-.64.88-1.28,1.36-1.9,0,0,0-.06,0,0-.49.62-.95,1.27-1.38,1.93a9.53,9.53,0,0,0-2.73.26,12.26,12.26,0,0,1,2.7-.22q-.55.86-1,1.74-.85.08-1.68.18l1.61,0c-.34.61-.66,1.23-1,1.87a7.06,7.06,0,0,0-3.06.32A8.93,8.93,0,0,1,55,87c-.41.88-.77,1.78-1.09,2.69a7.47,7.47,0,0,0-2.86.42s0,0,0,0a6.37,6.37,0,0,1,2.78-.22c-.22.64-.41,1.28-.58,1.92a6.52,6.52,0,0,0-2.21.3s0,0,0,0a6.91,6.91,0,0,1,2.17-.22q-.32,1.2-.54,2.43c-.65,0-1.31,0-2,.08l1.94.06c-.15.81-.25,1.63-.33,2.46q-.65,0-1.29.06s0,0,0,0c.43,0,.86,0,1.28,0-.06.72-.09,1.44-.1,2.16l-.23,0s0,.06,0,.06l.24,0c0,.22,0,.43,0,.65,0,0,0,0,0,0,0-.21,0-.43,0-.65l.39,0-.39-.06c0-.73.05-1.45.11-2.17a29.76,29.76,0,0,1,7.5,1A36.87,36.87,0,0,1,68,101.57a.12.12,0,0,0,.12-.21c-4.37-3.22-10.33-4.59-15.75-4.43.07-.83.18-1.65.32-2.46a62.16,62.16,0,0,1,8,.78,36,36,0,0,0-7.94-.92c.15-.82.32-1.63.54-2.43a27.56,27.56,0,0,1,4.16.69c1.75.36,3.51.68,5.26,1.06,2.47.53,4.86,1.25,7.25,2a15.4,15.4,0,0,1-.41,2.27,36.42,36.42,0,0,0-8.86-2.66A61.47,61.47,0,0,1,69.49,98a5.62,5.62,0,0,1-1.32,2.34c-.09.1,0,.26.14.19a3.67,3.67,0,0,0,1.53-2.39l.27.11a.05.05,0,0,0,0-.1l-.28-.13a14.48,14.48,0,0,0,.33-2.34l3,.92c.07,0,.12-.09.05-.12a26.31,26.31,0,0,0-3.06-1.21c0-.32,0-.63.08-.91s0-.28,0-.42l1.67.69c.1,0,.16-.12.07-.17a11.6,11.6,0,0,0-1.7-.83c0-.31.07-.61.11-.92l.69.28c.14.06.19-.14.09-.22s-.47-.33-.72-.48c.11-.86.23-1.72.32-2.59l2.73.76A.09.09,0,0,0,73.67,90.32Z"/><path class="cls-7" d="M61.91,104a11.09,11.09,0,0,1-7.37-.85s-.06,0,0,0a10.52,10.52,0,0,0,7.44,1C62.06,104.17,62,104,61.91,104Z"/><path class="cls-8" d="M76.52,104.69c-1,.65-2.06,1.71-1.83,2.91A3.57,3.57,0,0,0,76,109.42c.93.82,2.08,1.71,3.28,1.42a4,4,0,0,0,2-1.77L87.79,100a2.64,2.64,0,0,0,.71-2.14c-.6-2-3.84,2.67-4.59,3.21C81.71,102.69,78.83,103.24,76.52,104.69Z"/><path class="cls-8" d="M93.43,81.42c1.4-1.15,2.44-2.69,3.75-3.94a3.93,3.93,0,0,1,3.07-1.34,3.08,3.08,0,0,1,2.26,3.36,7.46,7.46,0,0,1-2,3.93,29.22,29.22,0,0,1-4.61,4.49c-1.17.91-2.62,1.77-4,1.35a4.42,4.42,0,0,1-2.42-2.47C87,81.86,90.55,83.76,93.43,81.42Z"/><path class="cls-9" d="M86.11,91.3a3.9,3.9,0,0,0-2.63,3.11,5.57,5.57,0,0,0,3-3"/><path class="cls-5" d="M81.11,105.78c5.39.4,11.06,1.77,14.81,5.67,1.11,1.15,2.07,2.75,1.6,4.28s-2.37,2.41-4,2.83a49.84,49.84,0,0,1-17.77.69c-3-.34-6-.84-8.94-1.39-1.91-.34-6.22-.45-7.61-2-3.18-3.65,4.05-7.23,6.56-8.17A36.7,36.7,0,0,1,81.11,105.78Z"/><path class="cls-4" d="M89.7,102.81c0,1.94.3,4.12,1.84,5.31,2.33,1.81,5.69.19,8.09-1.54a100.33,100.33,0,0,0,17.59-16.24c1.61-1.89,3.21-4,3.65-6.4a2.28,2.28,0,0,0,0-1.16,2.2,2.2,0,0,0-.79-1c-2.49-2-5.9-2.27-9.06-2-5.53.49-12.13,2.67-16.19,6.65C90.91,90.31,89.71,97.56,89.7,102.81Z"/><path class="cls-7" d="M107.47,70.34a10.83,10.83,0,0,0,1.32,4,4.39,4.39,0,0,0,3.45,2.18c1,0,1.89-.39,2.86-.43s2.1.48,2.17,1.44-1,1.88-.53,2.74c.26.54.94.68,1.45,1a3,3,0,0,1,1.07,3.44,6.58,6.58,0,0,1-2.34,3A18.17,18.17,0,0,1,111,90.93a4.79,4.79,0,0,1-2.56.25,2,2,0,0,1-1.54-1.84c.05-.8.76-1.48.72-2.28-.06-1.58-2.68-1.9-3-3.45-.49-2.18,3.93-3.39,3.07-5.45a3.45,3.45,0,0,1-4.1-.94,9.17,9.17,0,0,1-1.82-4.12c-.89-3.65-1.47-7.49-.59-11.15s3.5-7.08,7.14-8c.51-.13.9-.11,1.18.34C106.37,58.58,106.62,65.3,107.47,70.34Z"/><path class="cls-10" d="M101.7,59.5c-1.2,2.54-.93,5.49-.63,8.28.32,3,.67,6.15,2.19,8.78.56,1,1.31,2,1.24,3.11-.08,1.57-1.74,3-1.13,4.47.48,1.18,2.26,1.64,2.32,2.92a4.58,4.58,0,0,1-.31,1.29c-.54,2.06,1.52,4.05,3.63,4.29s4.15-.74,6.06-1.68a8,8,0,0,0,3.6-2.77c.76-1.34.4-3.42-1.07-3.89a3.55,3.55,0,0,0-2.36.31,19.13,19.13,0,0,0-6.54,4.32c-.68.69-1.35,1.69-.92,2.55.52,1,2,.86,3.11.54l2.81-.81a16.57,16.57,0,0,0,4.77-1.94,5.59,5.59,0,0,0,2.65-4.21c.11-2.77-2.62-5-5.36-5.41a9.73,9.73,0,0,0-10.38,6c4.94.14,9.33-4.84,14.12-3.63.78-1.58-.62-3.4-2.16-4.26a10,10,0,0,0-11.88,1.85,12.29,12.29,0,0,1,9-1.7,9.65,9.65,0,0,0,3.64.45,4.53,4.53,0,0,0,3.31-3.51,10.55,10.55,0,0,0-.33-5,21.68,21.68,0,0,0-5.8-10.52C111.14,55.4,104.59,53.37,101.7,59.5Z"/><path class="cls-10" d="M96.8,59.16c-2,2.12-4.15,4.68-7,4.57-.9,0-2.09-.17-2.41.66-.24.65.32,1.31.51,2a2,2,0,0,1-2.6,2.14c.47,1.26.83,3-.28,3.72a4.28,4.28,0,0,0-.87.55c-.52.57-.15,1.46.13,2.17s.24,1.81-.51,1.94c0,1.84,2.61,2.17,4,3.34,1.95,1.59,1.38,4.62,1.61,7.14a1.5,1.5,0,0,0,.55,1.22,1.63,1.63,0,0,0,.79.16,14.68,14.68,0,0,0,14.2-12.16,8.17,8.17,0,0,0-.53-4.77,4.55,4.55,0,0,0-3.76-2.69c-2-.08-3.72,1.51-4.68,3.27a1.87,1.87,0,0,0-.29,1.44c.34,1,1.87.86,2.82.32,4.3-2.44,6.15-7.59,7.34-12.39C107.62,54.51,100.41,55.28,96.8,59.16Z"/><path class="cls-10" d="M75.71,80c1.47,1.11,2.59,2.61,4.05,3.73s3.47,1.83,5.13,1c1,1-1.36,2.87-.46,4,.38.49,1.12.45,1.68.7s.74,1.33.12,1.32c.49-.08.83.5.83,1a5.17,5.17,0,0,0,0,1.47c.2.59.84.9,1.28,1.35,1.21,1.27.6,3.44-.57,4.76S85,101.65,84,103.1s-1.5,3.83-3.25,4.61a4.38,4.38,0,0,1-1.65.33A12.2,12.2,0,0,1,66.59,93.7a3.2,3.2,0,0,1,.68-1.65,1.86,1.86,0,1,1,2.45,2.76,5.59,5.59,0,0,1-1.39-2.59l-2.54-7.85C63.48,77.25,71.29,76.71,75.71,80Z"/><path class="cls-10" d="M58.33,81a14.61,14.61,0,0,1,4.72-5.47,8.5,8.5,0,0,1,7-1.21,7.17,7.17,0,0,1,4.78,8,44.34,44.34,0,0,0-8.52-2.59,14,14,0,0,0-7.12,0c-3.7,1.26-6,4.94-7.4,8.58-1.57,4.08-2.34,8.91-.08,12.66,2.36,3.91,7.65,5.46,12,4.16s7.77-5,9.5-9.25A29.4,29.4,0,0,0,74.8,82.4a27.15,27.15,0,0,1-2,15.8A14.32,14.32,0,0,1,69.89,103a13.65,13.65,0,0,1-5.57,3.09,13,13,0,0,1-7.28.55c-2.38-.65-4.52-2.64-4.72-5.1"/><path class="cls-10" d="M60.62,91.17a1.45,1.45,0,0,0,0-1.19.89.89,0,0,0-1-.46,1.28,1.28,0,0,0-.66.79,4.61,4.61,0,0,0-.27,2.3,1.41,1.41,0,0,0,.4.9,1.35,1.35,0,0,0,1.6-.16,3.14,3.14,0,0,0,1.15-3.18,1,1,0,0,0-.63-.82c-.62-.18-1,.61-1.21,1.24a1.68,1.68,0,0,0-.07.83.57.57,0,0,0,.62.45.8.8,0,0,0,.45-.5,3.54,3.54,0,0,0,.21-1.85"/><path class="cls-10" d="M65.85,77.89A10.87,10.87,0,0,1,74.25,83C69.09,81.35,64,80.92,58.63,80.56,59.05,78.33,64,77.76,65.85,77.89Z"/></g></svg>