<svg xmlns="http://www.w3.org/2000/svg" viewBox="0 0 165.42 212.79"><defs><style>.cls-1{opacity:0.33;}.cls-2{fill:#834c20;}.cls-3{fill:#fff;}.cls-4{fill:#1e90b3;}.cls-5{fill:#3cb9ce;}.cls-6{fill:#57d0dd;}.cls-7{fill:#2ca8c4;}.cls-8{fill:#5deded;}.cls-9{fill:none;stroke:#000;stroke-linecap:round;stroke-linejoin:round;stroke-width:0.25px;}</style></defs><title>come cabo verde5</title><g id="Camada_4" data-name="Camada 4"><path class="cls-2" d="M82.59,35.86c-23.72,0-44.69,21.7-39.43,46.4,4.66,21.84,36.45,81.55,36.45,81.55a3.31,3.31,0,0,0,6,0s32-60.08,36.71-82.06C127.54,57.06,106.32,35.86,82.59,35.86Z"/><circle class="cls-3" cx="83.22" cy="77.98" r="26.45"/><path class="cls-4" d="M72.86,63.65a78.82,78.82,0,0,0,8.38,21.58,33.39,33.39,0,0,1-8-3.8,107.8,107.8,0,0,1,.2,13.33c-1.17-2.64-3.13-4.72-4.85-7-2.34-3-7.45-9.93-7.29-14.2C61.4,69.88,70,65.47,72.86,63.65Z"/><path class="cls-5" d="M90.35,55.74a2.67,2.67,0,0,0-.3-1.44c-.47-.69-1.4-.64-2.17-.51q-4,.68-8,1.55c-2.74.6-4.3.3-3.5,3.69.65,2.78,1.28,5.57,1.84,8.38.24,1.19,2.05,7.17,1.44,8l5.4-7.74a35.64,35.64,0,0,1,5.54,6.53Z"/><path class="cls-6" d="M94.89,65.86c-1.46,2.11-1.83,7-2.4,9.55-.34,1.54-.65,3.09-.94,4.64-.14.7-.35,4.34-.82,4.67A32.59,32.59,0,0,1,97.67,81q1.2,4.38,2.78,8.61a177.68,177.68,0,0,1,8.06-16.31C106.36,71.57,96.76,63.16,94.89,65.86Z"/><path class="cls-6" d="M60.3,63.73c-1.22-1.32-2.66,1.1-2.9,2.23a2.42,2.42,0,0,0,2,3.12,2.53,2.53,0,0,0,2.47-2.66A2.78,2.78,0,0,0,60.3,63.73Z"/><path class="cls-5" d="M100.62,59.11a1.36,1.36,0,0,0-1.82-.22,1.74,1.74,0,0,0-.65,1,1.87,1.87,0,0,0,0,2.07,1.58,1.58,0,0,0,2.91-.66A2.68,2.68,0,0,0,100.62,59.11Z"/><path class="cls-4" d="M77.34,101.53a1.54,1.54,0,0,0-1.74-.14,1.51,1.51,0,0,0-.6.74,1.93,1.93,0,0,0-.22,2.12,1.75,1.75,0,0,0,2.82.39A2.23,2.23,0,0,0,77.34,101.53Z"/><path class="cls-7" d="M70,51.86a.7.7,0,0,0-.72.21,14.08,14.08,0,0,0-2.32,4.15c-.42,1.23-1,2.87-.27,4.07a.64.64,0,0,0,1.18,0l0-.06c.4-.93.67-1.92,1.09-2.83S70,55.5,70.55,54.56,71.15,52.28,70,51.86Z"/><path class="cls-5" d="M65,93.85a7.46,7.46,0,0,0-1.17-2A5.26,5.26,0,0,0,62,89.94c-1.27-.54-2.55.74-3,1.93a.45.45,0,0,0,.28.55,8.55,8.55,0,0,1,3,2.31c.23.38.47.75.82.84A1.5,1.5,0,0,0,65,93.85Z"/><path class="cls-4" d="M96,97.78A15.8,15.8,0,0,1,95.28,95c0-.34-.31-.53-.59-.38a6.21,6.21,0,0,0-2.34,2.6s0,.1.07.06l.1-.08a.7.7,0,0,0,.14.42,8.57,8.57,0,0,1,1.46,4c.08.41.57.34.68,0,.31-1,1.56-1.35,1.57-2.39A5.8,5.8,0,0,0,96,97.78Z"/><path class="cls-6" d="M87.26,90.65c-.41-.53-1-1.05-1.35-1.59a.47.47,0,0,0-.17-.15l0,0s0-.13-.06-.08l-.08.07a.37.37,0,0,0-.32.11,2.8,2.8,0,0,0-.34.37,2.38,2.38,0,0,0-.81.58,7.06,7.06,0,0,0-.62.92,10.09,10.09,0,0,0-1.13,2.6,2.68,2.68,0,0,0,1.2,3.45.2.2,0,0,0,.3-.14c.56-2.22,2-3.62,3.35-5.26A.65.65,0,0,0,87.26,90.65Z"/><path class="cls-7" d="M72.05,89.15c-.73-4.72-.61-10.34-3.27-14.32-1.41-2.11-4.1-5.62-6.47-2.81a1,1,0,0,0-.2.87c-.32,1.41,1.21,4.12,1.61,4.89,2.22,4.28,4.31,8.43,7.56,11.86C71.63,90,72.12,89.63,72.05,89.15Z"/><path class="cls-7" d="M78.64,83c-.58-1.39-1.34-2.71-2-4-.38-.75-.76-2.4-1.6-2.69-1.31-.45-2.7,2.39-1.67,3.35a.87.87,0,0,0,.18.11,2.69,2.69,0,0,0,.16.29,10.28,10.28,0,0,0,4.46,3.7C78.54,83.89,78.79,83.38,78.64,83Z"/><path class="cls-7" d="M72.37,65.4a.06.06,0,0,0-.11,0,16.79,16.79,0,0,0,1.55,6.87.13.13,0,0,0,.23-.1A63.26,63.26,0,0,1,72.37,65.4Z"/><path class="cls-7" d="M72.8,82.76c0-.08-.09-.09-.1,0,0,1.07-.31,2.09-.29,3.16a9.93,9.93,0,0,0,.41,2.77.16.16,0,0,0,.31,0C73,86.78,72.44,84.59,72.8,82.76Z"/><path class="cls-6" d="M89.61,69.57a60,60,0,0,1-.42-8,33.12,33.12,0,0,0-.1-5.18c-.53-3-3.15-1.79-5.1-1.34a.67.67,0,0,0-.52.46c-.77.45-.82,1.67-.83,2.56,0,1.45-.1,3.54.56,4.9a5.26,5.26,0,0,0,.23.93c.09.26.19.53.31.81,0,.08.05.17.09.26a12.71,12.71,0,0,0,4.85,5.42C89.19,70.71,89.68,70.13,89.61,69.57Z"/><path class="cls-6" d="M80.17,64.62c-.41-.34-1,.12-1,.62a22.75,22.75,0,0,0,.93,6,.29.29,0,0,0,.12.16c0,.26,0,.52,0,.77a.34.34,0,0,0,.63.19c.91-1.35,2.23-3.12,2.34-4.9S81.17,65.47,80.17,64.62Z"/><path class="cls-6" d="M78.47,59.05c-.09-.58-.29-1.89.31-2.27.14-.09.08-.35-.08-.34-2.1,0-1.06,4.43-.22,5.39.17.2.45,0,.46-.22A12.66,12.66,0,0,0,78.47,59.05Z"/><path class="cls-5" d="M106,72.91c-1.77-3-4.64-2.4-6,.31-2.73,2.9-1.55,10,.49,12.72a.23.23,0,0,0,.39-.06,45.25,45.25,0,0,0,2-4.44c.75-1.29,1.54-2.56,2.27-3.81C106.1,76,107.06,74.71,106,72.91Z"/><path class="cls-5" d="M96.55,72c-.07-.88-.23-2-1.22-2.09S94.16,71.07,94,72s-.3,2-.41,3a9.76,9.76,0,0,0-.06,1.52c-.37,1.74-.57,3.47-.8,5.29,0,.33.17.67.51.56a3.37,3.37,0,0,0,1-.54,3,3,0,0,0,2.29-3.09c0-.75,0-1.51,0-2.27A22.37,22.37,0,0,0,96.55,72Z"/><path class="cls-5" d="M100.19,69.8a11.24,11.24,0,0,0-2-1.38,22.19,22.19,0,0,1-2.33-1.64s-.08,0,0,0c1.07,1.31,2.39,3.14,4,3.53A.34.34,0,0,0,100.19,69.8Z"/><path class="cls-5" d="M99.11,72a.19.19,0,0,0,0-.28c-.75-.65-1.52-1.21-2.32-1.79,0,0-.1.06,0,.09.25.12,2.07,1.24,1.83,1.81-.13.3-.81.25-1,.65s0,.35.1.66c.17.69.51,1,.35,1.62-.09.33-.26.6-.33.94,0,.11.1.19.17.11a2.81,2.81,0,0,0,.54-2.07c0-.27-.25-.51-.28-.74C98.12,72.5,98.77,72.27,99.11,72Z"/><path class="cls-6" d="M81.76,63.6A4.79,4.79,0,0,1,81,61.45a2.53,2.53,0,0,0,0-.87c-.08-.18-.28-.22-.34-.33-.3-.6.25-1.41.5-2,.78-2-1.23-.9-2.13-.68-.06,0,0,.12,0,.1.51-.17,1.58-.69,1.74.35.07.43-.67,1.28-.76,1.73-.13.63,0,.3.16.73l.06,0c.34,0,.49.23.46.72,0,.26,0,.6,0,.87a2.61,2.61,0,0,0,.89,1.75C81.68,63.92,81.84,63.73,81.76,63.6Z"/><path class="cls-7" d="M71.57,75.07c-.72-1.19,0-2-.08-3.2a.33.33,0,0,0-.21-.31c-1.78-.36-.21-3.08.23-4.24.1-.27-.22-.45-.41-.35a28.22,28.22,0,0,0-4.6,3.12c-.08.06,0,.2.08.15a44.84,44.84,0,0,1,4-2.29c-.78,1.45-1.85,3.47-.56,4.42.09.06.25-.1.33,0,.29.21.36.33.29.86,0,.33-.3.6-.3,1,0,1.38,1.49,1.64,1.57,3.22a.3.3,0,1,0,.59,0A4.27,4.27,0,0,0,71.57,75.07Z"/><path class="cls-7" d="M107.74,60.25c-1.4.71-2.42,2.6-3.11,4.06-.44.93.77,1.72,1.27.82a15.38,15.38,0,0,1,1.34-2,16.9,16.9,0,0,0,1.45-1.81A.74.74,0,0,0,107.74,60.25Z"/><path class="cls-7" d="M109.65,64.05c-.86-.09-1.64.75-2.31,1.25-.89.66,0,2.28.86,1.61.73-.54,1.75-1,2-2A.66.66,0,0,0,109.65,64.05Z"/><path class="cls-8" d="M61.43,58.35A2.79,2.79,0,0,0,60.14,58a8.73,8.73,0,0,0,0-3.1.45.45,0,0,0-.67-.3c-.82.64-1.62,1.3-2.42,2-.15.13,0,.37.15.29.7-.34,1.39-.7,2.08-1.07a5.88,5.88,0,0,1-.53,2.58.76.76,0,0,0,.58,1.13,3.57,3.57,0,0,0,2.12-.2A.59.59,0,0,0,61.43,58.35Z"/><path class="cls-8" d="M61.18,55.22c0,.09.07.19.11.28a.23.23,0,0,0,.41,0c0-.09.07-.19.11-.28A.37.37,0,1,0,61.18,55.22Z"/><path class="cls-8" d="M86.86,98.73a3.84,3.84,0,0,0-1.4,2,7.57,7.57,0,0,0-.55,2.5c0,.3.41.44.53.16.33-.79.66-1.58,1-2.35a6.82,6.82,0,0,0,.82-2A.28.28,0,0,0,86.86,98.73Z"/><path class="cls-8" d="M89.9,105.18a8.73,8.73,0,0,1-.29-4.64c.11-.4-.47-.68-.63-.29a5.41,5.41,0,0,0,.32,5.32C89.54,105.88,90,105.54,89.9,105.18Z"/><path class="cls-8" d="M70.25,98c-.49,0-.49.85,0,.85S70.74,98,70.25,98Z"/><path class="cls-8" d="M70.52,102.21a1,1,0,0,0-1.45-.72,1,1,0,0,0-.44.8,1.18,1.18,0,0,0,.1.45.6.6,0,0,0,.14.21l0,0a.74.74,0,0,0,.65.37,1.12,1.12,0,0,0,.78-.48A.64.64,0,0,0,70.52,102.21Z"/><path class="cls-8" d="M67.12,99c-.85,0-.85,1.47,0,1.47S68,99,67.12,99Z"/><path class="cls-8" d="M99,53.84a.81.81,0,0,0-1-.62A1.7,1.7,0,0,0,97,54a1.31,1.31,0,0,0,0,1.22.47.47,0,0,0,0,.16,1,1,0,0,0,1.49.44A1.82,1.82,0,0,0,99,53.84Z"/><path class="cls-8" d="M98.61,49.42c-.9,0-.91,1.56,0,1.56S99.52,49.42,98.61,49.42Z"/><path class="cls-8" d="M102.05,53.9c-.13,0-.13.23,0,.23S102.18,53.9,102.05,53.9Z"/><path class="cls-8" d="M101.74,53.36c-.36,0-.36.61,0,.61S102.1,53.36,101.74,53.36Z"/><path class="cls-6" d="M69.68,87.31c-2-4.6-5.31-8.54-6.6-13.5a0,0,0,1,0-.09,0c1.8,4.85,2.81,10,6.53,13.6A.1.1,0,0,0,69.68,87.31Z"/><path class="cls-6" d="M77.87,82.07A21.38,21.38,0,0,0,75,77.35a.2.2,0,1,0-.33.22,20.73,20.73,0,0,0,2.7,4.86A.34.34,0,0,0,77.87,82.07Z"/><path class="cls-6" d="M65.64,76.46c-.87,0-.87,1.48,0,1.48S66.5,76.46,65.64,76.46Z"/><path class="cls-6" d="M66.57,78.62c-.77,0-.77,1.32,0,1.32S67.34,78.62,66.57,78.62Z"/><path class="cls-6" d="M68,81.09c-.91,0-.92,1.58,0,1.58S68.9,81.09,68,81.09Z"/><path class="cls-6" d="M74.08,79c-.64,0-.64,1.1,0,1.1S74.72,79,74.08,79Z"/><path class="cls-4" d="M88.4,62.77c-.17-2.38-.21-4.76-.21-7.14,0,0,0,0,0,0-.08,2.38-.15,4.76-.25,7.14A24.88,24.88,0,0,0,88,69a.35.35,0,0,0,.68,0A31.6,31.6,0,0,0,88.4,62.77Z"/><path class="cls-4" d="M87,58.59c-.78,0-.78,1.34,0,1.34S87.76,58.59,87,58.59Z"/><path class="cls-4" d="M86.74,61.85c-.31,0-.31.55,0,.55S87.06,61.85,86.74,61.85Z"/><path class="cls-4" d="M87,63.35c-1,0-1,1.71,0,1.71S88,63.35,87,63.35Z"/><path class="cls-4" d="M80.37,67.66a11.13,11.13,0,0,1-.3-2.16.14.14,0,1,0-.27,0c-.09,1.28-.29,3,.48,4.07.13.18.37,0,.38-.18A5.37,5.37,0,0,0,80.37,67.66Z"/><path class="cls-7" d="M105.76,74.87s0,0,0,0h0a.13.13,0,0,0-.22,0c-1.83,2.79-4.42,5.62-5.57,8.85a.55.55,0,0,0,.9.58,7.51,7.51,0,0,0,.58-.78.12.12,0,0,0,.22,0c1.23-2.23,2.28-4.57,3.33-6.91.25-.53.51-1.06.77-1.59a.15.15,0,0,0,0-.13Z"/><path class="cls-7" d="M103.39,74.28c-1,0-1,1.68,0,1.68S104.37,74.28,103.39,74.28Z"/><path class="cls-7" d="M102,76.51c-.8,0-.81,1.38,0,1.38S102.79,76.51,102,76.51Z"/><path class="cls-7" d="M101.52,78c-.26,0-.26.44,0,.44S101.77,78,101.52,78Z"/><path class="cls-7" d="M95.43,79.41a4.09,4.09,0,0,0-1.9,1l.12-.76a30.42,30.42,0,0,0,.66-3.52c0-.13.06-.26.1-.39a.1.1,0,0,0,0-.07c0-.19,0-.38.08-.56,0,.18-.07.36-.11.54a.07.07,0,0,0-.08,0c-.71,1.93-1.55,3.85-2.08,5.86-.13.49.43,1,.84.71.9-.71,2.11-1.12,2.72-2.2C95.9,79.79,95.72,79.38,95.43,79.41Z"/><path class="cls-7" d="M94.67,73.56c0,.33-.06.65-.11,1,.06-.33.13-.65.2-1A0,0,0,1,0,94.67,73.56Z"/><path class="cls-7" d="M94.47,75.07c0-.18.07-.35.09-.53Z"/><path class="cls-9" d="M73.14,63.75a49.93,49.93,0,0,0,2.1,12c1.28,3.79,3.36,7.23,6.18,9.13a8.76,8.76,0,0,1-7.49-2.57,32.23,32.23,0,0,0-.2,12c-3.69-5.65-9-12-11.62-18.56-1.58-4.06.36-4,3.34-6.29C66.26,68.93,73.2,64.53,73.14,63.75Z"/><path class="cls-9" d="M90,53.77Q90.23,64,89.9,74.2a27.19,27.19,0,0,1-5.61-6l-4.44,7.65q-.78-5-1.73-9.93c-.34-1.77-2.24-7.23-1.69-8.9C77.25,54.55,90,54,90,53.77Z"/><path class="cls-9" d="M91,85.35a29.57,29.57,0,0,1,6.15-4.28l3.52,9,7.11-15.37a1.64,1.64,0,0,0,.2-1.09,1,1,0,0,0-.6-.57c-2.09-1.07-10.46-8.73-11.84-7.82C93.39,66.62,91.71,82.08,91,85.35Z"/><path class="cls-9" d="M62.72,76.34c-1.63,3.66-3.3,7.4-5.33,9.33-1,1-2.21,1.43-3.17.09a1.88,1.88,0,0,1-.37-.9,4.47,4.47,0,0,1,0-1.46,11.89,11.89,0,0,1,1.43-3.93c.47-.88,1-1.75,1.62-1.44.84.46,1.18,3.25,1,5.41s-.74,4-1,6.07-.3,4.81.41,6.08"/><path class="cls-9" d="M73.42,68a32.27,32.27,0,0,0,3.15-7.92"/><path class="cls-9" d="M90,58.33a3.48,3.48,0,0,0,2.83,0,2.54,2.54,0,0,0,.93-3.06c-.58-.32-1.17.43-1.47,1.14-1.52,3.58-.73,8.53,1.76,11"/><path class="cls-9" d="M106.86,76.44c1.12,2,3.45,2.57,4.32,4.79a7.41,7.41,0,0,1-.3,5A46.1,46.1,0,0,0,109.06,91c-.42,1.66-.33,3.72.68,4.86"/><path class="cls-9" d="M85.72,88.86a4.37,4.37,0,0,0,1.6,2A9.55,9.55,0,0,0,84,97.2a7.73,7.73,0,0,0-1.85-1.81c.23-2.86,1.83-5.46,3.93-6.35"/><path class="cls-9" d="M94.66,94.82,92.08,97a9.17,9.17,0,0,1,2.42,4.71l1.91-1.94-1.47-4.94"/><path class="cls-9" d="M69.82,51.56a19,19,0,0,0-2.72,5.51,4.88,4.88,0,0,0-.28,2.3c.14.77.74,1.44,1.32,1.24a13,13,0,0,1,3.27-7.37L70,52.12"/><path class="cls-9" d="M59,92.63a2.4,2.4,0,0,1,3.34-2.4c1.41.75,2.24,2.63,2.92,4.4L63.44,96A7.3,7.3,0,0,0,59,92.34"/><path class="cls-9" d="M99,59c1-.41,2.11.91,1.9,2.21s-1.66,1.93-2.42,1S98.05,59.38,99,59"/><path class="cls-9" d="M60,64.23c-1.3-.11-2.5,1.45-2.27,3a2.22,2.22,0,0,0,3,1.89,2.92,2.92,0,0,0,.82-3.89,4.15,4.15,0,0,0-2.23-1.46"/><path class="cls-9" d="M75.72,101.84c.76-.49,1.81.37,1.79,1.47s-1.1,1.89-1.84,1.35a2,2,0,0,1,0-2.74"/><path class="cls-9" d="M109.6,95.18a1.64,1.64,0,0,0,2.38-.3,3.2,3.2,0,0,0,.34-3.09c-1.62,1.15-3.2,3.51-2.46,5.71a2.69,2.69,0,0,0,3.67,1.66c1.36-.6,2.37-2,3.3-3.45"/><path class="cls-9" d="M62.72,73.29a44.11,44.11,0,0,1,7-5.54"/><path class="cls-9" d="M77.29,57.12a23.28,23.28,0,0,1,7-1.55"/><path class="cls-9" d="M95.94,66.42a51.33,51.33,0,0,0,7.43,5.24"/><path class="cls-9" d="M91.6,85.62a25.7,25.7,0,0,1,6.28-4.06"/><path class="cls-9" d="M74.62,82.81a43.77,43.77,0,0,0,.09,11"/><path class="cls-9" d="M80.79,76l4.07-6.43"/><path class="cls-9" d="M107.48,77.49a85.87,85.87,0,0,0-5.27,12.1"/><path class="cls-9" d="M74.34,68.82a26.94,26.94,0,0,0,4.81,12.69"/><path class="cls-9" d="M90.92,63.14a62,62,0,0,1-.3,9.83"/></g></svg>