<svg xmlns="http://www.w3.org/2000/svg" viewBox="0 0 97.28 94.22"><defs><style>.cls-1{opacity:0.33;}.cls-2,.cls-6{fill:#834c20;}.cls-2{opacity:0.17;}.cls-3{fill:#1e90b3;}.cls-15,.cls-16,.cls-4{fill:none;}.cls-5{fill:#663717;}.cls-12,.cls-7{fill:#3cb9ce;}.cls-8{fill:#57d0dd;}.cls-13,.cls-9{fill:#2ca8c4;}.cls-10{fill:#d37231;}.cls-11{fill:#b75d21;}.cls-12,.cls-13,.cls-16{opacity:0.54;}.cls-14{fill:#5deded;}.cls-15,.cls-16{stroke:#000;stroke-linecap:round;stroke-linejoin:round;stroke-width:0.25px;}</style></defs><title>Prancheta 1 cópia 17ldpi</title><g id="Camada_2" data-name="Camada 2"><path class="cls-2" d="M53.42,37.58a17.41,17.41,0,0,1,10-4.14l1.82-7.93a18.45,18.45,0,0,1,6.32-.4A11.85,11.85,0,0,1,68.33,32c2.28.89,4.67,1.89,6,3.72s1.27,4.76-.88,6l2,1.62c-4.38,6.2-2.71,14-.88,21,1.23,4.68,2.71,9.72,7,12.63a22.61,22.61,0,0,1-16.39,2.73c-2.51-.57-3.52-1.85-4.73-3.86a66.27,66.27,0,0,1-8.35-21.42C50.81,48,48.08,42.28,53.42,37.58Z"/><path class="cls-3" d="M41.13,43.71c4.89,2.81,11,2,16.52,1.1l3.92-.63A11.23,11.23,0,0,0,65.49,43a3.81,3.81,0,0,0,2.06-3.32A3.71,3.71,0,0,0,65.74,37a9.25,9.25,0,0,0-3.23-1.11A49.21,49.21,0,0,0,47,35.16C43.06,35.75,34.45,39.86,41.13,43.71Z"/><path class="cls-4" d="M51.69,34.47a1.93,1.93,0,0,0,.4,1,1.9,1.9,0,0,0,1.26.39l3.64.21a68.61,68.61,0,0,0,3.93-10,1.54,1.54,0,0,0,.08-1c-.19-.5-.79-.67-1.32-.78-3-.59-6-1.6-8.93-.86C50.46,27.12,52,30.92,51.69,34.47Z"/><path class="cls-5" d="M52,35.69l3.35.46a2.24,2.24,0,0,0,1.82-.29,2,2,0,0,0,.52-.92l2.78-7.53c.45-1.22.78-2.85-.29-3.59a2.91,2.91,0,0,0-1.4-.39c-2.83-.29-7.48-1.87-8.09,1.31A86.84,86.84,0,0,0,52,35.69Z"/><path class="cls-6" d="M54,24.76c-.14-.41-.74,0-.89.42-.62,1.7-1.23,3.68-.31,5.24a1.3,1.3,0,0,0,1,.72c.68,0,1.06-.75,1.25-1.39a7.4,7.4,0,0,0,.41-3,3,3,0,0,0-1.59-2.41"/><path class="cls-7" d="M54.59,34.38a8.3,8.3,0,0,0-2.77.2,2.82,2.82,0,0,0-2,1.81A10.37,10.37,0,0,0,58,37.1c.43-.14.93-.44.88-.89a1,1,0,0,0-.43-.61,6.6,6.6,0,0,0-5-1.35"/><path class="cls-8" d="M65,39.05a25.32,25.32,0,0,0-3.15,2.29c-.46.39-.85,1.23-.3,1.46a.84.84,0,0,0,.54,0,6.42,6.42,0,0,0,4.31-4,2.45,2.45,0,0,0-2.31,1"/><path class="cls-9" d="M53.9,45c-5.13.06-10.38-2.15-15.28-.61a38.9,38.9,0,0,0,26.5,2.46c1.24-.33,2.6-.84,3.11-2S54.8,44.94,53.9,45Z"/><path class="cls-7" d="M47.81,80.25c-2.64-.26-5.26-.77-7.91-.78-.81,0-1.81.18-2,1s.74,1.57,1.59,1.91c8.3,3.33,18.26,2.18,26.53-.7,1.15-.4,4.05-1.14,2.53-2.43-1.06-.91-4.8.33-6,.48A64.29,64.29,0,0,1,47.81,80.25Z"/><path class="cls-8" d="M64.58,66.92a41.83,41.83,0,0,1,.87-14.28c.37-1.56,1.93-4.11.47-5.23-1.19-.91-5.72.59-7.12.7a39.22,39.22,0,0,1-15.54-2,51.43,51.43,0,0,0-5.72,22.37c0,1,.05,2.05,0,3.08A47.34,47.34,0,0,0,38,76.89a3.77,3.77,0,0,0,.9,2.3,3.72,3.72,0,0,0,1.72.76,60.05,60.05,0,0,0,27.74.23C67.09,80.48,64.72,68.14,64.58,66.92Z"/><path class="cls-9" d="M39.21,75.76A2.17,2.17,0,0,0,40,77.33a2.18,2.18,0,0,0,1.29.21l8.73-.3a1,1,0,0,0,.71-.21,1,1,0,0,0,.16-.74,59.26,59.26,0,0,1,1.38-16.15c.41-1.81.9-3.7.46-5.51-2.76.76-5.69.4-8.53,0-2.44-.32-2.82-1.24-4,1-1,1.81-1.05,4.82-1.28,6.84A48.57,48.57,0,0,0,39.21,75.76Z"/><path class="cls-10" d="M44,66.5a48.33,48.33,0,0,0-5.12-4L40.63,60a12.86,12.86,0,0,1,3.16,4.12c.47-1.62,1-3.23,1.39-4.87-2.47,3.26-3.44-1.79-4.48-3-.2-.24-.57,0-.74.31l-2.28,3.59c0,1.36-.12,2.72-.22,4.08a28.38,28.38,0,0,0,4.1,2.69l-.68,6.79a16.51,16.51,0,0,1-3.33-5c0,.85,0,1.7,0,2.56,1.31,1.6,2.69,3.15,4.15,4.61a41.54,41.54,0,0,1,2.49-8.23,1,1,0,0,0,.12-.74A1,1,0,0,0,44,66.5Z"/><path class="cls-11" d="M40.68,60.16a2.64,2.64,0,0,1-.15.29,2.5,2.5,0,0,1,.22-.24C40.81,60.16,40.7,60.09,40.68,60.16Z"/><path class="cls-11" d="M40.78,60.44l0,0Z"/><path class="cls-11" d="M41.12,60.14l-.13.11v0s0,0,0,0a3.14,3.14,0,0,0-1.27.52A3.39,3.39,0,0,0,38.62,62c-.38.78.8,1.3,1.29.67a6.17,6.17,0,0,0,.66-1.21,5.36,5.36,0,0,0,.26-.54,5.09,5.09,0,0,0,.14-.56.93.93,0,0,1,.19-.11C41.25,60.19,41.17,60.07,41.12,60.14Z"/><path class="cls-11" d="M41.14,73.84a9.23,9.23,0,0,0-.66-1.29c-.71-1.85-2.16-3.48-3-5.26,0,.06,0,.13,0,.2a17.17,17.17,0,0,1,.84,1.84,7.15,7.15,0,0,1-.82-1.51c0,.14,0,.28,0,.42s.16.4.23.61a14.88,14.88,0,0,0,.88,3.26,4.85,4.85,0,0,0,2.22,2.68.16.16,0,0,0,.21-.14A3.51,3.51,0,0,0,41,74,.11.11,0,0,0,41.14,73.84Z"/><path class="cls-11" d="M44.72,67.37s0-.05-.07,0l-.39.49c.07-.24.14-.49.22-.72,0-.06-.07-.09-.09,0a8.3,8.3,0,0,1-.29,1c-1,1.33-2.2,3.28-1.92,4.82a6.91,6.91,0,0,0-.6,2.74.26.26,0,0,0,.47.17,7.14,7.14,0,0,0,1.1-2.44A5.45,5.45,0,0,0,44,70.86C44.27,69.7,44.48,68.54,44.72,67.37Z"/><path class="cls-11" d="M45.25,59.56s-.06,0-.07,0a.14.14,0,0,0,0,.06l-.08.09s0,0,0,0A9.76,9.76,0,0,0,43.47,63a.56.56,0,0,0,.13.57c0,.05,0,.1,0,.16a.11.11,0,0,0,.17.06.46.46,0,0,0,.07-.07l.09,0a.55.55,0,0,0,.49-.24,9.82,9.82,0,0,0,1.14-3.78A.2.2,0,0,0,45.25,59.56Z"/><path class="cls-11" d="M42.79,58.19a8.2,8.2,0,0,1-1.61-2s0,0,0,0a7.12,7.12,0,0,0,.71,2.72c.4.63,1.09,1.55,1.94,1.4A.28.28,0,0,0,44,60C44,59.25,43.22,58.68,42.79,58.19Z"/><path class="cls-7" d="M60.37,54.17a4.88,4.88,0,0,0-.59,2.45L59,67.89a56.4,56.4,0,0,1-.57,5.67,7.87,7.87,0,0,0-.18,2.21,2.23,2.23,0,0,0,1.16,1.78,2.19,2.19,0,0,0,2.56-1,6.29,6.29,0,0,0,.74-2.85,122.76,122.76,0,0,0,.72-12.41C63.45,60.2,63.24,49.79,60.37,54.17Z"/><path class="cls-12" d="M41.71,25.64a5.32,5.32,0,0,0,4.72-6.32A5.31,5.31,0,0,0,39.28,16c-.1-2.73-.66-6.08-3.25-6.92-2.37-.76-4.72,1.24-6.13,3.3a10.12,10.12,0,0,0-8.06-3.14,7.31,7.31,0,0,0-6.35,5.44c-.6,2.92,1.41,6.25,4.36,6.7a5.43,5.43,0,0,0-4.72,3.53c-.58,2,.86,4.5,2.95,4.56-1.23,1-2.54,2.16-2.78,3.73-.3,1.93,1.19,3.72,2.89,4.7a10.09,10.09,0,0,0,9.64.18c1.17,4.41-2.36,9.37-.32,13.44a56.08,56.08,0,0,0,1.95-12.69,1.65,1.65,0,0,1,1.26,1.82,1.81,1.81,0,0,0,.94-2.19c1.7,1.55,5,.09,5-2.21a4.41,4.41,0,0,0,6.17-5.86c-.28-.5-.62-1.2-.17-1.55a1.15,1.15,0,0,1,.48-.17c3-.56,6.14-1,9.16-1.73-1.62-.26-3.3-.17-4.94-.34S43.22,25.39,41.71,25.64Z"/><path class="cls-13" d="M29.59,15.79a2.09,2.09,0,0,0,.54.45,1.81,1.81,0,0,0,1.21-.06,6.87,6.87,0,0,1,5.29.81c.74.45,1.46,1.28,1.16,2.1s-1.26,1-2.08,1c-4.11-.18-7.33-3.6-11.26-4.81.08,1-.94,1.21-1.57.84C23.55,13.27,28.12,14.26,29.59,15.79Z"/><path class="cls-13" d="M23.84,30.79c1.65-.76,3-2.33,4.85-2.32a3,3,0,0,1,1.4,5.59,1.37,1.37,0,0,1-1.19.15c-1-.44-.49-2.16-1.3-2.89-1-.85-2.45.48-3.71.21a.88.88,0,0,1,.51-.64"/><path class="cls-14" d="M66.14,80.54a.4.4,0,0,0,.06.8A.4.4,0,0,0,66.14,80.54Z"/><path class="cls-14" d="M65.4,81c-.34-.38-1,0-.83.49v0a.32.32,0,0,0,.33.28.61.61,0,0,0,.5-.16A.5.5,0,0,0,65.4,81Z"/><path class="cls-14" d="M65.52,74.68c-.17-1.07-.46-2.1-.65-3.16a.11.11,0,1,0-.21,0,13.39,13.39,0,0,0,.18,3.29c.27,1.22.94,2.27,1.23,3.47,0,.06.12,0,.09,0A15.36,15.36,0,0,1,65.52,74.68Z"/><path class="cls-14" d="M65.12,47.76a14.86,14.86,0,0,0-.91,3.05A9.26,9.26,0,0,0,64.4,54c0,.15.27.19.28,0a42.65,42.65,0,0,1,1-6.06C65.83,47.61,65.25,47.41,65.12,47.76Z"/><path class="cls-14" d="M66.13,44.28c-.07,0-.06.11,0,.1S66.19,44.28,66.13,44.28Z"/><path class="cls-14" d="M67.61,44.92A1.12,1.12,0,0,0,66,44.64c-.21.19-.06.63.25.48s.31.29.24.48a6,6,0,0,1-.48.75c-.45.71.67,1.36,1.2.78A1.78,1.78,0,0,0,67.61,44.92Z"/><path class="cls-14" d="M63.82,36.85a5.31,5.31,0,0,1,1.07.14A2.15,2.15,0,0,0,63.82,36.85Z"/><path class="cls-14" d="M67.19,38.58A3.28,3.28,0,0,0,64.89,37a2.69,2.69,0,0,1,1.71,2.25A12.85,12.85,0,0,1,66.06,42a.25.25,0,0,0,.33.27C67.88,41.73,67.84,39.73,67.19,38.58Z"/><path class="cls-14" d="M63.39,36.93a1.63,1.63,0,0,1,.43-.08l-.45,0C63.3,36.83,63.32,37,63.39,36.93Z"/><path class="cls-14" d="M43.18,43.42a11.16,11.16,0,0,1-3-2.43c0-.05-.13,0-.09,0a11.49,11.49,0,0,0,3,2.47S43.24,43.45,43.18,43.42Z"/><path class="cls-14" d="M43.16,48.13c-.77,1.62-1.55,3.23-2.32,4.85,0,.06.07.1.09,0,.77-1.61,1.55-3.23,2.32-4.85C43.27,48.11,43.18,48.07,43.16,48.13Z"/><path class="cls-14" d="M39.08,80.05c.06,0,0-.11-.06-.09a1.13,1.13,0,0,0,.12,2c.06,0,.1-.07,0-.09A1,1,0,0,1,39.08,80.05Z"/><path class="cls-14" d="M65.32,44.68a.55.55,0,0,0,.09,1.1A.55.55,0,0,0,65.32,44.68Z"/><path class="cls-14" d="M62,36.28a.18.18,0,0,0,0,.36s0,0,.05,0,0,0,0,0A.19.19,0,0,0,62,36.28Z"/><path class="cls-14" d="M61,36.72a.43.43,0,0,0-.05-.16s0,0,0,0a.61.61,0,0,0-.07-.1.45.45,0,0,0-.57,0,.43.43,0,0,0,.53.67l-.11,0a.25.25,0,0,0,.28-.31A.5.5,0,0,0,61,36.72Z"/><path class="cls-14" d="M60.3,26.2a20.3,20.3,0,0,0-2.75,7.92.11.11,0,0,0,.21,0,59.76,59.76,0,0,1,2.57-7.94S60.31,26.19,60.3,26.2Z"/></g><g id="Camada_3" data-name="Camada 3"><path class="cls-15" d="M54.05,27.59a1.16,1.16,0,0,0,.77,1.83l.53-1.78"/><path class="cls-15" d="M59.82,25.3l-3.6,7.9A41,41,0,0,0,60,25.62"/><path class="cls-15" d="M52.25,54.44c-4.46.55-9.11,1.09-13.33-.44"/><path class="cls-15" d="M52.2,54.71a147.18,147.18,0,0,0-2,20.64"/><path class="cls-15" d="M38.23,75.73a7.74,7.74,0,0,0,4.31,1l7.63.19"/><path class="cls-16" d="M26.25,39.63a1.1,1.1,0,0,1,1.16-.37c.67,1.8.21,3.81-.16,5.7a54.6,54.6,0,0,0-.9,7.43c0,.51,0,1.16.53,1.32C28.55,49.55,28,44.85,29,40.49c.12-.5.42-1.12.93-1.05l0,1.71a1.55,1.55,0,0,0,1-1.85"/><path class="cls-16" d="M36.18,30.72A12.3,12.3,0,0,0,36.05,34c.66,0,1-.79,1.07-1.43s.46-1.46,1.11-1.39"/><path class="cls-16" d="M21.16,32.81l0,2.22c0,.34.05.75.35.9.49.25.92-.44,1.05-1l.56-2.23"/><path class="cls-15" d="M57.07,34.8a6.81,6.81,0,0,0-7.16,2,8.86,8.86,0,0,0,9.48.33,4.15,4.15,0,0,0-3.84-2.44"/><path class="cls-15" d="M49.22,34.89a14.37,14.37,0,0,0-11,5c.11,2.52,2.79,4.07,5.2,4.83a30.76,30.76,0,0,0,23.07-2A3.76,3.76,0,0,0,68,41.47C69,40,67.6,38,66,37.11A9.5,9.5,0,0,0,59.84,36"/><path class="cls-15" d="M52.49,36.1Q51.4,30,50.31,23.87a24.6,24.6,0,0,1,9.17.28c.57.13,1.22.34,1.43.89a1.91,1.91,0,0,1-.11,1.24q-1.65,4.89-3.68,9.64a6.74,6.74,0,0,1-4.21-.19"/><path class="cls-15" d="M55.16,27.9a3.22,3.22,0,0,0-1.59-3.23,4.8,4.8,0,0,0,.51,7,3.6,3.6,0,0,0,1.23-4.84"/><path class="cls-15" d="M44.86,47c7.25,1.6,14.94,2.6,22,.31,1.34-.43,2.93-1.66,2.27-2.91-.42-.78-1.49-.9-2.38-.88-3.84.09-7.61,1-11.44,1.37s-14-2.73-16.21-.38A12.1,12.1,0,0,0,44.86,47Z"/><path class="cls-15" d="M66.37,48.06a61.59,61.59,0,0,0,1.35,32.35"/><path class="cls-15" d="M42.87,47.17a38.83,38.83,0,0,0-3.53,32.46"/><path class="cls-15" d="M70.08,78.81c-.3,2.32-3,3.44-5.22,4-8.39,2.2-17.58,3.29-25.52-.2a3.94,3.94,0,0,1-2.16-1.73c-1.54-3.34,11.77-.2,13.8-.09A60.63,60.63,0,0,0,70.08,78.81Z"/><path class="cls-15" d="M60.5,53.11,58.84,78c.69,1.5,3.12,1.28,4.14,0s1-3.1,1-4.76c-.12-6.78.56-14.23-.6-20.89C62.82,52.24,60.85,52.34,60.5,53.11Z"/><path class="cls-15" d="M64.68,39.17a8.4,8.4,0,0,0-5.23,4.13,5.12,5.12,0,0,0,6-4.16"/><path class="cls-16" d="M55.27,27.23a87.51,87.51,0,0,1-17.14-2"/><path class="cls-15" d="M55.91,27.93,42,28.73l1.14.4"/><path class="cls-16" d="M45.27,24.45a6.44,6.44,0,0,0-.06-6.68c-1.36-1.91-4.49-2.49-6.12-.8"/><path class="cls-16" d="M40.72,16.15c1.18-2.56-.64-5.83-3.31-6.73a7.78,7.78,0,0,0-7.72,2.23"/><path class="cls-16" d="M27.38,10.21a9.42,9.42,0,0,0-9.56,1"/><path class="cls-16" d="M16.4,14.43c-1.78,1.29-1.59,4.24,0,5.82s3.9,2,6.1,1.95"/><path class="cls-16" d="M18.76,21.44A4.73,4.73,0,0,0,13.93,26a4.73,4.73,0,0,0,4.76,4.57"/><path class="cls-16" d="M14.56,33.75a8.61,8.61,0,0,0,13,5.31"/><path class="cls-16" d="M28.88,38.74a6.29,6.29,0,0,0,8-1.54"/><path class="cls-16" d="M37.29,37.33a4.61,4.61,0,0,0,4.61-7.95"/><path class="cls-16" d="M32.88,24.48a1.4,1.4,0,0,0,1.06,2"/><path class="cls-16" d="M23.24,14.94a4.58,4.58,0,0,1,5.62,0"/><path class="cls-16" d="M25.47,29.5a6.83,6.83,0,0,1,4-.9c1.38.27,2.57,1.82,1.93,3.07"/><path class="cls-16" d="M32.74,16.68a8.3,8.3,0,0,1,5.32.78"/><path class="cls-16" d="M27.44,22.76A3.5,3.5,0,0,0,23.65,26"/></g></svg>