<svg xmlns="http://www.w3.org/2000/svg" viewBox="0 0 165.42 212.79"><defs><style>.cls-1{opacity:0.33;}.cls-2,.cls-4{fill:#834c20;}.cls-3{fill:#fff;}.cls-4{opacity:0.17;}.cls-5{fill:#1e90b3;}.cls-16,.cls-17,.cls-6{fill:none;}.cls-7{fill:#663717;}.cls-13,.cls-8{fill:#3cb9ce;}.cls-9{fill:#57d0dd;}.cls-10,.cls-14{fill:#2ca8c4;}.cls-11{fill:#d37231;}.cls-12{fill:#b75d21;}.cls-13,.cls-14,.cls-17{opacity:0.54;}.cls-15{fill:#5deded;}.cls-16,.cls-17{stroke:#000;stroke-linecap:round;stroke-linejoin:round;stroke-width:0.25px;}</style></defs><title>come cabo verde 7</title><g id="Camada_4" data-name="Camada 4"><path class="cls-2" d="M77.42,41.49c-23.71,0-44.69,21.7-39.42,46.4,4.66,21.84,36.45,81.55,36.45,81.55a3.31,3.31,0,0,0,6,0s32-60.08,36.71-82.06C122.38,62.69,101.15,41.49,77.42,41.49Z"/><circle class="cls-3" cx="78.06" cy="83.6" r="26.45"/><path class="cls-4" d="M81.5,72.32a14.61,14.61,0,0,1,8.43-3.48l1.53-6.67a15.39,15.39,0,0,1,5.32-.34A10.06,10.06,0,0,1,94,67.62c1.92.75,3.92,1.59,5.09,3.13a3.47,3.47,0,0,1-.74,5.07L100,77.18c-3.69,5.22-2.28,11.8-.75,17.63,1,3.94,2.29,8.18,5.87,10.62a19,19,0,0,1-13.78,2.3c-2.12-.48-3-1.55-4-3.24a56,56,0,0,1-7-18C79.3,81.11,77,76.27,81.5,72.32Z"/><path class="cls-5" d="M71.16,77.47c4.11,2.37,9.22,1.68,13.9.93l3.29-.53a9.32,9.32,0,0,0,3.3-1,3.2,3.2,0,0,0,1.73-2.79,3.11,3.11,0,0,0-1.52-2.33,7.81,7.81,0,0,0-2.71-.94,41.41,41.41,0,0,0-13.05-.56C72.78,70.78,65.53,74.24,71.16,77.47Z"/><path class="cls-6" d="M80,69.71a1.51,1.51,0,0,0,.34.83,1.56,1.56,0,0,0,1.06.33l3.06.18a57.65,57.65,0,0,0,3.3-8.4,1.29,1.29,0,0,0,.07-.84c-.16-.42-.67-.57-1.1-.65-2.49-.51-5-1.35-7.52-.73C79,63.52,80.29,66.71,80,69.71Z"/><path class="cls-7" d="M80.26,70.73l2.82.38a1.9,1.9,0,0,0,1.54-.24,2,2,0,0,0,.44-.77l2.33-6.33c.38-1,.66-2.41-.24-3A2.51,2.51,0,0,0,86,60.41c-2.39-.24-6.3-1.57-6.81,1.11A73.58,73.58,0,0,0,80.26,70.73Z"/><path class="cls-2" d="M82,61.53c-.12-.34-.62,0-.75.36-.53,1.43-1,3.09-.26,4.41a1.06,1.06,0,0,0,.81.6c.56,0,.89-.63,1-1.17a6.11,6.11,0,0,0,.34-2.5,2.48,2.48,0,0,0-1.34-2"/><path class="cls-8" d="M82.48,69.63a7,7,0,0,0-2.33.17,2.37,2.37,0,0,0-1.64,1.52,8.74,8.74,0,0,0,6.83.6c.36-.12.78-.37.74-.75a.86.86,0,0,0-.37-.51,5.59,5.59,0,0,0-4.19-1.15"/><path class="cls-9" d="M91.27,73.56a20.78,20.78,0,0,0-2.65,1.92c-.39.33-.72,1-.25,1.23a.73.73,0,0,0,.46,0,5.43,5.43,0,0,0,3.62-3.36,2.07,2.07,0,0,0-2,.83"/><path class="cls-10" d="M81.9,78.52c-4.32,0-8.73-1.81-12.86-.51a32.87,32.87,0,0,0,22.3,2.07A3.68,3.68,0,0,0,94,78.38C94.44,77.25,82.65,78.51,81.9,78.52Z"/><path class="cls-8" d="M76.77,108.21c-2.22-.21-4.42-.64-6.65-.65-.68,0-1.52.16-1.71.81s.63,1.32,1.34,1.61c7,2.79,15.36,1.83,22.32-.59,1-.34,3.41-1,2.13-2-.89-.76-4,.28-5,.41A54.18,54.18,0,0,1,76.77,108.21Z"/><path class="cls-9" d="M90.89,97a35.17,35.17,0,0,1,.72-12c.32-1.31,1.63-3.46.4-4.4-1-.76-4.81.5-6,.59A33.12,33.12,0,0,1,73,79.51a43.13,43.13,0,0,0-4.81,18.82c0,.86,0,1.72,0,2.59a44.68,44.68,0,0,0,.39,4.47A2.43,2.43,0,0,0,70.75,108a50.57,50.57,0,0,0,23.34.19C93,108.41,91,98,90.89,97Z"/><path class="cls-10" d="M69.54,104.44a1.82,1.82,0,0,0,.62,1.32,1.93,1.93,0,0,0,1.09.18l7.35-.25a.85.85,0,0,0,.59-.18.84.84,0,0,0,.14-.62A50,50,0,0,1,80.48,91.3a10,10,0,0,0,.39-4.63,18.4,18.4,0,0,1-7.17,0c-2.06-.27-2.37-1-3.35.81-.81,1.52-.88,4-1.07,5.75A40.72,40.72,0,0,0,69.54,104.44Z"/><path class="cls-11" d="M73.57,96.65a41.36,41.36,0,0,0-4.31-3.38l1.48-2.08a10.87,10.87,0,0,1,2.66,3.47c.39-1.36.82-2.72,1.16-4.1-2.07,2.74-2.89-1.5-3.77-2.53-.17-.21-.48,0-.62.26l-1.92,3c0,1.15-.1,2.29-.18,3.43A24.74,24.74,0,0,0,71.52,97l-.57,5.7a14,14,0,0,1-2.81-4.2c0,.71,0,1.43,0,2.15,1.11,1.35,2.26,2.65,3.49,3.88a35,35,0,0,1,2.1-6.92.67.67,0,0,0-.17-1Z"/><path class="cls-12" d="M70.77,91.32c0,.08-.08.16-.12.24a1.8,1.8,0,0,1,.19-.2S70.8,91.26,70.77,91.32Z"/><path class="cls-12" d="M70.86,91.55l0,0Z"/><path class="cls-12" d="M71.14,91.3a.81.81,0,0,1-.1.09v0s0,0,0,0a2.69,2.69,0,0,0-1.08.44,2.94,2.94,0,0,0-.9,1c-.31.66.68,1.09,1.09.57a6.75,6.75,0,0,0,.56-1c.07-.16.15-.3.21-.46a3.59,3.59,0,0,0,.12-.47,1.29,1.29,0,0,1,.16-.09C71.25,91.34,71.19,91.24,71.14,91.3Z"/><path class="cls-12" d="M71.16,102.83a7.42,7.42,0,0,0-.55-1.09c-.6-1.56-1.82-2.92-2.52-4.43,0,.06,0,.11,0,.17A14.63,14.63,0,0,1,68.81,99a5.61,5.61,0,0,1-.69-1.27c0,.12,0,.24,0,.36s.13.33.19.5a12.88,12.88,0,0,0,.74,2.75,4,4,0,0,0,1.87,2.25.13.13,0,0,0,.17-.11,2.54,2.54,0,0,0,0-.56A.09.09,0,0,0,71.16,102.83Z"/><path class="cls-12" d="M74.18,97.39s-.05,0-.06,0-.22.27-.33.42a5.44,5.44,0,0,1,.19-.61s-.07-.08-.08,0a7.71,7.71,0,0,1-.24.82c-.84,1.11-1.86,2.75-1.62,4.05a5.94,5.94,0,0,0-.51,2.3.22.22,0,0,0,.4.15,6.18,6.18,0,0,0,.93-2,4.62,4.62,0,0,0,.72-2.09C73.79,99.34,74,98.36,74.18,97.39Z"/><path class="cls-12" d="M74.62,90.81s-.05,0-.06,0,0,0,0,.05l-.07.08s0,0,0,0a8.3,8.3,0,0,0-1.35,2.73.51.51,0,0,0,.11.48s0,.09,0,.14a.09.09,0,0,0,.15,0l.06-.06h.07a.43.43,0,0,0,.41-.19,8.27,8.27,0,0,0,1-3.19A.16.16,0,0,0,74.62,90.81Z"/><path class="cls-12" d="M72.55,89.66a6.85,6.85,0,0,1-1.35-1.73s0,0,0,0a6,6,0,0,0,.6,2.29c.34.53.92,1.3,1.63,1.18a.24.24,0,0,0,.18-.27C73.56,90.55,72.92,90.07,72.55,89.66Z"/><path class="cls-8" d="M87.34,86.28a4.11,4.11,0,0,0-.49,2l-.63,9.49c-.11,1.6-.22,3.2-.48,4.77a6.5,6.5,0,0,0-.15,1.86,1.63,1.63,0,0,0,3.12.66,5.36,5.36,0,0,0,.63-2.4,101.33,101.33,0,0,0,.6-10.44C89.94,91.35,89.76,82.59,87.34,86.28Z"/><path class="cls-13" d="M71.64,62.28a4.28,4.28,0,1,0-2-8.13c-.09-2.29-.55-5.11-2.73-5.82-2-.64-4,1.05-5.16,2.78a8.53,8.53,0,0,0-6.78-2.64A6.16,6.16,0,0,0,49.58,53a4.84,4.84,0,0,0,3.67,5.64,4.57,4.57,0,0,0-4,3c-.49,1.69.73,3.79,2.48,3.84-1,.84-2.14,1.81-2.34,3.13-.25,1.63,1,3.14,2.43,4a8.52,8.52,0,0,0,8.11.16c1,3.7-2,7.87-.27,11.3a47,47,0,0,0,1.65-10.68,1.4,1.4,0,0,1,1.06,1.53,1.52,1.52,0,0,0,.79-1.84,2.65,2.65,0,0,0,4.2-1.86,3.7,3.7,0,0,0,5.18-4.93c-.22-.42-.51-1-.13-1.3a.8.8,0,0,1,.4-.14c2.56-.48,5.16-.87,7.7-1.46-1.36-.22-2.77-.15-4.15-.29S72.92,62.06,71.64,62.28Z"/><path class="cls-14" d="M61.45,54a1.67,1.67,0,0,0,.45.39,1.57,1.57,0,0,0,1-.06,5.84,5.84,0,0,1,4.45.68c.62.39,1.23,1.09,1,1.78s-1.06.83-1.75.8c-3.46-.15-6.17-3-9.48-4,.07.89-.79,1-1.32.71C56.36,51.87,60.21,52.7,61.45,54Z"/><path class="cls-14" d="M56.61,66.61c1.39-.65,2.55-2,4.08-2a2.5,2.5,0,0,1,1.17,4.7,1.15,1.15,0,0,1-1,.13c-.84-.38-.4-1.82-1.09-2.43s-2.06.4-3.11.17a.72.72,0,0,1,.42-.54"/><path class="cls-15" d="M92.2,108.46a.34.34,0,0,0,0,.68A.34.34,0,0,0,92.2,108.46Z"/><path class="cls-15" d="M91.57,108.88a.41.41,0,0,0-.69.42v0a.25.25,0,0,0,.27.23c.16,0,.3,0,.42-.13A.41.41,0,0,0,91.57,108.88Z"/><path class="cls-15" d="M91.68,103.53c-.15-.9-.39-1.77-.55-2.66a.09.09,0,0,0-.18,0,11.16,11.16,0,0,0,.16,2.77c.22,1,.79,1.91,1,2.92,0,.05.1,0,.08,0A12.68,12.68,0,0,1,91.68,103.53Z"/><path class="cls-15" d="M91.34,80.88a13.57,13.57,0,0,0-.77,2.57,7.79,7.79,0,0,0,.16,2.68c0,.13.23.16.24,0a33.67,33.67,0,0,1,.89-5.09C91.94,80.76,91.45,80.59,91.34,80.88Z"/><path class="cls-15" d="M92.19,78c-.06,0,0,.09,0,.08S92.24,78,92.19,78Z"/><path class="cls-15" d="M93.44,78.49a1,1,0,0,0-1.33-.23c-.17.16,0,.53.21.41s.27.24.2.39a4.21,4.21,0,0,1-.39.64c-.39.6.56,1.14,1,.66A1.52,1.52,0,0,0,93.44,78.49Z"/><path class="cls-15" d="M90.25,71.7a5.27,5.27,0,0,1,.9.12A1.84,1.84,0,0,0,90.25,71.7Z"/><path class="cls-15" d="M93.08,73.16a2.78,2.78,0,0,0-1.93-1.34,2.3,2.3,0,0,1,1.44,1.9A11.25,11.25,0,0,1,92.13,76a.2.2,0,0,0,.27.23C93.66,75.81,93.63,74.13,93.08,73.16Z"/><path class="cls-15" d="M89.88,71.77a2.66,2.66,0,0,1,.37-.07h-.38C89.81,71.69,89.82,71.79,89.88,71.77Z"/><path class="cls-15" d="M72.88,77.23a9.38,9.38,0,0,1-2.52-2s-.1,0-.07,0a9.82,9.82,0,0,0,2.55,2.08S72.93,77.26,72.88,77.23Z"/><path class="cls-15" d="M72.86,81.19l-2,4.09s.06.08.08,0l2-4.08S72.88,81.15,72.86,81.19Z"/><path class="cls-15" d="M69.43,108.05s0-.1-.05-.07a1,1,0,0,0,.1,1.67s.09-.06,0-.08A.86.86,0,0,1,69.43,108.05Z"/><path class="cls-15" d="M91.51,78.29a.47.47,0,0,0,.07.93A.47.47,0,0,0,91.51,78.29Z"/><path class="cls-15" d="M88.7,71.22a.16.16,0,0,0,0,.31s0,0,0,0a0,0,0,0,0,0,0A.16.16,0,0,0,88.7,71.22Z"/><path class="cls-15" d="M87.83,71.59a.65.65,0,0,0,0-.13s0,0,0,0a.27.27,0,0,0-.07-.08.34.34,0,0,0-.47,0,.36.36,0,0,0,.44.56l-.09,0a.2.2,0,0,0,.23-.25A.43.43,0,0,0,87.83,71.59Z"/><path class="cls-15" d="M87.29,62.75A17.1,17.1,0,0,0,85,69.41a.09.09,0,0,0,.17,0,52.06,52.06,0,0,1,2.17-6.68S87.3,62.73,87.29,62.75Z"/><path class="cls-16" d="M82,63.91a1,1,0,0,0,.66,1.54L83.12,64"/><path class="cls-16" d="M86.88,62l-3,6.66a34.7,34.7,0,0,0,3.2-6.39"/><path class="cls-16" d="M80.51,86.51c-3.75.46-7.66.91-11.21-.38"/><path class="cls-16" d="M80.47,86.73a126.43,126.43,0,0,0-1.69,17.36"/><path class="cls-16" d="M68.72,104.41a6.49,6.49,0,0,0,3.62.81l6.42.15"/><path class="cls-17" d="M58.64,74a.94.94,0,0,1,1-.31c.57,1.52.18,3.21-.13,4.8a45.2,45.2,0,0,0-.76,6.25c0,.43,0,1,.44,1.11,1.41-3.5,1-7.45,1.83-11.12.09-.43.35-.94.78-.89l0,1.44a1.31,1.31,0,0,0,.83-1.56"/><path class="cls-17" d="M67,66.55a10.48,10.48,0,0,0-.11,2.74c.55,0,.8-.67.9-1.21s.39-1.22.94-1.16"/><path class="cls-17" d="M54.36,68.3l0,1.88c0,.28,0,.62.3.75.42.21.78-.37.89-.82L56,68.23"/><path class="cls-16" d="M84.57,70a5.75,5.75,0,0,0-6,1.65,7.42,7.42,0,0,0,8,.27,3.5,3.5,0,0,0-3.23-2.05"/><path class="cls-16" d="M78,70.06a12,12,0,0,0-9.27,4.18c.1,2.13,2.35,3.43,4.37,4.07a25.89,25.89,0,0,0,19.42-1.68,3.23,3.23,0,0,0,1.32-1c.8-1.28-.37-2.93-1.69-3.67A8,8,0,0,0,86.9,71"/><path class="cls-16" d="M80.71,71.07,78.88,60.78A20.89,20.89,0,0,1,86.6,61c.48.11,1,.29,1.2.75a1.51,1.51,0,0,1-.1,1q-1.38,4.11-3.09,8.12a5.64,5.64,0,0,1-3.54-.17"/><path class="cls-16" d="M83,64.18a2.72,2.72,0,0,0-1.34-2.72,4,4,0,0,0,.43,5.87,3,3,0,0,0,1-4.08"/><path class="cls-16" d="M74.3,80.26c6.09,1.34,12.56,2.19,18.5.26,1.13-.36,2.46-1.4,1.9-2.44-.35-.67-1.25-.77-2-.75-3.23.08-6.4.87-9.62,1.16s-11.81-2.3-13.64-.33A10.1,10.1,0,0,0,74.3,80.26Z"/><path class="cls-16" d="M92.39,81.13a51.81,51.81,0,0,0,1.14,27.23"/><path class="cls-16" d="M72.62,80.39a32.64,32.64,0,0,0-3,27.3"/><path class="cls-16" d="M95.51,107c-.25,2-2.49,2.9-4.39,3.4-7.06,1.85-14.79,2.77-21.47-.17a3.29,3.29,0,0,1-1.82-1.46c-1.29-2.8,9.91-.16,11.61-.07A51,51,0,0,0,95.51,107Z"/><path class="cls-16" d="M87.45,85.39l-1.4,21c.58,1.27,2.63,1.07,3.49,0a6.23,6.23,0,0,0,.84-4c-.1-5.71.47-12-.5-17.57C89.41,84.65,87.75,84.73,87.45,85.39Z"/><path class="cls-16" d="M91,73.66a7,7,0,0,0-4.4,3.47,4.3,4.3,0,0,0,5-3.5"/><path class="cls-17" d="M83.05,63.61A73.57,73.57,0,0,1,68.64,61.9"/><path class="cls-16" d="M83.59,64.2l-11.74.68,1,.33"/><path class="cls-17" d="M74.64,61.28a5.44,5.44,0,0,0,0-5.63C73.44,54,70.81,53.56,69.44,55"/><path class="cls-17" d="M70.81,54.29c1-2.15-.54-4.91-2.79-5.66a6.54,6.54,0,0,0-6.49,1.87"/><path class="cls-17" d="M50.35,52.84c-1.5,1.09-1.33,3.57-.05,4.9a6.77,6.77,0,0,0,5.14,1.64"/><path class="cls-17" d="M52.33,58.74a3.83,3.83,0,1,0,0,7.64"/><path class="cls-17" d="M48.8,69.1a7.25,7.25,0,0,0,11,4.46"/><path class="cls-17" d="M60.85,73.29A5.28,5.28,0,0,0,67.6,72"/><path class="cls-17" d="M67.93,72.11a3.88,3.88,0,0,0,3.87-6.69"/><path class="cls-17" d="M64.22,61.3A1.18,1.18,0,0,0,65.11,63"/><path class="cls-17" d="M58,65.52a5.8,5.8,0,0,1,3.39-.76c1.16.23,2.17,1.54,1.63,2.59"/><path class="cls-17" d="M64.1,54.73a7.09,7.09,0,0,1,4.48.66"/><path class="cls-17" d="M59.64,59.85a2.94,2.94,0,0,0-3.19,2.75"/></g></svg>