<svg xmlns="http://www.w3.org/2000/svg" viewBox="0 0 97.28 94.22"><defs><style>.cls-1{opacity:0.33;}.cls-2{fill:#2ca8c4;}.cls-3{fill:#fff;}.cls-4{fill:#1e90b3;}.cls-5{fill:#57d0dd;}.cls-6{fill:#834c20;}.cls-7{fill:#663717;}.cls-8{fill:none;stroke:#000;stroke-linecap:round;stroke-linejoin:round;stroke-width:0.25px;}</style></defs><title>come cabo verde</title><g id="Camada_2" data-name="Camada 2"><path class="cls-2" d="M57.24,37.92c-3.4-1.56-6.6-3.58-10.16-4.74s-7.68-1.35-10.84.65c-3.74,2.37-5.14,7-7,11a39.19,39.19,0,0,1-10,13.38c-1.16,1-2.5,2.23-2.29,3.75a2.64,2.64,0,0,0,2.73,2.08,4,4,0,0,0,3.08-1.9A3.42,3.42,0,0,0,21.6,65.6,10,10,0,0,0,23.22,69a7.67,7.67,0,0,0,2.35,2.67,5.83,5.83,0,0,0,2.69.71c4.43.27,9.17-.52,13.53-1.31,2.75-.5,5-1.83,7.76-2.21A28.21,28.21,0,0,0,72.29,49.27c1-3.53-1-9.06-3.09-9.05A26.75,26.75,0,0,1,57.24,37.92Z"/><path class="cls-3" d="M35.91,45.9a1.79,1.79,0,0,1,1.32-1,1,1,0,0,1,1,.92c0,.46,0-.05,0,.46,0,2.52-4.56,6.62-7.48,8A79.84,79.84,0,0,1,35.91,45.9Z"/><path class="cls-4" d="M55.85,9.57c2.51-5.18,6.86,13,9.66,20.63,1.08,2.94,2.52,5.73,3.8,8.59.21.48.36,1.18-.11,1.43a1,1,0,0,1-.59.07,47.66,47.66,0,0,1-9.39-1.67,1.34,1.34,0,0,1-.87-.51,1.39,1.39,0,0,1-.08-.88l1.36-10.15c.67-4.95,1.29-10.21-.8-14.75-.19-.41-.45-.86-.89-1-.77-.18-1.31.71-1.59,1.44-2,5.32-5.18,13.64-10.45,16.44C49.88,22.3,53.33,14.76,55.85,9.57Z"/><path class="cls-5" d="M44.31,31.86a54.42,54.42,0,0,1,14,6.25c2.52-3.91,1.67-9.28,2.27-13.89C61,21.62,62,13,58.9,11.49c-2.65-1.3-5.21,6.51-6.31,8.4C51.84,21.18,45.57,32.2,44.31,31.86Z"/><path class="cls-5" d="M19.35,59.18c-.88.8-1.65,2.1-1,3.11a2.91,2.91,0,0,0,1.36,1,3.81,3.81,0,0,0,1.37.45,1.25,1.25,0,0,0,1.21-.63,6.65,6.65,0,0,0,.19-1c.29-1.14,2-1.71,1.85-2.88a4,4,0,0,0-5.84.57"/><path class="cls-6" d="M40.51,70.22c-4.38-.09-8.85-1-13.07.15-.57.16-1.23.51-1.19,1.09,0,.27.21.51.19.78-.07.75-1.56.91-1.34,1.63.87,1,3.31,0,3.57,1.37s-2.39,1.34-2.78,2.65c.37.81,1.74.47,2.34,1.13s-.24,2-.54,3c-.43,1.47.75,3,2.19,3.55a8.07,8.07,0,0,0,4.54-.1A48.53,48.53,0,0,0,55.05,74.6,67.2,67.2,0,0,0,69.54,56.18c-.08.13-1.09.44-1.34.63a13.44,13.44,0,0,0-1.32,1.65A33.9,33.9,0,0,1,64,61.36,34.53,34.53,0,0,1,57,66.26,34.12,34.12,0,0,1,40.51,70.22Z"/><path class="cls-5" d="M33.94,69.47a21.24,21.24,0,0,1,2-2.65l.54,1.82a14.46,14.46,0,0,1-2.33.68l.12,0"/><path class="cls-5" d="M39.5,36.63a21.24,21.24,0,0,1,2-2.65L42,35.8a14.46,14.46,0,0,1-2.33.68l.12,0"/><path class="cls-5" d="M43.66,36.63a21.24,21.24,0,0,1,2-2.65l.54,1.82a14.77,14.77,0,0,1-2.33.68l.12,0"/><path class="cls-5" d="M47.94,38a20.43,20.43,0,0,1,2-2.64l.54,1.81a13.44,13.44,0,0,1-2.32.69l.11,0"/><path class="cls-5" d="M52.07,39.27a21.14,21.14,0,0,1,2-2.64l.54,1.82a14.35,14.35,0,0,1-2.32.68l.11,0"/><path class="cls-5" d="M55.65,41.29a21.24,21.24,0,0,1,2-2.65l.54,1.82a13.51,13.51,0,0,1-2.33.68l.12,0"/><path class="cls-5" d="M37.93,69.47a21.24,21.24,0,0,1,2-2.65l.54,1.82a14.35,14.35,0,0,1-2.32.68l.11,0"/><path class="cls-5" d="M42.4,69.38a21.14,21.14,0,0,1,2-2.64l.54,1.81a13.44,13.44,0,0,1-2.32.69l.11,0"/><path class="cls-5" d="M47.29,68.15a20.53,20.53,0,0,1,2-2.65l.54,1.82a14.35,14.35,0,0,1-2.32.68l.11,0"/><path class="cls-5" d="M53.75,67.43c.09,3.43.69,7.1,3.06,9.59.5-2.44,0-5-.24-7.42a40.4,40.4,0,0,1,1.14-14.4c.68-2.58,2.86-7.16,1.71-9.68-2.57.88-3.81,7.59-4.39,10A45.26,45.26,0,0,0,53.75,67.43Z"/><path class="cls-4" d="M57.07,58.34a22.13,22.13,0,0,0,5.52,12.54,4.82,4.82,0,0,0,2.11,1.47A2,2,0,0,0,67,71.53a2.62,2.62,0,0,0,0-1.85c-.75-2.8-2.55-5.16-4-7.69a29.16,29.16,0,0,1-3.61-13.57c0-1.19,0-2.66-.92-3.46C56.18,47.7,56.67,55,57.07,58.34Z"/><path class="cls-5" d="M62.4,51.36a17.81,17.81,0,0,0,9.32,9.73c1.91.81,4.42,1.12,5.81-.42a.92.92,0,0,0,.28-.52,1,1,0,0,0-.14-.54c-1.42-2.88-5.24-3.34-8-4.88a13.69,13.69,0,0,1-5.89-7.36c-1.1-2.93-1-6.17-2-9C59.88,41.82,61,47.83,62.4,51.36Z"/><path class="cls-4" d="M63,43.53a16.49,16.49,0,0,0,4.13,7.18,12.32,12.32,0,0,0,15.11,1.13c.45-.31.93-.85.69-1.34a1.07,1.07,0,0,0-.55-.45c-1.39-.63-3-.44-4.51-.48A14.75,14.75,0,0,1,64.24,38.15C64,36.74,63,32.38,61.86,35.51,61.1,37.53,62.42,41.57,63,43.53Z"/><path class="cls-5" d="M67,42.66c2.78,2.67,6.85,3.62,10.7,3.41a4.8,4.8,0,0,0,3.74-1.49,1,1,0,0,0,.22-.59c0-.38-.44-.6-.8-.73-1.77-.63-3.7-.55-5.55-.86a13.15,13.15,0,0,1-9.36-6.86,16,16,0,0,0-1.34-2.48,3,3,0,0,0-2.38-1.31C60.79,34.16,65.25,41,67,42.66Z"/><path class="cls-2" d="M66.09,35.8a12.48,12.48,0,0,0,13.58,2.58c.29-.13.6-.31.65-.62s-.26-.65-.56-.84a7.73,7.73,0,0,0-4.06-1.23c-.92,0-1.82.14-2.74.15a9,9,0,0,1-5.34-1.66,14.74,14.74,0,0,1-2.52-2.41c-1.12-1.31-2.45-3-1.91-.28C63.48,33,65.07,34.76,66.09,35.8Z"/><path class="cls-4" d="M31.65,61.5c3.22-2.56,4.82-6.6,6.17-10.49a2.94,2.94,0,0,0,.06-2.54c-1.94,2.75-5.38,4.37-6.86,7.47C30.56,56.9,29.48,63.22,31.65,61.5Z"/><path class="cls-5" d="M72,33.17c2.58-.05,5.31-1.14,6.56-3.39.13-.23.23-.53.07-.73a.73.73,0,0,0-.6-.16,74,74,0,0,1-8.8.47c-3.11-.19-5.14-1.51-7.75-2.85C62.12,30.63,68.32,33.24,72,33.17Z"/><path class="cls-5" d="M29.75,47.18c.32,0,.52-.36.67-.63a69.9,69.9,0,0,1,3.73-6.46c1.47-2.06,3.34-3.93,4.06-6.35-2.83-.43-6.07,3.46-7.28,5.71C30.41,40.42,27.9,47.47,29.75,47.18Z"/><path class="cls-7" d="M32.81,80.3a3.78,3.78,0,0,0-2.83.84C29,82.22,29.77,84.05,31,84.7a6.61,6.61,0,0,0,4.2.19,31.06,31.06,0,0,0,10-3.54c2.49-1.48,6.2-4.28,6.74-7.31C45.69,77.41,40.23,80.06,32.81,80.3Z"/><path class="cls-4" d="M60.41,22.91c4.6.77,9.84,1.38,13.45-1.56.17,3.12-1.74,6.52-4.81,7.07-3.32.6-6.23-2.13-8.51-4.62"/><path class="cls-5" d="M73.39,16.39a6.26,6.26,0,0,1-.18,2.48,4.88,4.88,0,0,1-1.35,1.9c-1,1-9.7,4.56-9.18,1.88.15-.75,4.52-2.12,5.31-2.55A32.54,32.54,0,0,0,73.39,16.39Z"/><path class="cls-4" d="M69.85,12.93a11,11,0,0,0,.68-2.1c-.2,1.83.38,3.76-.23,5.5a8.56,8.56,0,0,1-2.72,3.33c-.81.71-3,2.87-4.22,2.61-1.8-.39-.25-1.49.59-2.25C66.26,17.94,68.59,15.86,69.85,12.93Z"/></g><g id="Camada_3" data-name="Camada 3"><path class="cls-8" d="M68.47,41.41A31.11,31.11,0,0,1,61,39.59c-2.47-1.07-4.54-2.75-6.91-4-7-3.63-17.4-4.26-21.86,2.86-2.29,3.65-3,7.92-5,11.71a22.25,22.25,0,0,1-6.86,7.74c-1.3.93-2.86,2-2.88,3.46,0,2,2.75,2.18,3.63,3.41,1.33,1.84.89,4,3.24,5.4,2.13,1.28,4.85.94,7.2.52A23.8,23.8,0,0,1,39,70.46c5.85.54,11.79-1.07,16.91-3.55a32.17,32.17,0,0,0,11.68-9,17.92,17.92,0,0,0,3.87-13.29c-.78-5.24-4.31-9.77-6.21-14.77-2.5-6.56-2.36-14.25-7.3-19.55-.52-.56-1.4-1.12-2.06-.7a1.52,1.52,0,0,0-.54.71c-1.38,2.9-4,13.52-11.82,21.64"/><path class="cls-8" d="M30.68,55.87l4-7.18c.59-1.07,1.5-2.31,2.81-2.21a.89.89,0,0,1,.53.18.81.81,0,0,1,.24.64c0,1.44-1.34,2.54-2.58,3.44l-2.61,1.87"/><path class="cls-8" d="M48.55,27.55A50.33,50.33,0,0,0,55.8,13.28c.18-.56.43-1.2,1-1.37.91-.26,1.61.74,1.91,1.57a30,30,0,0,1-1.1,22.79"/><path class="cls-8" d="M54.5,34l0,.56c.13-4.47,2-8.48,2.46-12.85"/><path class="cls-8" d="M54.56,26.93a8.21,8.21,0,0,1-2.29,5.19c-.11.12-.24.3-.13.43s.32-.18.15-.15"/><path class="cls-8" d="M61.41,21.94A71.13,71.13,0,0,0,65.26,8a9.38,9.38,0,0,1,.45,7.64,22.87,22.87,0,0,1-4.13,6.84,20.84,20.84,0,0,0,8.68-10.91,19.44,19.44,0,0,1-2,7.25,7.86,7.86,0,0,1-6.46,4.1,15.6,15.6,0,0,0,12.62-7.82c-1.2,2.65-2.48,5.4-4.84,7.31s-6.15,2.68-8.69,1c4.65,2.42,11.27.89,14.08-3.24a8.56,8.56,0,0,1-5.67,7.81c-3.44,1.11-7.9-.74-8.57-4,0,3.32,3.27,6.13,6.86,6.82s7.34-.34,10.57-1.92a7.77,7.77,0,0,1-5.69,5.24,9.09,9.09,0,0,1-7-1.94,23.19,23.19,0,0,1-4.7-5.39c2.38,7,11.42,11.45,19.17,9.47-1,2.51-4.18,3.94-7.1,3.66a11.39,11.39,0,0,1-7.3-4.08,29.27,29.27,0,0,1-4.09-7c1.48,4.55,3.89,9,7.95,12s10,4.16,14.63,1.93c-2.45,2.52-5.85,4.54-9.55,4.47-4.12-.08-7.74-2.78-9.76-6s-2.75-7-3.44-10.71c1,4.61,2,9.34,4.71,13.37A13.22,13.22,0,0,0,72.14,49c3.38,1.28,7.22.72,10.83.15-1.43,3.71-6.6,5.46-10.74,4.32a13.74,13.74,0,0,1-8.69-8.2c-1.52-3.67-1.76-7.67-2-11.59.22,5.51.5,11.24,3.31,16.13s8.91,8.69,14.82,7.4c-1.67,2.08-4.08,3.93-6.92,4-3.51.14-6.48-2.38-8.36-5.08a21.51,21.51,0,0,1-3.14-18.07C61.1,43.32,61,48.67,63,53.55a21.25,21.25,0,0,0,9.35,10.37,7,7,0,0,1-6.41-1.74,13.07,13.07,0,0,1-3.34-5.55A34.55,34.55,0,0,1,60.91,40c-2.65,10.47.94,22.07,9.22,29.75-9.39-5.95-13.63-17.79-9.89-27.6A48.49,48.49,0,0,0,63.32,75a23,23,0,0,1-6.76-15.77c-.23-5.77,1.37-11.49,3.74-16.84C55.56,53.65,52.84,66,55.71,77.76c-6.49-11.49-4.2-26.56,5.47-36"/><path class="cls-8" d="M24.27,70.2c.94.08,2.3,1.35,2,2.14-.4,1-1.52.69-1.08,1.62.53,1.12,3.18.47,3.28,1.69,0,.64-.78,1-1.4,1.3s-1.17,1.16-.58,1.52c1.08-.45,2.52.56,2.3,1.62A7.28,7.28,0,0,1,28,81.56c-.79,1.71.86,3.7,2.84,4.17s4-.12,6-.78c7.84-2.72,15.3-6.71,20.81-12.46s14.7-18.25,13.95-25.83"/><path class="cls-8" d="M20.87,64.69a2.1,2.1,0,0,1,.76-2.11,7.78,7.78,0,0,0,1.67-1.67c.39-.69.27-1.77-.48-2"/></g></svg>