<svg xmlns="http://www.w3.org/2000/svg" viewBox="0 0 165.42 212.79"><defs><style>.cls-1{opacity:0.33;}.cls-2{fill:#1e90b3;}.cls-3{fill:#fff;}.cls-4,.cls-8,.cls-9{fill:none;}.cls-5{fill:#663717;}.cls-6{fill:#834c20;}.cls-7{fill:#d37231;}.cls-8{stroke:#d37231;stroke-miterlimit:10;}.cls-9{stroke:#000;stroke-linecap:round;stroke-linejoin:round;stroke-width:0.25px;}</style></defs><title>come cabo verde 7</title><g id="Camada_4" data-name="Camada 4"><path class="cls-2" d="M89.72,35.81C66,35.81,45,57.51,50.3,82.21c4.66,21.84,36.45,81.55,36.45,81.55a3.3,3.3,0,0,0,5.94,0s32-60.08,36.71-82.06C134.67,57,113.45,35.81,89.72,35.81Z"/><circle class="cls-3" cx="90.35" cy="77.93" r="26.45"/><path class="cls-4" d="M112.47,77a86.7,86.7,0,0,1-8.9-15.24,1.32,1.32,0,0,1,0,.28c-.07.89-1.09,1.77-2,1.13a2.18,2.18,0,0,1-.92-2.09.92.92,0,0,1,.11-.46c0-.05,0-.07,0-.09a2.86,2.86,0,0,1,0-.35c0-.24.08-.47.14-.7a.63.63,0,0,1,1.21,0c.16.51.33.56.63.87l.21.25c-.66-1.52-1.29-3-1.87-4.6a1.48,1.48,0,0,1-.37.67,1.61,1.61,0,0,1-2.26,0,3.27,3.27,0,0,1-.83-2.79,1,1,0,0,1,1.12-.64,2.94,2.94,0,0,1,.92.42,8.23,8.23,0,0,1,.78.53c-.23-.67-.47-1.34-.68-2-.74-2.32-1.43-4.77-3.11-6.53a7.7,7.7,0,0,0-10.63-.12A3.73,3.73,0,0,1,86.65,50a11,11,0,0,1-3.37,3.45c-3.58,2.7-8.76,8.51-13,9.79.18-.06-10.41.44-7.63,3.22,6.79,6.43,8.65,16.31,11.21,25.31S81.07,110.46,90,113.19l5.85-4c-2-1.29-1.08-4.33.11-6.37A77.83,77.83,0,0,1,105.32,90c1.35-1.5,3.64-3,5.16-1.69.93-1.88,3.3-2.75,4.11-4.68C115.53,81.39,113.91,79,112.47,77Zm-40-7a1.89,1.89,0,0,1-2.65,0c-.23-.23-.44-.49-.67-.72,0,0-.14-.12-.2-.18L68.83,69A1.71,1.71,0,0,1,68,67.51h0a1,1,0,0,1,.06-.45,1.81,1.81,0,0,1,2.16-1.22,5.74,5.74,0,0,1,2.31,1.53A1.9,1.9,0,0,1,72.49,70Zm1.34,6.37c-.84-1.08-1.17-3.67.12-4.55,1.08-.73,1.93,1.11,2.47,2l.07,0c.12.17.2.27.25.33a.21.21,0,0,1,0-.06c.09.13.1.14,0,.06a1.82,1.82,0,1,1-2.91,2.15Zm1.59,9.29a4.4,4.4,0,0,1,.11-2.73,2,2,0,0,1,.74-1c.21-.15.44-.19.64-.32a.11.11,0,0,1,.15,0c.14.33.53.6.72.92s.37.75.6,1.12a4.44,4.44,0,0,1,.43.51,1.85,1.85,0,1,1-3.39,1.43Zm4.2,10.89a2,2,0,0,1-2.64-.7c-.71-1.65-1.12-3.72.44-5a1.1,1.1,0,0,1,1.83.48,13.36,13.36,0,0,0,1.06,2.61A2,2,0,0,1,79.62,96.55ZM85.75,103c-1.7,1.69-4.27-.83-5.26-2.21a1.81,1.81,0,0,1,.28-2.17A1.83,1.83,0,0,1,83,98.32c.62.42,1.23.85,1.84,1.28a3,3,0,0,1,1.39,1.56A2,2,0,0,1,85.75,103ZM90,109.5a2.09,2.09,0,0,1-1.72-.27,4.66,4.66,0,0,1-.74-.66,3.25,3.25,0,0,1-.76-2.1,1.54,1.54,0,0,1,2.6-1.08l.06.07.14.07a1.13,1.13,0,0,1,.44.32c-.13-.1-.15-.11,0,0a2.53,2.53,0,0,1,1.28,1.48A1.8,1.8,0,0,1,90,109.5Zm6.3-57.92a1.63,1.63,0,0,1-1.6.42,3.27,3.27,0,0,1-2.32-3.52,1,1,0,0,1,1.38-.57c-.06,0-.08,0,0,0h0L94,48h0a3.55,3.55,0,0,1,.54.3,2.82,2.82,0,0,0,.38.21l.06,0,.13,0a2.3,2.3,0,0,1,1.51,1.18A1.61,1.61,0,0,1,96.29,51.58Zm7.37,21.3c-1.17-.43-1.43-1.48-1.57-2.61a3.29,3.29,0,0,1,0-1.25,2.75,2.75,0,0,1,.45-.8.2.2,0,0,1,.33,0c.14.21.41.34.58.53s.35.43.55.63c.54.55,1.28.88,1.46,1.69C105.68,72.07,104.78,73.29,103.66,72.88Zm3.86,5.61a1.59,1.59,0,0,1-2.33-.45,3.23,3.23,0,0,1-.61-2.16h0c0-.07,0-.28,0-.32s.06-.21.1-.31a1.13,1.13,0,0,1,.52-.67c.57-.3.89.13,1.26.49l.55.51c.2.19.41.36.62.54A1.58,1.58,0,0,1,107.52,78.49Zm4.91,5.35a1.65,1.65,0,0,1-2.56-.33,4.06,4.06,0,0,1-.47-.93c0-.08-.06-.17-.08-.25s-.07-.54,0-.26a1.73,1.73,0,0,1,.06-.93c.11-.28-.13.12.1-.24a1.39,1.39,0,0,1,.15-.19c.32-.33,1-.17,1.31,0l.2.08.35.15a4.41,4.41,0,0,1,.64.36A1.67,1.67,0,0,1,112.43,83.84Z"/><path class="cls-4" d="M117.67,82.9a3.43,3.43,0,0,0-1.11-1.76,68.22,68.22,0,0,1-13-19.27.66.66,0,0,1,0,.14c-.07.89-1.09,1.77-2,1.13a2.18,2.18,0,0,1-.92-2.09.92.92,0,0,1,.11-.46c0-.05,0-.07,0-.09a2.86,2.86,0,0,1,0-.35c0-.24.08-.47.14-.7a.63.63,0,0,1,1.21,0c.16.51.33.56.63.87l.09.11-.21-.47c-.54-1.32-1-2.65-1.54-4a1.5,1.5,0,0,1-.37.66,1.61,1.61,0,0,1-2.26,0,3.27,3.27,0,0,1-.83-2.79,1,1,0,0,1,1.12-.64,2.94,2.94,0,0,1,.92.42c.24.15.47.29.69.45-.46-1.17-.92-2.34-1.44-3.49-1.23-2.71-2.87-5.46-5.54-6.78s-6.56-.49-7.57,2.31c1.67.7,1.77,3.22.67,4.66S83.67,52.88,82,53.6a37.63,37.63,0,0,0-12.94,9.88c-2.39-3.61-6-1.23-5.35,2.84.36,2.22,1.82,4.08,3.08,5.94a39.51,39.51,0,0,1,6.14,15.29c.66,3.79.78,7.74,2.24,11.3,2,4.87,6.26,8.4,10.35,11.72,1.69,1.38,3.53,2.81,5.7,3s4.62-1.58,4.29-3.73c-2.15-1.25-.91-4.55.61-6.53a129.54,129.54,0,0,1,14.61-16c.88-.81,2.77-1.25,2.81-.06C114.79,85.55,118,85,117.67,82.9ZM72.49,70a1.89,1.89,0,0,1-2.65,0c-.23-.23-.44-.49-.67-.72,0,0-.14-.12-.2-.18L68.83,69A1.71,1.71,0,0,1,68,67.51h0a1,1,0,0,1,.06-.45,1.81,1.81,0,0,1,2.16-1.22,5.74,5.74,0,0,1,2.31,1.53A1.9,1.9,0,0,1,72.49,70Zm1.34,6.37c-.84-1.08-1.17-3.67.12-4.55,1.08-.73,1.93,1.11,2.47,2l.07,0c.12.17.2.27.25.33a.21.21,0,0,1,0-.06c.09.13.1.14,0,.06a1.82,1.82,0,1,1-2.91,2.15Zm1.59,9.29a4.4,4.4,0,0,1,.11-2.73,2,2,0,0,1,.74-1c.21-.15.44-.19.64-.32a.11.11,0,0,1,.15,0c.14.33.53.6.72.92s.37.75.6,1.12a4.44,4.44,0,0,1,.43.51,1.85,1.85,0,1,1-3.39,1.43Zm4.2,10.89a2,2,0,0,1-2.64-.7c-.71-1.65-1.12-3.72.44-5a1.1,1.1,0,0,1,1.83.48,13.36,13.36,0,0,0,1.06,2.61A2,2,0,0,1,79.62,96.55ZM85.75,103c-1.7,1.69-4.27-.83-5.26-2.21a1.81,1.81,0,0,1,.28-2.17A1.83,1.83,0,0,1,83,98.32c.62.42,1.23.85,1.84,1.28a3,3,0,0,1,1.39,1.56A2,2,0,0,1,85.75,103ZM90,109.5a2.09,2.09,0,0,1-1.72-.27,4.66,4.66,0,0,1-.74-.66,3.25,3.25,0,0,1-.76-2.1,1.54,1.54,0,0,1,2.6-1.08l.06.07.14.07a1.13,1.13,0,0,1,.44.32c-.13-.1-.15-.11,0,0a2.53,2.53,0,0,1,1.28,1.48A1.8,1.8,0,0,1,90,109.5Zm6.3-57.92a1.63,1.63,0,0,1-1.6.42,3.27,3.27,0,0,1-2.32-3.52,1,1,0,0,1,1.38-.57c-.06,0-.08,0,0,0h0L94,48h0a3.55,3.55,0,0,1,.54.3,2.82,2.82,0,0,0,.38.21l.06,0,.13,0a2.3,2.3,0,0,1,1.51,1.18A1.61,1.61,0,0,1,96.29,51.58Zm7.37,21.3c-1.17-.43-1.43-1.48-1.57-2.61a3.29,3.29,0,0,1,0-1.25,2.75,2.75,0,0,1,.45-.8.2.2,0,0,1,.33,0c.14.21.41.34.58.53s.35.43.55.63c.54.55,1.28.88,1.46,1.69C105.68,72.07,104.78,73.29,103.66,72.88Zm3.86,5.61a1.59,1.59,0,0,1-2.33-.45,3.23,3.23,0,0,1-.61-2.16h0c0-.07,0-.28,0-.32s.06-.21.1-.31a1.13,1.13,0,0,1,.52-.67c.57-.3.89.13,1.26.49l.55.51c.2.19.41.36.62.54A1.58,1.58,0,0,1,107.52,78.49Zm4.91,5.35a1.65,1.65,0,0,1-2.56-.33,4.06,4.06,0,0,1-.47-.93c0-.08-.06-.17-.08-.25s-.07-.54,0-.26a1.73,1.73,0,0,1,.06-.93c.11-.28-.13.12.1-.24a1.39,1.39,0,0,1,.15-.19c.32-.33,1-.17,1.31,0l.2.08.35.15a4.41,4.41,0,0,1,.64.36A1.67,1.67,0,0,1,112.43,83.84Z"/><path class="cls-4" d="M102.63,54.3a26.85,26.85,0,0,0-1.85-7c-1.08-2.19-3.07-4.11-5.5-4.35-2.75-.27-5.2,1.58-7.34,3.34A3.29,3.29,0,0,0,86.6,48c-.12.61.1,1.24,0,1.86a4,4,0,0,1-1.78,2.43q-6.52,5.28-13.08,10.5c-3.14,2.49-11.52-1.6-8.12,5.9,2.4,5.28,5.68,8.67,6.81,14.79,1.08,5.89,1.45,12,4,17.44a24,24,0,0,0,12.45,12,3.52,3.52,0,0,0,2.12.36,3.75,3.75,0,0,0,1.5-1l4.64-4.1L92.85,106q8.22-9.57,16.45-19.15a3.23,3.23,0,0,1,2.12,1q2.76-3.47,5.5-6.94C108.82,74.53,104.51,64.41,102.63,54.3ZM72.49,70a1.89,1.89,0,0,1-2.65,0c-.23-.23-.44-.49-.67-.72,0,0-.14-.12-.2-.18L68.83,69A1.71,1.71,0,0,1,68,67.51h0a1,1,0,0,1,.06-.45,1.81,1.81,0,0,1,2.16-1.22,5.74,5.74,0,0,1,2.31,1.53A1.9,1.9,0,0,1,72.49,70Zm1.34,6.37c-.84-1.08-1.17-3.67.12-4.55,1.08-.73,1.93,1.11,2.47,2l.07,0c.12.17.2.27.25.33a.21.21,0,0,1,0-.06c.09.13.1.14,0,.06a1.82,1.82,0,1,1-2.91,2.15Zm1.59,9.29a4.4,4.4,0,0,1,.11-2.73,2,2,0,0,1,.74-1c.21-.15.44-.19.64-.32a.11.11,0,0,1,.15,0c.14.33.53.6.72.92s.37.75.6,1.12a4.44,4.44,0,0,1,.43.51,1.85,1.85,0,1,1-3.39,1.43Zm4.2,10.89a2,2,0,0,1-2.64-.7c-.71-1.65-1.12-3.72.44-5a1.1,1.1,0,0,1,1.83.48,13.36,13.36,0,0,0,1.06,2.61A2,2,0,0,1,79.62,96.55ZM85.75,103c-1.7,1.69-4.27-.83-5.26-2.21a1.81,1.81,0,0,1,.28-2.17A1.83,1.83,0,0,1,83,98.32c.62.42,1.23.85,1.84,1.28a3,3,0,0,1,1.39,1.56A2,2,0,0,1,85.75,103ZM90,109.5a2.09,2.09,0,0,1-1.72-.27,4.66,4.66,0,0,1-.74-.66,3.25,3.25,0,0,1-.76-2.1,1.54,1.54,0,0,1,2.6-1.08l.06.07.14.07a1.13,1.13,0,0,1,.44.32c-.13-.1-.15-.11,0,0a2.53,2.53,0,0,1,1.28,1.48A1.8,1.8,0,0,1,90,109.5Zm6.3-57.92a1.63,1.63,0,0,1-1.6.42,3.27,3.27,0,0,1-2.32-3.52,1,1,0,0,1,1.38-.57c-.06,0-.08,0,0,0h0L94,48h0a3.55,3.55,0,0,1,.54.3,2.82,2.82,0,0,0,.38.21l.06,0,.13,0a2.3,2.3,0,0,1,1.51,1.18A1.61,1.61,0,0,1,96.29,51.58Zm2.28,5.06a3.27,3.27,0,0,1-.83-2.79,1,1,0,0,1,1.12-.64,2.94,2.94,0,0,1,.92.42,4.89,4.89,0,0,1,1,.75,1.6,1.6,0,0,1-2.26,2.26Zm2.13,4.41a.92.92,0,0,1,.11-.46c0-.05,0-.07,0-.09a2.86,2.86,0,0,1,0-.35c0-.24.08-.47.14-.7a.63.63,0,0,1,1.21,0c.16.51.33.56.63.87a2.25,2.25,0,0,1,.73,1.69c-.07.89-1.09,1.77-2,1.13A2.18,2.18,0,0,1,100.7,61.05Zm3,11.83c-1.17-.43-1.43-1.48-1.57-2.61a3.29,3.29,0,0,1,0-1.25,2.75,2.75,0,0,1,.45-.8.2.2,0,0,1,.33,0c.14.21.41.34.58.53s.35.43.55.63c.54.55,1.28.88,1.46,1.69C105.68,72.07,104.78,73.29,103.66,72.88Zm3.86,5.61a1.59,1.59,0,0,1-2.33-.45,3.23,3.23,0,0,1-.61-2.16h0c0-.07,0-.28,0-.32s.06-.21.1-.31a1.13,1.13,0,0,1,.52-.67c.57-.3.89.13,1.26.49l.55.51c.2.19.41.36.62.54A1.58,1.58,0,0,1,107.52,78.49Zm4.91,5.35a1.65,1.65,0,0,1-2.56-.33,4.06,4.06,0,0,1-.47-.93c0-.08-.06-.17-.08-.25s-.07-.54,0-.26a1.73,1.73,0,0,1,.06-.93c.11-.28-.13.12.1-.24a1.39,1.39,0,0,1,.15-.19c.32-.33,1-.17,1.31,0l.2.08.35.15a4.41,4.41,0,0,1,.64.36A1.67,1.67,0,0,1,112.43,83.84Z"/><path class="cls-5" d="M104.57,62.16c-2.5-7.58-4.12-16.55-11-20.63-1.8-1.08-9.15,10.7-10.38,11.74L73.08,61.8a5.41,5.41,0,0,1-2,1.24c-2.14.58-5-1.33-6.34.41-1.12,1.43.36,3.37,1.56,4.73,5.77,6.6,5.95,16.22,8.75,24.53A39,39,0,0,0,84,107.34,10.33,10.33,0,0,0,87.58,110a6.14,6.14,0,0,0,7.11-2.32c-1.73-.87-.69-3.5.54-5L108.5,86.45l2.34,2.31a20.34,20.34,0,0,0,5.26-6.19A60.29,60.29,0,0,1,104.57,62.16ZM72.49,70a1.89,1.89,0,0,1-2.65,0c-.23-.23-.44-.49-.67-.72,0,0-.14-.12-.2-.18L68.83,69A1.71,1.71,0,0,1,68,67.51h0a1,1,0,0,1,.06-.45,1.81,1.81,0,0,1,2.16-1.22,5.74,5.74,0,0,1,2.31,1.53A1.9,1.9,0,0,1,72.49,70Zm1.34,6.37c-.84-1.08-1.17-3.67.12-4.55,1.08-.73,1.93,1.11,2.47,2l.07,0c.12.17.2.27.25.33a.21.21,0,0,1,0-.06c.09.13.1.14,0,.06a1.82,1.82,0,1,1-2.91,2.15Zm1.59,9.29a4.4,4.4,0,0,1,.11-2.73,2,2,0,0,1,.74-1c.21-.15.44-.19.64-.32a.11.11,0,0,1,.15,0c.14.33.53.6.72.92s.37.75.6,1.12a4.44,4.44,0,0,1,.43.51,1.85,1.85,0,1,1-3.39,1.43Zm4.2,10.89a2,2,0,0,1-2.64-.7c-.71-1.65-1.12-3.72.44-5a1.1,1.1,0,0,1,1.83.48,13.36,13.36,0,0,0,1.06,2.61A2,2,0,0,1,79.62,96.55ZM85.75,103c-1.7,1.69-4.27-.83-5.26-2.21a1.81,1.81,0,0,1,.28-2.17A1.83,1.83,0,0,1,83,98.32c.62.42,1.23.85,1.84,1.28a3,3,0,0,1,1.39,1.56A2,2,0,0,1,85.75,103ZM90,109.5a2.09,2.09,0,0,1-1.72-.27,4.66,4.66,0,0,1-.74-.66,3.25,3.25,0,0,1-.76-2.1,1.54,1.54,0,0,1,2.6-1.08l.06.07.14.07a1.13,1.13,0,0,1,.44.32c-.13-.1-.15-.11,0,0a2.53,2.53,0,0,1,1.28,1.48A1.8,1.8,0,0,1,90,109.5Zm6.3-57.92a1.63,1.63,0,0,1-1.6.42,3.27,3.27,0,0,1-2.32-3.52,1,1,0,0,1,1.38-.57c-.06,0-.08,0,0,0h0L94,48h0a3.55,3.55,0,0,1,.54.3,2.82,2.82,0,0,0,.38.21l.06,0,.13,0a2.3,2.3,0,0,1,1.51,1.18A1.61,1.61,0,0,1,96.29,51.58Zm2.28,5.06a3.27,3.27,0,0,1-.83-2.79,1,1,0,0,1,1.12-.64,2.94,2.94,0,0,1,.92.42,4.89,4.89,0,0,1,1,.75,1.6,1.6,0,0,1-2.26,2.26Zm2.13,4.41a.92.92,0,0,1,.11-.46c0-.05,0-.07,0-.09a2.86,2.86,0,0,1,0-.35c0-.24.08-.47.14-.7a.63.63,0,0,1,1.21,0c.16.51.33.56.63.87a2.25,2.25,0,0,1,.73,1.69c-.07.89-1.09,1.77-2,1.13A2.18,2.18,0,0,1,100.7,61.05Zm3,11.83c-1.17-.43-1.43-1.48-1.57-2.61a3.29,3.29,0,0,1,0-1.25,2.75,2.75,0,0,1,.45-.8.2.2,0,0,1,.33,0c.14.21.41.34.58.53s.35.43.55.63c.54.55,1.28.88,1.46,1.69C105.68,72.07,104.78,73.29,103.66,72.88Zm3.86,5.61a1.59,1.59,0,0,1-2.33-.45,3.23,3.23,0,0,1-.61-2.16h0c0-.07,0-.28,0-.32s.06-.21.1-.31a1.13,1.13,0,0,1,.52-.67c.57-.3.89.13,1.26.49l.55.51c.2.19.41.36.62.54A1.58,1.58,0,0,1,107.52,78.49Zm2.35,5a4.06,4.06,0,0,1-.47-.93c0-.08-.06-.17-.08-.25s-.07-.54,0-.26a1.73,1.73,0,0,1,.06-.93c.11-.28-.13.12.1-.24a1.39,1.39,0,0,1,.15-.19c.32-.33,1-.17,1.31,0l.2.08.35.15a4.41,4.41,0,0,1,.64.36,1.63,1.63,0,1,1-2.23,2.24Z"/><path class="cls-4" d="M89.68,50.59c6.22,2.84,9.3,9.79,11.52,16.27A180.27,180.27,0,0,0,80.07,85a43.76,43.76,0,0,0-1.46-11.41C77.27,69.1,72,65.48,75.08,61.21S85.15,53.36,89.68,50.59Z"/><path class="cls-4" d="M89.8,51.89a1.45,1.45,0,0,1,.56-.2,1.36,1.36,0,0,1,.93.44A24.67,24.67,0,0,1,99.7,67.41,83.1,83.1,0,0,0,80.9,84.8c1.33-1.68-.68-8.3-1.23-10.17-1-3.35-4.08-6.52-4.87-9.57C73.6,60.4,85.65,54.12,89.8,51.89Z"/><path class="cls-6" d="M89.2,51.67a1.87,1.87,0,0,1,2.53.18,21.89,21.89,0,0,1,8.8,15.48A99.69,99.69,0,0,0,80.69,84.56c1.12-1.27-.79-7.9-1.22-9.42-1-3.53-3.58-5.73-4.9-8.82-1.09-2.55-1.49-1.12.43-3.81a24.85,24.85,0,0,1,4.3-3.95A66.87,66.87,0,0,1,89.2,51.67Z"/><path class="cls-4" d="M99.54,69.47a22.43,22.43,0,0,0,8.15,14.8L92.9,102.73C88.3,100,80,92.76,82.71,87c1.54-3.23,5.47-6.49,7.93-9.07C91.72,76.78,99.66,70.54,99.54,69.47Z"/><path class="cls-6" d="M98.27,71.29c.61-.48,1.54-1,2.08-.39a1.69,1.69,0,0,1,.33,1.08,17.76,17.76,0,0,0,7.24,12.8,211.68,211.68,0,0,0-14.92,18C90.6,106,82.22,90.59,82.87,87.45,84.14,81.29,93.68,74.93,98.27,71.29Z"/><path class="cls-7" d="M105.83,85.36a29.87,29.87,0,0,0-3.76,4.91c-.58.94-1.4,2-2.47,1.83s-1.36-1.37-1.54-2.35c-.37-2-2.47-13.77.42-14.49C99.93,74.9,104,83.83,105.83,85.36Z"/><path class="cls-4" d="M76,69a32.81,32.81,0,0,1,3.58,10.2"/><path class="cls-8" d="M65.39,64.34a9.56,9.56,0,0,0,4.38,7.52"/><path class="cls-8" d="M108.17,73.75A14,14,0,0,0,113.94,81"/><path class="cls-8" d="M80.9,76a11.06,11.06,0,0,1,1.45,7.22"/><path class="cls-8" d="M88.66,96.55a15.08,15.08,0,0,0,5.62,5.31"/><path class="cls-7" d="M89.73,57.63a24.24,24.24,0,0,1,4.46,8.61c.24.87.61,1.92,1.5,2.06a1.75,1.75,0,0,0,1.39-.55c1.85-1.72,1.4-4.78.26-7s-3.49-5.56-6-6.41C88.2,53.24,87.43,54.8,89.73,57.63Z"/><path class="cls-4" d="M72.57,71.17l1.09-1.08"/><path class="cls-4" d="M72.61,71.58l2.54-1.81"/><path class="cls-8" d="M72.6,71.57a3.37,3.37,0,0,1,2.55-1.78"/><path class="cls-8" d="M75.51,81.37l2.54-2.53"/><path class="cls-8" d="M76.23,90.78l2.54-1.45"/><path class="cls-8" d="M79.88,99.15A7,7,0,0,1,82,96.57"/><path class="cls-8" d="M86,107.12l2.19-3.61"/><path class="cls-8" d="M96.55,52.72,98,50.91"/><path class="cls-8" d="M99.84,58.9A3,3,0,0,1,102,57.39"/><path class="cls-8" d="M102,67.21l2.52-1.84"/><path class="cls-8" d="M104.85,74.8l1.79-1.48"/><path class="cls-8" d="M97,100.68l5.7-6.63"/><path class="cls-9" d="M70.06,65.77,67.84,67.2a42.59,42.59,0,0,0,3.7,3.4,4.69,4.69,0,0,0,1.64-2.7,17.25,17.25,0,0,1-3.13-2.09"/><path class="cls-9" d="M79.23,73.15c1.33,4,1.42,8.25,1.5,12.44a190.38,190.38,0,0,1,19.5-18.26,3.11,3.11,0,0,0,1.25-1.59,2.7,2.7,0,0,0-.24-1.5A27.13,27.13,0,0,0,90.37,51c-5,3.64-10.54,7-15.26,11-3.16,2.69-1.75,2.53.62,5.1A14.84,14.84,0,0,1,79.23,73.15Z"/><path class="cls-9" d="M99.48,70.57c2.2,4.94,4.57,10.09,9.2,13.28L93.87,102.66C92.4,104.53,81.52,91.42,82.23,88.2c.6-2.79,5.06-6,7.11-8Q94.28,75.23,99.48,70.57Z"/><path class="cls-9" d="M73.2,72.3a10.48,10.48,0,0,1,1.88,5.2l1.82-1.45a.89.89,0,0,0,.32-.35.94.94,0,0,0,0-.68,9.41,9.41,0,0,0-1.7-3.46C74.15,70.09,74.36,71.12,73.2,72.3Z"/><path class="cls-9" d="M75.88,81.8a.81.81,0,0,0-.3,1l1,4.58L79,86.14c-.48-1.55-.46-3.24-.92-4.76C77.52,79.53,77.14,80.58,75.88,81.8Z"/><path class="cls-9" d="M76.92,91.27a.86.86,0,0,0-.26.31.85.85,0,0,0,0,.5,15.46,15.46,0,0,0,1.52,4.52c.11.17.26.36.46.34a.51.51,0,0,0,.29-.19l2.07-2c-.67-1.17-.82-3.25-1.56-4.22C78.55,89.34,78,90.32,76.92,91.27Z"/><path class="cls-9" d="M80.5,100.28A38.15,38.15,0,0,0,84,103.87a5.75,5.75,0,0,0,2.25-2.6,42.91,42.91,0,0,0-3.4-3.81A18.73,18.73,0,0,0,80.5,100.28Z"/><path class="cls-9" d="M86.33,107.06a27.29,27.29,0,0,0,3.31,2.77l1.69-2.23a1,1,0,0,0,.29-.76,1.08,1.08,0,0,0-.39-.51c-.64-.55-2-2.39-2.77-2.26C88.14,104.12,86.36,107.08,86.33,107.06Z"/><path class="cls-9" d="M93.18,47.11a6.24,6.24,0,0,0-1.81,1.81q1.84,1.55,3.56,3.23a14.07,14.07,0,0,0,1.35-1.63.79.79,0,0,0,.2-.48.8.8,0,0,0-.32-.49l-2.64-2.5"/><path class="cls-9" d="M98.63,52l-1.85,1.26a.32.32,0,0,0-.09.54l1.88,3c.15.24.35.51.64.52a.89.89,0,0,0,.54-.28l.88-.75a.63.63,0,0,0,.25-.33.6.6,0,0,0-.08-.39,13.54,13.54,0,0,0-2.14-3.4"/><path class="cls-9" d="M101.88,58.4l-1.54,1.4a17.15,17.15,0,0,1,1.81,3.7,3.87,3.87,0,0,1,1.2-.69L102,58.37"/><path class="cls-9" d="M103.21,67.19a2.67,2.67,0,0,0-1.44,2.29,3.62,3.62,0,0,0,.56,1.47l1.29,2.27L104.81,72a.8.8,0,0,0,.22-.33.86.86,0,0,0-.14-.51,13.56,13.56,0,0,1-1.36-3.91"/><path class="cls-9" d="M106,74.28c-.56.32-1.19.76-1.21,1.41a1.81,1.81,0,0,0,.23.78,9.3,9.3,0,0,0,1.91,2.61,5.14,5.14,0,0,0,1.41-1.6l-2.09-3"/><path class="cls-9" d="M110,79.41l-1.07,1.43a.65.65,0,0,0-.19.46.71.71,0,0,0,.24.35l2.68,2.44a5.93,5.93,0,0,0,1.12-1.51.75.75,0,0,0,.12-.4.85.85,0,0,0-.35-.53l-2.36-2.07"/><path class="cls-9" d="M69.75,63.72,86.82,50.06c.54-.43.79-1.62.11-1.49,1.78-2,4-4.21,6.68-3.83A6.67,6.67,0,0,1,97,46.59c5,4.56,6.76,11.55,8.67,18S110.29,78,116.19,81.34a30.94,30.94,0,0,0-4.31,6.11c-.39-1-1.91-.27-2.59.56L96.83,103c-1.28,1.53-2.59,3.75-1.39,5.34a28.55,28.55,0,0,0-5.72,4.55,36.69,36.69,0,0,1-16.28-22.4c-1.11-4.62-1.31-9.43-2.69-14-1.1-3.61-4.7-6.81-5.58-10.11-.39-1.45-.87-1.68.79-2.8C66.9,63,69.59,63.85,69.75,63.72Z"/></g></svg>