<svg xmlns="http://www.w3.org/2000/svg" viewBox="0 0 165.42 212.79"><defs><style>.cls-1{opacity:0.33;}.cls-2,.cls-5{fill:#5deded;}.cls-3{fill:#1e90b3;}.cls-4{fill:#fff;}.cls-5{opacity:0.65;}.cls-6{fill:#d37231;}.cls-7{fill:#663717;}.cls-8{fill:#57d0dd;}.cls-9{fill:#834c20;}.cls-10,.cls-11{fill:none;stroke:#000;stroke-linecap:round;stroke-linejoin:round;stroke-width:0.25px;}.cls-11{opacity:0.54;}</style></defs><title>come cabo verde9</title><g id="Camada_4" data-name="Camada 4"><path class="cls-2" d="M104.72,95.32c-.11-.12-.3.05-.19.17S104.82,95.45,104.72,95.32Z"/><path class="cls-2" d="M104.36,98a.56.56,0,0,0-.83.74A.56.56,0,0,0,104.36,98Z"/><path class="cls-2" d="M104.71,96l-.31-.15a.61.61,0,0,0-.88.78l.11.32a.74.74,0,1,0,1.08-1Z"/><path class="cls-3" d="M78.11,46.94c-23.72,0-44.69,21.7-39.43,46.4,4.66,21.84,36.45,81.55,36.45,81.55a3.31,3.31,0,0,0,6,0s32-60.08,36.71-82.06C123.06,68.14,101.84,46.94,78.11,46.94Z"/><circle class="cls-4" cx="78.74" cy="89.05" r="26.45"/><path class="cls-5" d="M97.91,100.7c1-2.72-1.68-5.22-3-7.79-2.35-4.64-.29-10.2-.56-15.39A18.43,18.43,0,0,0,84,62.26,21,21,0,0,0,65.28,63C55.39,68.31,51,81.9,55.84,92a13,13,0,0,0,5.72,6.31c1.26.61,2.64.92,3.9,1.52,3.25,1.57,5.29,4.89,6.64,8.24.86,2.11,1.76,4.58,3.92,5.34a6.52,6.52,0,0,0,3.66-.07,36.76,36.76,0,0,0,14.48-6.9,13.32,13.32,0,0,0,4.31-5,6,6,0,0,0-.73-6.29"/><path class="cls-6" d="M68.49,89.61c1.3.18,2.32-1.07,3-2.22s1.37-2.49,2.67-2.72c1-.17,2.08.34,2.88-.24s.68-1.64,1.08-2.46c.78-1.65,3-1.77,4.88-1.65,0-2.42-2.19-4.18-4.2-5.54l-6.63-4.47c-.74,1.53-2.59,1.65-3.31,2.8s-.5,2.68-.49,4.15C68.33,78.32,68.24,89.58,68.49,89.61Z"/><path class="cls-7" d="M67,67.91A15.8,15.8,0,0,0,68.12,75a5.28,5.28,0,0,1,2.1-1.5c.76-.43,1.5-1.21,1.3-2.06a2.28,2.28,0,0,0-.61-1,15.9,15.9,0,0,0-4-3.1"/><path class="cls-8" d="M92.42,80a14.84,14.84,0,0,0,.23,4c.52,1.82,2,3.39,2,5.28-.45.38-1.06-.21-1.33-.73A27,27,0,0,1,90.75,81,25.63,25.63,0,0,0,89.68,76c-1.75-4.4-6.6-6.54-11-8.41a6.07,6.07,0,0,1-3.13-2.28c-.64-1.15-.17-3,1.14-3.17a3.08,3.08,0,0,1,1.71.44C85.34,66,92.32,71.58,92.42,80Z"/><path class="cls-8" d="M63.4,96.85a7.3,7.3,0,0,0,5.41,2.53,11.75,11.75,0,0,0-5.3-5c-.63-.3-1.7-.3-1.71.4a1.13,1.13,0,0,0,.39.73L64.42,98"/><path class="cls-9" d="M84.77,109.27c-3.49,1.83-7.68,3.08-9.63,6.5-.2.36-.36.86-.06,1.14a.9.9,0,0,0,.64.18c2.63,0,4.84-1.83,6.9-3.47a78.22,78.22,0,0,1,14-8.92c3.85-1.92,5.24-7.12-.1-4.38C92.26,102.51,89.16,107,84.77,109.27Z"/><path class="cls-9" d="M94.39,113.29a37.54,37.54,0,0,1-8.3,6.15c-1.22.66-2.76,1.24-3.92.49,3.4-5.79,8.1-7.57,13.16-11.26,3-2.18,5-5.42-.73-3.58-5.48,1.76-11,6.87-14.73,11-.81.9-1.61,2.26-.87,3.22.85,1.12,2.61.35,3.74-.49,4.77-3.56,9.54-8.78,14.17-11.8,3.2,3.26-9.22,12.28-10.53,15.38,2.44.14,5.07-.32,6.86-2s2.37-4.76.72-6.57"/><path class="cls-10" d="M58.92,95.52c2.59,3.65,7.19,4.41,10.45,7.28,2.7,2.38,5.54,4.6,5.92,9.44a1.69,1.69,0,0,0,1.17,1.37,1.88,1.88,0,0,0,1.14-.14,84.89,84.89,0,0,0,14.75-6.77,13.24,13.24,0,0,0,4.83-4.11c1.19-1.88,1.54-4.65.29-6.48-.79-1.16-2.14-1.85-2.58-3.24a6.66,6.66,0,0,1,.32-3.65c1.72-6.61.47-14.72-3.88-19.7-5-5.69-13.59-5.64-20.16-5.12C59.28,65.34,50.64,83.85,58.92,95.52Z"/><path class="cls-10" d="M75.4,115.22c-.16,5.44,5.33-.12,6.38-1a75.36,75.36,0,0,1,11.8-8c1.92-1.08,4-2.1,6.12-1.62a37.46,37.46,0,0,1-4.16,3.62c-1.94,1.54-15.05,9.79-14.32,12.17a1.81,1.81,0,0,0,1.93,1.2c1-.1,11.44-9.23,11.76-8.63,1.26,2.32,0,5.56-2,7.05s-4.51,1.68-6.89,1.83c1.55-5.06,8.17-8.7,11.36-12.51.54-.64.9-2,.15-2.16a1,1,0,0,0-.64.15,46.29,46.29,0,0,0-9.69,6.74c-1.56,1.34-4.78,5.78-6.94,5.77-1.11,0-1.6-1.84-1-2.92,1.17-2.14,5.68-3.79,7.53-5q5.1-3.24,10.19-6.52a8.21,8.21,0,0,0,3-2.82c.7-1.28.7-3.2-.36-4.1A132.82,132.82,0,0,1,86,108.67C84.16,109.85,75.47,113,75.4,115.22Z"/><path class="cls-10" d="M70.86,91.72a11.8,11.8,0,0,1-1.4-2.59,12.58,12.58,0,0,1-.5-3.52,112.36,112.36,0,0,0-2.32-17.53c2.66.71,4.9,2.47,7.06,4.19l6.15,4.91A23.81,23.81,0,0,1,84,81.09a23.27,23.27,0,0,1,2.35,4L93,98.27c-.07.49-.82.54-1.21.22s-.59-.81-1-1.12c-.91-.73-2.38,0-2.79,1.11a5.62,5.62,0,0,0,.2,3.43c-.68.82-2-.1-2.56-1S84,99,83.12,99.63c-1.35,1.08,1.5,3.73.11,4.76a1.72,1.72,0,0,0-2.67-.89,3.17,3.17,0,0,0-.8,1.5c-.2.7-.16,1.19.54,1.26C77.91,101.48,73.91,96.43,70.86,91.72Z"/><path class="cls-10" d="M67.32,89c0,.66.9,1,1.5.74A2.32,2.32,0,0,0,70,88.15a9.07,9.07,0,0,1,.6-1.87A2.67,2.67,0,0,1,72.92,85c1.13,0,2.39.8,3.28.1,1.16-.9.16-3.14,1.32-4.06.83-.66,2-.05,3.09,0a3.15,3.15,0,0,0,3-4.8"/><path class="cls-10" d="M66.73,73.82a12.72,12.72,0,0,0,5.76-4.08"/><path class="cls-10" d="M74.4,87.24l6.15,11.57c.11.2.27.43.49.4s.14-.48,0-.36"/><path class="cls-10" d="M81.25,83.21a97,97,0,0,0,6.11,11.92"/><path class="cls-11" d="M39.31,149.09a7.93,7.93,0,0,0-8,.87"/><path class="cls-11" d="M35.83,153.07a3.86,3.86,0,0,1,4.73,0"/></g></svg>