<svg xmlns="http://www.w3.org/2000/svg" xmlns:xlink="http://www.w3.org/1999/xlink" viewBox="0 0 165.42 212.79"><defs><style>.cls-1,.cls-9{fill:none;}.cls-2{opacity:0.33;}.cls-3{fill:#1e90b3;}.cls-4{fill:#fff;}.cls-5{fill:#834c20;}.cls-6{fill:#54280a;}.cls-7{clip-path:url(#clip-path);}.cls-8{fill:#5deded;}.cls-9{stroke:#000;stroke-linecap:round;stroke-linejoin:round;stroke-width:0.25px;}</style><clipPath id="clip-path"><path class="cls-1" d="M60.38,59.37c-1.34.47-2.91,1.21-3.06,2.62-.21,2.07,2.65,2.95,3.7,4.74s.11,4-.16,6c-.5,3.78,1.4,7.43,1.9,11.21,1.3,9.8-6.66,18.08-10.49,27.19-.73,1.72-1.27,3.82-.21,5.35,1.7,2.43,5.47,1.23,8.06-.2,10.37-5.73,21.13-11.7,33-12.47,2.74-.18,6.06-.39,7.31-2.84,1.14-2.22-.27-4.94-2.12-6.6s-4.19-2.83-5.7-4.81a8.24,8.24,0,0,1,.63-10.41c1.75-1.8,4.62-3.48,4-5.91-.32-1.27-1.59-2.18-1.71-3.49-.14-1.48,1.23-2.6,2-3.88a5.37,5.37,0,0,0-2.73-7.47c-2.49-.86-5.53.21-7.7-1.28a15.82,15.82,0,0,1-2.23-2.32C79.33,49.18,66.19,57.33,60.38,59.37Z"/></clipPath></defs><title>come cabo verde5</title><g id="Camada_4" data-name="Camada 4"><path class="cls-3" d="M76.17,41.49c-23.71,0-44.69,21.7-39.42,46.4,4.66,21.84,36.45,81.55,36.45,81.55a3.31,3.31,0,0,0,6,0s32-60.08,36.71-82.06C121.13,62.69,99.9,41.49,76.17,41.49Z"/><circle class="cls-4" cx="76.81" cy="83.6" r="26.45"/><path class="cls-5" d="M60.22,59.52c-1.34.47-2.91,1.21-3,2.62-.22,2.07,2.64,3,3.69,4.74s.11,4-.16,6c-.5,3.78,1.4,7.43,1.9,11.21,1.3,9.8-6.66,18.08-10.49,27.2-.72,1.71-1.27,3.81-.2,5.34,1.69,2.43,5.46,1.24,8.05-.2,10.37-5.73,21.13-11.7,33-12.47,2.74-.17,6.06-.39,7.31-2.84,1.14-2.21-.27-4.94-2.12-6.6s-4.19-2.83-5.7-4.81A8.25,8.25,0,0,1,93,79.31c1.75-1.8,4.62-3.48,4-5.91-.33-1.27-1.6-2.18-1.72-3.49-.14-1.48,1.23-2.6,2-3.88a5.36,5.36,0,0,0-2.73-7.47c-2.49-.86-5.53.21-7.7-1.28A15.82,15.82,0,0,1,84.65,55C79.18,49.33,66,57.48,60.22,59.52Z"/><path class="cls-6" d="M80.85,50.17a7.08,7.08,0,0,0-6.78,1.54,1.87,1.87,0,0,0-.7,1.21c0,.9,1,1.42,1.88,1.62A14.5,14.5,0,0,0,83,54.17c1.32-.43,2.8-1.81,2-2.94a2.24,2.24,0,0,0-1.26-.73,12.11,12.11,0,0,0-6.54,0"/><path class="cls-6" d="M86.08,104.1a43.08,43.08,0,0,1,11-3.26c1.61-.18,3.45-.09,4.54,1.11,1.24,1.36.9,3.63-.27,5a10.72,10.72,0,0,1-4.64,2.84c-11,4.24-27.9,9.31-39.58,6C65.51,110.61,76.79,107.78,86.08,104.1Z"/><g class="cls-7"><path class="cls-8" d="M58.23,83.3c-.1-12,.08-24.09-.46-36.1a.05.05,0,0,0-.1,0c-.31,12,.11,24.08.23,36.1s.31,24.07.08,36.09a.43.43,0,0,0,.86,0C58.38,107.38,58.33,95.32,58.23,83.3Z"/><path class="cls-8" d="M66.11,104.93l-.3.51c.11-.16.23-.32.35-.47S66.13,104.89,66.11,104.93Z"/><path class="cls-8" d="M63.52,111.53c.34.76.61,1.55.92,2.32a6.58,6.58,0,0,0,.82,1.71c.19.24.54,0,.48-.28a7.36,7.36,0,0,0-1-1.89c-.39-.64-.81-1.26-1.17-1.91,0,0,0,0,0,0s-.14-.23-.24-.14a10.74,10.74,0,0,0-1.44,2.34c-.39.71-.78,1.44-1.24,2.13l0-.1a2.45,2.45,0,0,1,0-.27c-.08-1.55-.13-3.1-.18-4.65-.06-1.95-.13-3.89-.19-5.83a20.74,20.74,0,0,0,1.19,2.64c.36.61.83,1.72,1.58,1.92a.24.24,0,0,0,.36.06,7.56,7.56,0,0,0,1.18-2c.2-.37.42-.74.64-1.11-.28.39-.57.78-.87,1.15a13.71,13.71,0,0,0-1.13,1.39,8.5,8.5,0,0,0-1.28-1.67,18.41,18.41,0,0,1-1.68-2.58c0-1.09-.07-2.17-.11-3.25-.18-6-.35-12-.38-18s0-12,0-18c0-6.21.14-12.43-.15-18.64a0,0,0,0,0,0,0C59,53.05,59,59.29,59,65.5c-.08,6,0,12,.16,18s.24,12,.42,18q.15,4.65.34,9.31c.07,1.55.15,3.1.21,4.65a12.54,12.54,0,0,0,.32,4,.12.12,0,0,0,.24,0,10.21,10.21,0,0,0,0-3.53,15,15,0,0,0,1.28,2.41,4.13,4.13,0,0,0,1.82,1.81.15.15,0,0,0,.16-.21l-.07-.08c.57-.18.71-.89.92-1.4.3-.71.59-1.43.86-2.16,0,0,0,0,0,0-.45.58-.89,1.18-1.33,1.78-.3.4-.78.84-.8,1.36-.41-.39-.9-.72-1.28-1.12a7.11,7.11,0,0,1-1.49-2.47c.43-.71.92-1.38,1.4-2.06A10.87,10.87,0,0,0,63.52,111.53Z"/><path class="cls-8" d="M65.18,106.39c.22-.31.43-.63.63-1C65.59,105.75,65.38,106.07,65.18,106.39Z"/><path class="cls-8" d="M61.52,52.69l.56.76A7.09,7.09,0,0,0,61.52,52.69Z"/><path class="cls-8" d="M66.16,49.62a12.22,12.22,0,0,0-1.41-2,.28.28,0,0,0-.11-.08l-.31-.41a0,0,0,0,0-.07,0l0,.05a.06.06,0,0,0-.09,0,22.16,22.16,0,0,0-1.89,3.14,8.63,8.63,0,0,0-.43.77c-.21.38-.43.75-.67,1.11l0,0s-.08,0,0,0l0,0-.12.19s0,.07.06,0a1.62,1.62,0,0,1,.1-.18c0,.07.11.13.16.19a15.87,15.87,0,0,1,1,2.4,5.78,5.78,0,0,0,1.15,2.18.27.27,0,0,0,.4,0L64,57a.23.23,0,0,0,.33-.06c.31-.47.6-.95.91-1.43A8.48,8.48,0,0,0,67,52.69c.11-.18.21-.36.32-.53a1.42,1.42,0,0,0,.12.13c.11.12.36,0,.29-.17A12.25,12.25,0,0,0,66.16,49.62ZM66,53l-.36.44c-.49.65-1,1.3-1.48,1.94-.42-.77-1-1.46-1.35-2.24a2.5,2.5,0,0,1,0-2.09,10.49,10.49,0,0,0,1.14-2.24.17.17,0,0,0,0-.12c.1-.23.18-.47.27-.71a.14.14,0,0,0,0,.06h0a6.69,6.69,0,0,0,.64,1.21c.42.83.79,1.7,1.19,2.54a1.54,1.54,0,0,1,.16.45A2.69,2.69,0,0,1,66,53Z"/><path class="cls-8" d="M66.85,65.58c-.08.18-.18.37-.27.56.11-.18.21-.36.33-.53A0,0,0,1,0,66.85,65.58Z"/><path class="cls-8" d="M65.35,68.21a8.68,8.68,0,0,0-1.3,2.29s0,0,0,0a28.74,28.74,0,0,1-2.75-4.24,20.79,20.79,0,0,0,2.38,4.46.24.24,0,0,0,.41-.06.09.09,0,0,0,.12,0,8.22,8.22,0,0,0,1.27-2.35c.19-.4.39-.81.59-1.21C65.83,67.46,65.59,67.84,65.35,68.21Z"/><path class="cls-8" d="M66.06,67.07c.18-.31.36-.62.52-.93C66.4,66.44,66.22,66.75,66.06,67.07Z"/><path class="cls-8" d="M60.73,64.93a12.58,12.58,0,0,0,.56,1.31C61.1,65.8,60.92,65.36,60.73,64.93Z"/><path class="cls-8" d="M66,62.92c-.68-.91-1.42-1.78-2.11-2.69,0-.06-.16,0-.11.07l.06.11-.08,0a39.27,39.27,0,0,0-3.1,4.15l-.12-.35s-.08,0-.06,0,.11.24.16.36-.11.16-.16.24h0l.17-.2c0,.08.07.16.1.25,0-.09,0-.18-.08-.27a41,41,0,0,0,3.28-4c.49.88.95,1.77,1.46,2.64S66.24,65,67,65.47c.14.07.35,0,.33-.19A5.29,5.29,0,0,0,66,62.92Z"/><path class="cls-8" d="M66.84,79.7c-.4.78-.8,1.55-1.21,2.3A11.52,11.52,0,0,0,66.84,79.7Z"/><path class="cls-8" d="M67.13,80.16c-.14.17-.27.34-.4.52C66.87,80.51,67,80.33,67.13,80.16Z"/><path class="cls-8" d="M67.84,79.44c-1.06-2-2.53-3.82-3.75-5.74h0c.07-.18-.19-.3-.31-.18-1.61,1.62-2.65,4-3.74,6a0,0,0,0,0,0,0c1.38-1.78,3.13-3.65,4-5.75,1,1.8,1.87,3.71,3,5.45-.05.15-.11.31-.17.46l.21-.4.22.35c-.42.68-.87,1.35-1.31,2-.19.26-.39.51-.57.77.08-.15.17-.29.24-.44a15.83,15.83,0,0,1-1.7,2.14c-.11-.22-.21-.43-.3-.66a.23.23,0,0,0,.09-.31,2.27,2.27,0,0,0-.4-.48,1.17,1.17,0,0,0,0-.11c0-.07-.08-.06-.12,0-.37-.32-.78-.6-1.13-.92a13.9,13.9,0,0,1-1.8-2s0,0,0,0a23.28,23.28,0,0,0,1.49,2.18,6.65,6.65,0,0,0,1.43,1.52,3.61,3.61,0,0,0,.58,1.32.22.22,0,0,0,.38,0c.2-.29.37-.58.55-.87-.07.16-.15.33-.21.5a0,0,0,0,0,0,0l0,0c-.06.13-.13.25-.18.38s0,.09.06,0a45.66,45.66,0,0,0,3-5v0l.06.05c-.08.13-.16.25-.25.37a3,3,0,0,1,.28-.33A.3.3,0,0,0,67.84,79.44Z"/><path class="cls-8" d="M66.73,91.31c-.64.81-1.36,1.55-2,2.35a5.54,5.54,0,0,0-1.4,2c-.76-1.18-1.69-2.25-2.39-3.47.75,1.27,1.24,2.68,2,4,.18.32.66.07.58-.24h.06c.72-.34,1.16-1.31,1.58-2,.56-.87,1.06-1.78,1.65-2.64C66.75,91.31,66.74,91.3,66.73,91.31Z"/><path class="cls-8" d="M60.84,92.08l.08.13Z"/><path class="cls-8" d="M65.72,89.14c-.68-.78-1.53-1.48-2.16-2.3v0s-.06-.1-.09,0h0c-.64.79-1.2,1.63-1.76,2.48a6,6,0,0,0-1.35,2.61.22.22,0,0,0,.33.19l.09-.07.06.09L60.79,92a7.06,7.06,0,0,0,1.55-2.37,12.29,12.29,0,0,0,1.2-2.7c.64.79,1.13,1.74,1.73,2.57a5.14,5.14,0,0,0,1.62,1.72A.1.1,0,0,0,67,91.1,4.88,4.88,0,0,0,65.72,89.14Z"/><path class="cls-8" d="M64.69,102.16A24,24,0,0,1,63,99.7c.08-.27.15-.53.22-.78s-.12-.17-.16-.07-.18.31-.26.47l0,0s-.08,0-.06,0a.21.21,0,0,1,0,.06c-.9,1.59-2.1,3.24-2.41,5a.09.09,0,0,0,.15.09c1.39-1.15,2-3,2.48-4.76.54.89,1,1.85,1.51,2.73a7.78,7.78,0,0,0,1.67,2.36c.1.08.25,0,.21-.17A11.42,11.42,0,0,0,64.69,102.16Z"/><path class="cls-8" d="M70.46,68s.09,0,.08,0a7,7,0,0,0-.79-1.82c-.06-.13-.13-.27-.19-.41l.16.43A7.32,7.32,0,0,0,70.46,68Z"/><path class="cls-8" d="M69,64.25c.18.49.39,1,.61,1.45C69.38,65.21,69.17,64.72,69,64.25Z"/><path class="cls-8" d="M68.84,55a13.08,13.08,0,0,0,.81-1.79c.22-.5.44-1,.68-1.51.23.21.63-.08.48-.41L70.68,51l.14-.24s0-.07-.06,0l-.1.21C70,49.6,69,48.36,68.35,47c0,0-.07,0,0,0,.81,1.46,1.18,3.14,2,4.61a.28.28,0,0,0,.06.08c-.28.54-.6,1.06-.91,1.57a8,8,0,0,0-1,1.93c0,.13.14.25.23.14a.6.6,0,0,0,.09-.13,20.7,20.7,0,0,1,1.36,2.65,10.33,10.33,0,0,0,1,2.08c-.81,1.24-1.68,2.45-2.46,3.71a.19.19,0,0,0,.16.28c0,.11.1.23.16.35l-.12-.35a.17.17,0,0,0,.14-.09c.77-1.24,1.46-2.54,2.19-3.81a.61.61,0,0,0,.07.1.29.29,0,0,0,.5-.2C71.53,58.14,69.84,56.38,68.84,55Z"/><path class="cls-8" d="M70.29,68.36c0,.11-.08.22-.12.33a1.83,1.83,0,0,1,.18-.3S70.3,68.31,70.29,68.36Z"/><path class="cls-8" d="M69,72.83c-.11-.28-.22-.55-.34-.82C68.72,72.29,68.84,72.56,69,72.83Z"/><path class="cls-8" d="M71,76.5c-.66-1.18-1.41-2.4-2-3.67.5,1.28.93,2.6,1.5,3.86a6.72,6.72,0,0,1-.9,2.2c-.33.48-1,.9-1,1.51a.15.15,0,0,0,.19.15c.6-.19.72-.91.92-1.45a23.4,23.4,0,0,0,.78-2.32C70.65,77.06,71.12,76.8,71,76.5Z"/><path class="cls-8" d="M69.37,70.21c.14-.24.26-.48.38-.73-.15.23-.31.46-.47.67s-.68.7-.93,1.09c0,0-.07,0,0,0v0l-.08.13a.08.08,0,0,0,.11.12l.06,0c.08.17.15.34.22.51-.07-.18-.13-.36-.19-.54A4,4,0,0,0,69.37,70.21Z"/><path class="cls-8" d="M69.75,69.48a4.29,4.29,0,0,0,.42-.79C70,69,69.89,69.21,69.75,69.48Z"/><path class="cls-8" d="M69.78,82.68a21.76,21.76,0,0,1-1.18-2.24s0,0,0,0c.24,1.4.44,3.43,1.69,4.32a.2.2,0,0,0,.29-.17A4.6,4.6,0,0,0,69.78,82.68Z"/><path class="cls-8" d="M70.93,92.79A18.44,18.44,0,0,0,69.43,91a7.29,7.29,0,0,1-1.08-1.85c.51,1.44,1,3.19,2.28,4A.22.22,0,0,0,70.93,92.79Z"/><path class="cls-8" d="M68.35,89.11v0Z"/><path class="cls-8" d="M68.45,88.84s0-.06,0-.07l0,0a.07.07,0,0,0-.06,0c.1-.36.65-1.68.69-1.78s.14-.34.2-.51c-.19.42-.4.83-.6,1.24a6.29,6.29,0,0,0-.42.75l0,0s-.08,0-.06,0a.69.69,0,0,0,.05.13.48.48,0,0,0,0,.41.12.12,0,0,0,.11,0h0l0,.09,0-.09C68.41,89,68.42,89,68.45,88.84Z"/><path class="cls-8" d="M69.2,86.46c.18-.38.34-.76.49-1.15C69.52,85.69,69.35,86.07,69.2,86.46Z"/><path class="cls-8" d="M69.92,84.66c-.07.22-.15.43-.23.65.1-.21.18-.42.29-.62A0,0,0,0,0,69.92,84.66Z"/><path class="cls-8" d="M69.94,94l0-.07A.43.43,0,0,0,69.94,94Z"/><path class="cls-8" d="M68.94,95.71a4.49,4.49,0,0,0-.76,2.07.13.13,0,0,0,.24.06,8.4,8.4,0,0,0,.73-2A10.31,10.31,0,0,1,69.94,94C69.61,94.54,69.25,95.11,68.94,95.71Z"/><path class="cls-8" d="M70.29,93.31c-.1.19-.2.39-.31.58a5.21,5.21,0,0,1,.36-.55S70.3,93.27,70.29,93.31Z"/><path class="cls-8" d="M69.31,100.29c-.49-.69-1-1.36-1.47-2.05a0,0,0,0,0-.06,0c.39.74.76,1.49,1.14,2.23A7.4,7.4,0,0,0,70,102.39c-.31.75-.6,1.51-1,2.23a3.94,3.94,0,0,0-.71,1.61.13.13,0,0,0,.23.09,4.32,4.32,0,0,0,.68-1.78c.22-.72.53-1.4.82-2.1h0a.25.25,0,0,0,.41-.24A6.81,6.81,0,0,0,69.31,100.29Z"/><path class="cls-8" d="M70.1,109.14a8.8,8.8,0,0,1-1.62-2.65s-.08,0-.06,0c.4,1,.36,2,.83,3,.33.69.84,1.8,1.66,2a.28.28,0,0,0,.34-.27C71.24,110.41,70.5,109.73,70.1,109.14Z"/><path class="cls-8" d="M70.76,111.6l-2.05,3.31s0,.07.06,0l2-3.32A0,0,0,1,0,70.76,111.6Z"/><path class="cls-8" d="M69.22,114.54a6.68,6.68,0,0,0,.49-.57A5.27,5.27,0,0,0,69.22,114.54Z"/><path class="cls-8" d="M69.82,113.79a1.74,1.74,0,0,1-.11.18.65.65,0,0,1,.16-.13S69.84,113.74,69.82,113.79Z"/><path class="cls-8" d="M69.85,117.51a9.11,9.11,0,0,1-1.23-2.25l.52-.62.08-.1-.08.09-.53.61,0-.09s-.08,0-.06,0a1.12,1.12,0,0,0,0,.13l-.06.06s0,0,0,0l0,0c.27.76.54,1.53.86,2.27.26.58.6,1.52,1.28,1.67a.08.08,0,0,0,.11-.08C70.85,118.57,70.2,118,69.85,117.51Z"/><path class="cls-8" d="M72.88,57.64A11.26,11.26,0,0,1,71.22,55a13.68,13.68,0,0,0,1.45-2.17,1.89,1.89,0,0,0,.47-1.42,4.51,4.51,0,0,0-.89-1.58c-.67-1-1.38-2-2-3.09a0,0,0,1,0-.06,0A26.23,26.23,0,0,1,72.13,51c.52,1.63-.75,2.44-1.28,3.86-.07.18.17.32.32.23a24.18,24.18,0,0,1,1,2.77c.29.7.65,1.66,1.37,2a.21.21,0,0,0,.31-.17A4,4,0,0,0,72.88,57.64Z"/><path class="cls-8" d="M73.42,61c-.53.7-1.08,1.37-1.65,2a5.07,5.07,0,0,0-1.13,1.52c0,.13.13.28.25.19a5.43,5.43,0,0,0,1.17-1.66c.44-.71.89-1.4,1.37-2.09Z"/><path class="cls-8" d="M72,74.74a15.32,15.32,0,0,1-1.07-1.95,9,9,0,0,0,1.38-2.42c-.18.31-.38.62-.58.91s-.65.81-.91,1.25a.94.94,0,0,1-.06-.15s-.08,0-.07,0l.06.26-.07.12a.1.1,0,0,0,.12.13,9.63,9.63,0,0,0,.62,2c.31.68.68,1.62,1.4,1.93a.2.2,0,0,0,.29-.23C73,75.92,72.36,75.33,72,74.74Z"/><path class="cls-8" d="M72.43,67.89c-.38-.83-.79-1.63-1.14-2.46,0-.07-.15,0-.13,0,.27.87.48,1.76.73,2.63a6.9,6.9,0,0,0,.65,1.8c-.08.14-.15.3-.23.46a4,4,0,0,0,.24-.46,1.94,1.94,0,0,0,.15.24.27.27,0,0,0,.45-.18A5.79,5.79,0,0,0,72.43,67.89Z"/><path class="cls-8" d="M72.32,77.28c-.38.88-.73,1.8-1.15,2.67a6.58,6.58,0,0,0-.94,2,.09.09,0,0,0,.15.07,6,6,0,0,0,.78-1.89c.35-1,.81-1.89,1.22-2.83A0,0,0,1,0,72.32,77.28Z"/><path class="cls-8" d="M71.83,91.73c-.47-.67-.94-1.34-1.39-2a.17.17,0,0,0,.06-.06c.62-1,2-2.36,1.72-3.6s-1.35-2.66-1.92-3.85c0,0-.07,0-.06,0a25.06,25.06,0,0,1,1.17,3.2c.39,1.6-.56,2.71-1.28,4a.21.21,0,0,0,.25.3q.59,1.08,1.14,2.19a7.87,7.87,0,0,0,.8,1.52c-.36.64-.81,1.24-1.22,1.84a6.18,6.18,0,0,0-1.18,2,.16.16,0,0,0,.25.15,5.94,5.94,0,0,0,1.17-2c.33-.64.63-1.33,1-2a1.16,1.16,0,0,0,.29.25.17.17,0,0,0,.26-.15C72.85,92.87,72.23,92.29,71.83,91.73Z"/><path class="cls-8" d="M71.36,100.88c-.48-1-1-1.91-1.38-2.92,0,0-.06,0,0,0,.32.92.55,1.84.78,2.79.18.72.24,1.65.85,2.13.12.1.35.09.38-.1A3,3,0,0,0,71.36,100.88Z"/><path class="cls-8" d="M71,104.65a2.58,2.58,0,0,0-.57,1.16.1.1,0,0,0,.16.07,2.88,2.88,0,0,0,.53-1.18c.1-.28.2-.56.32-.84C71.34,104.13,71.18,104.39,71,104.65Z"/><path class="cls-8" d="M71.48,103.86c.09-.19.18-.38.26-.57C71.64,103.48,71.56,103.67,71.48,103.86Z"/><path class="cls-8" d="M71.88,102.92c0,.12-.09.25-.14.37a4,4,0,0,1,.2-.35S71.9,102.87,71.88,102.92Z"/><path class="cls-8" d="M71.06,107.75l-.33-.85A5.76,5.76,0,0,0,71.06,107.75Z"/><path class="cls-8" d="M72.75,110.5c-.54-.93-1.23-1.78-1.69-2.75a7.68,7.68,0,0,0,1.59,2.83A.06.06,0,0,0,72.75,110.5Z"/><path class="cls-8" d="M70.56,106.47c.06.14.11.29.17.43,0-.15-.08-.3-.11-.45S70.54,106.43,70.56,106.47Z"/><path class="cls-8" d="M72.3,112.44a7.06,7.06,0,0,0,.33-1C72.52,111.79,72.4,112.11,72.3,112.44Z"/><path class="cls-8" d="M71.87,113.34c-.33.6-.89,1.11-1,1.79,0,.08.07.18.15.12a3.38,3.38,0,0,0,.91-1.72c.13-.36.24-.72.36-1.09C72.17,112.75,72,113.06,71.87,113.34Z"/><path class="cls-8" d="M72.75,110.92a5.23,5.23,0,0,1-.12.54l.18-.52S72.76,110.88,72.75,110.92Z"/><path class="cls-8" d="M73.32,118.64c-.3-.55-.92-.9-1.34-1.36a5.8,5.8,0,0,1-1.25-2.11s0,0,0,0a7,7,0,0,0,.91,2.25c.35.56.88,1.27,1.58,1.37A.1.1,0,0,0,73.32,118.64Z"/><path class="cls-8" d="M83.86,98.54s.09,0,.08,0a7.33,7.33,0,0,1-.79,1.82c-.06.13-.13.27-.19.41l.16-.43A6.63,6.63,0,0,1,83.86,98.54Z"/><path class="cls-8" d="M82.34,102.25c.18-.49.4-1,.62-1.45C82.77,101.29,82.57,101.78,82.34,102.25Z"/><path class="cls-8" d="M82.23,111.52a13.14,13.14,0,0,1,.82,1.79c.22.5.44,1,.68,1.51.22-.21.62.08.47.4l-.12.25.13.23s0,.08-.06,0l-.09-.21c-.7,1.38-1.69,2.61-2.31,4,0,0-.08,0-.06,0,.81-1.45,1.19-3.13,2-4.61,0,0,0-.05.06-.07-.29-.54-.6-1.06-.91-1.57a7.91,7.91,0,0,1-1-1.94c0-.12.15-.25.24-.13l.09.12a22.66,22.66,0,0,0,1.36-2.64,9.83,9.83,0,0,1,1-2.08c-.82-1.24-1.68-2.45-2.46-3.71a.18.18,0,0,1,.15-.28,3.73,3.73,0,0,0,.16-.35l-.11.35a.15.15,0,0,1,.13.09c.77,1.24,1.46,2.54,2.19,3.81l.08-.1a.29.29,0,0,1,.49.2C84.93,108.36,83.24,110.12,82.23,111.52Z"/><path class="cls-8" d="M83.68,98.14a2.19,2.19,0,0,0-.12-.33l.18.3S83.69,98.19,83.68,98.14Z"/><path class="cls-8" d="M82.36,93.67c-.11.28-.23.54-.34.81C82.12,94.21,82.24,93.94,82.36,93.67Z"/><path class="cls-8" d="M84.35,90c-.66,1.18-1.42,2.4-2,3.67.5-1.28.92-2.6,1.49-3.86a6.72,6.72,0,0,0-.9-2.2c-.32-.48-1-.9-1-1.51a.16.16,0,0,1,.2-.15c.59.19.71.91.92,1.45.28.76.57,1.53.78,2.32C84.05,89.43,84.52,89.7,84.35,90Z"/><path class="cls-8" d="M82.77,96.29c.13.24.26.48.38.73-.15-.23-.31-.46-.47-.67s-.69-.7-.94-1.09c0,0-.06,0,0,0v0a1.1,1.1,0,0,1-.09-.14.08.08,0,0,1,.12-.11s0,0,.05,0c.08-.17.15-.34.23-.52-.07.18-.13.37-.19.55A4.2,4.2,0,0,1,82.77,96.29Z"/><path class="cls-8" d="M83.15,97a4.55,4.55,0,0,1,.41.79C83.42,97.55,83.28,97.29,83.15,97Z"/><path class="cls-8" d="M83.17,83.82A22.65,22.65,0,0,0,82,86.06a0,0,0,0,1,0,0c.25-1.4.44-3.44,1.7-4.32a.2.2,0,0,1,.29.17A4.49,4.49,0,0,1,83.17,83.82Z"/><path class="cls-8" d="M84.33,73.71a18.58,18.58,0,0,1-1.5,1.82,7.53,7.53,0,0,0-1.08,1.86c.5-1.44,1-3.19,2.27-4A.22.22,0,0,1,84.33,73.71Z"/><path class="cls-8" d="M81.75,77.39v0Z"/><path class="cls-8" d="M81.84,77.65a.06.06,0,0,1,0,.08l0,0a0,0,0,0,1-.05,0c.1.36.65,1.68.69,1.78s.13.34.2.51c-.2-.42-.4-.84-.6-1.24a8,8,0,0,1-.43-.75.43.43,0,0,0,0,0s-.08,0-.07,0a.69.69,0,0,0,.05-.13.45.45,0,0,1,0-.41.09.09,0,0,1,.11,0h0l0-.08s0,.06,0,.09S81.82,77.55,81.84,77.65Z"/><path class="cls-8" d="M82.6,80c.17.38.34.76.49,1.15C82.91,80.81,82.75,80.43,82.6,80Z"/><path class="cls-8" d="M83.32,81.84c-.07-.22-.15-.43-.23-.65.09.21.18.42.29.62C83.4,81.85,83.33,81.88,83.32,81.84Z"/><path class="cls-8" d="M82.7,66.21c-.48.68-1,1.36-1.46,2.05a0,0,0,0,1-.07,0c.39-.74.76-1.49,1.14-2.24a7.83,7.83,0,0,1,1.11-1.87,21,21,0,0,0-1-2.23,3.8,3.8,0,0,1-.7-1.61.13.13,0,0,1,.23-.09A4.32,4.32,0,0,1,82.65,62c.22.72.53,1.4.82,2.1h0a.25.25,0,0,1,.41.24A7,7,0,0,1,82.7,66.21Z"/><path class="cls-8" d="M83.5,57.36A8.6,8.6,0,0,0,81.88,60s-.08,0-.07,0c.4-1,.37-2,.83-2.94.34-.69.85-1.8,1.66-2a.29.29,0,0,1,.35.27C84.64,56.09,83.9,56.77,83.5,57.36Z"/><path class="cls-8" d="M84.16,54.9c-.69-1.1-1.37-2.21-2-3.31,0,0,0-.07,0,0l2,3.32A0,0,0,1,1,84.16,54.9Z"/><path class="cls-8" d="M82.61,52a6.69,6.69,0,0,1,.5.58A5.63,5.63,0,0,1,82.61,52Z"/><path class="cls-8" d="M83.22,52.71a1.74,1.74,0,0,0-.11-.18.87.87,0,0,0,.15.13S83.24,52.75,83.22,52.71Z"/><path class="cls-8" d="M83.25,49A9.14,9.14,0,0,0,82,51.23l.52.63.07.09a.3.3,0,0,0-.08-.08c-.17-.21-.35-.41-.53-.61l0,.09s-.08,0-.06,0,0-.08,0-.13l0-.06s0,0,0,0l0,.05c.27-.76.54-1.53.87-2.27.25-.58.6-1.53,1.28-1.68a.09.09,0,0,1,.11.09C84.25,47.93,83.6,48.51,83.25,49Z"/><path class="cls-8" d="M86.27,108.85a11.28,11.28,0,0,0-1.65,2.61,13.9,13.9,0,0,1,1.45,2.17,1.92,1.92,0,0,1,.46,1.42,4.29,4.29,0,0,1-.89,1.58c-.67,1-1.37,2-2,3.09a0,0,0,0,1-.06,0,26,26,0,0,0,1.92-4.19c.52-1.62-.76-2.43-1.28-3.85-.07-.19.17-.32.32-.23a26.21,26.21,0,0,0,1-2.77c.29-.7.65-1.66,1.37-2a.2.2,0,0,1,.3.17A3.76,3.76,0,0,1,86.27,108.85Z"/><path class="cls-8" d="M86.82,105.49c-.53-.7-1.08-1.37-1.65-2A5.07,5.07,0,0,1,84,101.93a.17.17,0,0,1,.25-.19,5.79,5.79,0,0,1,1.17,1.66c.44.71.89,1.4,1.37,2.09C86.83,105.49,86.82,105.5,86.82,105.49Z"/><path class="cls-8" d="M85.39,91.76a18.29,18.29,0,0,0-1.07,1.95,9,9,0,0,1,1.39,2.42c-.18-.31-.38-.62-.58-.91s-.65-.81-.91-1.25l-.07.15s-.07,0-.06,0l.06-.26a.75.75,0,0,1-.07-.12.09.09,0,0,1,.12-.13,9.69,9.69,0,0,1,.61-2c.31-.67.69-1.61,1.41-1.92a.2.2,0,0,1,.29.23A6,6,0,0,1,85.39,91.76Z"/><path class="cls-8" d="M85.83,98.61c-.38.82-.79,1.63-1.15,2.46,0,.07-.14,0-.12,0,.27-.87.48-1.76.73-2.64a7,7,0,0,1,.65-1.79c-.08-.15-.16-.3-.23-.46.08.15.16.3.23.46a1.94,1.94,0,0,1,.15-.24.26.26,0,0,1,.45.18A5.59,5.59,0,0,1,85.83,98.61Z"/><path class="cls-8" d="M85.72,89.22c-.39-.88-.74-1.8-1.16-2.67a7.08,7.08,0,0,1-.94-2,.1.1,0,0,1,.16-.07,6.17,6.17,0,0,1,.77,1.89c.35,1,.82,1.89,1.23,2.83C85.79,89.23,85.74,89.26,85.72,89.22Z"/><path class="cls-8" d="M85.23,74.76c-.48.68-.94,1.35-1.4,2a.09.09,0,0,1,.06.06c.63,1,2,2.36,1.73,3.6s-1.36,2.66-1.92,3.85c0,0-.08,0-.06,0a25,25,0,0,0,1.16-3.2c.39-1.61-.56-2.71-1.27-4a.21.21,0,0,1,.25-.3q.59-1.08,1.14-2.19a6.69,6.69,0,0,1,.8-1.52c-.36-.64-.81-1.24-1.22-1.84a6.18,6.18,0,0,1-1.18-2,.15.15,0,0,1,.25-.15,5.94,5.94,0,0,1,1.17,2c.32.64.62,1.33,1,2a1.13,1.13,0,0,1,.29-.25.18.18,0,0,1,.27.15C86.24,73.63,85.62,74.2,85.23,74.76Z"/><path class="cls-8" d="M84.75,65.62c-.47,1-1,1.9-1.37,2.92,0,0-.06,0,0,0,.32-.92.54-1.84.78-2.79.17-.72.24-1.65.84-2.14.12-.09.36-.08.39.11A3.11,3.11,0,0,1,84.75,65.62Z"/><path class="cls-8" d="M84.43,61.85a2.72,2.72,0,0,1-.56-1.16.09.09,0,0,1,.15-.07,2.64,2.64,0,0,1,.53,1.18c.1.28.21.56.32.84C84.73,62.37,84.58,62.11,84.43,61.85Z"/><path class="cls-8" d="M84.87,62.64a5.94,5.94,0,0,1,.27.57Q85,62.93,84.87,62.64Z"/><path class="cls-8" d="M85.28,63.58c0-.12-.09-.25-.14-.37a4,4,0,0,0,.2.35S85.29,63.63,85.28,63.58Z"/><path class="cls-8" d="M84.46,58.75l-.33.85A4.83,4.83,0,0,1,84.46,58.75Z"/><path class="cls-8" d="M86.15,56c-.54.94-1.23,1.79-1.69,2.76a7.6,7.6,0,0,1,1.59-2.83C86.1,55.87,86.19,55.93,86.15,56Z"/><path class="cls-8" d="M84,60l.18-.43c0,.15-.09.3-.12.45S83.93,60.07,84,60Z"/><path class="cls-8" d="M85.69,54.05A7.73,7.73,0,0,1,86,55C85.92,54.71,85.8,54.39,85.69,54.05Z"/><path class="cls-8" d="M85.26,53.16c-.32-.6-.89-1.11-1-1.79,0-.08.07-.18.15-.12a3.3,3.3,0,0,1,.9,1.72q.19.54.36,1.08A9.13,9.13,0,0,0,85.26,53.16Z"/><path class="cls-8" d="M86.15,55.58A5.23,5.23,0,0,0,86,55c.06.17.11.35.18.52S86.15,55.62,86.15,55.58Z"/><path class="cls-8" d="M86.72,47.86c-.3.55-.92.9-1.34,1.36a5.53,5.53,0,0,0-1.25,2.11s0,0,0,0a6.77,6.77,0,0,1,.9-2.25c.36-.56.89-1.27,1.58-1.37C86.69,47.7,86.76,47.77,86.72,47.86Z"/><path class="cls-8" d="M62.76,52.33a3.13,3.13,0,0,1,.15-.32,1.46,1.46,0,0,1-.21.28S62.74,52.38,62.76,52.33Z"/><path class="cls-8" d="M62.91,52a.35.35,0,0,0,.05-.08Z"/><path class="cls-8" d="M64.09,50.32a.64.64,0,0,0,0-.23A.07.07,0,0,0,64,50c-.32.18-.44.58-.59.9s-.29.68-.48,1c.2-.31.45-.6.67-.89a3.91,3.91,0,0,0,.44-.65l.12.14a2,2,0,0,1-.1-.21Z"/><path class="cls-8" d="M64.44,50.93c-.08-.14-.16-.27-.25-.4A3.34,3.34,0,0,0,64.44,50.93Z"/><path class="cls-8" d="M64.73,51.31l-.29-.38.25.49c.13.27.19.58.45.76.06,0,.12,0,.11-.09C65.2,51.78,64.92,51.56,64.73,51.31Z"/><path class="cls-8" d="M66.59,51.8a.37.37,0,0,0-.3-.17l-.06-.11a.47.47,0,0,0,.09-.39,3.71,3.71,0,0,0-.93-1.49l-.13-.13a.42.42,0,0,0,.18-.3c0-.48-.51-.9-.8-1.24a1.38,1.38,0,0,0-.69-.24c-.27.47-.8,1.09-.62,1.67a6,6,0,0,0-.56.89c-.18.35-.32.71-.47,1.07a1.89,1.89,0,0,0-.19.44L62,52a.18.18,0,0,0,.1.24.2.2,0,0,0,0,.07.34.34,0,0,0,.18.19,9.92,9.92,0,0,0,.52,1.31,4.14,4.14,0,0,0,1.07,1.62s0,0,0,0a.34.34,0,0,0,.51.29,2.85,2.85,0,0,0,1-1.52c.25-.29.5-.57.72-.88C66.41,52.89,66.85,52.38,66.59,51.8ZM64.81,53c-.08.29-.14.59-.2.89h0v0l0-.09A8,8,0,0,0,65,51.88s-.06,0-.06,0a5.81,5.81,0,0,1-.53,1.7,2,2,0,0,0-.25-.25,2.54,2.54,0,0,0-.28-.29,2.65,2.65,0,0,1-.63-1.16v0c.11-.21.19-.45.28-.64a4.45,4.45,0,0,0,.22-.57c.14-.19.28-.38.41-.59a5.45,5.45,0,0,1,.67,1.29c.09.23.18.47.29.69A6.27,6.27,0,0,0,64.81,53Z"/><path class="cls-8" d="M62.45,65.64s0,.09,0,0a1.92,1.92,0,0,1,.18-.35A1.78,1.78,0,0,1,62.45,65.64Z"/><path class="cls-8" d="M62.68,65.33l.15-.25C62.77,65.16,62.73,65.25,62.68,65.33Z"/><path class="cls-8" d="M64.24,64.93c-.24-.31-.47-.63-.7-.94a.54.54,0,0,0,.05-.11s0,0,0,0l-.06.07,0,0a0,0,0,0,0,0,0l0,.06a6.11,6.11,0,0,0-.65,1.14,7.19,7.19,0,0,0,.7-1.06c.2.3.4.61.59.92a2.57,2.57,0,0,0,.58.8s0,0,0,0A2.4,2.4,0,0,0,64.24,64.93Z"/><path class="cls-8" d="M66.92,65.91l.32-.63s0-.07,0,0l-.26.3a1,1,0,0,0-.1-.27.18.18,0,0,0-.1-.09,10.41,10.41,0,0,0-1.23-2.24,11.41,11.41,0,0,0-1.56-2,.22.22,0,0,0-.37.21.08.08,0,0,1,0,.05,12.21,12.21,0,0,0-2.89,3.1.56.56,0,0,0-.09.65c.54.86,1,1.74,1.55,2.62A4.15,4.15,0,0,0,63.56,70a.51.51,0,0,0,.93.31c.53-.79,1-1.61,1.49-2.44.16-.27.3-.56.43-.84A3.09,3.09,0,0,0,66.92,65.91Zm-4.08-.36a6.77,6.77,0,0,0,.45-.54,6.66,6.66,0,0,0,.52-.75,3.3,3.3,0,0,0,.89,1.53.28.28,0,0,0,0,.09l0-.06,0,0a2.36,2.36,0,0,0-.12.28,2.27,2.27,0,0,0,.06-.25,5.66,5.66,0,0,0-.2.58,1.17,1.17,0,0,0,.05-.11l0,.08a5.09,5.09,0,0,0-.26.84.4.4,0,0,0,0-.15,3.51,3.51,0,0,0,.27-.66q-.08.15-.15.27a1.5,1.5,0,0,1-.18.24,3,3,0,0,0-.48-.53A7.88,7.88,0,0,1,62.84,65.55Z"/><path class="cls-8" d="M66.16,77.44a4.63,4.63,0,0,0-.43-.54C65.2,76,64.61,75.13,64,74.24a.05.05,0,0,0-.1,0,.52.52,0,0,1,0,.11.53.53,0,0,0-.64.32c0,.05,0,.09,0,.13a6.1,6.1,0,0,0-1.38,1.69.5.5,0,0,0,0,.52,7.6,7.6,0,0,0-1,1.5,5,5,0,0,0-.44.47.18.18,0,0,0,0,.07l0,0h0a.36.36,0,0,0,0,.35s0,0,0,0c0,1,.82,1.81,1.33,2.56a9.8,9.8,0,0,0,1.84,2.5c.34.26.7-.16.65-.49a.4.4,0,0,0,.24-.22,10.59,10.59,0,0,0,1.3-2.07,9.7,9.7,0,0,0,1-2,.41.41,0,0,0,.2-.24C67.21,78.87,66.56,78,66.16,77.44Zm-1.88,2.25-.24.19a2.57,2.57,0,0,0-.42.38,2.77,2.77,0,0,0-.52-.38,3.43,3.43,0,0,1-.57-.34l.06-.09h0a4,4,0,0,0,.48-.61c.16-.22.41-.71.65-.81l.06,0a3.77,3.77,0,0,0,.64,1.38C64.37,79.48,64.33,79.59,64.28,79.69Z"/><path class="cls-8" d="M66.56,91.13a.31.31,0,0,0-.25-.45,5.67,5.67,0,0,0-1.1-1.8,4.58,4.58,0,0,0-1.56-1.65.19.19,0,0,0-.28.16v0a.13.13,0,0,0-.08.15c0,.08,0,.16.06.25a.45.45,0,0,0-.51.13,7.16,7.16,0,0,0-1.17,1.9,6.46,6.46,0,0,0-.42,1.45.17.17,0,0,0-.14.24s0,0,0,0-.25-.07-.41-.11a.23.23,0,0,0-.25.33c.16.3.3.61.45.91v0a7.4,7.4,0,0,0,.44,1,3.56,3.56,0,0,0,.46.62,4,4,0,0,0,.82,1.08.51.51,0,0,0,.53.06,1.09,1.09,0,0,0,0,.18.25.25,0,0,0,.32.24c.77-.25,1.11-1.21,1.54-1.86.6-.91,1-1.87,1.54-2.83a.09.09,0,0,0,0-.07Zm-3.93,1.11.08-.21,0,0s0,.07.06,0,.07-.17.11-.26a7,7,0,0,0,.38-.63l.23-.34a2.93,2.93,0,0,1,.19-.26,1.27,1.27,0,0,0,.06.18.59.59,0,0,0,0,.08s0,.08,0,.12a1.15,1.15,0,0,0,.21.69.42.42,0,0,0,.29.21,7.7,7.7,0,0,1-.84,1.13l0,0a4.17,4.17,0,0,0-.44-.29A1.67,1.67,0,0,1,62.63,92.24Z"/><path class="cls-8" d="M62.42,105.13l0,.05Z"/><path class="cls-8" d="M62.23,105.49a1.82,1.82,0,0,1,.16-.31,1.86,1.86,0,0,1-.21.28S62.21,105.54,62.23,105.49Z"/><path class="cls-8" d="M64.34,105.26a9.12,9.12,0,0,0-1-1.3s0,0,0-.06a2,2,0,0,0,0-.55,0,0,0,0,0-.08,0c-.11.12-.27.18-.37.31a1.18,1.18,0,0,0-.16.49,3.82,3.82,0,0,1-.31,1c.2-.31.47-.57.7-.86a1,1,0,0,0,.13-.18,7,7,0,0,0,.44,1.55C63.91,106.08,64.55,105.7,64.34,105.26Z"/><path class="cls-8" d="M65.74,104a1.19,1.19,0,0,0-.71-.32h0a2.59,2.59,0,0,0-.3-.95c.13-.35-.24-.85-.41-1.12a16.64,16.64,0,0,0-1.07-1.77.38.38,0,0,0-.6.07.94.94,0,0,0-.09.42.13.13,0,0,0-.12.16c.09.27.16.54.24.8a.51.51,0,0,0-.62.19s-.07.12-.11.17a.23.23,0,0,0-.18,0c-.66.17-.66,1-.76,1.59a4.54,4.54,0,0,0,0,1,.42.42,0,0,0-.63.53c.22.43.45.85.69,1.27a1.11,1.11,0,0,0-.07.16c-.08.2.15.33.32.27l.29.49a6.86,6.86,0,0,0,1.08,1.52,2.92,2.92,0,0,0-.21.56.4.4,0,0,0,.66.38,7.3,7.3,0,0,0,1.41-2c.24-.37.49-.74.7-1.13.09-.18.16-.36.23-.54a.61.61,0,0,0,.36-.47.51.51,0,0,0,.26-.31A.9.9,0,0,0,65.74,104ZM64,105.42a7.22,7.22,0,0,0-.71,1,7.81,7.81,0,0,0-.62-.67,1.7,1.7,0,0,0,.58.73l0,0c-.33-.34-.68-.67-1-1a16.15,16.15,0,0,0,1.23-1.6,11.38,11.38,0,0,0,.64,1.37h0A1,1,0,0,1,64,105.42Z"/><path class="cls-8" d="M62.64,105.77l0,0S62.62,105.76,62.64,105.77Z"/><path class="cls-8" d="M62.41,105.48a1.18,1.18,0,0,1,.19.24.82.82,0,0,1-.14-.28S62.37,105.44,62.41,105.48Z"/><path class="cls-8" d="M65.66,115.7a.5.5,0,0,0,.08-.6,18.9,18.9,0,0,0-2.14-3.56c0-.06-.11,0-.1,0s.08.34.12.51a2,2,0,0,1-.23-.49s-.08,0-.06,0a3.29,3.29,0,0,1,.17.39c-.34-.2-.88,0-.71.5l0,.11a.42.42,0,0,0-.54.47,7.75,7.75,0,0,0-1.16,2l-.06.07a1.41,1.41,0,0,0-.32.54.21.21,0,0,0,.18.25c0,.07,0,.14,0,.21,0,1.07,1.26,2.22,1.92,3a.33.33,0,0,0,.16.11.46.46,0,0,0,.76-.09l0,0a.47.47,0,0,0,.55-.27,11.09,11.09,0,0,0,1-2.18.25.25,0,0,0,0-.07.51.51,0,0,0,0-.43l.18-.4Zm-2.58.75-.23-.21c-.12-.1-.33-.2-.49-.33.13-.34.46-.4.7-.64a2.09,2.09,0,0,0,.14-.17.53.53,0,0,1,0,.15c0,.12,0,.26,0,.38a.8.8,0,0,0,.22.51A4.56,4.56,0,0,0,63.08,116.45Z"/><path class="cls-8" d="M74.91,52.88l.56.76A8.26,8.26,0,0,0,74.91,52.88Z"/><path class="cls-8" d="M79.55,49.81a11.74,11.74,0,0,0-1.41-2A.31.31,0,0,0,78,47.7c-.11-.13-.21-.28-.31-.41a0,0,0,0,0-.07.05l0,.06a.05.05,0,0,0-.09,0,22.27,22.27,0,0,0-1.89,3.15,6.52,6.52,0,0,0-.43.77c-.21.37-.43.74-.67,1.1l0,0s-.08,0,0,0l0,0-.12.18s0,.07.06,0l.1-.17c.05.06.11.12.16.19a15.33,15.33,0,0,1,1,2.39,5.78,5.78,0,0,0,1.15,2.18.28.28,0,0,0,.4,0l.08,0a.23.23,0,0,0,.33-.06c.31-.47.6-1,.91-1.43a8.48,8.48,0,0,0,1.78-2.86l.32-.53a1.42,1.42,0,0,0,.12.13c.11.12.36,0,.29-.17A12.25,12.25,0,0,0,79.55,49.81Zm-.21,3.34-.36.44c-.49.65-1,1.3-1.48,1.94-.42-.77-1-1.46-1.35-2.24a2.5,2.5,0,0,1,0-2.09A10.49,10.49,0,0,0,77.3,49a.17.17,0,0,0,0-.12c.1-.23.18-.47.27-.7l0,0h0a6.61,6.61,0,0,0,.64,1.2c.42.83.79,1.7,1.19,2.54a1.64,1.64,0,0,1,.16.45A2.69,2.69,0,0,1,79.34,53.15Z"/><path class="cls-8" d="M80.24,65.77c-.08.19-.18.37-.27.56.11-.18.21-.36.33-.53A0,0,0,1,0,80.24,65.77Z"/><path class="cls-8" d="M78.74,68.4a8.84,8.84,0,0,0-1.3,2.29h0a29.37,29.37,0,0,1-2.75-4.25,20.79,20.79,0,0,0,2.38,4.46.24.24,0,0,0,.41-.06.09.09,0,0,0,.12,0,8,8,0,0,0,1.27-2.35c.19-.4.39-.81.59-1.21C79.22,67.65,79,68,78.74,68.4Z"/><path class="cls-8" d="M79.45,67.26c.18-.3.36-.62.52-.93C79.79,66.63,79.61,66.94,79.45,67.26Z"/><path class="cls-8" d="M74.12,65.12a11.72,11.72,0,0,0,.56,1.31C74.49,66,74.31,65.56,74.12,65.12Z"/><path class="cls-8" d="M79.36,63.11c-.68-.91-1.42-1.77-2.11-2.68,0-.07-.16,0-.11.06l.06.12a.11.11,0,0,0-.08,0A38.39,38.39,0,0,0,74,64.8l-.12-.36s-.08,0-.06,0l.16.37a1.88,1.88,0,0,0-.16.23s0,0,0,0l.17-.19.1.24c0-.09-.05-.18-.08-.27a39.89,39.89,0,0,0,3.28-4c.49.88,1,1.77,1.46,2.64s.85,1.78,1.64,2.21a.22.22,0,0,0,.33-.19A5.35,5.35,0,0,0,79.36,63.11Z"/><path class="cls-8" d="M80.23,79.9c-.4.77-.8,1.54-1.21,2.3A12.09,12.09,0,0,0,80.23,79.9Z"/><path class="cls-8" d="M80.52,80.35c-.14.17-.27.35-.4.53Z"/><path class="cls-8" d="M81.23,79.63c-1.06-2-2.53-3.82-3.75-5.74h0c.07-.18-.19-.3-.31-.18-1.61,1.63-2.65,4-3.74,6a0,0,0,0,0,0,0c1.38-1.78,3.12-3.65,4-5.75,1,1.8,1.87,3.71,3,5.45-.05.16-.11.31-.17.47l.21-.41.22.35c-.42.68-.87,1.35-1.31,2-.19.26-.39.51-.57.77.08-.15.17-.29.24-.43a16.37,16.37,0,0,1-1.7,2.13c-.11-.21-.21-.43-.3-.65a.24.24,0,0,0,.09-.32,3,3,0,0,0-.4-.48l0-.11a.08.08,0,0,0-.12,0c-.37-.32-.78-.6-1.13-.92a13.4,13.4,0,0,1-1.8-2s0,0,0,0A23.28,23.28,0,0,0,75.07,82a6.69,6.69,0,0,0,1.43,1.53,3.79,3.79,0,0,0,.57,1.31.23.23,0,0,0,.39,0c.2-.29.37-.58.55-.87-.07.16-.15.33-.21.5a0,0,0,0,0,0,0l0,0c-.06.13-.13.25-.19.38s0,.09.07,0a45.66,45.66,0,0,0,3-5v0l.06.06-.25.36L80.8,80A.3.3,0,0,0,81.23,79.63Z"/><path class="cls-8" d="M80.12,91.5c-.64.81-1.36,1.56-2,2.35a5.49,5.49,0,0,0-1.4,2c-.76-1.19-1.69-2.26-2.39-3.48.75,1.27,1.24,2.68,2,4a.32.32,0,0,0,.58-.23l.06,0c.72-.34,1.16-1.31,1.58-2,.56-.87,1.06-1.78,1.65-2.64C80.14,91.5,80.13,91.49,80.12,91.5Z"/><path class="cls-8" d="M74.23,92.27l.08.13Z"/><path class="cls-8" d="M79.11,89.33c-.68-.78-1.53-1.48-2.16-2.3v0c0-.05-.06-.1-.09-.05h0c-.64.79-1.2,1.63-1.76,2.48a6.13,6.13,0,0,0-1.36,2.61.23.23,0,0,0,.34.19l.09-.06.06.08,0-.09a7.06,7.06,0,0,0,1.55-2.37,12.09,12.09,0,0,0,1.2-2.7c.64.79,1.13,1.75,1.73,2.57a5,5,0,0,0,1.62,1.72.1.1,0,0,0,.14-.11A5,5,0,0,0,79.11,89.33Z"/><path class="cls-8" d="M78.08,102.35a24,24,0,0,1-1.65-2.46c.08-.26.15-.53.22-.78,0-.1-.12-.17-.16-.07s-.18.31-.26.47l0,0a0,0,0,1,0-.06,0l0,.06c-.9,1.59-2.1,3.24-2.41,5a.09.09,0,0,0,.15.09c1.39-1.15,2-3,2.48-4.75.54.88,1,1.84,1.51,2.73A7.86,7.86,0,0,0,79.59,105c.1.08.25,0,.21-.16A11.48,11.48,0,0,0,78.08,102.35Z"/><path class="cls-8" d="M76.15,52.52a3.13,3.13,0,0,1,.15-.32,1.94,1.94,0,0,1-.21.29S76.13,52.57,76.15,52.52Z"/><path class="cls-8" d="M76.3,52.2a.35.35,0,0,0,0-.08Z"/><path class="cls-8" d="M77.48,50.51a.59.59,0,0,0,0-.23.08.08,0,0,0-.11-.06c-.32.18-.44.58-.59.9s-.29.68-.48,1c.2-.31.45-.6.67-.89a3.54,3.54,0,0,0,.44-.65,1,1,0,0,1,.12.15l-.1-.22Z"/><path class="cls-8" d="M77.83,51.12a3.73,3.73,0,0,0-.25-.39A4.25,4.25,0,0,0,77.83,51.12Z"/><path class="cls-8" d="M78.12,51.51l-.29-.39.25.49c.13.27.19.58.45.76.06,0,.12,0,.11-.09C78.59,52,78.31,51.75,78.12,51.51Z"/><path class="cls-8" d="M80,52a.36.36,0,0,0-.3-.18l-.06-.11a.46.46,0,0,0,.09-.39,3.71,3.71,0,0,0-.93-1.49l-.13-.13a.42.42,0,0,0,.18-.3c0-.48-.51-.9-.8-1.24a.33.33,0,0,0-.17-.1.28.28,0,0,0-.52-.14c-.27.47-.8,1.09-.62,1.67a6.1,6.1,0,0,0-.56.9c-.18.34-.32.7-.47,1.06a1.89,1.89,0,0,0-.19.44l-.09.21a.17.17,0,0,0,.1.23.17.17,0,0,0,0,.07.34.34,0,0,0,.18.19A9.92,9.92,0,0,0,76.22,54a4.07,4.07,0,0,0,1.07,1.62s0,0,0,0a.34.34,0,0,0,.51.3,2.88,2.88,0,0,0,1-1.53,10.22,10.22,0,0,0,.72-.88C79.8,53.08,80.24,52.57,80,52ZM78.2,53.21c-.08.3-.14.59-.2.89h0v0L78,54a8,8,0,0,0,.43-1.93s-.06,0-.06,0a5.81,5.81,0,0,1-.53,1.7l-.25-.25a3.76,3.76,0,0,0-.28-.29,2.55,2.55,0,0,1-.63-1.16h0c.11-.22.19-.45.28-.65s.15-.38.22-.57a5.08,5.08,0,0,0,.4-.59,5.13,5.13,0,0,1,.68,1.29c.09.23.18.47.29.7A6.17,6.17,0,0,0,78.2,53.21Z"/><path class="cls-8" d="M75.84,65.84s0,.08,0,0a2.31,2.31,0,0,1,.18-.35A2.35,2.35,0,0,1,75.84,65.84Z"/><path class="cls-8" d="M76.07,65.52l.15-.24A1.94,1.94,0,0,0,76.07,65.52Z"/><path class="cls-8" d="M77.63,65.12c-.24-.31-.47-.62-.7-.94a.54.54,0,0,0,0-.11s0,0,0,0l-.06.07,0-.05s0,0,0,0l0,0a6.19,6.19,0,0,0-.65,1.15,7.85,7.85,0,0,0,.7-1.07c.2.3.4.61.59.92a2.46,2.46,0,0,0,.58.8s0,0,0,0A2.34,2.34,0,0,0,77.63,65.12Z"/><path class="cls-8" d="M80.31,66.1l.32-.63s0-.07,0,0l-.26.31a.94.94,0,0,0-.1-.28.22.22,0,0,0-.1-.09,10.41,10.41,0,0,0-1.23-2.24,11.41,11.41,0,0,0-1.56-2,.22.22,0,0,0-.37.21s0,0,0,0a12.09,12.09,0,0,0-2.89,3.11.55.55,0,0,0-.09.64c.54.86,1,1.74,1.55,2.62A4.21,4.21,0,0,0,77,70.17a.51.51,0,0,0,.93.3c.53-.79,1-1.61,1.49-2.43.16-.28.3-.56.43-.85A3,3,0,0,0,80.31,66.1Zm-4.08-.36a6.7,6.7,0,0,0,.45-.53,7.85,7.85,0,0,0,.52-.76A3.34,3.34,0,0,0,78.09,66a.28.28,0,0,0,0,.09l0-.07,0,0a2.36,2.36,0,0,0-.12.28,2.1,2.1,0,0,0,.06-.24,5.49,5.49,0,0,0-.2.57,1.17,1.17,0,0,0,.05-.11l0,.08a5.4,5.4,0,0,0-.26.84.4.4,0,0,0,0-.15,3.51,3.51,0,0,0,.27-.66l-.15.28a2,2,0,0,1-.18.23,3,3,0,0,0-.48-.53A7.88,7.88,0,0,1,76.23,65.74Z"/><path class="cls-8" d="M79.55,77.63a5.66,5.66,0,0,0-.43-.54c-.53-.93-1.12-1.77-1.71-2.66,0-.05-.11,0-.1,0s0,.07,0,.1a.52.52,0,0,0-.64.33s0,.08,0,.13a5.91,5.91,0,0,0-1.38,1.68.52.52,0,0,0,0,.52,8,8,0,0,0-.94,1.5c-.15.15-.3.3-.44.47a.18.18,0,0,0-.05.07l0,0h0a.36.36,0,0,0,0,.35.07.07,0,0,0,0,0c0,1,.82,1.81,1.33,2.56A10,10,0,0,0,77,84.78c.34.25.7-.17.65-.5a.4.4,0,0,0,.24-.22A10.3,10.3,0,0,0,79.19,82a9.89,9.89,0,0,0,1-1.95.48.48,0,0,0,.2-.24C80.6,79.06,80,78.21,79.55,77.63Zm-1.88,2.26-.24.18a3.13,3.13,0,0,0-.42.38,3.14,3.14,0,0,0-.52-.38,3.42,3.42,0,0,1-.57-.33l.06-.1h0a4,4,0,0,0,.48-.61c.16-.21.41-.71.65-.81l.06,0a3.77,3.77,0,0,0,.64,1.38C77.76,79.68,77.72,79.78,77.67,79.89Z"/><path class="cls-8" d="M80,91.32a.31.31,0,0,0-.25-.45,5.78,5.78,0,0,0-1.1-1.8A4.47,4.47,0,0,0,77,87.43a.18.18,0,0,0-.28.16v0a.13.13,0,0,0-.08.15,2.27,2.27,0,0,0,.06.25.44.44,0,0,0-.51.14A7.11,7.11,0,0,0,75.06,90a6.46,6.46,0,0,0-.42,1.45.17.17,0,0,0-.14.24s0,0,0,0-.25-.07-.41-.11a.23.23,0,0,0-.25.33c.16.3.3.61.45.91v0a7.4,7.4,0,0,0,.44,1,3.56,3.56,0,0,0,.46.62A3.86,3.86,0,0,0,76,95.62a.47.47,0,0,0,.53.06,1.09,1.09,0,0,0,0,.18.26.26,0,0,0,.32.25c.77-.26,1.11-1.22,1.54-1.86.6-.92,1-1.88,1.54-2.83a.11.11,0,0,0,0-.08ZM76,92.43l.08-.2,0,0s0,.07.06,0l.11-.26a5.85,5.85,0,0,0,.38-.63l.23-.34.19-.26a1.27,1.27,0,0,0,.06.18l0,.09s0,.07,0,.11a1.18,1.18,0,0,0,.21.7.43.43,0,0,0,.29.2,7.7,7.7,0,0,1-.84,1.13l0,0c-.14-.11-.29-.19-.44-.29A1.67,1.67,0,0,1,76,92.43Z"/><path class="cls-8" d="M75.81,105.32l0,.05Z"/><path class="cls-8" d="M75.62,105.68a1.82,1.82,0,0,1,.16-.31,1.86,1.86,0,0,1-.21.28S75.6,105.73,75.62,105.68Z"/><path class="cls-8" d="M77.72,105.46a8,8,0,0,0-1-1.31s0,0,0-.06a2,2,0,0,0,0-.55,0,0,0,0,0-.08,0c-.11.12-.27.18-.37.31a1.23,1.23,0,0,0-.16.49,4.23,4.23,0,0,1-.31,1c.2-.31.47-.57.7-.86a1,1,0,0,0,.13-.18,7,7,0,0,0,.44,1.55C77.3,106.27,77.94,105.89,77.72,105.46Z"/><path class="cls-8" d="M79.13,104.23a1.19,1.19,0,0,0-.71-.32h0a2.59,2.59,0,0,0-.3-1c.13-.34-.24-.85-.41-1.12a16.64,16.64,0,0,0-1.07-1.77.38.38,0,0,0-.6.08.9.9,0,0,0-.09.41.14.14,0,0,0-.12.17c.09.26.16.53.24.79a.53.53,0,0,0-.62.19s-.07.12-.11.17a.28.28,0,0,0-.18,0c-.66.17-.66,1-.76,1.59a4.58,4.58,0,0,0-.05,1,.42.42,0,0,0-.63.53c.22.43.45.85.69,1.27a1.11,1.11,0,0,0-.07.16c-.08.2.15.34.32.27.1.16.19.33.29.5A7,7,0,0,0,76,108.65a2.92,2.92,0,0,0-.21.56.4.4,0,0,0,.66.38,7.25,7.25,0,0,0,1.41-2c.24-.38.49-.75.7-1.14a4.08,4.08,0,0,0,.22-.54.6.6,0,0,0,.37-.47.48.48,0,0,0,.26-.31A.9.9,0,0,0,79.13,104.23Zm-1.77,1.38a7.22,7.22,0,0,0-.71,1A6.45,6.45,0,0,0,76,106a1.83,1.83,0,0,0,.58.73l0,0c-.33-.34-.68-.67-1-1a17.27,17.27,0,0,0,1.23-1.59,12,12,0,0,0,.64,1.36h0Z"/><path class="cls-8" d="M76,106l0-.06Z"/><path class="cls-8" d="M75.8,105.67a1.55,1.55,0,0,1,.19.24.87.87,0,0,1-.14-.27C75.84,105.58,75.76,105.63,75.8,105.67Z"/><path class="cls-8" d="M79.05,115.89a.49.49,0,0,0,.08-.59A18.66,18.66,0,0,0,77,111.73s-.11,0-.1.06.08.33.11.5a2.16,2.16,0,0,1-.22-.49s-.08,0-.06,0a2.59,2.59,0,0,1,.17.38c-.34-.2-.88.05-.71.5l0,.11a.42.42,0,0,0-.54.47,7.75,7.75,0,0,0-1.16,2l-.07.07a1.62,1.62,0,0,0-.31.54.22.22,0,0,0,.18.26c0,.07,0,.14,0,.21,0,1.06,1.26,2.21,1.92,3a.33.33,0,0,0,.16.11.46.46,0,0,0,.76-.09l0,0a.46.46,0,0,0,.55-.27,11.09,11.09,0,0,0,1-2.18.25.25,0,0,0,0-.07.51.51,0,0,0,0-.43l.18-.39Zm-2.58.75-.23-.2c-.12-.1-.33-.21-.49-.33.13-.35.46-.41.7-.65a2.09,2.09,0,0,0,.14-.17.53.53,0,0,1,0,.15c0,.12,0,.26,0,.38a.78.78,0,0,0,.22.51A4.56,4.56,0,0,0,76.47,116.64Z"/><path class="cls-8" d="M88.7,53.5l.56.76A8.77,8.77,0,0,0,88.7,53.5Z"/><path class="cls-8" d="M93.34,50.43a12.22,12.22,0,0,0-1.41-2,.42.42,0,0,0-.12-.08c-.1-.14-.2-.28-.31-.41s-.08,0-.06.05l0,0a.06.06,0,0,0-.09,0,23.2,23.2,0,0,0-1.9,3.14,8.46,8.46,0,0,0-.42.77c-.22.38-.44.75-.68,1.11v0s-.09,0-.05,0l0,0-.12.19s0,.07,0,0a1.62,1.62,0,0,0,.1-.18l.17.19a15.87,15.87,0,0,1,1,2.4,5.71,5.71,0,0,0,1.15,2.18.28.28,0,0,0,.4,0,.13.13,0,0,0,.08,0,.21.21,0,0,0,.32-.05c.32-.47.61-.95.91-1.43a8.12,8.12,0,0,0,1.78-2.87l.33-.52.11.13c.12.11.36,0,.3-.17A12.25,12.25,0,0,0,93.34,50.43Zm-.21,3.34c-.1.12-.23.26-.37.44-.49.65-1,1.3-1.48,1.93-.41-.77-.94-1.45-1.35-2.23a2.47,2.47,0,0,1,0-2.09,10.49,10.49,0,0,0,1.14-2.24.17.17,0,0,0,0-.12c.1-.23.18-.47.27-.71a.14.14,0,0,0,0,.06h0A7,7,0,0,0,92,50c.42.84.79,1.7,1.19,2.55a2.48,2.48,0,0,1,.16.45A3,3,0,0,1,93.13,53.77Z"/><path class="cls-8" d="M94,66.38l-.27.56c.1-.17.21-.35.33-.52S94.05,66.34,94,66.38Z"/><path class="cls-8" d="M92.53,69a8.26,8.26,0,0,0-1.3,2.29s0,0,0,0a28.74,28.74,0,0,1-2.75-4.24,20.59,20.59,0,0,0,2.38,4.46.24.24,0,0,0,.41-.06.08.08,0,0,0,.11,0,8,8,0,0,0,1.28-2.35c.19-.41.38-.81.59-1.21C93,68.26,92.77,68.64,92.53,69Z"/><path class="cls-8" d="M93.24,67.88c.18-.31.35-.62.52-.94C93.57,67.25,93.4,67.56,93.24,67.88Z"/><path class="cls-8" d="M87.91,65.73a12.74,12.74,0,0,0,.56,1.32Z"/><path class="cls-8" d="M93.15,63.73C92.47,62.81,91.72,62,91,61c-.05-.06-.16,0-.12.07l.07.11a.09.09,0,0,0-.08,0,37.94,37.94,0,0,0-3.1,4.15c0-.12-.09-.23-.12-.36s-.08,0-.06,0l.15.36-.15.23s0,0,0,0l.17-.19.1.24-.09-.26a39.38,39.38,0,0,0,3.28-4c.5.88,1,1.77,1.47,2.64s.85,1.78,1.64,2.21c.13.07.35,0,.33-.19A5.29,5.29,0,0,0,93.15,63.73Z"/><path class="cls-8" d="M94,80.51c-.41.78-.8,1.55-1.21,2.3A12.06,12.06,0,0,0,94,80.51Z"/><path class="cls-8" d="M94.31,81c-.14.17-.27.34-.4.52C94.05,81.32,94.18,81.14,94.31,81Z"/><path class="cls-8" d="M95,80.25c-1.06-2-2.53-3.83-3.75-5.75h0c.07-.18-.19-.3-.31-.18-1.61,1.62-2.65,4-3.74,6h0c1.37-1.78,3.12-3.65,4-5.75,1,1.79,1.86,3.71,3,5.45,0,.15-.11.31-.17.46l.21-.4.21.35c-.41.68-.86,1.35-1.3,2-.2.25-.39.51-.57.77l.24-.44A15.83,15.83,0,0,1,91.11,85a4.82,4.82,0,0,1-.3-.66A.23.23,0,0,0,90.9,84a2.62,2.62,0,0,0-.4-.48l0-.12a.07.07,0,0,0-.12,0c-.37-.32-.79-.6-1.13-.92a13.34,13.34,0,0,1-1.8-2s0,0,0,0a24.67,24.67,0,0,0,1.49,2.18,6.65,6.65,0,0,0,1.43,1.52,3.58,3.58,0,0,0,.57,1.32.23.23,0,0,0,.39,0c.19-.29.37-.58.55-.88a4.55,4.55,0,0,0-.21.51s0,0,0,0,0,0,0,0l-.18.38s0,.08.06,0a45.1,45.1,0,0,0,3-5v0l0,0-.24.37c.09-.12.18-.23.28-.34A.29.29,0,0,0,95,80.25Z"/><path class="cls-8" d="M93.91,92.11c-.65.82-1.36,1.56-2,2.36a5.63,5.63,0,0,0-1.39,2c-.76-1.18-1.69-2.25-2.4-3.47.76,1.27,1.25,2.68,2,4,.18.33.66.08.58-.23h.06c.71-.34,1.16-1.32,1.58-2,.56-.87,1.06-1.78,1.64-2.65C93.93,92.12,93.92,92.11,93.91,92.11Z"/><path class="cls-8" d="M88,92.88a1,1,0,0,1,.08.14A1,1,0,0,0,88,92.88Z"/><path class="cls-8" d="M92.9,90c-.69-.78-1.53-1.48-2.16-2.3v0a.06.06,0,0,0-.09-.06h0c-.63.79-1.2,1.63-1.75,2.47a6.11,6.11,0,0,0-1.36,2.62.22.22,0,0,0,.34.19L88,92.8l.05.08,0-.08a7.16,7.16,0,0,0,1.55-2.37,12.26,12.26,0,0,0,1.19-2.7c.65.78,1.14,1.74,1.74,2.56A5,5,0,0,0,94.07,92a.1.1,0,0,0,.14-.11A4.91,4.91,0,0,0,92.9,90Z"/><path class="cls-8" d="M91.87,103a23.85,23.85,0,0,1-1.65-2.45c.07-.27.15-.53.22-.79,0-.09-.12-.16-.17-.07s-.17.32-.26.48v0s-.08,0-.06,0a.21.21,0,0,0,0,.06c-.9,1.59-2.1,3.24-2.41,5a.09.09,0,0,0,.15.09c1.38-1.15,2-3,2.48-4.76.54.89,1,1.84,1.5,2.73a8,8,0,0,0,1.67,2.36.15.15,0,0,0,.22-.17A11.72,11.72,0,0,0,91.87,103Z"/><path class="cls-8" d="M89.94,53.13a1.77,1.77,0,0,1,.15-.31,1.86,1.86,0,0,1-.21.28S89.92,53.19,89.94,53.13Z"/><path class="cls-8" d="M90.09,52.82l0-.08Z"/><path class="cls-8" d="M91.27,51.13a1,1,0,0,0,0-.23.07.07,0,0,0-.11-.06c-.32.18-.44.58-.59.89s-.3.69-.48,1c.19-.32.45-.6.66-.9a3.52,3.52,0,0,0,.45-.64l.12.14a2,2,0,0,1-.1-.21Z"/><path class="cls-8" d="M91.62,51.74a3.89,3.89,0,0,0-.25-.4A2.42,2.42,0,0,0,91.62,51.74Z"/><path class="cls-8" d="M91.91,52.12c-.09-.12-.2-.25-.29-.38.09.16.17.34.24.49s.2.58.45.75c.07.05.12,0,.12-.08C92.38,52.58,92.09,52.37,91.91,52.12Z"/><path class="cls-8" d="M93.77,52.61a.35.35,0,0,0-.3-.17l-.06-.11a.56.56,0,0,0,.09-.39,3.63,3.63,0,0,0-.94-1.49l-.12-.13a.39.39,0,0,0,.17-.31c0-.48-.5-.89-.8-1.23a.28.28,0,0,0-.17-.1.27.27,0,0,0-.51-.14c-.27.47-.8,1.09-.63,1.66a6.58,6.58,0,0,0-.55.9c-.18.35-.32.71-.47,1.07a2,2,0,0,0-.19.43l-.09.21a.17.17,0,0,0,.09.23s0,.05,0,.08a.37.37,0,0,0,.18.19A9.92,9.92,0,0,0,90,54.62a4.23,4.23,0,0,0,1.06,1.62v0a.34.34,0,0,0,.51.29,2.9,2.9,0,0,0,1-1.52,10,10,0,0,0,.72-.89C93.59,53.7,94,53.19,93.77,52.61ZM92,53.83c-.08.29-.14.59-.2.89h0l0-.09a8,8,0,0,0,.42-1.93s0,0,0,0a6.12,6.12,0,0,1-.53,1.7,3,3,0,0,0-.25-.25,3.83,3.83,0,0,0-.28-.29,2.53,2.53,0,0,1-.63-1.17h0c.11-.21.2-.45.29-.65a3.51,3.51,0,0,0,.21-.57,4.67,4.67,0,0,0,.41-.58A5.48,5.48,0,0,1,92,52.15c.09.23.17.47.28.69A7.46,7.46,0,0,0,92,53.83Z"/><path class="cls-8" d="M89.63,66.45a0,0,0,1,0,.05,0,1.59,1.59,0,0,1,.18-.34A2.49,2.49,0,0,1,89.63,66.45Z"/><path class="cls-8" d="M89.86,66.14l.15-.25A1.28,1.28,0,0,0,89.86,66.14Z"/><path class="cls-8" d="M91.42,65.74c-.24-.31-.47-.63-.7-.94a.37.37,0,0,1,0-.11s0,0,0,0l-.06.07,0,0h0l0,.06A5.8,5.8,0,0,0,90,65.89a6.79,6.79,0,0,0,.7-1.07c.19.31.4.61.59.93a2.69,2.69,0,0,0,.58.8s.05,0,.05,0A2.21,2.21,0,0,0,91.42,65.74Z"/><path class="cls-8" d="M94.1,66.72l.32-.64s0-.07,0,0l-.26.31a1.19,1.19,0,0,0-.1-.28.25.25,0,0,0-.1-.08,10.41,10.41,0,0,0-1.23-2.24,11.43,11.43,0,0,0-1.57-2c-.14-.14-.43,0-.36.21a.14.14,0,0,1,0,.06,12.43,12.43,0,0,0-2.9,3.1.58.58,0,0,0-.08.65c.53.86,1,1.74,1.55,2.61a4.18,4.18,0,0,0,1.4,2.44.51.51,0,0,0,.93.31c.53-.79,1-1.61,1.48-2.44.16-.27.3-.56.44-.84A3.17,3.17,0,0,0,94.1,66.72ZM90,66.36a6.77,6.77,0,0,0,.45-.54,6.59,6.59,0,0,0,.51-.75,3.39,3.39,0,0,0,.89,1.53v.09l0-.06,0,0c0,.1-.09.19-.13.28a2.17,2.17,0,0,0,.07-.24,4.94,4.94,0,0,0-.2.58s0-.07,0-.11l0,.07a5.16,5.16,0,0,0-.25.85.8.8,0,0,0,0-.15,4.34,4.34,0,0,0,.27-.66c0,.1-.11.19-.16.27a2.07,2.07,0,0,1-.17.24,3.48,3.48,0,0,0-.48-.53A7.83,7.83,0,0,1,90,66.36Z"/><path class="cls-8" d="M93.34,78.24a5.52,5.52,0,0,0-.43-.53c-.53-.93-1.12-1.77-1.71-2.66,0,0-.12,0-.1,0a.43.43,0,0,0,0,.11.51.51,0,0,0-.64.32.65.65,0,0,0,0,.13,6.1,6.1,0,0,0-1.38,1.69.5.5,0,0,0,0,.52,8,8,0,0,0-.94,1.49,5,5,0,0,0-.44.48l-.06.06,0,0h0a.39.39,0,0,0,0,.35,0,0,0,0,0,0,0c0,1,.81,1.8,1.33,2.56a9.57,9.57,0,0,0,1.84,2.5c.34.26.7-.16.65-.5a.43.43,0,0,0,.24-.22A10.23,10.23,0,0,0,93,82.61a9.7,9.7,0,0,0,1-2,.44.44,0,0,0,.2-.24C94.39,79.68,93.74,78.83,93.34,78.24ZM91.46,80.5l-.24.19a2.57,2.57,0,0,0-.42.38,4.7,4.7,0,0,0-.52-.39,2.59,2.59,0,0,1-.57-.33l.05-.09h0a4.78,4.78,0,0,0,.48-.61c.16-.22.41-.71.65-.81l.06,0a3.88,3.88,0,0,0,.63,1.39C91.55,80.29,91.5,80.4,91.46,80.5Z"/><path class="cls-8" d="M93.74,91.94a.32.32,0,0,0-.25-.46,6.1,6.1,0,0,0-1.1-1.8A4.63,4.63,0,0,0,90.83,88a.19.19,0,0,0-.28.16v0a.12.12,0,0,0-.09.14c0,.09.05.17.07.26a.47.47,0,0,0-.52.13,7.72,7.72,0,0,0-1.17,1.9,6.82,6.82,0,0,0-.41,1.45.17.17,0,0,0-.15.24s0,0,0,0l-.41-.11a.22.22,0,0,0-.25.33l.45.91h0a7.53,7.53,0,0,0,.44,1,4.1,4.1,0,0,0,.45.62,4.25,4.25,0,0,0,.83,1.08.49.49,0,0,0,.53.05,1.37,1.37,0,0,0,0,.19.26.26,0,0,0,.33.24c.77-.25,1.11-1.21,1.53-1.86.6-.91,1-1.87,1.55-2.83a.09.09,0,0,0,0-.07ZM89.81,93l.08-.2,0,0a0,0,0,0,0,.06,0,.85.85,0,0,1,.11-.26c.13-.21.26-.42.38-.64l.23-.34.19-.26a1.05,1.05,0,0,0,0,.19.35.35,0,0,1,0,.08s0,.07,0,.11a1.24,1.24,0,0,0,.2.7.46.46,0,0,0,.3.21,9,9,0,0,1-.85,1.13l0,0a3,3,0,0,0-.44-.29A1.52,1.52,0,0,1,89.81,93Z"/><path class="cls-8" d="M89.59,105.94l0,0Z"/><path class="cls-8" d="M89.41,106.3a2.23,2.23,0,0,1,.15-.31,1.62,1.62,0,0,1-.2.28S89.39,106.35,89.41,106.3Z"/><path class="cls-8" d="M91.51,106.07a7.49,7.49,0,0,0-1-1.3l0-.06a2,2,0,0,0,0-.55s-.06-.07-.08,0-.27.19-.37.32a1.38,1.38,0,0,0-.17.48,3.46,3.46,0,0,1-.31,1,9.82,9.82,0,0,1,.71-.86l.13-.18a7.59,7.59,0,0,0,.43,1.55C91.09,106.88,91.72,106.5,91.51,106.07Z"/><path class="cls-8" d="M92.92,104.85a1.22,1.22,0,0,0-.71-.32h0a2.8,2.8,0,0,0-.31-1c.13-.35-.23-.85-.4-1.12a16.78,16.78,0,0,0-1.07-1.78.39.39,0,0,0-.6.08.82.82,0,0,0-.09.42.14.14,0,0,0-.13.16c.09.27.17.53.25.8a.51.51,0,0,0-.63.19c0,.05-.06.11-.1.17a.23.23,0,0,0-.18,0c-.66.17-.67,1-.76,1.59a5.27,5.27,0,0,0-.06,1,.42.42,0,0,0-.62.54c.22.43.45.85.68,1.27,0,0,0,.1-.07.16s.16.33.33.27l.29.49a6.58,6.58,0,0,0,1.08,1.51,3,3,0,0,0-.21.57.4.4,0,0,0,.66.38,7.3,7.3,0,0,0,1.41-2c.23-.37.48-.74.7-1.14a3.49,3.49,0,0,0,.22-.53.57.57,0,0,0,.36-.47.49.49,0,0,0,.27-.31A.9.9,0,0,0,92.92,104.85Zm-1.77,1.38a7,7,0,0,0-.72,1,5.51,5.51,0,0,0-.61-.67,1.63,1.63,0,0,0,.58.73l0,0c-.33-.34-.68-.67-1-1a15.71,15.71,0,0,0,1.22-1.6,12.16,12.16,0,0,0,.65,1.36h0A.41.41,0,0,1,91.15,106.23Z"/><path class="cls-8" d="M89.82,106.58a.21.21,0,0,1,0-.06A.21.21,0,0,0,89.82,106.58Z"/><path class="cls-8" d="M89.58,106.29a1.1,1.1,0,0,1,.2.23.77.77,0,0,1-.14-.27S89.54,106.25,89.58,106.29Z"/><path class="cls-8" d="M92.84,116.5a.5.5,0,0,0,.08-.59,19.86,19.86,0,0,0-2.14-3.57s-.11,0-.1.06.07.34.11.51a2.38,2.38,0,0,1-.22-.49s-.09,0-.06,0a3.2,3.2,0,0,1,.16.39c-.33-.2-.87,0-.7.5l0,.11a.41.41,0,0,0-.54.47,8.08,8.08,0,0,0-1.17,2l-.06.06a1.66,1.66,0,0,0-.31.55.21.21,0,0,0,.18.25,1.49,1.49,0,0,0,0,.21c0,1.07,1.26,2.22,1.91,3a.36.36,0,0,0,.17.11.46.46,0,0,0,.76-.1v0a.49.49,0,0,0,.56-.27,11.09,11.09,0,0,0,1-2.18l0-.08a.59.59,0,0,0,0-.43l.18-.39Zm-2.58.76-.23-.21c-.12-.1-.34-.2-.49-.33.13-.34.45-.4.69-.65a1,1,0,0,0,.14-.16.35.35,0,0,1,.06.14c0,.13,0,.27,0,.39a.86.86,0,0,0,.23.51A3.25,3.25,0,0,0,90.26,117.26Z"/><path class="cls-8" d="M56.61,65c0-2.46-.09-4.93-.15-7.4-.05,2.36-.1,4.72-.1,7.07,0,6.11-.07,12.22-.06,18.34q0,18.18.16,36.35a.2.2,0,0,0,.4,0q0-18.18-.08-36.35C56.75,77,56.66,71,56.61,65Z"/><path class="cls-8" d="M56.48,49c.18,2.35.28,4.7.32,7.06,0,0,.07,0,.07,0,0-2.84-.2-5.66-.44-8.48l0-.88s-.07,0-.07,0c0,.27,0,.54,0,.81,0-.27,0-.54-.07-.81,0,0-.07,0-.07,0,.05.48.08,1,.12,1.45-.09,3.16,0,6.32.05,9.49C56.52,54.76,56.56,51.88,56.48,49Z"/><path class="cls-8" d="M97.24,82.68c-.11-12,.07-24.09-.47-36.1a.05.05,0,0,0-.1,0c-.3,12,.11,24.08.23,36.1s.32,24.07.08,36.09a.44.44,0,0,0,.87,0C97.38,106.76,97.34,94.7,97.24,82.68Z"/><path class="cls-8" d="M99.44,110.4a2.72,2.72,0,0,1,0-.28c-.07-2-.13-3.89-.2-5.83.07.15.13.3.19.45,0-.1,0-.2,0-.31l-.2-.37c0-1.09-.08-2.17-.11-3.26-.18-6-.35-12-.38-18s0-12,0-18c-.06-6.2.13-12.42-.15-18.63,0,0,0,0,0,0C98,52.43,98,58.67,98,64.87c-.07,6,0,12,.17,18s.23,12,.42,18c.09,3.11.2,6.21.33,9.32.07,1.55.15,3.1.21,4.65a13.14,13.14,0,0,0,.32,4,.12.12,0,0,0,.24,0,3.82,3.82,0,0,0,.11-.57A32.51,32.51,0,0,1,99.44,110.4Z"/><path class="cls-8" d="M95.62,64.42c0-2.46-.09-4.93-.16-7.4,0,2.36-.1,4.72-.1,7.06,0,6.12-.06,12.23-.06,18.35q0,18.16.16,36.34a.2.2,0,0,0,.4,0q0-18.17-.07-36.34C95.76,76.42,95.66,70.42,95.62,64.42Z"/><path class="cls-8" d="M95.49,48.38q.26,3.52.32,7.06a0,0,0,0,0,.06,0c0-2.84-.19-5.66-.43-8.48,0-.3,0-.59,0-.88,0,0-.06,0-.06,0l0,.81c0-.27,0-.54-.07-.81,0,0-.07,0-.06,0l.12,1.45c-.1,3.15,0,6.32,0,9.49C95.52,54.14,95.56,51.26,95.49,48.38Z"/><path class="cls-8" d="M81.36,68.78c.1.14.18.3.28.44a3.88,3.88,0,0,1-.22-.46C81.4,68.71,81.33,68.75,81.36,68.78Z"/><path class="cls-8" d="M84,72.55c-.55-1.46-1.86-2.47-2.38-4,0,0-.09,0-.06,0a9.5,9.5,0,0,1,.73,1.66c-.19-.36-.39-.71-.61-1.06a14.63,14.63,0,0,0,.69,1.29,6.7,6.7,0,0,0,1.2,2.29A.26.26,0,0,0,84,72.55Z"/></g><path class="cls-9" d="M56.36,117.19a93.31,93.31,0,0,1,41.37-14.88c1.82-.19,4.08-.1,4.91,1.52,1,2.06-1.22,4.2-3.24,5.32A71.1,71.1,0,0,1,53.53,117a2.61,2.61,0,0,1-1-.33c-.95-.65-.64-2.11-.21-3.18,1.85-4.62,3.9-9.18,6.12-13.64,1.86-3.72,3.87-7.44,4.8-11.5s.65-8.6-1.78-12c-1-1.46-2.52-2.78-2.71-4.57-.17-1.55.7-3.11.4-4.65s-1.87-3-1.47-4.57,2.45-2.06,4.09-2.38a21.12,21.12,0,0,0,12-7c3.83,1.41,5.65,3.68,9.41,2.11.86-.35,1.78-.91,1.91-1.82.21-1.45-1.65-2.28-3.11-2.31a11.79,11.79,0,0,0-9.37,4.46"/><path class="cls-9" d="M85,53.46c-1.15,2.12,1.22,3,3.39,4s4.69,1.18,6.9,2.15,4.17,3.42,3.27,5.66c-.66,1.62-2.68,2.82-2.34,4.54.17.84.9,1.45,1.28,2.22.83,1.67-.1,3.7-1.35,5.09s-2.84,2.49-3.73,4.13c-2.17,4,.74,8.78,3.81,12.12s7.3,7.9,6.64,12.39"/></g></svg>