<svg xmlns="http://www.w3.org/2000/svg" viewBox="0 0 165.42 212.79"><defs><style>.cls-1{opacity:0.33;}.cls-2{fill:#834c20;}.cls-3{fill:#fff;}.cls-4{fill:#2ca8c4;}.cls-5{fill:#57d0dd;}.cls-6{fill:#a35119;}.cls-7{fill:#663717;}.cls-8{fill:none;stroke:#000;stroke-miterlimit:10;stroke-width:0.25px;}</style></defs><title>come cabo verde</title><g id="Camada_4" data-name="Camada 4"><path class="cls-2" d="M80.71,45.16C57,45.16,36,66.85,41.28,91.55c4.66,21.84,36.45,81.56,36.45,81.56a3.31,3.31,0,0,0,6,0s32-60.08,36.71-82.06C125.66,66.35,104.44,45.16,80.71,45.16Z"/><circle class="cls-3" cx="81.34" cy="87.27" r="26.45"/><path class="cls-4" d="M90.78,67.71c-6.64-.2-13.43.47-19.5,3.16S59.89,78.45,57.81,84.76a14.67,14.67,0,0,0-.67,7c.58,3.45,2.67,6.47,5,9a31,31,0,0,0,14.05,9,21.45,21.45,0,0,0,16.36-1.71c3.23-1.86,6-4.9,6.63-8.57C100.44,93,94.9,86.92,88.77,84.36c-2.88-1.2-6.1-1.9-9.11-1.1s-5.69,3.41-5.8,6.52S77,95.91,79.93,95c-1.93-1.31-1.45-4.61.48-5.92s4.58-1,6.67.06c3.06,1.52,5.47,5.15,4.15,8.3-.91,2.18-3.3,3.4-5.63,3.81a12,12,0,0,1-10.3-2.94,9.78,9.78,0,0,1-2.5-10.2c1.28-3.4,4.51-5.63,7.6-7.53,5.84-3.6,12.23-6.94,19.09-7C97.3,69.38,95.94,67.92,90.78,67.71Z"/><path class="cls-5" d="M66.4,93.93a23.69,23.69,0,0,1,28.2-15,11,11,0,0,1,4,1.74c2.14,1.63,3.17,4.33,3.81,6.94.87,3.6,1.15,7.54-.4,10.9-1.85,4-6,6.5-10.09,8.12a22.41,22.41,0,0,1-10.53,1.83c-3.58-.4-7.13-2.32-8.79-5.52A8.81,8.81,0,0,1,81.5,90.13a7,7,0,0,1,5.11,3.09A4.88,4.88,0,0,1,86.19,99a3.79,3.79,0,0,1-5.46,0l2.09-.5a2.63,2.63,0,0,0-2-2.94A3.41,3.41,0,0,0,77,98.28a4.75,4.75,0,0,0,2,4.53,8.14,8.14,0,0,0,5,1.33A12.81,12.81,0,0,0,93.08,100a8.63,8.63,0,0,0,2.46-6.42c-.33-3.32-3.3-5.93-6.54-6.73s-6.66-.09-9.82,1c-4.82,1.64-9.6,4.43-11.86,9a7.38,7.38,0,0,1,1.08-8"/><path class="cls-6" d="M72.53,84.55c-2.27,1.21-3.1,4-3.71,6.48.35.22.74-.19,1-.52,1.09-1.55,3.11-2.72,5-2.16,1.54.44,2.8,3.3,4.59,1.89C82.82,87.55,75.61,82.91,72.53,84.55Z"/><path class="cls-6" d="M59.87,85.12C57.11,86.24,54.09,88,53.73,91a6.61,6.61,0,0,0,2.08,5.17,13.82,13.82,0,0,0,10.63,3.92,21.61,21.61,0,0,0,10.85-4,3.38,3.38,0,0,0,1.82-2.47A19.23,19.23,0,0,1,64.4,96.5c-2.5-.54-5.29-2.17-5.24-4.72,0-2.13,2-3.63,3.81-4.78a67.46,67.46,0,0,0,6.24-4.14C67.2,81.63,62,84.31,59.87,85.12Z"/><path class="cls-7" d="M68.21,88.68c0,.61.21,1.36.81,1.44.79.1,1.09-1,1.35-1.72a3.69,3.69,0,0,1,5.48-1.69c1.7,1.31,1.78,4,.62,5.83A9,9,0,0,1,71.16,96a18.6,18.6,0,0,1-5.94.64c-2-.12-4.37-.82-5.15-2.71s.33-3.95,1.75-5.34,3.21-2.42,4.41-4a44.54,44.54,0,0,0-5.83,2.58,7.68,7.68,0,0,0-3,2.35C56,91.64,57,94.78,59,96.46s4.74,2.17,7.35,2.3A19.16,19.16,0,0,0,73.46,98a10.3,10.3,0,0,0,5.61-4.33,7.1,7.1,0,0,0,.29-6.91C76.89,82.22,68.42,83,68.21,88.68Z"/><path class="cls-7" d="M62.48,101.76c-.46,1.21-.93,2.42-1.46,3.61a5.71,5.71,0,0,1-1.15,1.86,1.8,1.8,0,0,1-1.92.48,2,2,0,0,1-.64-2.55,4.26,4.26,0,0,1,2.1-1.94,3.34,3.34,0,0,0-4.64,1.34,4,4,0,0,0,1.07,5,3.9,3.9,0,0,0,4.93-.69,9.64,9.64,0,0,0,1.78-3.44C65.7,96.63,69,87.84,72,79c-1.38,0-1.91,3-2.33,4.07l-2.44,6.35Z"/><path class="cls-7" d="M77.45,61a14.31,14.31,0,0,1,3.46-5.43,3.19,3.19,0,0,1,5.2.53,10,10,0,0,1,1.51,7.76,20.9,20.9,0,0,1-3.27,7.4c-3.69,5.7-9,10.83-15.71,12.07,6-4.08,12.41-8.6,14.94-15.43A6,6,0,0,0,83.92,64a2.6,2.6,0,0,0-3.15-1.76,3.86,3.86,0,0,0-1.66,1.66c-3.5,5.46-5.71,11.37-8.72,17A121.35,121.35,0,0,1,77.45,61Z"/><path class="cls-6" d="M83,74.87c3.38-3.2,5.76-7.82,5.09-12.42-.26-1.8-1.24-3.75-3-4.13s-3.57,1.1-4.81,2.56A45.53,45.53,0,0,0,70.36,81.5c2.29-3.38,3.41-7.42,5.34-11A27.72,27.72,0,0,1,79.53,65a7,7,0,0,1,2.34-1.86,2.84,2.84,0,0,1,2.86.24c1.27,1,1,3.06.34,4.59-2.42,6.09-6.93,9.32-12.19,12.67C75.32,81.53,81.14,76.6,83,74.87Z"/><path class="cls-8" d="M73,82.94a6.28,6.28,0,0,1,6.64,3.53A8.26,8.26,0,0,1,79,94.22a12.15,12.15,0,0,1-6.3,4.85A16.24,16.24,0,0,1,57.2,96.43C55.47,95,54,93,54.25,90.75c.38-2.91,3.53-4.5,6.31-5.46,4.49-1.55,9.11-2.77,13.46-4.68s8.5-4.59,11.27-8.45,3.94-9.07,2.22-13.5c-.76-1.94-2.5-3.88-4.56-3.57a4.85,4.85,0,0,0-2.49,1.41c-3.64,3.39-5.23,8.36-6.73,13.1q-5.58,17.61-11.91,35a7,7,0,0,1-2.32,3.67c-1.23.81-3.3.45-3.64-1-.45-1.86,2-2.94,3.9-3.23-.9-2-4.18-1.88-5.24,0s.14,4.51,2.17,5.25a5.18,5.18,0,0,0,5.7-2,12.3,12.3,0,0,0,1.72-4.12Q69.36,84.65,76,66.54a9.71,9.71,0,0,1,2.08-3.76,3.35,3.35,0,0,1,4-.7,4.05,4.05,0,0,1,1.53,3c.64,4.84-2,9.63-5.71,12.82s-8.28,5.09-12.77,7a15.67,15.67,0,0,0-4.61,2.61,4.84,4.84,0,0,0,2,8.67,14.82,14.82,0,0,0,5.79.23,13.57,13.57,0,0,0,6.31-1.72c1.84-1.21,3.08-3.62,2.26-5.67a3.78,3.78,0,0,0-4.48-2.11,3.85,3.85,0,0,0-2.51,4.18C67.48,88.3,69.54,83.64,73,82.94Z"/><path class="cls-6" d="M89.13,89c2.27-1.2,3.1-4,3.71-6.48-.35-.22-.74.19-1,.53a4.86,4.86,0,0,1-5,2.16c-1.54-.44-2.8-3.31-4.59-1.89C78.84,86,86.05,90.63,89.13,89Z"/><path class="cls-6" d="M101.79,88.42c2.77-1.11,5.78-2.91,6.15-5.87a6.62,6.62,0,0,0-2.09-5.16,13.77,13.77,0,0,0-10.63-3.92,21.53,21.53,0,0,0-10.84,4c-.88.6-1.82,1.41-1.82,2.47A19.26,19.26,0,0,1,97.27,77c2.49.54,5.28,2.18,5.23,4.73,0,2.12-2,3.62-3.81,4.78a69.45,69.45,0,0,0-6.24,4.13C94.46,91.91,99.72,89.24,101.79,88.42Z"/><path class="cls-7" d="M93.45,84.86c0-.6-.21-1.36-.81-1.44-.79-.1-1.08,1-1.34,1.73a3.71,3.71,0,0,1-5.49,1.69c-1.7-1.32-1.78-4-.61-5.84a9,9,0,0,1,5.3-3.41A18.32,18.32,0,0,1,96.44,77c2,.12,4.37.81,5.15,2.71s-.33,4-1.75,5.34-3.21,2.42-4.41,4a45.85,45.85,0,0,0,5.83-2.57,7.81,7.81,0,0,0,3-2.36c1.44-2.18.46-5.32-1.55-7s-4.74-2.17-7.35-2.3a19,19,0,0,0-7.15.81,10.3,10.3,0,0,0-5.61,4.33,7.15,7.15,0,0,0-.29,6.91C84.77,91.32,93.24,90.58,93.45,84.86Z"/><path class="cls-7" d="M99.18,71.79c.47-1.22.93-2.43,1.46-3.62a5.67,5.67,0,0,1,1.16-1.86,1.82,1.82,0,0,1,1.91-.48,2,2,0,0,1,.65,2.55,4.28,4.28,0,0,1-2.11,1.94A3.35,3.35,0,0,0,106.9,69a4,4,0,0,0-1.08-5,3.87,3.87,0,0,0-4.92.68,9.7,9.7,0,0,0-1.79,3.45C96,76.91,92.65,85.7,89.66,94.58c1.38,0,1.91-3,2.32-4.07l2.44-6.34Z"/><path class="cls-7" d="M84.22,112.54A14.6,14.6,0,0,1,80.76,118a3.19,3.19,0,0,1-5.2-.53,10,10,0,0,1-1.51-7.77,20.91,20.91,0,0,1,3.26-7.39C81,96.58,86.35,91.46,93,90.22c-6,4.08-12.42,8.59-14.94,15.42a5.92,5.92,0,0,0-.35,3.94,2.61,2.61,0,0,0,3.15,1.77,3.88,3.88,0,0,0,1.66-1.67c3.51-5.45,5.71-11.36,8.72-17A121.21,121.21,0,0,1,84.22,112.54Z"/><path class="cls-6" d="M78.68,98.68c-3.38,3.19-5.75,7.81-5.09,12.41.27,1.8,1.24,3.76,3,4.14s3.57-1.11,4.8-2.57A45.5,45.5,0,0,0,91.31,92c-2.3,3.39-3.42,7.43-5.35,11a27.36,27.36,0,0,1-3.83,5.46,6.83,6.83,0,0,1-2.34,1.87,2.82,2.82,0,0,1-2.85-.25c-1.28-1-1-3-.35-4.58,2.42-6.09,6.93-9.33,12.2-12.68C86.35,92,80.52,96.94,78.68,98.68Z"/><path class="cls-8" d="M88.67,90.61A6.32,6.32,0,0,1,82,87.08a8.31,8.31,0,0,1,.62-7.75,12.26,12.26,0,0,1,6.3-4.86,16.29,16.29,0,0,1,15.53,2.64c1.72,1.41,3.24,3.47,3,5.68-.39,2.92-3.54,4.51-6.31,5.46C96.61,89.81,92,91,87.65,92.94s-8.51,4.58-11.27,8.45-3.95,9.07-2.22,13.49c.76,2,2.49,3.89,4.56,3.58A4.91,4.91,0,0,0,81.21,117c3.63-3.38,5.23-8.36,6.73-13.1q5.57-17.61,11.9-35a7.05,7.05,0,0,1,2.32-3.67c1.24-.8,3.3-.44,3.64,1,.45,1.86-2,2.94-3.9,3.23.91,2,4.18,1.87,5.25,0A3.89,3.89,0,0,0,105,64.27a5.17,5.17,0,0,0-5.7,2,12.51,12.51,0,0,0-1.72,4.12Q92.32,88.89,85.63,107a9.62,9.62,0,0,1-2.08,3.77,3.35,3.35,0,0,1-4,.7,4.07,4.07,0,0,1-1.54-3c-.64-4.83,2-9.62,5.72-12.81s8.28-5.1,12.76-7A15.79,15.79,0,0,0,101.14,86a4.83,4.83,0,0,0-2-8.66,14.87,14.87,0,0,0-5.8-.24,13.69,13.69,0,0,0-6.31,1.72c-1.84,1.21-3.08,3.63-2.25,5.67a3.77,3.77,0,0,0,4.48,2.12,3.85,3.85,0,0,0,2.5-4.19C94.19,85.25,92.12,89.9,88.67,90.61Z"/></g></svg>