<svg xmlns="http://www.w3.org/2000/svg" viewBox="0 0 97.28 94.22"><defs><style>.cls-1{opacity:0.33;}.cls-2{fill:#57d0dd;}.cls-3{fill:#3cb9ce;}.cls-4{fill:#834c20;}.cls-5{fill:#d37231;}.cls-6{fill:#1e90b3;}.cls-7{fill:#663717;}.cls-8{fill:#a35119;}.cls-9{fill:#5deded;}.cls-10{fill:#b75d21;}.cls-11{fill:#2ca8c4;}.cls-12{fill:none;stroke:#000;stroke-linecap:round;stroke-linejoin:round;stroke-width:0.25px;}</style></defs><title>Prancheta 1 cópia 15ldpi</title><g id="Camada_2" data-name="Camada 2"><path class="cls-2" d="M53,80.07c1.4-3.16-.42-7.19,1.37-10.15,1.16-1.91,3.46-2.74,5.57-3.43,7.29-2.4,20-6,22.61-14.37C85,44.17,79.76,33.87,74.6,28.2c-6.51-7.14-15.49-11.51-24.53-14.91-4.29-1.61-8.89-3-13.38-2.16-3.92.79-7.3,3.29-10.09,6.14A40.78,40.78,0,0,0,16,53.43a40.81,40.81,0,0,0,24.11,29C44.57,84.22,51,84.5,53,80.07Zm-13.63-7a7.18,7.18,0,0,1-2.18-.86l-.34-.09a4.7,4.7,0,0,1-2.31-1.31,3.08,3.08,0,0,1-.82-2.1,3.34,3.34,0,0,1-.05-1.88,5.55,5.55,0,0,1,3-3.19A8.34,8.34,0,0,1,38.49,63L38.6,63a3.06,3.06,0,0,1,1.49-.14A5.87,5.87,0,0,1,41.6,63a4.3,4.3,0,0,1,2.08,1.13,2.16,2.16,0,0,1,.45.73,3.07,3.07,0,0,1,.23.39,1.72,1.72,0,0,1,.08.28A3.69,3.69,0,0,1,45.62,70,5.56,5.56,0,0,1,39.32,73.08Z"/><path class="cls-3" d="M48.29,67.18c1.08-2.87,3.92-4.73,6.83-5.71s6-1.24,9-2c10.47-2.77,17.43-12.66,11.27-22.31A46.17,46.17,0,0,0,46.72,17a23.35,23.35,0,0,0-8.92-.48c-9.79,1.7-15.68,12.2-17,22-2.06,15.59,5.33,33.07,19.84,39.15a5.68,5.68,0,0,0,2.75.6c2.18-.2,3.54-2.52,3.93-4.67S47.52,69.23,48.29,67.18Zm-9,5.9a7.18,7.18,0,0,1-2.18-.86l-.34-.09a4.7,4.7,0,0,1-2.31-1.31,3.08,3.08,0,0,1-.82-2.1,3.34,3.34,0,0,1-.05-1.88,5.55,5.55,0,0,1,3-3.19A8.34,8.34,0,0,1,38.49,63L38.6,63a3.06,3.06,0,0,1,1.49-.14A5.87,5.87,0,0,1,41.6,63a4.3,4.3,0,0,1,2.08,1.13,2.16,2.16,0,0,1,.45.73,3.07,3.07,0,0,1,.23.39,1.72,1.72,0,0,1,.08.28A3.69,3.69,0,0,1,45.62,70,5.56,5.56,0,0,1,39.32,73.08Z"/><path class="cls-4" d="M48.06,37.9a14.09,14.09,0,0,1,.9-4.24c1.43-4.46,3-9.14,6.52-12.18.9.52.73,1.84.39,2.81s-.65,2.21.13,2.89c.86-.91,2.26-1.86,3.22-1a2.31,2.31,0,0,1,.63,1.56,14.2,14.2,0,0,1-8.44,14.45C49.12,43.1,48.05,39.64,48.06,37.9Z"/><path class="cls-5" d="M53.64,31.73a18.94,18.94,0,0,0-3.32,5.93c-.28.85-.46,1.87.13,2.4.79.72,2.26,0,3.16-.87a9.87,9.87,0,0,0,3.11-6.8c-.27.78-1.7.69-1.61-.11a9.45,9.45,0,0,1,.33-.93c.08-.32-.09-.71-.42-.62a2.21,2.21,0,0,0-1.19,1.65"/><path class="cls-6" d="M49.61,42.19A215.3,215.3,0,0,0,31.06,77.67a6,6,0,0,0-.61,2.55A2,2,0,0,0,32,82.16a2.87,2.87,0,0,0,2.26-1c4-3.77,6.42-8.87,8.75-13.85C46.85,59,52.62,49,53.11,39.68,51.48,39.59,50.59,40.69,49.61,42.19Z"/><path class="cls-7" d="M54.16,51.3a11,11,0,0,1,1.61-2.87c2-2.89,4.24-5.92,7.47-7.33.53.58.11,1.5-.35,2.12s-1,1.45-.56,2.12c.82-.46,2-.83,2.56,0A1.78,1.78,0,0,1,65,46.6a10.77,10.77,0,0,1-9.37,8.53C53.75,55.29,53.76,52.55,54.16,51.3Z"/><path class="cls-8" d="M59.59,48.1a14.33,14.33,0,0,0-3.74,3.53c-.4.55-.76,1.25-.45,1.77.41.7,1.63.5,2.48.08a7.49,7.49,0,0,0,3.79-4.21c-.37.5-1.39.11-1.14-.44.09-.22.32-.39.45-.6s.09-.54-.16-.55a1.69,1.69,0,0,0-1.24.93"/><path class="cls-9" d="M54.32,54.74A162.75,162.75,0,0,0,32.89,76.2a4.37,4.37,0,0,0-1,1.7,1.54,1.54,0,0,0,.64,1.74,2.14,2.14,0,0,0,1.87-.24c3.74-1.82,6.64-5,9.45-8,4.7-5.12,11.12-11,13.58-17.65C56.25,53.29,55.36,53.88,54.32,54.74Z"/><path class="cls-6" d="M71,62.42c-4.61,2-9.48,3.52-13.87,6-2.39,1.35-4.9,3.57-4.5,6.28.3,2,2.14,3.7,1.74,5.67-.12.61-.46,1.17-.59,1.78a1.38,1.38,0,0,0,.64,1.61c1.92-.13,3-2.34,3.07-4.27s-.49-3.87-.09-5.76a8.08,8.08,0,0,1,4-5,31.73,31.73,0,0,1,6.16-2.4c5.62-1.87,12.92-5.42,15-11.41C78.69,56.43,75.22,60.57,71,62.42Z"/><path class="cls-10" d="M45.3,22.85A9,9,0,0,0,34.15,21a2.82,2.82,0,0,0-1.44,1.62A3.1,3.1,0,0,0,33.46,25,10.22,10.22,0,0,0,38.34,29a5.85,5.85,0,0,0,5.94-1.19,4.14,4.14,0,0,0,.06-5.72"/><path class="cls-7" d="M34.88,37.6a8,8,0,0,0-8.38-3.21c-3.05.89-5.17,4.56-3.93,7.49s4.74,3.94,7.84,3.93c2.5,0,5.44-.88,6.18-3.26.66-2.16-.86-4.36-2.45-6"/><path class="cls-6" d="M29,54.88a6.74,6.74,0,0,0-5-3.22,1.61,1.61,0,0,0-1.66.66,2.45,2.45,0,0,0,.2,1.88,8.88,8.88,0,0,0,3.2,4.21c1.49,1,3.44,1.07,4.35-.06s.26-3.49-1.32-4.18"/><path class="cls-6" d="M77,49.48l.06-.12Z"/><path class="cls-6" d="M76.57,50.22c.15-.24.3-.49.44-.74C76.87,49.73,76.72,50,76.57,50.22Z"/><path class="cls-6" d="M72,54.87a16,16,0,0,0,4.57-4.65,12.84,12.84,0,0,1-2.22,2.63c-3.8,3.41-8.89,4.6-13.67,5.95-2.9.81-7.37,1.45-9.35,4s-2.09,7.2-2,10.28a.56.56,0,0,0,1.12.06,68.27,68.27,0,0,1,1.38-7.94c1.11-3.74,5.74-4.58,9-5.59C64.7,58.4,68.61,57.16,72,54.87Z"/><path class="cls-6" d="M76.76,38.91a9.93,9.93,0,0,1,.31,10.45C78.86,46,79.23,41.94,76.76,38.91Z"/><path class="cls-6" d="M76.12,38.21a7,7,0,0,1,.64.7c-.17-.26-.34-.53-.54-.79C76.17,38.06,76.07,38.15,76.12,38.21Z"/><path class="cls-6" d="M69.15,51.66c0-.64-.55-1.37-.53-2,.08-2.39,2.17-2.22,3.56-2.71a5,5,0,0,0,2.44-1.67c4-5.45-2.73-13-7.12-15.52-.08-.05-.16.07-.08.12,3.41,2.45,7.4,7.15,7,11.7a6.48,6.48,0,0,1-1.9,3.93,10.38,10.38,0,0,1-2.72.79,3.85,3.85,0,0,0-2,1.1c-1.18,1.48.2,2.5.1,4-.15,2.37-1.92,2.12-3.06,3.33a1.52,1.52,0,0,0-.53,1.36.44.44,0,0,0,.86.16C66.1,54,69.29,54.51,69.15,51.66Z"/><path class="cls-6" d="M70.47,38.35a.43.43,0,0,0-.77.38,5.22,5.22,0,0,1,.39,3,25.9,25.9,0,0,0-.59,2.69.43.43,0,0,0,.61.41C72.29,43.58,71.52,40,70.47,38.35Z"/><path class="cls-6" d="M65.68,50.28s0,0,0-.06,0,0-.06,0a.86.86,0,1,0,.06.06Z"/><path class="cls-6" d="M64.07,52.19s-.09,0,0,.06S64.11,52.23,64.07,52.19Z"/><path class="cls-6" d="M61.69,54.88l-.15.15a.8.8,0,0,0,1.07,1.2l.16-.13C63.58,55.44,62.45,54.16,61.69,54.88Z"/><path class="cls-6" d="M63.42,53.12c.07-.12.13-.24.19-.36a.55.55,0,0,0-.7-.79l-.38.14C61.4,52.51,62.88,54.2,63.42,53.12Z"/><path class="cls-6" d="M34.77,14.43a1,1,0,0,0-1.56,1.38A1,1,0,0,0,34.77,14.43Z"/><path class="cls-6" d="M31.76,17.09c.09-.41-.07-.66-.34-.75-.41-.57-.89-.32-1.21.15-.5.25-.8.7-.29,1.17.06.29.28.47.7.43A.87.87,0,0,0,31.76,17.09Z"/><path class="cls-6" d="M27.69,19a.57.57,0,0,0-.85.76C27.32,20.35,28.18,19.59,27.69,19Z"/><path class="cls-9" d="M19.84,38.62a18.88,18.88,0,0,1,4-13.07s0,0,0,0c-3.79,3.56-5.6,7.93-4.74,13.15C19.13,39.11,19.87,39.08,19.84,38.62Z"/><path class="cls-11" d="M48.92,63.8c2.39-3.48,5.13-6.69,9.1-8.33a.07.07,0,0,0-.06-.12c-4.07,1.7-7.67,4-9.68,8A.38.38,0,0,0,48.92,63.8Z"/><path class="cls-9" d="M49.79,78.55c.18-.26-.2-.61-.43-.37a7.19,7.19,0,0,1-5.53,2c-.48,0-.65.72-.17.84A5.54,5.54,0,0,0,49.79,78.55Z"/><path class="cls-9" d="M39.47,59.64a.07.07,0,1,0,0-.13c-4-.52-8.21,1.14-8.53,5.68,0,.37.57.5.66.12C32.37,62.1,35.9,58.53,39.47,59.64Z"/><path class="cls-9" d="M47.82,42.69A25.25,25.25,0,0,1,52,31.48c0-.07-.06-.13-.1-.07-2.56,3.48-4.3,6.89-4.67,11.24A.32.32,0,0,0,47.82,42.69Z"/><path class="cls-9" d="M42.4,63.29a.16.16,0,0,0-.3-.1c-2.17,4.89-4.91,9.57-7.31,14.35a.37.37,0,0,0,.62.41C38.76,73.43,40.7,68.59,42.4,63.29Z"/><path class="cls-9" d="M25.27,37.45a5.06,5.06,0,0,0-.31.43A4.25,4.25,0,0,1,25.27,37.45Z"/><polygon class="cls-9" points="26.17 36.6 26.17 36.59 26.17 36.59 26.17 36.6"/><path class="cls-9" d="M26,36.69A2.14,2.14,0,0,1,27.72,36h.09l-.11,0a1.51,1.51,0,0,1,.3,0c.12,0,.1-.15,0-.11l-.08,0c.29-.15.34-.67-.05-.76a2.66,2.66,0,0,0-3.29,2.95.37.37,0,0,0,.72,0,2.54,2.54,0,0,1,.7-1.37,1.09,1.09,0,0,1,.17-.13Z"/><path class="cls-9" d="M27.7,36a2.6,2.6,0,0,0-1.53.56A5.54,5.54,0,0,1,27.7,36Z"/><path class="cls-9" d="M25.27,37.45c.09-.12.2-.24.31-.36C25.47,37.21,25.36,37.33,25.27,37.45Z"/><path class="cls-9" d="M39.58,20.56a2.51,2.51,0,0,0-3.46,1.72c0,.29.39.41.53.18a2.64,2.64,0,0,1,2.77-1.4A.26.26,0,0,0,39.58,20.56Z"/><path class="cls-9" d="M24.47,55.79c-.42-.73-.63-1.86.15-2.42.42-.29-.05-.88-.47-.7-1.4.6-1.94,3.17-.1,3.6C24.31,56.34,24.63,56.07,24.47,55.79Z"/><path class="cls-9" d="M26.75,38.14c-.05-.06-.14,0-.09.08S26.8,38.2,26.75,38.14Z"/><path class="cls-9" d="M27.59,38.51a.45.45,0,0,0-.67.59A.45.45,0,0,0,27.59,38.51Z"/><path class="cls-9" d="M25.74,39.59a.42.42,0,0,0-.63.56A.42.42,0,0,0,25.74,39.59Z"/><path class="cls-9" d="M39,22.87v-.1a.58.58,0,0,0-.06-.39.74.74,0,0,0-1.27-.08.51.51,0,0,0-.11.38l0,.1A.75.75,0,1,0,39,22.87Z"/><path class="cls-9" d="M37,24.11a.43.43,0,0,0-.64.57C36.7,25.09,37.34,24.52,37,24.11Z"/><path class="cls-9" d="M26.92,54.61a.47.47,0,0,0-.71.63A.47.47,0,0,0,26.92,54.61Z"/><path class="cls-9" d="M26.07,57a.32.32,0,0,0-.47.42A.32.32,0,0,0,26.07,57Z"/><path class="cls-9" d="M18.2,39.61c-.13-.14-.35.06-.22.2S18.33,39.76,18.2,39.61Z"/><path class="cls-9" d="M17.78,42.75a.66.66,0,0,0-1,.88A.66.66,0,0,0,17.78,42.75Z"/><path class="cls-9" d="M18.19,40.42l-.36-.18a.73.73,0,0,0-1,.93l.13.38a.88.88,0,1,0,1.28-1.13Z"/><path class="cls-9" d="M43.33,82.18a.3.3,0,0,0-.46.4A.3.3,0,0,0,43.33,82.18Z"/><path class="cls-9" d="M39,80.91l-.35-.08a.73.73,0,0,0-.93.82l0,.35A1,1,0,1,0,39,80.91Z"/><path class="cls-9" d="M29.61,71.63a1,1,0,0,0,.11-1.88,1.14,1.14,0,0,0-1.57.84.91.91,0,0,0,.64.94.31.31,0,0,0,.06.2.29.29,0,0,0,.47-.09A1.41,1.41,0,0,0,29.61,71.63Z"/><path class="cls-9" d="M28.59,65.32a1,1,0,0,0-.87-.46.73.73,0,0,0-.75.67,1,1,0,0,0,.34.91A.85.85,0,0,0,28.59,65.32Z"/><path class="cls-9" d="M41.16,47.54s-.14,0-.09.09S41.22,47.61,41.16,47.54Z"/><path class="cls-9" d="M39,54.68c.77-3.21,4.16-4.62,4.95-7.72a3.39,3.39,0,0,0-1.7-4.15c-.08,0-.12.09-.05.13,3,1.39.78,4.32-.63,5.57a25,25,0,0,0-2.44,2.15,4.52,4.52,0,0,0-1.38,4A.65.65,0,0,0,39,54.68Z"/><path class="cls-9" d="M39.23,45.93c-.08-.09-.23,0-.15.13A.1.1,0,0,0,39.23,45.93Z"/><path class="cls-9" d="M39.49,46.48l-.21.34a.14.14,0,0,0,.18.2l.36-.17C40.2,46.66,39.72,46.12,39.49,46.48Z"/><path class="cls-9" d="M38.59,48.71c-.23-.25-.62.1-.4.35A.27.27,0,0,0,38.59,48.71Z"/><path class="cls-9" d="M38,48.71a.22.22,0,0,0-.33.29C37.83,49.21,38.16,48.92,38,48.71Z"/></g><g id="Camada_3" data-name="Camada 3"><path class="cls-12" d="M51.07,14.31c-5.32-1.82-11.09-3-16.57-1.69C23.85,15.08,17.07,26.13,15.64,37A43.59,43.59,0,0,0,47.4,84.74c1.53.41,3.3.71,4.59-.21,1.55-1.1,1.62-3.38,1.17-5.22s-1.27-3.68-1-5.55c.63-4,5.49-5.41,9.38-6.51a47,47,0,0,0,15.74-7.86C97,44.37,64.56,18.9,51.07,14.31Z"/><path class="cls-12" d="M45.08,64.68a7.78,7.78,0,0,0-7.34-4.37c-3,.28-5.69,3.11-5.4,6.12a6.44,6.44,0,0,0,3.37,4.79,11.91,11.91,0,0,0,5.88,1.31,5,5,0,0,0,2.48-.5,3.77,3.77,0,0,0,1.57-3.68,11,11,0,0,0-1.49-3.94"/><path class="cls-12" d="M45,66.34a5.92,5.92,0,0,0-11.2.72"/><path class="cls-12" d="M83.28,52.79c-1.42,5.06-6.11,8.53-10.9,10.72s-10,3.54-14.41,6.42a7,7,0,0,0-2.2,2c-1.19,2-.52,4.43-.34,6.7s-.75,5.16-3,5.36"/><path class="cls-12" d="M31.45,82.94a3.8,3.8,0,0,0,4-1,11.17,11.17,0,0,0,2.21-3.75l15-35.29c.6-1.4,1.66-4.64-.84-4.72-1.57,0-2.33,4.38-2.77,5.45a138.77,138.77,0,0,1-6.49,13.25C41.38,59,29.07,81.9,31.45,82.94Z"/><path class="cls-12" d="M50,31.05a71.39,71.39,0,0,1,6.21-8.72,6.17,6.17,0,0,1-.47,4.18c.73.41,1.69-.88,2.34-.37a1,1,0,0,1,.31.57c1.22,4.24-.05,12.83-5.09,14.5C46.86,43.36,48,34.22,50,31.05Z"/><path class="cls-12" d="M32,80.09a2.86,2.86,0,0,0,3.12.17,8.42,8.42,0,0,0,2.44-2.21l18.8-22.12c.75-.88,2.25-3,.46-3.6-1.12-.39-2.68,2.63-3.24,3.31a103.24,103.24,0,0,1-7.68,8.11C44.57,65,30.49,78.81,32,80.09Z"/><path class="cls-12" d="M57.13,46.79a53.79,53.79,0,0,1,6.46-4.9,4.72,4.72,0,0,1-1.28,2.92c.44.46,1.42-.26,1.78.26a.77.77,0,0,1,.09.48c-.08,3.34-2.94,9.26-7,9.33C52.06,55,55,48.62,57.13,46.79Z"/><path class="cls-12" d="M44.53,21.34c-.78-1.72-2.91-2.44-4.78-2.3a6.12,6.12,0,0,0-4,1.79A4.07,4.07,0,0,0,34.82,25c.89,2.23,3.74,2.88,6.13,2.78,2.11-.08,4.65-.94,5-3,.24-1.52-.86-2.9-1.89-4"/><path class="cls-12" d="M32.51,35.29C31.78,33.64,29.8,33,28,32.75c-2.25-.26-4.89.1-6.13,2a4.7,4.7,0,0,0,.84,5.61,8.25,8.25,0,0,0,5.57,2.19c1.81.1,3.89-.33,4.78-1.91,1.18-2.07-.44-4.62-2.21-6.21"/><path class="cls-12" d="M26.05,53.37a2,2,0,0,0-2.38-2,2.58,2.58,0,0,0-1.75,2.89,3.76,3.76,0,0,0,2.3,2.71,2.77,2.77,0,0,0,2.9-.24c1.23-1.13.46-3.22-.68-4.44"/></g></svg>