<svg xmlns="http://www.w3.org/2000/svg" viewBox="0 0 97.28 94.22"><defs><style>.cls-1{opacity:0.33;}.cls-2{fill:#834c20;}.cls-3{fill:#663717;}.cls-4{fill:none;stroke:#000;stroke-linecap:round;stroke-linejoin:round;stroke-width:0.25px;}</style></defs><title>come cabo verde</title><g id="Camada_2" data-name="Camada 2"><path class="cls-2" d="M62.45,10.12c1,.16,2.26.73,2,1.71-.15.66-.92.95-1.59,1.08-3.45.66-7,0-10.49-.38-6.27-.68-12.22.4-18.39.48C35.36,6.67,57.8,9.37,62.45,10.12Z"/><path class="cls-3" d="M36.86,15.87a79.19,79.19,0,0,1,23.76.32,1.66,1.66,0,0,0,1.53-.25,1.39,1.39,0,0,0,.27-.62,4.35,4.35,0,0,0-.2-2.55,111.67,111.67,0,0,0-24.38-.6,7.76,7.76,0,0,0-3.48.9C34.52,14.28,35.36,16.07,36.86,15.87Z"/><path class="cls-2" d="M32.71,23.26a54.07,54.07,0,0,0,29.51,2.89,2.3,2.3,0,0,0,1.8-1,2.14,2.14,0,0,0,.07-1.28,25.54,25.54,0,0,0-2-6.56A3,3,0,0,0,61.2,16,3.09,3.09,0,0,0,60,15.6a76.21,76.21,0,0,0-17.91-1.07c-2.33.13-5.45-.16-7,1.58C33.9,17.51,33.12,21.44,32.71,23.26Z"/><path class="cls-3" d="M32.23,22.9c-1.59,2.7-3.64,7.49-5.24,10.19,13.18,1,26.87-.8,40.08-1.29-.82-4-.58-5.77-4.67-6-3.37-.17-6.74-.15-10.11-.38C50.32,25.32,32.58,22.31,32.23,22.9Z"/><path class="cls-2" d="M64.89,30.88a6.29,6.29,0,0,1,2.52.29,5.67,5.67,0,0,1,2.22,2c6.08,8.29,7.19,19.45,5,29.49A34,34,0,0,1,68.31,76.8a25.77,25.77,0,0,1-23,9.21A25.78,25.78,0,0,1,25.47,71.13,34.58,34.58,0,0,1,23,61.25a54.94,54.94,0,0,1,.52-16.34c.61-3.35,1.54-11.26,4.86-13,1.9-1,6.15-.3,8.28-.35l9.17-.2Z"/><path class="cls-3" d="M64,41.05a8.51,8.51,0,0,1,2.5-2.25,3.31,3.31,0,0,1,3.24,0c1.17.77,1.48,2.34,1.54,3.74a21.3,21.3,0,0,1-1.49,8.72c-.1.24-.24.51-.49.56-.41.08-.63-.45-.71-.86L68,47.8a3.51,3.51,0,0,0-1.25-2.55,2.7,2.7,0,0,0-2.54.12c-2.41,1.15-3.77,3.7-5,6.09a46.07,46.07,0,0,1-2.53,4.77C55.61,51.87,61.34,44.3,64,41.05Z"/></g><g id="Camada_3" data-name="Camada 3"><path class="cls-4" d="M33.35,13.49s-3.13-.87,0-1.74,14.25-3.48,32.16,0c0,0,2.26.52-.87,1.74S56.5,9.05,33.35,13.49Z"/><path class="cls-4" d="M33.35,13.49,36,15.92s19.83-1.22,26.43,0l1.39-2.27S52.12,9,33.35,13.49Z"/><path class="cls-4" d="M62.38,15.92l2.44,8.69c-8.1,3.79-32.34,1.4-31.47-.69s2.6-8,2.6-8S52.47,13.83,62.38,15.92Z"/><path class="cls-4" d="M33.73,23.92l-4.38,6.75S7.05,63.33,38.15,84c0,0,12.37,4.84,20.35.6,0,0,30.9-19,9.62-52.66l-3.3-7.31S46,29.55,33.73,23.92Z"/><path class="cls-4" d="M33.35,23.92a52.42,52.42,0,0,0,31.47.69l3.3,7.31s-18.43-1.46-38.77-1.25Z"/><path class="cls-4" d="M59.86,47.06c1.5-2.35,3.43-4.64,6.08-5.49a3.91,3.91,0,0,1,2-.17c1.73.4,2.58,2.34,2.93,4.08a34.15,34.15,0,0,1,.43,6.78,29.85,29.85,0,0,0-1-6.33c-.53-1.44-1.56-3-3.09-3a4,4,0,0,0-2.46,1.16C61,47.17,59,50.92,56.21,54.79A29.27,29.27,0,0,1,59.86,47.06Z"/></g></svg>