<svg xmlns="http://www.w3.org/2000/svg" viewBox="0 0 97.28 94.22"><defs><style>.cls-1{opacity:0.33;}.cls-2,.cls-6,.cls-7{fill:none;}.cls-3{fill:#663717;}.cls-4{fill:#834c20;}.cls-5{fill:#d37231;}.cls-6{stroke:#d37231;stroke-miterlimit:10;}.cls-7{stroke:#000;stroke-linecap:round;stroke-linejoin:round;stroke-width:0.25px;}</style></defs><title>come cabo verde</title><g id="Camada_2" data-name="Camada 2"><path class="cls-2" d="M75.83,45.68A102.83,102.83,0,0,1,65.26,27.56a1.94,1.94,0,0,1,0,.34C65.19,29,64,30,62.94,29.25a2.6,2.6,0,0,1-1.09-2.49,1.06,1.06,0,0,1,.12-.55c0-.06,0-.08.05-.11s0-.38,0-.42c.05-.27.11-.55.17-.83a.75.75,0,0,1,1.44,0c.19.62.39.67.75,1a3.61,3.61,0,0,1,.25.3c-.79-1.8-1.54-3.62-2.22-5.47a1.77,1.77,0,0,1-.44.79,1.92,1.92,0,0,1-2.69,0,3.87,3.87,0,0,1-1-3.31,1.12,1.12,0,0,1,1.33-.76,3.36,3.36,0,0,1,1.09.5c.32.2.63.4.93.63-.28-.8-.56-1.59-.82-2.39-.87-2.76-1.7-5.67-3.68-7.76a9.15,9.15,0,0,0-12.64-.15c1.46,1.26,1.5,3.61.61,5.32a13.07,13.07,0,0,1-4,4.09C36.88,20.9,30.72,27.8,25.66,29.32c.22-.07-12.38.53-9.07,3.84,8.08,7.63,10.28,19.38,13.33,30.07s8.59,22.25,19.22,25.51l7-4.75c-2.33-1.54-1.28-5.15.13-7.57A91.69,91.69,0,0,1,67.34,61.19c1.6-1.79,4.32-3.59,6.13-2,1.11-2.23,3.92-3.26,4.88-5.56C79.47,50.93,77.55,48,75.83,45.68ZM28.31,37.4a2.25,2.25,0,0,1-3.15,0c-.27-.28-.52-.59-.79-.86l-.25-.22L24,36.24a2.07,2.07,0,0,1-1-1.8v0a1.16,1.16,0,0,1,.07-.53,2.14,2.14,0,0,1,2.56-1.45,6.84,6.84,0,0,1,2.75,1.82A2.26,2.26,0,0,1,28.31,37.4ZM29.9,45c-1-1.29-1.39-4.37.15-5.41,1.28-.87,2.29,1.32,2.93,2.4l.08.06.3.39,0-.07c.12.15.13.17,0,.07A2.16,2.16,0,1,1,29.9,45Zm1.9,11a5.17,5.17,0,0,1,.13-3.25,2.39,2.39,0,0,1,.88-1.15c.24-.18.52-.23.76-.38a.14.14,0,0,1,.18.05c.16.39.63.71.85,1.09s.44.9.72,1.33a5.26,5.26,0,0,1,.5.61,2.2,2.2,0,1,1-4,1.7Zm5,12.94a2.3,2.3,0,0,1-3.13-.82c-.86-2-1.34-4.43.51-6a1.32,1.32,0,0,1,2.18.57,15.48,15.48,0,0,0,1.26,3.11A2.35,2.35,0,0,1,36.79,69Zm7.28,7.64c-2,2-5.07-1-6.24-2.62a2.13,2.13,0,0,1,2.91-2.91c.74.5,1.46,1,2.19,1.51a3.47,3.47,0,0,1,1.65,1.87A2.31,2.31,0,0,1,44.07,76.59Zm5,7.76a2.51,2.51,0,0,1-2-.33,4.68,4.68,0,0,1-.88-.78,3.87,3.87,0,0,1-.91-2.5,1.83,1.83,0,0,1,3.09-1.28l.08.08a.83.83,0,0,0,.16.09,1.38,1.38,0,0,1,.53.37c-.16-.11-.18-.12,0,0a3,3,0,0,1,1.52,1.76A2.15,2.15,0,0,1,49.12,84.35ZM56.6,15.5a1.94,1.94,0,0,1-1.9.5,3.9,3.9,0,0,1-2.76-4.18,1.14,1.14,0,0,1,1.64-.68c-.07,0-.1-.05,0,0h0l.3.13h0a4.94,4.94,0,0,1,.64.35,3.3,3.3,0,0,0,.45.26l.08,0,.15.05A2.77,2.77,0,0,1,57,13.38,1.91,1.91,0,0,1,56.6,15.5Zm8.76,25.32c-1.39-.52-1.7-1.76-1.86-3.1a4.09,4.09,0,0,1,0-1.48,3.38,3.38,0,0,1,.55-1,.22.22,0,0,1,.38,0c.17.24.49.4.7.63s.41.51.65.75c.64.65,1.52,1,1.73,2C67.76,39.86,66.7,41.31,65.36,40.82ZM70,47.48A1.89,1.89,0,0,1,67.18,47a3.83,3.83,0,0,1-.72-2.57s0,.06,0,0h0c0-.08.05-.33.06-.37s.07-.25.11-.37a1.32,1.32,0,0,1,.62-.8c.68-.35,1.06.15,1.5.58l.65.61c.24.22.49.43.75.64A1.87,1.87,0,0,1,70,47.48Zm5.84,6.37a2,2,0,0,1-3.05-.4,4.92,4.92,0,0,1-.55-1.1,1.76,1.76,0,0,1-.1-.3s-.08-.64,0-.31a2.05,2.05,0,0,1,.07-1.1c.13-.34-.15.14.13-.29a1.28,1.28,0,0,1,.17-.22c.39-.4,1.13-.21,1.55,0-.23-.1.31.11.25.09l.42.19a4.71,4.71,0,0,1,.76.42A2,2,0,0,1,75.79,53.85Z"/><path class="cls-2" d="M82,52.73a4.08,4.08,0,0,0-1.32-2.09A81.35,81.35,0,0,1,65.27,27.73a1,1,0,0,1,0,.17C65.19,29,64,30,62.94,29.25a2.6,2.6,0,0,1-1.09-2.49,1.06,1.06,0,0,1,.12-.55c0-.06,0-.08.05-.11s0-.38,0-.42c.05-.27.11-.55.17-.83a.75.75,0,0,1,1.44,0c.19.62.39.67.75,1l.11.13c-.08-.19-.17-.37-.25-.56-.64-1.56-1.24-3.14-1.83-4.72a1.86,1.86,0,0,1-.44.77,1.92,1.92,0,0,1-2.69,0,3.87,3.87,0,0,1-1-3.31,1.12,1.12,0,0,1,1.33-.76,3.36,3.36,0,0,1,1.09.5c.28.17.56.35.82.54-.54-1.4-1.1-2.79-1.71-4.16-1.46-3.22-3.41-6.49-6.59-8.06s-7.79-.58-9,2.75c2,.83,2.1,3.83.79,5.54S41.6,17,39.63,17.91A44.78,44.78,0,0,0,24.25,29.64c-2.84-4.28-7.16-1.46-6.36,3.39.43,2.63,2.16,4.84,3.66,7a47.05,47.05,0,0,1,7.3,18.17c.78,4.51.92,9.2,2.66,13.43,2.38,5.8,7.43,10,12.3,13.94,2,1.63,4.19,3.34,6.78,3.55s5.49-1.87,5.1-4.43c-2.56-1.49-1.08-5.42.73-7.76A153.32,153.32,0,0,1,73.78,58c1-1,3.29-1.48,3.34-.07C78.59,55.87,82.36,55.2,82,52.73ZM28.31,37.4a2.25,2.25,0,0,1-3.15,0c-.27-.28-.52-.59-.79-.86l-.25-.22L24,36.24a2.07,2.07,0,0,1-1-1.8v0a1.16,1.16,0,0,1,.07-.53,2.14,2.14,0,0,1,2.56-1.45,6.84,6.84,0,0,1,2.75,1.82A2.26,2.26,0,0,1,28.31,37.4ZM29.9,45c-1-1.29-1.39-4.37.15-5.41,1.28-.87,2.29,1.32,2.93,2.4l.08.06.3.39,0-.07c.12.15.13.17,0,.07A2.16,2.16,0,1,1,29.9,45Zm1.9,11a5.17,5.17,0,0,1,.13-3.25,2.39,2.39,0,0,1,.88-1.15c.24-.18.52-.23.76-.38a.14.14,0,0,1,.18.05c.16.39.63.71.85,1.09s.44.9.72,1.33a5.26,5.26,0,0,1,.5.61,2.2,2.2,0,1,1-4,1.7Zm5,12.94a2.3,2.3,0,0,1-3.13-.82c-.86-2-1.34-4.43.51-6a1.32,1.32,0,0,1,2.18.57,15.48,15.48,0,0,0,1.26,3.11A2.35,2.35,0,0,1,36.79,69Zm7.28,7.64c-2,2-5.07-1-6.24-2.62a2.13,2.13,0,0,1,2.91-2.91c.74.5,1.46,1,2.19,1.51a3.47,3.47,0,0,1,1.65,1.87A2.31,2.31,0,0,1,44.07,76.59Zm5,7.76a2.51,2.51,0,0,1-2-.33,4.68,4.68,0,0,1-.88-.78,3.87,3.87,0,0,1-.91-2.5,1.83,1.83,0,0,1,3.09-1.28l.08.08a.83.83,0,0,0,.16.09,1.38,1.38,0,0,1,.53.37c-.16-.11-.18-.12,0,0a3,3,0,0,1,1.52,1.76A2.15,2.15,0,0,1,49.12,84.35ZM56.6,15.5a1.94,1.94,0,0,1-1.9.5,3.9,3.9,0,0,1-2.76-4.18,1.14,1.14,0,0,1,1.64-.68c-.07,0-.1-.05,0,0h0l.3.13h0a4.94,4.94,0,0,1,.64.35,3.3,3.3,0,0,0,.45.26l.08,0,.15.05A2.77,2.77,0,0,1,57,13.38,1.91,1.91,0,0,1,56.6,15.5Zm8.76,25.32c-1.39-.52-1.7-1.76-1.86-3.1a4.09,4.09,0,0,1,0-1.48,3.38,3.38,0,0,1,.55-1,.22.22,0,0,1,.38,0c.17.24.49.4.7.63s.41.51.65.75c.64.65,1.52,1,1.73,2C67.76,39.86,66.7,41.31,65.36,40.82ZM70,47.48A1.89,1.89,0,0,1,67.18,47a3.83,3.83,0,0,1-.72-2.57s0,.06,0,0h0c0-.08.05-.33.06-.37s.07-.25.11-.37a1.32,1.32,0,0,1,.62-.8c.68-.35,1.06.15,1.5.58l.65.61c.24.22.49.43.75.64A1.87,1.87,0,0,1,70,47.48Zm5.84,6.37a2,2,0,0,1-3.05-.4,4.92,4.92,0,0,1-.55-1.1,1.76,1.76,0,0,1-.1-.3s-.08-.64,0-.31a2.05,2.05,0,0,1,.07-1.1c.13-.34-.15.14.13-.29a1.28,1.28,0,0,1,.17-.22c.39-.4,1.13-.21,1.55,0-.23-.1.31.11.25.09l.42.19a4.71,4.71,0,0,1,.76.42A2,2,0,0,1,75.79,53.85Z"/><path class="cls-2" d="M64.14,18.74c-.53-2.86-.93-5.78-2.21-8.39s-3.64-4.88-6.52-5.17c-3.27-.32-6.19,1.89-8.73,4a3.93,3.93,0,0,0-1.6,2.06c-.14.73.12,1.48.05,2.21C45,14.64,44,15.54,43,16.32q-7.75,6.25-15.55,12.46c-3.73,3-13.7-1.89-9.65,7,2.84,6.27,6.75,10.3,8.09,17.59,1.29,7,1.73,14.27,4.72,20.72a28.57,28.57,0,0,0,14.8,14.22,4.13,4.13,0,0,0,2.52.42,4.43,4.43,0,0,0,1.78-1.13l5.51-4.88-2.72-2.56L72.06,57.41a3.92,3.92,0,0,1,2.53,1.14l6.54-8.25C71.5,42.78,66.37,30.75,64.14,18.74ZM28.31,37.4a2.25,2.25,0,0,1-3.15,0c-.27-.28-.52-.59-.79-.86l-.25-.22L24,36.24a2.07,2.07,0,0,1-1-1.8v0a1.16,1.16,0,0,1,.07-.53,2.14,2.14,0,0,1,2.56-1.45,6.84,6.84,0,0,1,2.75,1.82A2.26,2.26,0,0,1,28.31,37.4ZM29.9,45c-1-1.29-1.39-4.37.15-5.41,1.28-.87,2.29,1.32,2.93,2.4l.08.06.3.39,0-.07c.12.15.13.17,0,.07A2.16,2.16,0,1,1,29.9,45Zm1.9,11a5.17,5.17,0,0,1,.13-3.25,2.39,2.39,0,0,1,.88-1.15c.24-.18.52-.23.76-.38a.14.14,0,0,1,.18.05c.16.39.63.71.85,1.09s.44.9.72,1.33a5.26,5.26,0,0,1,.5.61,2.2,2.2,0,1,1-4,1.7Zm5,12.94a2.3,2.3,0,0,1-3.13-.82c-.86-2-1.34-4.43.51-6a1.32,1.32,0,0,1,2.18.57,15.48,15.48,0,0,0,1.26,3.11A2.35,2.35,0,0,1,36.79,69Zm7.28,7.64c-2,2-5.07-1-6.24-2.62a2.13,2.13,0,0,1,2.91-2.91c.74.5,1.46,1,2.19,1.51a3.47,3.47,0,0,1,1.65,1.87A2.31,2.31,0,0,1,44.07,76.59Zm5,7.76a2.51,2.51,0,0,1-2-.33,4.68,4.68,0,0,1-.88-.78,3.87,3.87,0,0,1-.91-2.5,1.83,1.83,0,0,1,3.09-1.28l.08.08a.83.83,0,0,0,.16.09,1.38,1.38,0,0,1,.53.37c-.16-.11-.18-.12,0,0a3,3,0,0,1,1.52,1.76A2.15,2.15,0,0,1,49.12,84.35ZM56.6,15.5a1.94,1.94,0,0,1-1.9.5,3.9,3.9,0,0,1-2.76-4.18,1.14,1.14,0,0,1,1.64-.68c-.07,0-.1-.05,0,0h0l.3.13h0a4.94,4.94,0,0,1,.64.35,3.3,3.3,0,0,0,.45.26l.08,0,.15.05A2.77,2.77,0,0,1,57,13.38,1.91,1.91,0,0,1,56.6,15.5Zm2.71,6a3.87,3.87,0,0,1-1-3.31,1.12,1.12,0,0,1,1.33-.76,3.36,3.36,0,0,1,1.09.5,5.47,5.47,0,0,1,1.25.89,1.9,1.9,0,1,1-2.69,2.68Zm2.54,5.25a1.06,1.06,0,0,1,.12-.55c0-.06,0-.08.05-.11s0-.38,0-.42c.05-.27.11-.55.17-.83a.75.75,0,0,1,1.44,0c.19.62.39.67.75,1a2.7,2.7,0,0,1,.87,2C65.19,29,64,30,62.94,29.25A2.6,2.6,0,0,1,61.85,26.76Zm3.51,14.06c-1.39-.52-1.7-1.76-1.86-3.1a4.09,4.09,0,0,1,0-1.48,3.38,3.38,0,0,1,.55-1,.22.22,0,0,1,.38,0c.17.24.49.4.7.63s.41.51.65.75c.64.65,1.52,1,1.73,2C67.76,39.86,66.7,41.31,65.36,40.82ZM70,47.48A1.89,1.89,0,0,1,67.18,47a3.83,3.83,0,0,1-.72-2.57s0,.06,0,0h0c0-.08.05-.33.06-.37s.07-.25.11-.37a1.32,1.32,0,0,1,.62-.8c.68-.35,1.06.15,1.5.58l.65.61c.24.22.49.43.75.64A1.87,1.87,0,0,1,70,47.48Zm5.84,6.37a2,2,0,0,1-3.05-.4,4.92,4.92,0,0,1-.55-1.1,1.76,1.76,0,0,1-.1-.3s-.08-.64,0-.31a2.05,2.05,0,0,1,.07-1.1c.13-.34-.15.14.13-.29a1.28,1.28,0,0,1,.17-.22c.39-.4,1.13-.21,1.55,0-.23-.1.31.11.25.09l.42.19a4.71,4.71,0,0,1,.76.42A2,2,0,0,1,75.79,53.85Z"/><path class="cls-3" d="M66.44,28.08c-3-9-4.89-19.67-13-24.53C51.24,2.28,42.5,16.27,41,17.51L29,27.65a6.48,6.48,0,0,1-2.39,1.48c-2.54.68-5.92-1.59-7.54.48-1.32,1.7.44,4,1.86,5.62C27.8,43.07,28,54.52,31.35,64.39A46.16,46.16,0,0,0,42,81.78a12.27,12.27,0,0,0,4.29,3.16,7.3,7.3,0,0,0,8.45-2.75c-2.05-1-.82-4.16.64-6L71.12,57,73.9,59.7a24.3,24.3,0,0,0,6.24-7.37A71.79,71.79,0,0,1,66.44,28.08ZM28.31,37.4a2.25,2.25,0,0,1-3.15,0c-.27-.28-.52-.59-.79-.86l-.25-.22L24,36.24a2.07,2.07,0,0,1-1-1.8v0a1.16,1.16,0,0,1,.07-.53,2.14,2.14,0,0,1,2.56-1.45,6.84,6.84,0,0,1,2.75,1.82A2.26,2.26,0,0,1,28.31,37.4ZM29.9,45c-1-1.29-1.39-4.37.15-5.41,1.28-.87,2.29,1.32,2.93,2.4l.08.06.3.39,0-.07c.12.15.13.17,0,.07A2.16,2.16,0,1,1,29.9,45Zm1.9,11a5.17,5.17,0,0,1,.13-3.25,2.39,2.39,0,0,1,.88-1.15c.24-.18.52-.23.76-.38a.14.14,0,0,1,.18.05c.16.39.63.71.85,1.09s.44.9.72,1.33a5.26,5.26,0,0,1,.5.61,2.2,2.2,0,1,1-4,1.7Zm5,12.94a2.3,2.3,0,0,1-3.13-.82c-.86-2-1.34-4.43.51-6a1.32,1.32,0,0,1,2.18.57,15.48,15.48,0,0,0,1.26,3.11A2.35,2.35,0,0,1,36.79,69Zm7.28,7.64c-2,2-5.07-1-6.24-2.62a2.13,2.13,0,0,1,2.91-2.91c.74.5,1.46,1,2.19,1.51a3.47,3.47,0,0,1,1.65,1.87A2.31,2.31,0,0,1,44.07,76.59Zm5,7.76a2.51,2.51,0,0,1-2-.33,4.68,4.68,0,0,1-.88-.78,3.87,3.87,0,0,1-.91-2.5,1.83,1.83,0,0,1,3.09-1.28l.08.08a.83.83,0,0,0,.16.09,1.38,1.38,0,0,1,.53.37c-.16-.11-.18-.12,0,0a3,3,0,0,1,1.52,1.76A2.15,2.15,0,0,1,49.12,84.35ZM56.6,15.5a1.94,1.94,0,0,1-1.9.5,3.9,3.9,0,0,1-2.76-4.18,1.14,1.14,0,0,1,1.64-.68c-.07,0-.1-.05,0,0h0l.3.13h0a4.94,4.94,0,0,1,.64.35,3.3,3.3,0,0,0,.45.26l.08,0,.15.05A2.77,2.77,0,0,1,57,13.38,1.91,1.91,0,0,1,56.6,15.5Zm2.71,6a3.87,3.87,0,0,1-1-3.31,1.12,1.12,0,0,1,1.33-.76,3.36,3.36,0,0,1,1.09.5,5.47,5.47,0,0,1,1.25.89,1.9,1.9,0,1,1-2.69,2.68Zm2.54,5.25a1.06,1.06,0,0,1,.12-.55c0-.06,0-.08.05-.11s0-.38,0-.42c.05-.27.11-.55.17-.83a.75.75,0,0,1,1.44,0c.19.62.39.67.75,1a2.7,2.7,0,0,1,.87,2C65.19,29,64,30,62.94,29.25A2.6,2.6,0,0,1,61.85,26.76Zm3.51,14.06c-1.39-.52-1.7-1.76-1.86-3.1a4.09,4.09,0,0,1,0-1.48,3.38,3.38,0,0,1,.55-1,.22.22,0,0,1,.38,0c.17.24.49.4.7.63s.41.51.65.75c.64.65,1.52,1,1.73,2C67.76,39.86,66.7,41.31,65.36,40.82ZM70,47.48A1.89,1.89,0,0,1,67.18,47a3.83,3.83,0,0,1-.72-2.57s0,.06,0,0h0c0-.08.05-.33.06-.37s.07-.25.11-.37a1.32,1.32,0,0,1,.62-.8c.68-.35,1.06.15,1.5.58l.65.61c.24.22.49.43.75.64A1.87,1.87,0,0,1,70,47.48Zm2.79,6a4.92,4.92,0,0,1-.55-1.1,1.76,1.76,0,0,1-.1-.3s-.08-.64,0-.31a2.05,2.05,0,0,1,.07-1.1c.13-.34-.15.14.13-.29a1.28,1.28,0,0,1,.17-.22c.39-.4,1.13-.21,1.55,0-.23-.1.31.11.25.09l.42.19a4.71,4.71,0,0,1,.76.42,1.94,1.94,0,1,1-2.66,2.66Z"/><path class="cls-2" d="M48.74,14.32C56.14,17.7,59.8,26,62.44,33.66a214.46,214.46,0,0,0-25.12,21.5A52,52,0,0,0,35.59,41.6C34,36.33,27.67,32,31.4,27S43.36,17.61,48.74,14.32Z"/><path class="cls-2" d="M48.89,15.87a1.6,1.6,0,0,1,.66-.24,1.65,1.65,0,0,1,1.11.52,29.42,29.42,0,0,1,10,18.17A98.7,98.7,0,0,0,38.31,55c1.58-2-.81-9.87-1.46-12.09-1.16-4-4.85-7.75-5.79-11.38C29.63,26,44,18.51,48.89,15.87Z"/><path class="cls-4" d="M48.18,15.61a3,3,0,0,1,1.33-.49,2.81,2.81,0,0,1,1.68.71A26,26,0,0,1,61.64,34.22,119,119,0,0,0,38.06,54.7c1.33-1.51-.93-9.39-1.45-11.2-1.2-4.2-4.25-6.8-5.83-10.48-1.29-3-1.77-1.33.51-4.53,1.26-1.77,3.46-3.3,5.12-4.69A79.61,79.61,0,0,1,48.18,15.61Z"/><path class="cls-2" d="M60.47,36.76a26.66,26.66,0,0,0,9.68,17.59L52.58,76.29C47.1,73,37.19,64.45,40.46,57.58c1.83-3.84,6.51-7.72,9.43-10.78C51.17,45.46,60.61,38,60.47,36.76Z"/><path class="cls-4" d="M59,38.93c.72-.57,1.83-1.13,2.47-.46a2,2,0,0,1,.39,1.28A21.06,21.06,0,0,0,70.43,55,249.84,249.84,0,0,0,52.69,76.32c-2.85,3.83-12.81-14.45-12-18.18C42.16,50.82,53.5,43.25,59,38.93Z"/><path class="cls-5" d="M68,55.66a35.16,35.16,0,0,0-4.48,5.83c-.68,1.11-1.66,2.43-2.94,2.17S58.92,62,58.7,60.87c-.44-2.33-2.93-16.37.5-17.23C60.92,43.21,65.73,53.83,68,55.66Z"/><path class="cls-2" d="M32.48,36.18a38.81,38.81,0,0,1,4.26,12.13"/><path class="cls-6" d="M19.87,30.67a11.34,11.34,0,0,0,5.21,8.93"/><path class="cls-6" d="M70.73,41.85a16.61,16.61,0,0,0,6.85,8.66"/><path class="cls-6" d="M38.31,44.48A13.15,13.15,0,0,1,40,53.06"/><path class="cls-6" d="M47.53,69a17.9,17.9,0,0,0,6.68,6.31"/><path class="cls-5" d="M48.8,22.69a28.69,28.69,0,0,1,5.3,10.24c.29,1,.73,2.28,1.79,2.45a2.09,2.09,0,0,0,1.65-.66c2.2-2,1.66-5.68.31-8.35s-4.15-6.61-7.12-7.63C47,17.47,46.08,19.33,48.8,22.69Z"/><path class="cls-2" d="M28.41,38.79,29.7,37.5"/><path class="cls-2" d="M28.46,39.28l3-2.16"/><path class="cls-6" d="M28.44,39.26a4,4,0,0,1,3-2.12"/><path class="cls-6" d="M31.91,50.91l3-3"/><path class="cls-6" d="M32.76,62.1l3-1.73"/><path class="cls-6" d="M37.09,72A8.47,8.47,0,0,1,39.63,69"/><path class="cls-6" d="M44.4,81.52,47,77.22"/><path class="cls-6" d="M56.91,16.86l1.72-2.15"/><path class="cls-6" d="M60.82,24.21a3.54,3.54,0,0,1,2.55-1.8"/><path class="cls-6" d="M63.36,34.08l3-2.19"/><path class="cls-6" d="M66.78,43.1l2.13-1.75"/><path class="cls-6" d="M57.45,73.86,64.22,66"/></g><g id="Camada_3" data-name="Camada 3"><path class="cls-7" d="M25.43,32.37l-2.65,1.69a46.7,46.7,0,0,0,4.4,4,5.43,5.43,0,0,0,1.95-3.21,20.42,20.42,0,0,1-3.72-2.48"/><path class="cls-7" d="M36.32,41.14c1.58,4.72,1.69,9.8,1.79,14.79A227.76,227.76,0,0,1,61.28,34.22a3.65,3.65,0,0,0,1.49-1.89,3.21,3.21,0,0,0-.29-1.79A32.25,32.25,0,0,0,49.56,14.77C43.58,19.1,37,23.13,31.42,27.9c-3.75,3.2-2.07,3,.75,6.06A17.67,17.67,0,0,1,36.32,41.14Z"/><path class="cls-7" d="M60.4,38.07c2.61,5.87,5.43,12,10.93,15.79L53.73,76.22C52,78.44,39.05,62.85,39.88,59c.73-3.31,6-7.13,8.47-9.57Q54.2,43.62,60.4,38.07Z"/><path class="cls-7" d="M29.15,40.13a12.43,12.43,0,0,1,2.24,6.17l2.17-1.71a1.18,1.18,0,0,0,.38-.42,1.17,1.17,0,0,0,0-.8,11.19,11.19,0,0,0-2-4.12C30.29,37.51,30.54,38.73,29.15,40.13Z"/><path class="cls-7" d="M32.34,51.42a1,1,0,0,0-.36,1.2l1.17,5.44L36,56.58c-.57-1.84-.55-3.85-1.09-5.66C34.29,48.73,33.84,50,32.34,51.42Z"/><path class="cls-7" d="M33.58,62.68a.93.93,0,0,0-.31.37,1,1,0,0,0,0,.59A17.93,17.93,0,0,0,35.09,69c.12.2.31.43.55.4A.58.58,0,0,0,36,69.2l2.46-2.41c-.8-1.39-1-3.87-1.86-5C35.51,60.39,34.91,61.55,33.58,62.68Z"/><path class="cls-7" d="M37.83,73.39A46.37,46.37,0,0,0,42,77.65a6.75,6.75,0,0,0,2.67-3.09,51.63,51.63,0,0,0-4-4.53C40.34,70.27,37.68,73.22,37.83,73.39Z"/><path class="cls-7" d="M44.77,81.45a31.71,31.71,0,0,0,3.93,3.29l2-2.65a.89.89,0,0,0-.12-1.52c-.76-.65-2.34-2.83-3.28-2.68C46.92,78,44.79,81.47,44.77,81.45Z"/><path class="cls-7" d="M52.9,10.19a7.19,7.19,0,0,0-2.14,2.15q2.18,1.83,4.22,3.84a15.54,15.54,0,0,0,1.61-1.93.94.94,0,0,0,.23-.58,1,1,0,0,0-.37-.59l-3.14-3"/><path class="cls-7" d="M59.38,16l-2.19,1.49a.51.51,0,0,0-.23.23.56.56,0,0,0,.12.42l2.23,3.55c.18.28.42.61.76.61a1,1,0,0,0,.65-.33l1-.89a.81.81,0,0,0,.3-.39.78.78,0,0,0-.09-.47,16.51,16.51,0,0,0-2.55-4"/><path class="cls-7" d="M63.24,23.61l-1.83,1.66a20.66,20.66,0,0,1,2.16,4.4A4.44,4.44,0,0,1,65,28.85l-1.57-5.28"/><path class="cls-7" d="M64.83,34.05a3.2,3.2,0,0,0-1.72,2.73,4.38,4.38,0,0,0,.68,1.75l1.53,2.69,1.41-1.48a.67.67,0,0,0,.09-1,16.37,16.37,0,0,1-1.62-4.65"/><path class="cls-7" d="M68.11,42.48c-.67.39-1.42.91-1.44,1.68a2.22,2.22,0,0,0,.27.93,10.86,10.86,0,0,0,2.28,3.1,6.13,6.13,0,0,0,1.67-1.91l-2.49-3.6"/><path class="cls-7" d="M72.88,48.58l-1.27,1.7a.79.79,0,0,0-.22.55.74.74,0,0,0,.29.41l3.18,2.91a7.06,7.06,0,0,0,1.33-1.8.92.92,0,0,0,.14-.48.94.94,0,0,0-.42-.62l-2.8-2.47"/><path class="cls-7" d="M25.05,29.93l20.3-16.24c.64-.51.94-1.93.13-1.77,2.11-2.39,4.78-5,7.93-4.55a7.86,7.86,0,0,1,4,2.2C63.36,15,65.46,23.3,67.73,31S73.24,47,80.25,50.87a37.24,37.24,0,0,0-5.12,7.27c-.46-1.2-2.26-.32-3.08.66L57.24,76.59c-1.52,1.83-3.08,4.46-1.65,6.35a34.21,34.21,0,0,0-6.8,5.41A43.59,43.59,0,0,1,29.44,61.72c-1.32-5.48-1.56-11.21-3.2-16.6-1.31-4.29-5.59-8.1-6.63-12-.46-1.73-1-2,.94-3.33C21.67,29,24.86,30.08,25.05,29.93Z"/></g></svg>