<svg xmlns="http://www.w3.org/2000/svg" viewBox="0 0 97.28 94.22"><defs><style>.cls-1{opacity:0.33;}.cls-2{fill:#834c20;}.cls-3{fill:#3cb9ce;}.cls-4{fill:#1e90b3;}.cls-5{fill:#2ca8c4;}.cls-6{fill:#57d0dd;}.cls-7{fill:#663717;}.cls-8,.cls-9{fill:none;}.cls-9{stroke:#000;stroke-linecap:round;stroke-linejoin:round;stroke-width:0.25px;}</style></defs><title>Dança</title><g id="Camada_2" data-name="Camada 2"><path class="cls-2" d="M51.5,58.23a.48.48,0,0,0,0-.59A1.9,1.9,0,0,1,51,55.86a4.05,4.05,0,0,0,0-1.8,1.5,1.5,0,0,0-.72-1,1,1,0,0,0-.48-.09l0,0c-.06-.09-.11-.18-.16-.27a1.48,1.48,0,0,0-.09-1.85l-.1-.07a5.65,5.65,0,0,0-1.07-.16,1.07,1.07,0,0,1-.32-.07,1.38,1.38,0,0,1-1.58-1.31l0-.13A1.37,1.37,0,0,1,47,48s0,0,0,0l.1-.14a10.38,10.38,0,0,1,.29-2c-2.95-.25-6.08-.56-8.44-2.34A44.66,44.66,0,0,1,35.56,40c-3.66-3.42-13-7.09-12.41,1.51.15,2.38,1.35,4.55,2.33,6.73s1.8,4.63,1.13,6.92c-.36,1.24-1.12,2.33-1.44,3.57a8.43,8.43,0,0,0,.07,3.77A21.2,21.2,0,0,0,37,77.39c2.37,1.08,5.79,1.39,7-.92,1-1.89-.23-4.39.77-6.28a6.65,6.65,0,0,1,2.31-2.12,12.72,12.72,0,0,0,4.14-4.21A6.07,6.07,0,0,0,51.5,58.23Z"/><path class="cls-2" d="M63.46,12.28c-2.81,2.53-6.12,5.39-10.09,5-1.25-.13-2.82-.47-3.54.45-1.26,1.61,2.45,4,.94,5.44-1,1-3.46.21-3.89,1.47-.35,1,1.38,1.9,1.15,3s-2.58,1.14-3,2.31,1.41,2,1.47,3.16S45.25,35,45.54,36c.35,1.21,2.32,1,3.68,1.31,2.71.61,3.34,3.74,3.28,6.22s.11,5.54,2.61,6.63a6.79,6.79,0,0,0,4.07.12,20.2,20.2,0,0,0,13-8.82A16.28,16.28,0,0,0,73.4,27,4,4,0,0,1,73,25.33a4.26,4.26,0,0,1,.93-2c2.2-3.3,5-11.23,1.1-14.43C71.37,5.9,66.07,9.93,63.46,12.28Z"/><path class="cls-3" d="M68.24,18.5a50.24,50.24,0,0,0,2.05,16.93,2.87,2.87,0,0,0,1.39,2,3,3,0,0,0,1.47.06l8.42-1.1a42.19,42.19,0,0,0-6.88,3.46c-1.85,1.16-3.83,3.44-2.59,5.24.69,1,2.16,1.35,2.61,2.47s-.23,2.14-.24,3.23c0,1.71,1.56,3.1,3.24,3.45a10.15,10.15,0,0,0,5-.64c4-1.26,8.09-3.14,10.12-6.77s.63-9.31-3.45-10.15c3.86-1.36,6.13-5.63,6.23-9.72s-1.55-8-3.51-11.61c-1.81-3.33-4-6.6-7.19-8.63C75.67.88,68.68,9.81,68.24,18.5Z"/><path class="cls-4" d="M5.52,44.75c-2.07,3.56-2.81,7.73-3.17,11.83a18,18,0,0,0,.37,6.86C4.14,68.11,9,71.28,13.82,71.5s9.62-2.17,13-5.68a31.7,31.7,0,0,0,7-12.68c1.3-4.15,1.87-9.28-1.25-12.31a11.5,11.5,0,0,0-6.1-2.6C18.69,36.81,9.93,37.15,5.52,44.75Z"/><path class="cls-5" d="M30,61.34c-3.26,5.27-9.37,9-15.53,8.35a30.7,30.7,0,0,1-7-2c-.87-.31-2.2-.37-2.36.54a1.41,1.41,0,0,0,.26.94A8.89,8.89,0,0,0,10,72.92c6.79,2.52,14.68-1.32,18.88-7.22s5.5-13.35,6.2-20.57a2.44,2.44,0,0,0-.28-1.77c-1.55-2-1.43,1.74-1.44,2.19,0,1.82.12,3.6-.06,5.41A24.14,24.14,0,0,1,30,61.34Z"/><path class="cls-3" d="M15.71,51.06c.11-.62-.7-1.08-1.3-.89a2.54,2.54,0,0,0-1.27,1.33,4.84,4.84,0,0,0-.68,2.35,2.06,2.06,0,0,0,1.3,1.92,2.5,2.5,0,0,0,2.52-1.15,3.38,3.38,0,0,0,.77-2.76,1.92,1.92,0,0,0-2.19-1.49"/><path class="cls-6" d="M23.28,30.73c2.41-.86,5.27-1.23,7.36.23a6.63,6.63,0,0,1,2.45,3.95,19.61,19.61,0,0,1,.33,4.72l0,4.22A4.71,4.71,0,0,1,31.13,43,22.2,22.2,0,0,0,23,40.3c-2.1-.3-6.93.58-8.59-.54C10.41,37.07,21.22,31.46,23.28,30.73Z"/><path class="cls-3" d="M18,36.08a9.72,9.72,0,0,1,6.28,0,10.43,10.43,0,0,1,5.23,4.88A4.59,4.59,0,0,1,30.22,44c.23-1.06-11.67-3.45-12.85-3.61C16,40.25,13,40.71,13,39.17S16.92,36.41,18,36.08Z"/><path class="cls-6" d="M8.27,45c1-1.34,1.9-2.67,2.76-4C10.09,42.24,9.17,43.59,8.27,45Z"/><path class="cls-6" d="M8.27,45A38.75,38.75,0,0,0,4.46,51.2a21.37,21.37,0,0,0-1.27,5.17,12.31,12.31,0,0,0,0,5.6c0,.14.27.13.26,0-.19-4.08-.54-8.34,1.67-12C6.15,48.28,7.19,46.61,8.27,45Z"/><path class="cls-6" d="M11.65,39.93l-.62,1,.68-1S11.67,39.89,11.65,39.93Z"/><path class="cls-6" d="M8.7,52A49.91,49.91,0,0,0,6.46,64.86c0,.13.2.13.21,0A59.85,59.85,0,0,1,9.61,49.42C9.28,50.27,9,51.14,8.7,52Z"/><path class="cls-6" d="M14,40.16l-.42.79.48-.76S14.06,40.11,14,40.16Z"/><path class="cls-6" d="M9.61,49.42a75.12,75.12,0,0,1,4-8.47A39.84,39.84,0,0,0,9.61,49.42Z"/><path class="cls-6" d="M15.28,40.91c-.1.26-.2.52-.31.77.13-.24.25-.49.38-.74C15.37,40.9,15.3,40.87,15.28,40.91Z"/><path class="cls-6" d="M7.48,66.77c0,.29.45.35.5.07a144.7,144.7,0,0,1,3.29-15.58A66.72,66.72,0,0,0,7.48,66.77Z"/><path class="cls-6" d="M11.27,51.26C12.42,48,13.7,44.85,15,41.68A55,55,0,0,0,11.27,51.26Z"/><path class="cls-6" d="M12.14,54.93c-.72,2-1.36,4.08-1.94,6.15A20.68,20.68,0,0,0,9,66.77a.15.15,0,0,0,.3,0,56.92,56.92,0,0,0,1.15-6A49.71,49.71,0,0,1,12.21,55C12.22,54.9,12.15,54.88,12.14,54.93Z"/><path class="cls-6" d="M10.68,68.2c0,.14.21.16.24,0,.76-2.85,1.22-5.73,2-8.55A44.71,44.71,0,0,0,10.68,68.2Z"/><path class="cls-6" d="M13.92,56.65c-.1.37-.22.73-.33,1.09.13-.36.26-.71.4-1.07C14,56.63,13.94,56.61,13.92,56.65Z"/><path class="cls-6" d="M13,59.68c.22-.65.43-1.3.64-1.94C13.35,58.38,13.14,59,13,59.68Z"/><path class="cls-6" d="M15.58,56.64l-.28,1c.11-.33.22-.65.35-1C15.67,56.62,15.59,56.59,15.58,56.64Z"/><path class="cls-6" d="M14.63,60.07c.22-.81.44-1.62.67-2.43A24.43,24.43,0,0,0,14.63,60.07Z"/><path class="cls-6" d="M13.25,67.51c0,.19.28.19.3,0a66,66,0,0,1,1.08-7.44A35,35,0,0,0,13.25,67.51Z"/><path class="cls-6" d="M17.26,42.14c-.12.36-.25.71-.38,1.06.15-.34.28-.69.44-1C17.34,42.12,17.27,42.09,17.26,42.14Z"/><path class="cls-6" d="M16,45.54c.31-.77.61-1.55.89-2.34C16.56,44,16.26,44.75,16,45.54Z"/><path class="cls-6" d="M14.7,49.1a0,0,0,0,0,0,0c.46-1.17.84-2.37,1.25-3.57C15.53,46.72,15.07,47.89,14.7,49.1Z"/><path class="cls-6" d="M19,43.61a16.76,16.76,0,0,0-2.48,6.74s.07.06.07,0A16.82,16.82,0,0,1,19,43.64S19,43.57,19,43.61Z"/><path class="cls-6" d="M9.3,67.8l-1.71-.58C8.15,67.43,8.72,67.62,9.3,67.8Z"/><path class="cls-6" d="M6.3,66.79l1.29.43c-.43-.16-.85-.32-1.26-.49C6.28,66.71,6.25,66.78,6.3,66.79Z"/><path class="cls-6" d="M19.33,69.44a7.37,7.37,0,0,1-3.76,0A113.37,113.37,0,0,1,17,58c-.8,3.75-1.47,7.55-1.93,11.36-.78-.18-1.55-.41-2.29-.6-1.16-.31-2.33-.62-3.49-1,1.57.54,3.14,1.09,4.74,1.52l1,.28a.19.19,0,0,0,0,.08c0,.31.44.33.51,0a5.94,5.94,0,0,0,3.86-.11C19.51,69.57,19.44,69.4,19.33,69.44Z"/><path class="cls-6" d="M21.44,42.49A75.74,75.74,0,0,0,17,58c.16-.74.32-1.48.49-2.21C18.54,51.26,20,46.91,21.44,42.49Z"/><path class="cls-6" d="M21.69,41.69c-.08.27-.16.53-.25.8.11-.26.21-.52.32-.77A0,0,0,1,0,21.69,41.69Z"/><path class="cls-6" d="M23.52,42.62c-.08.34-.17.69-.25,1,.11-.34.2-.69.32-1C23.6,42.59,23.53,42.57,23.52,42.62Z"/><path class="cls-6" d="M20.7,53.73c.86-3.36,1.77-6.71,2.57-10.07A97.09,97.09,0,0,0,20.7,53.73Z"/><path class="cls-6" d="M18,67s0,0,0,0c1-4.4,1.75-8.86,2.67-13.3A104.15,104.15,0,0,0,18,67Z"/><path class="cls-6" d="M25.12,45.76c0,.3-.06.6-.09.9.06-.3.11-.6.16-.9A0,0,0,1,0,25.12,45.76Z"/><path class="cls-6" d="M23.48,55.39A63.62,63.62,0,0,0,25,46.66C24.52,49.58,24.06,52.49,23.48,55.39Z"/><path class="cls-6" d="M23,57.35c-.87,3.37-1.61,7.35-3.86,10.08,0,0,0,.13.07.09,2.46-1.83,2.88-6,3.54-8.8.27-1.1.51-2.22.74-3.33C23.32,56.05,23.16,56.7,23,57.35Z"/><path class="cls-6" d="M26.29,53.42a55,55,0,0,0,1-9.2C27,47.3,26.74,50.36,26.29,53.42Z"/><path class="cls-6" d="M25.84,55.68q-.59,2.81-1.4,5.54c-.59,2-1,5-2.89,6.15a.2.2,0,0,0,.2.35c1.44-.72,1.78-2.41,2.21-3.84.67-2.26,1.22-4.55,1.69-6.85.25-1.21.46-2.41.64-3.61C26.14,54.18,26,54.93,25.84,55.68Z"/><path class="cls-6" d="M27.31,43.35c0,.29,0,.58,0,.87l.09-.87A0,0,0,0,0,27.31,43.35Z"/><path class="cls-6" d="M32.06,45.29c-.18,2.79-.64,5.55-1.09,8.31a27.15,27.15,0,0,1-2,7.31c-.09.2.17.46.33.25,1.52-2,1.75-4.72,2.09-7.1.42-2.91.55-5.84.74-8.77C32.14,45.24,32.06,45.24,32.06,45.29Z"/><path class="cls-6" d="M6.64,43.31s0,0,0,0h0s0,0,0,0,0,0,0,0a6.28,6.28,0,0,1,.73-.25c-.24,0-.49.11-.73.18Z"/><path class="cls-6" d="M6.59,45.45l.75-.09-.76,0S6.54,45.46,6.59,45.45Z"/><path class="cls-6" d="M3.54,48.49a5.08,5.08,0,0,1,.66-.33c-.23.08-.46.16-.7.27C3.46,48.44,3.5,48.51,3.54,48.49Z"/><path class="cls-6" d="M19.45,54.71q.64,0,1.29.09l-1.29-.16A0,0,0,1,0,19.45,54.71Z"/><path class="cls-6" d="M21.45,54.89c-.23,0-.47-.07-.71-.09Z"/><path class="cls-6" d="M1.8,57.54l.79-.06H1.8S1.76,57.55,1.8,57.54Z"/><path class="cls-6" d="M5.13,63.8l4.66.71A41,41,0,0,0,5.13,63.8Z"/><path class="cls-6" d="M23.58,68.43a.09.09,0,0,0,.07-.17c-4.27-2.15-9.09-3-13.86-3.75,1.54.31,3.07.69,4.57,1.09C17.47,66.42,20.47,67.63,23.58,68.43Z"/><path class="cls-6" d="M32.62,52.14c-1.18-.45-2.38-.84-3.6-1.2.1-1.06.17-2.12.17-3.17.89.35,1.76.73,2.61,1.15.15.07.29-.15.13-.23a23.68,23.68,0,0,0-2.75-1.3A19.09,19.09,0,0,0,29,45c.82.29,1.66.62,2.5,1,.11,0,.2-.1.09-.16C28,43.62,23.78,43,19.65,43c-2.26-.05-4.53,0-6.79-.08l.45,0c2,.08,4,.18,6,.27A31.81,31.81,0,0,1,29,45a20.44,20.44,0,0,1,0,2.35,32.35,32.35,0,0,0-10.14-2A40.82,40.82,0,0,1,29,47.69c-.05,1.05-.16,2.1-.29,3.15a81.24,81.24,0,0,0-12.08-2.42c-2.5-.33-5-.53-7.53-.63l-.38,0,2.09.21c2.61.21,5.21.54,7.79,1a99.7,99.7,0,0,1,10,2.33c-.14,1.09-.3,2.18-.45,3.27a20.23,20.23,0,0,0-8.75-2.13c-.05,0-.05.07,0,.08a30.72,30.72,0,0,1,8.67,2.65c0,.09,0,.17,0,.25,0,.31-.06.64-.09,1a29,29,0,0,0-6.54-1.47,28.24,28.24,0,0,1,6.49,1.89c-.05.58-.09,1.17-.15,1.77A100.94,100.94,0,0,0,17.36,56c-2.62-.54-5.26-1-7.89-1.47A25.22,25.22,0,0,0,6,54.07c.23-.84.48-1.67.76-2.5a12.58,12.58,0,0,1,4.21,1.54c.12.06.27-.11.15-.2a7.14,7.14,0,0,0-4.25-1.63,37,37,0,0,1,1.43-3.52h.45l-.44,0c.38-.83.8-1.65,1.25-2.45,3.14-.11,6.26-.2,9.34,0a47.7,47.7,0,0,0-9.25-.15c.44-.77.9-1.53,1.38-2.27l1.64,0h.22L11,42.8c.56-.85,1.15-1.68,1.78-2.48,0,0,0-.09-.05-.06-.64.83-1.24,1.67-1.81,2.54a11.78,11.78,0,0,0-3.57.34,16.23,16.23,0,0,1,3.54-.29Q10.18,44,9.54,45.13c-.74.06-1.47.14-2.2.23l2.1-.07c-.44.8-.86,1.62-1.24,2.44a9.18,9.18,0,0,0-4,.43,11.65,11.65,0,0,1,4-.4,36.79,36.79,0,0,0-1.42,3.51A9.71,9.71,0,0,0,3,51.82s0,0,0,0a8.43,8.43,0,0,1,3.63-.28c-.28.83-.53,1.67-.76,2.51A8.54,8.54,0,0,0,3,54.46s0,0,0,0a9.1,9.1,0,0,1,2.84-.29c-.28,1-.51,2.11-.7,3.18-.85,0-1.71,0-2.57.1.85,0,1.69,0,2.54.08-.19,1.06-.33,2.13-.43,3.21-.57,0-1.13,0-1.69.09a0,0,0,0,0,0,0l1.68,0c-.08.94-.12,1.88-.14,2.83l-.3-.05s-.06.07,0,.07l.31,0c0,.29,0,.58,0,.86a0,0,0,1,0,.07,0c0-.28,0-.57,0-.85l.5,0-.5-.08c0-.95,0-1.9.13-2.84a38.68,38.68,0,0,1,9.81,1.29,49,49,0,0,1,10.64,4.67.16.16,0,0,0,.17-.28c-5.71-4.21-13.51-6-20.6-5.79.1-1.08.23-2.15.42-3.21a78.74,78.74,0,0,1,10.42,1A46,46,0,0,0,5.23,57.38c.2-1.07.43-2.13.71-3.18a35.5,35.5,0,0,1,5.44.91c2.29.46,4.59.88,6.88,1.38,3.24.7,6.35,1.64,9.48,2.6a18,18,0,0,1-.54,3,46.87,46.87,0,0,0-11.58-3.46,78.74,78.74,0,0,1,11.53,3.64,7.34,7.34,0,0,1-1.72,3.06.15.15,0,0,0,.18.24,4.79,4.79,0,0,0,2-3.11l.36.14c.07,0,.12-.1.05-.13l-.37-.17a20.24,20.24,0,0,0,.43-3.07c1.32.41,2.64.82,4,1.21.1,0,.16-.12.07-.16a35.06,35.06,0,0,0-4-1.59c0-.41.07-.81.11-1.18l.06-.55,2.18.9c.13,0,.21-.15.1-.22a16.4,16.4,0,0,0-2.23-1.09l.15-1.2.9.37c.18.07.25-.19.12-.29-.3-.23-.62-.43-.94-.63.14-1.12.3-2.25.41-3.39l3.57,1A.12.12,0,0,0,32.62,52.14Z"/><path class="cls-6" d="M17.24,70.07A14.35,14.35,0,0,1,7.61,69c-.05,0-.08.05,0,.06,3.16,1.45,6.3,2.2,9.73,1.26A.11.11,0,0,0,17.24,70.07Z"/><path class="cls-7" d="M36.35,70.93c-1.35.85-2.7,2.24-2.4,3.8a4.7,4.7,0,0,0,1.72,2.38C36.88,78.19,38.38,79.35,40,79a5.17,5.17,0,0,0,2.68-2.32l8.45-11.84A3.51,3.51,0,0,0,52,62c-.79-2.66-5,3.5-6,4.21C43.13,68.31,39.37,69,36.35,70.93Z"/><path class="cls-7" d="M58.46,40.49C60.3,39,61.65,37,63.37,35.34c1.1-1,2.52-2,4-1.75,1.92.29,3.11,2.46,3,4.39a9.72,9.72,0,0,1-2.55,5.14,38.61,38.61,0,0,1-6,5.88c-1.52,1.18-3.43,2.3-5.27,1.76a5.86,5.86,0,0,1-3.18-3.23C50,41.07,54.7,43.56,58.46,40.49Z"/><path class="cls-8" d="M48.88,53.42a5.07,5.07,0,0,0-3.43,4.06,7.25,7.25,0,0,0,4-3.9"/><path class="cls-4" d="M42.35,72.36c7,.52,14.46,2.31,19.37,7.4,1.45,1.51,2.7,3.6,2.09,5.6-.65,2.16-3.1,3.15-5.28,3.7C50.93,91,43,90.85,35.28,90c-3.92-.44-7.81-1.11-11.69-1.82-2.49-.45-8.13-.58-9.94-2.67C9.49,80.71,18.93,76,22.22,74.8A47.59,47.59,0,0,1,42.35,72.36Z"/><path class="cls-3" d="M53.59,68.47c0,2.54.39,5.38,2.4,6.94,3,2.37,7.44.25,10.58-2a130.89,130.89,0,0,0,23-21.24c2.11-2.47,4.2-5.17,4.78-8.38a3,3,0,0,0,0-1.51,3.06,3.06,0,0,0-1-1.25c-3.25-2.55-7.71-3-11.84-2.6-7.24.65-15.87,3.5-21.18,8.7C55.17,52.12,53.6,61.6,53.59,68.47Z"/><path class="cls-6" d="M76.83,26a14.18,14.18,0,0,0,1.72,5.26,5.72,5.72,0,0,0,4.51,2.85c1.27,0,2.48-.5,3.74-.56s2.75.62,2.84,1.88-1.25,2.46-.7,3.59c.35.7,1.23.89,1.91,1.29a3.93,3.93,0,0,1,1.4,4.49,8.75,8.75,0,0,1-3.07,4,23.76,23.76,0,0,1-7.77,4.17,6.08,6.08,0,0,1-3.34.32,2.54,2.54,0,0,1-2-2.4c.07-1.05,1-1.93,1-3-.08-2.07-3.51-2.48-4-4.51-.64-2.85,5.15-4.44,4-7.13-1.71,1-4,.23-5.36-1.23a12.08,12.08,0,0,1-2.38-5.39c-1.16-4.77-1.92-9.8-.77-14.58s4.58-9.26,9.35-10.45c.66-.17,1.16-.15,1.54.45C75.38,10.62,75.71,19.41,76.83,26Z"/></g><g id="Camada_3" data-name="Camada 3"><path class="cls-9" d="M69.28,11.83c-1.57,3.32-1.22,7.18-.83,10.82.42,4,.88,8,2.86,11.49.74,1.29,1.72,2.58,1.63,4.06-.11,2.06-2.27,3.94-1.48,5.85.63,1.54,3,2.15,3,3.82a5.88,5.88,0,0,1-.4,1.68c-.7,2.69,2,5.3,4.75,5.61s5.43-1,7.92-2.19c1.8-.89,3.71-1.88,4.7-3.63s.53-4.46-1.38-5.08a4.74,4.74,0,0,0-3.1.4,25,25,0,0,0-8.55,5.66c-.89.9-1.76,2.2-1.2,3.33.68,1.34,2.63,1.13,4.07.71L85,53.3a21.68,21.68,0,0,0,6.24-2.54,7.35,7.35,0,0,0,3.46-5.51c.15-3.63-3.42-6.48-7-7.07a12.73,12.73,0,0,0-13.58,7.9c6.46.18,12.2-6.34,18.46-4.75,1-2.06-.81-4.44-2.82-5.57a13.1,13.1,0,0,0-15.54,2.42A16,16,0,0,1,86,36c1.58.32,3.18.89,4.76.6A5.93,5.93,0,0,0,95.1,32a13.72,13.72,0,0,0-.42-6.6A28.47,28.47,0,0,0,87.09,11.6C81.62,6.47,73.06,3.82,69.28,11.83Z"/><path class="cls-9" d="M62.87,11.38c-2.58,2.77-5.43,6.12-9.21,6-1.17,0-2.73-.23-3.14.87-.33.85.41,1.7.65,2.58a2.54,2.54,0,0,1-3.39,2.8c.62,1.65,1.08,3.86-.37,4.86a5.83,5.83,0,0,0-1.14.73c-.67.74-.19,1.9.18,2.83s.31,2.36-.68,2.53c-.05,2.41,3.41,2.85,5.28,4.37,2.55,2.09,1.8,6,2.1,9.34a2,2,0,0,0,.72,1.6,2,2,0,0,0,1,.2c8.89.11,17.3-7.09,18.57-15.89a10.88,10.88,0,0,0-.69-6.24,6,6,0,0,0-4.93-3.53c-2.62-.09-4.86,2-6.11,4.29a2.51,2.51,0,0,0-.39,1.88c.45,1.35,2.45,1.12,3.69.42,5.62-3.19,8-9.93,9.61-16.21C77,5.3,67.58,6.31,62.87,11.38Z"/><path class="cls-9" d="M35.29,38.69c1.91,1.45,3.39,3.41,5.29,4.88s4.54,2.39,6.71,1.35c1.35,1.33-1.77,3.76-.6,5.25.5.64,1.46.59,2.2.92s1,1.73.16,1.72c.63-.11,1.08.66,1.09,1.3a6.51,6.51,0,0,0,0,1.92c.27.78,1.1,1.18,1.67,1.77,1.59,1.66.78,4.5-.73,6.23S47.45,67,46.15,68.85c-1.41,2.06-2,5-4.24,6a5.85,5.85,0,0,1-2.16.42A15.91,15.91,0,0,1,23.37,56.55a4.27,4.27,0,0,1,.88-2.16A2.43,2.43,0,1,1,27.46,58a7.32,7.32,0,0,1-1.82-3.39L22.31,44.35C19.3,35,29.5,34.33,35.29,38.69Z"/><path class="cls-9" d="M12.56,39.9a19.11,19.11,0,0,1,6.17-7.14,11.06,11.06,0,0,1,9.1-1.59,9.35,9.35,0,0,1,6.25,10.42A57.64,57.64,0,0,0,23,38.21c-3.09-.61-6.35-1-9.32.06C8.8,39.92,5.79,44.73,4,49.49,1.9,54.83.9,61.15,3.85,66c3.08,5.12,10,7.15,15.73,5.44S29.74,64.92,32,59.4s2.58-11.68,2.1-17.63c1.43,6.9.13,14.17-2.59,20.67a19.1,19.1,0,0,1-3.83,6.23,17.91,17.91,0,0,1-7.29,4c-3.07,1-6.4,1.58-9.52.72S5,70,4.69,66.76"/><path class="cls-9" d="M15.55,53.24a1.86,1.86,0,0,0,0-1.55,1.15,1.15,0,0,0-1.34-.6,1.62,1.62,0,0,0-.86,1,5.91,5.91,0,0,0-.36,3,1.8,1.8,0,0,0,.53,1.18,1.75,1.75,0,0,0,2.09-.21,4.09,4.09,0,0,0,1.5-4.15,1.36,1.36,0,0,0-.82-1.08c-.82-.23-1.37.81-1.58,1.63a2.11,2.11,0,0,0-.1,1.08.75.75,0,0,0,.81.59c.3-.07.47-.37.59-.66a4.74,4.74,0,0,0,.28-2.42"/><path class="cls-9" d="M22.4,35.88a14.17,14.17,0,0,1,11,6.73C26.63,40.4,20,39.84,13,39.36,13.5,36.45,20,35.71,22.4,35.88Z"/></g></svg>