<svg xmlns="http://www.w3.org/2000/svg" viewBox="0 0 97.28 94.22"><defs><style>.cls-1{opacity:0.33;}.cls-2{fill:#5deded;opacity:0.65;}.cls-3{fill:#d37231;}.cls-4{fill:#663717;}.cls-5{fill:#57d0dd;}.cls-6{fill:#834c20;}.cls-7{fill:none;stroke:#000;stroke-linecap:round;stroke-linejoin:round;stroke-width:0.25px;}</style></defs><title>Prancheta 1 cópia 18ldpi</title><g id="Camada_2" data-name="Camada 2"><path class="cls-2" d="M71.41,57.45c1.13-3.23-2-6.21-3.54-9.26-2.78-5.52-.34-12.13-.65-18.29a21.92,21.92,0,0,0-12.4-18.14,24.9,24.9,0,0,0-22.2.82c-11.75,6.36-17,22.51-11.21,34.57a15.47,15.47,0,0,0,6.79,7.5c1.5.72,3.14,1.09,4.64,1.81,3.86,1.86,6.29,5.81,7.89,9.79,1,2.52,2.09,5.45,4.65,6.36a7.89,7.89,0,0,0,4.36-.09A43.9,43.9,0,0,0,67,64.32a16,16,0,0,0,5.12-6c1-2.44.92-5.53-.88-7.48"/><path class="cls-3" d="M36.43,44.27C38,44.47,39.2,43,40,41.62s1.63-3,3.17-3.23c1.15-.2,2.48.41,3.42-.28s.82-2,1.28-2.93c.94-2,3.64-2.1,5.81-2,0-2.88-2.6-5-5-6.58l-7.89-5.32c-.88,1.82-3.07,2-3.93,3.33s-.59,3.19-.59,4.94C36.25,30.84,36.14,44.23,36.43,44.27Z"/><path class="cls-4" d="M34.69,18.47A18.88,18.88,0,0,0,36,27a6.27,6.27,0,0,1,2.5-1.79c.9-.51,1.78-1.44,1.54-2.44a2.57,2.57,0,0,0-.73-1.15,18.74,18.74,0,0,0-4.76-3.68"/><path class="cls-5" d="M64.88,32.78a18,18,0,0,0,.28,4.76c.61,2.17,2.43,4,2.33,6.27-.52.45-1.25-.24-1.57-.86a32.18,32.18,0,0,1-3-9,30,30,0,0,0-1.27-5.87c-2.07-5.22-7.84-7.77-13-10-1.44-.62-3-1.34-3.74-2.71s-.19-3.54,1.36-3.77a3.57,3.57,0,0,1,2,.53C56.47,16.23,64.76,22.83,64.88,32.78Z"/><path class="cls-5" d="M30.39,52.87a8.65,8.65,0,0,0,6.42,3A14,14,0,0,0,30.52,50c-.75-.35-2-.35-2,.49a1.34,1.34,0,0,0,.46.87l2.65,2.86"/><path class="cls-6" d="M55.78,67.64c-4.14,2.17-9.12,3.65-11.44,7.72-.24.42-.42,1-.06,1.36a1.07,1.07,0,0,0,.75.21c3.12,0,5.76-2.18,8.2-4.13A93.5,93.5,0,0,1,69.88,62.2c4.59-2.28,6.24-8.46-.11-5.21C64.69,59.6,61,64.91,55.78,67.64Z"/><path class="cls-6" d="M67.23,72.42a45.22,45.22,0,0,1-9.87,7.3c-1.45.78-3.28,1.48-4.66.58,4-6.88,9.63-9,15.64-13.38,3.56-2.59,6-6.44-.86-4.25C61,64.76,54.44,70.83,50,75.79c-1,1.07-1.92,2.68-1,3.83,1,1.32,3.11.41,4.45-.59,5.67-4.23,11.34-10.44,16.84-14C74,68.88,59.27,79.6,57.71,83.29c2.9.16,6-.38,8.15-2.36s2.82-5.66.86-7.8"/></g><g id="Camada_3" data-name="Camada 3"><path class="cls-7" d="M25.06,51.29c3.08,4.34,8.55,5.24,12.42,8.65,3.21,2.83,6.6,5.47,7,11.22a2,2,0,0,0,1.4,1.63,2.13,2.13,0,0,0,1.35-.17,99.89,99.89,0,0,0,17.52-8.05,15.51,15.51,0,0,0,5.75-4.88c1.41-2.23,1.83-5.53.34-7.7-.94-1.38-2.53-2.2-3.06-3.85-.45-1.39,0-2.92.38-4.34,2-7.86.55-17.5-4.61-23.41-5.9-6.77-16.15-6.71-24-6.09C25.49,15.42,15.22,37.42,25.06,51.29Z"/><path class="cls-7" d="M44.65,74.7c-.19,6.47,6.34-.14,7.59-1.19a89.61,89.61,0,0,1,14-9.47c2.28-1.28,4.79-2.49,7.28-1.93a42.81,42.81,0,0,1-5,4.31c-2.3,1.83-17.88,11.63-17,14.46a2.14,2.14,0,0,0,2.29,1.43c1.22-.12,13.6-11,14-10.26,1.5,2.76,0,6.61-2.34,8.38s-5.36,2-8.19,2.18c1.85-6,9.72-10.34,13.51-14.88.63-.76,1.07-2.34.17-2.55a1.12,1.12,0,0,0-.76.17,55.25,55.25,0,0,0-11.52,8C56.87,75,53,80.24,50.47,80.22c-1.33,0-1.9-2.19-1.2-3.47,1.38-2.55,6.75-4.5,8.94-5.89Q64.29,67,70.33,63.1a9.87,9.87,0,0,0,3.61-3.34c.83-1.53.83-3.81-.43-4.88a157.72,157.72,0,0,1-16.27,12C55.06,68.32,44.73,72.07,44.65,74.7Z"/><path class="cls-7" d="M39.25,46.78a14.78,14.78,0,0,1-1.66-3.08A15.15,15.15,0,0,1,37,39.51a132.9,132.9,0,0,0-2.76-20.84c3.17.85,5.83,2.94,8.39,5L50,29.49a29.06,29.06,0,0,1,4.95,4.64,27.77,27.77,0,0,1,2.79,4.78l7.85,15.65c-.07.58-1,.64-1.43.26s-.7-1-1.16-1.33c-1.08-.87-2.82,0-3.31,1.31a6.66,6.66,0,0,0,.24,4.08c-.81,1-2.35-.12-3-1.18s-2-2.32-3-1.53c-1.61,1.28,1.78,4.44.13,5.66a2.05,2.05,0,0,0-3.18-1.06,3.69,3.69,0,0,0-.94,1.79c-.25.83-.19,1.41.64,1.49C47.64,58.37,42.89,52.37,39.25,46.78Z"/><path class="cls-7" d="M35.05,43.48c0,.78,1.06,1.2,1.78.88a2.74,2.74,0,0,0,1.34-1.83,11.08,11.08,0,0,1,.72-2.22,3.15,3.15,0,0,1,2.81-1.56c1.34.06,2.84,1,3.91.12,1.38-1.08.19-3.74,1.56-4.82,1-.79,2.42-.07,3.68.06A3.75,3.75,0,0,0,54.4,28.4"/><path class="cls-7" d="M34.35,25.5a15.27,15.27,0,0,0,6.85-4.86"/><path class="cls-7" d="M43.46,41.44,50.78,55.2c.12.24.31.51.57.47s.18-.57,0-.42"/><path class="cls-7" d="M51.6,36.66a113.89,113.89,0,0,0,7.27,14.16"/></g></svg>