<svg xmlns="http://www.w3.org/2000/svg" viewBox="0 0 97.28 94.22"><defs><style>.cls-1{opacity:0.33;}.cls-2{fill:#b75d21;}.cls-3{fill:#a35119;}.cls-4{fill:none;stroke:#000;stroke-linecap:round;stroke-linejoin:round;stroke-width:0.25px;}</style></defs><title>Prancheta 1 cópia 19ldpi</title><g id="Camada_2" data-name="Camada 2"><path class="cls-2" d="M11.14,80.44q34.85-.89,69.71.73a33.39,33.39,0,0,0-8.24-10.91,5.38,5.38,0,0,0-2-1.26,6.13,6.13,0,0,0-2.22,0,92.23,92.23,0,0,1-14.58-.31C45.21,68,36.6,67.13,28,66.74,21.25,66.43,15.36,75.53,11.14,80.44Z"/><path class="cls-2" d="M49.63,8.19a21,21,0,0,0-16.3,8.08c-2.81,3.66-4.33,8.65-2.71,13,.91,2.42,2.77,4.76,2.18,7.27C32.29,38.71,30,40.33,30,42.6s2.25,3.66,3.68,5.37c2.8,3.36,2.63,8.21,2.47,12.59a3.63,3.63,0,0,0,.55,2.52,3.61,3.61,0,0,0,1.42.89,137.41,137.41,0,0,0,22.68,7.36A20.06,20.06,0,0,1,59,53.66a6.33,6.33,0,0,0,6.24-1.45A8.16,8.16,0,0,0,67,49.37a12,12,0,0,0,0-8.83c.71.12,1-.95.71-1.62s-.73-1.4-.39-2,1.48-.62,2.26-.93c1.79-.73,1.47-3.33.83-5.16C66.43,19.41,64.38,8.19,49.63,8.19Z"/><path class="cls-2" d="M67,76.29c-1.49,2-4.46,2.07-7,1.91a7.34,7.34,0,0,1-2.19-.37,8.74,8.74,0,0,1-2.37-1.7,15.69,15.69,0,0,0-7.89-3.89,9.91,9.91,0,0,0-8.27,2.4c-1,1-1.81,2.28-2.88,3.24a7.48,7.48,0,0,1-9.66,0c-.49-1.42.74-2.8,1.77-3.89,2.55-2.7,3.28-6.88,5.56-9.38,2.52-2.75,5.77.38,8.71,1.87A160.73,160.73,0,0,0,67,76.29Z"/><path class="cls-3" d="M44,72.54a7.65,7.65,0,0,1,3.21-.47,10.12,10.12,0,0,1,4.46,2.06c3.22,2.18,6.67,4.69,7.62,8.46l-18.83,0c-3.87,0-7.71.38-4.77-4.12A16.28,16.28,0,0,1,44,72.54Z"/><path class="cls-2" d="M11.71,85.65a2.84,2.84,0,0,0,1.77.45l65.26,1.33c1.63-1.68.61-4.72-1.38-6s-4.48-1.17-6.81-1.09q-17,.58-33.94.43-8.49-.07-17-.33c-1.72-.06-6-1-7.38.08C11.25,81.36,10.74,84.85,11.71,85.65Z"/><path class="cls-3" d="M39.41,16.75c-1.54,2-3.7,3.61-4.37,6-1.14,4.15,2.71,8.38,1.84,12.6-.32,1.55-1.26,3-1.37,4.54C35.3,42.76,37.76,45,39,47.62a16.27,16.27,0,0,1,1.18,5.62C40.6,59.75,40,66.51,37,72.35a11.83,11.83,0,0,1-4,4.91,5.76,5.76,0,0,1-6.08.26C30,74,33,70.35,34.82,66.05s2.17-9.41,0-13.52C32.9,49,29.11,45.76,30.13,41.9c.27-1,.88-2,1.17-3,.69-2.47-.55-5-1.25-7.47A18.55,18.55,0,0,1,32.85,16c1-1.39,3.95-5.45,5.92-5.37C42.21,10.81,40.84,14.92,39.41,16.75Z"/><path class="cls-3" d="M26.79,66.51a2.51,2.51,0,0,0-1.24-.11,2.51,2.51,0,0,0-1.14.8L11.64,80.35a87.66,87.66,0,0,0,17.14-.3L26.37,76.9a22.2,22.2,0,0,0,6.33-5.57C36.07,67,29.52,67.22,26.79,66.51Z"/><path class="cls-3" d="M31.28,84.35a7.64,7.64,0,0,0,3.83,1.08,8,8,0,0,1,3.85,1q-13.56.51-27.15.63c-.2-2-.4-4-.61-6,5.83-1.48,12.86-.29,18.76.22A3.56,3.56,0,0,0,31.28,84.35Z"/></g><g id="Camada_3" data-name="Camada 3"><path class="cls-4" d="M65,13C59.16,8.74,48.57,7,41.53,9.7c-6.27,2.4-12.77,12-11.55,20.58.37,2.65.91,2.64.53,5.3-.34,2.37-1.71,4.57-1.64,7,.09,3.34,2.85,5.89,4.69,8.69,5.45,8.27,1.9,21-7,25.26.71,3.28,4.88,4.2,8.23,4.31a112.64,112.64,0,0,0,29.73-3,3,3,0,0,0,1.1-.42c.94-.69.74-2.24,0-3.11a10.89,10.89,0,0,0-3-1.86A11,11,0,0,1,58.37,58"/><path class="cls-4" d="M32.6,68.1a13.73,13.73,0,0,1-8.08-1.19L11.44,79.47l.6,6.61c0,.42.17.94.59,1s.29-.85,0-.56c22.5.28,44.32,1.29,66.82.61,0-3,1-5,1-7.94-3.07-3.61-6.17-6.72-9.24-10.33a22.79,22.79,0,0,1-10.39.34"/><path class="cls-4" d="M12.63,79.94a112.91,112.91,0,0,1,17.25.32"/><path class="cls-4" d="M60.86,79.86l19.29,1.3"/><path class="cls-4" d="M29.08,80.78c3.74-.28,7.5.24,11.25.45,8.49.48,17-.65,25.42-1.78"/><path class="cls-4" d="M35.18,64.46c9.35,5,20.11,6.31,30.39,8.8"/><path class="cls-4" d="M35.76,81.36c.19-1.72,1.45-3.12,2.75-4.27a16.11,16.11,0,0,1,4-2.69,11.33,11.33,0,0,1,15.07,5.74"/><path class="cls-4" d="M66.51,14.16a30.17,30.17,0,0,0,4.2,17.2,4.25,4.25,0,0,1,.88,2.53c-.2,1.6-2.11,2.27-3.69,2.6-.61.13-.72,2.24-.32,2.73s.92,1.1.6,1.64-.88.52-1,1c-.15.69,1,1,1,1.72,0,.38-.33.66-.56,1-.8,1.12-.07,2.66-.12,4a4.78,4.78,0,0,1-3.15,4,14,14,0,0,1-5.27.71,34.8,34.8,0,0,1-7.5-.5,11.61,11.61,0,0,1-6.48-3.57"/><path class="cls-4" d="M66.54,12.75c-6.18,3.88-12.25,8.17-18.63,11.71-2.6,1.45-12.42,1.07-9.7,6.31.6,1.17,1.86,1.86,2.61,2.94,1.19,1.7,1,4,.65,6a1.72,1.72,0,0,0,2-2.22"/></g></svg>