<svg xmlns="http://www.w3.org/2000/svg" viewBox="0 0 97.28 94.22"><defs><style>.cls-1{opacity:0.33;}.cls-2{fill:#d37231;}.cls-3{fill:#1e90b3;}.cls-4{fill:#b75d21;}.cls-5{fill:#834c20;}.cls-6{fill:#663717;}.cls-7{fill:#ed9254;}.cls-8{fill:#57d0dd;}.cls-9{fill:#3cb9ce;}.cls-10,.cls-12,.cls-13,.cls-14,.cls-15{fill:none;}.cls-11{fill:#5deded;}.cls-12{stroke:#5deded;}.cls-12,.cls-13,.cls-14{stroke-miterlimit:10;}.cls-12,.cls-13,.cls-14,.cls-15{stroke-width:0.25px;}.cls-13{stroke:#a35119;}.cls-14{stroke:#ed9254;}.cls-15{stroke:#000;stroke-linecap:round;stroke-linejoin:round;}</style></defs><title>Prancheta 1 cópia 11ldpi</title><g id="Camada_2" data-name="Camada 2"><path class="cls-2" d="M20.59,65c-2.5.11-5.12.33-7.18,1.74C14.1,69,16.65,70.17,19,70.9c9.51,3,19.57,3.66,29.52,4.31,7.82.51,15.71,1,23.43-.28,2.23-.38,7.66-2.75,4.69-5.7-2.11-2.1-9-1.63-11.78-2-9.41-1.09-18.84-2-28.3-2.36C31.21,64.73,25.89,64.72,20.59,65Z"/><path class="cls-3" d="M66.89,30.38c-13.48,1-26.95-2-40.47-1.95a1.63,1.63,0,0,0-1,.21A1.62,1.62,0,0,0,25,29.73,55.37,55.37,0,0,0,25,40L26.3,62a5.81,5.81,0,0,0,.39,2.11c.92,2,3.61,2.29,5.82,2.3q17.81.1,35.56,1.76c3,.28,6.11.59,9-.34a4.36,4.36,0,0,0,1.83-1,5.31,5.31,0,0,0,1-1.9,132.66,132.66,0,0,0,7.6-31.79,6.23,6.23,0,0,0-.09-2.72C86.06,26.28,70.39,30.13,66.89,30.38Z"/><path class="cls-4" d="M60.77,34.25a15.75,15.75,0,0,0-13.65,7.91,14.86,14.86,0,0,0,1,15.64,15.8,15.8,0,0,0,10.16,6c5.59.89,11.77-1.33,14.91-6.05s2.72-11.55-.63-16.23a18.12,18.12,0,0,0-15-7.11"/><path class="cls-5" d="M17.67,28.46a3,3,0,0,0-1.37.1c-1,.39-1.32,1.68-1.47,2.78Q12.63,48,12,64.83a2.84,2.84,0,0,0,.33,1.78c.55.77,1.67.79,2.61.73l10.68-.65c.3,0,.13-21.83.14-23.83,0-3.69.82-8.47,0-12C25,27.79,20.4,28.67,17.67,28.46Z"/><path class="cls-6" d="M13.65,43.5,13,47.8a2,2,0,0,0,0,1,1.94,1.94,0,0,0,1.27.92q2.45.84,4.94,1.5a9.46,9.46,0,0,0,5,.34,2.18,2.18,0,0,0,1.23-.74,2.77,2.77,0,0,0,.4-1c.3-1.15,1.84-4.46,1.45-5.53-.54-1.49-2.15-.25-3.51.07C22.83,44.57,13.41,45,13.65,43.5Z"/><path class="cls-6" d="M51.92,47.92a10.56,10.56,0,0,0,5.4,12,12.3,12.3,0,0,0,8.8.35,11,11,0,0,0,5.53-3.58A10.57,10.57,0,0,0,73,47.22a11.48,11.48,0,0,0-4.21-6C62.83,37.06,53.72,41.25,51.92,47.92Z"/><path class="cls-7" d="M64.23,55a15.46,15.46,0,0,1-5.72-.83c-.57-.2-1.35-.36-1.65.16a.91.91,0,0,0,0,.82c.41.86,1.5,1.11,2.45,1.26l3.05.47a2.87,2.87,0,0,0,2.05-.2c.58-.39.66-1.48,0-1.69-.44-.14-1,.14-1.33-.21"/><path class="cls-7" d="M68,45.62a2,2,0,0,0-.69-1.7c-.23-.25-.56-.5-.88-.39S66,44,66,44.34A7,7,0,0,0,66.13,47a3,3,0,0,0,.73,1.4,1.43,1.43,0,0,0,1.47.39,4.6,4.6,0,0,0-.85-4.41"/><path class="cls-8" d="M77.17,48.65c-1,5.51-2.79,11.16-6.84,15,2.32.81,5-.57,6.37-2.58s1.9-4.52,2.35-6.93l3.61-19.41c.19-1,.53-4.29-1.41-3.83-1.38.32-1.81,4.21-2,5.28C78.27,40.31,77.91,44.51,77.17,48.65Z"/><path class="cls-8" d="M29.81,33.4c-.84,4.54-.3,9.21.25,13.8L32,63.3c.11.88.32,1.92,1.13,2.28s2-.42,2.27-1.4a6.05,6.05,0,0,0-.28-3,28.3,28.3,0,0,1,5.47-24.28c1.64-2,2.22-4.26-.87-4C36.4,33.3,33.16,33.39,29.81,33.4Z"/><path class="cls-9" d="M60.64,30.17l-6,.28a.93.93,0,0,0-.67.21,1,1,0,0,0-.11.78l.24,1.47a.77.77,0,0,0,.2.49.72.72,0,0,0,.48.12c3.34.13,6.69.25,10,.09,1.61-.07,4.39-1.72,2.18-3.4C65.71,29.22,62.13,30.1,60.64,30.17Z"/><path class="cls-10" d="M75.93,69.7,46.24,67.48c-10.78-.8-21.81-1.58-32.26,1.2,1.45,2.21,4.2,3.13,6.77,3.75,7,1.69,14.31,2.24,21.53,2.78,13.16,1,26.57,1.94,39.39-1.19a10,10,0,0,0-9.15-3.48"/><path class="cls-8" d="M19.57,28.61c4.69,1.45,9.61,1.66,14.47,1.81q24.38.72,48.76-.34c-3.07-4.1-8.52-4.6-13.35-4.78L38.72,24.17c-7.15-.27-14.32-.53-21.42.36a1.42,1.42,0,0,0-1,.38C15.05,26.38,18.8,28.37,19.57,28.61Z"/><path class="cls-8" d="M47,49.45A11.56,11.56,0,0,0,48.2,53.4c1.25,2.56,3.26,5.11,6.08,5.49L52,53.45c-.93-2.15-1.87-4.52-1.21-6.76.51-1.74,1.9-3.08,2.68-4.71a1.85,1.85,0,0,0,.24-1.25c-.62-2.56-4,1.64-4.58,2.37A9.38,9.38,0,0,0,47,49.45Z"/><path class="cls-11" d="M48,52.8c-.55,0-.62.81-.46,1.34a12.31,12.31,0,0,0,5.72,7.08C52.86,59.25,50.65,52.82,48,52.8Z"/><path class="cls-12" d="M15.69,42.25l-1,8.75"/><path class="cls-12" d="M18.17,43.57c-.38,2.91-.68,5.84-.88,8.76"/><path class="cls-12" d="M20.19,44.13l-.55,8"/><path class="cls-12" d="M22.14,44.31l-.31,8.75"/><path class="cls-12" d="M24.41,44.11l-.16,8.57"/><path class="cls-12" d="M46.34,39.32a20,20,0,0,0-4.06,12c.14,4.3,2.36,8.64,6.17,10.64"/><path class="cls-4" d="M30.48,67.09c-.7,0-1.61.09-1.77.77a1.29,1.29,0,0,0,.22.91c1.46,2.56,4.9,3,7.84,3.1a218.58,218.58,0,0,0,24.28-.57c1.85-.15,4.19-.3,5.59-1.64-4.49-3.23-9.09-1.78-14.07-1.67C45.25,68.17,37.8,67.41,30.48,67.09Z"/><path class="cls-12" d="M62.07,37.83l3.59,2.51"/><path class="cls-12" d="M59.94,38.48l3.66,2"/><path class="cls-12" d="M57.87,39.21a22.94,22.94,0,0,1,3.28,1.84"/><path class="cls-12" d="M56.17,40l3.07,1.48"/><path class="cls-12" d="M54.06,41.16,57.69,43"/><path class="cls-12" d="M53.34,43.38l2.65,1"/><path class="cls-12" d="M52.77,44.92l2.09,1"/><path class="cls-12" d="M52.38,46.47a4,4,0,0,0,2.11.73"/><path class="cls-12" d="M52,48l1.9.75"/><path class="cls-12" d="M52,50.08l1.89.4"/><path class="cls-12" d="M52.41,51.62l1.9.39"/><path class="cls-12" d="M53,53.67l1.91.36"/><path class="cls-12" d="M40.3,38.66a29,29,0,0,0-5.12,14"/><path class="cls-3" d="M39.91,23.1a9.81,9.81,0,0,0-2.71.23A3.38,3.38,0,0,0,35,24.88a.73.73,0,0,0,0,.75.8.8,0,0,0,.64.24,8.45,8.45,0,0,0,5.15-1.47c.27-.18.56-.44.52-.77s-.34-.5-.63-.6a2.63,2.63,0,0,0-2.65.66"/><path class="cls-3" d="M27.32,23.93a18.73,18.73,0,0,0-5.78-1.14,2.73,2.73,0,0,0-1.21.14c-.37.16-.63.53-.5.85a1.25,1.25,0,0,0,.72.53,20,20,0,0,0,5.39,1.35,3.06,3.06,0,0,0,1.17,0,1.11,1.11,0,0,0,.81-1.32,1.38,1.38,0,0,0-1.5-.79"/><path class="cls-13" d="M17.5,30.89l4,.26a2.09,2.09,0,0,1,1.05.25.72.72,0,0,1,.29.94,1.08,1.08,0,0,1-.8.37,3.29,3.29,0,0,0-1.95.91.7.7,0,0,0-.2.38c-.06.4.41.68.82.7a4.06,4.06,0,0,1,1.21,0,1.47,1.47,0,0,1,.69,1.69c-.12.65-.47,1.25-.57,1.9a1.4,1.4,0,0,0,.8,1.62"/><path class="cls-14" d="M63.41,42.23a6,6,0,0,0-7.06,7.46"/></g><g id="Camada_3" data-name="Camada 3"><path class="cls-15" d="M32.44,67a465.72,465.72,0,0,0,46.65-2q3.64-18.07,6.4-36.31c-23.27-.4-48,1.69-71-1.09-1.15,12.39-.1,27.5-2,39.8,4.22,1.49,11,.07,15.39-.57L25,30.36a2.08,2.08,0,0,0-.32-1.15,1.23,1.23,0,0,0-.37-.31"/><path class="cls-15" d="M70.82,59.61C85.49,45.29,62.67,27.08,49.7,39.28,35.28,52.83,55.92,74.16,70.82,59.61Z"/><path class="cls-15" d="M61.78,58.85a9.43,9.43,0,0,0,3.87-.51,8.78,8.78,0,0,0,2-1,9.7,9.7,0,0,0,4-7.34c.53-8.51-7.83-12.2-14.51-7.87C49.79,46.9,52.89,58.18,61.78,58.85Z"/><path class="cls-15" d="M83.19,26c-19.84-1.2-39.74-.95-59.62-.71"/><path class="cls-15" d="M13.93,43.18a11.19,11.19,0,0,0,11.92.5"/><path class="cls-15" d="M13.07,48.07a15.23,15.23,0,0,0,12.81,2.45"/><path class="cls-15" d="M58.25,38.47C52,39,46.91,45.63,48.12,51.82s8.4,10.46,14.41,8.56"/><path class="cls-15" d="M23.34,23.19a2.82,2.82,0,0,0-2.44,0,1.08,1.08,0,0,0-.55.5c-.25.62.5,1.16,1.14,1.38a15,15,0,0,0,7.44.56A7,7,0,0,0,22.35,23"/><path class="cls-15" d="M18.24,25.26a15.56,15.56,0,0,0,6.36,2.43A8.69,8.69,0,0,0,31.06,26"/><path class="cls-15" d="M39.34,23.48A7.93,7.93,0,0,0,34.72,25a3.25,3.25,0,0,0,3.14,1.13,9.52,9.52,0,0,0,3.22-1.33c.22-.12.46-.27.52-.51.12-.44-.39-.78-.82-.89a4,4,0,0,0-3,.45"/><path class="cls-15" d="M33.75,27.26a9.71,9.71,0,0,0,10.57-3.05"/><path class="cls-15" d="M15.9,51.63c0-3.38.21-6.77.51-10.15A98.27,98.27,0,0,1,15.9,51.63Z"/><path class="cls-15" d="M18.4,42.49l-.3,10.58,0-1.44"/><path class="cls-15" d="M20.19,43.24a104.25,104.25,0,0,1,.24,10.61v-.71"/><path class="cls-15" d="M24.45,42.71c-.95,3,.65,6.19.14,9.35"/><path class="cls-15" d="M49.33,37.4a15.3,15.3,0,0,0-5.48,14A16.25,16.25,0,0,0,53,63.5a17.32,17.32,0,0,0,15.22-.56"/><path class="cls-15" d="M32,66.27,27.79,32.19a57.84,57.84,0,0,0,12.86,1"/><path class="cls-15" d="M72.35,24.47a116.34,116.34,0,0,0,11.42,4.31"/><path class="cls-15" d="M78.74,54.89c-.52,2.55-1.8,4.52-1.9,7.13l0,.64L70,63.28"/><path class="cls-15" d="M33,45.71q.38,9.15,1.65,18.22c-.15-.65-1.29-.55-1.45-1.2l-.09,1.2q-1.42-13.14-2.56-26.32"/><path class="cls-15" d="M22.17,42.72A112.63,112.63,0,0,0,23,54.34l-.26-1"/><path class="cls-15" d="M19.81,25.73l0-2.54C19.79,24,19.81,25,19.81,25.73Z"/><path class="cls-15" d="M21.84,26.48V23.94"/><path class="cls-15" d="M23.63,24.69a4.83,4.83,0,0,1,.18,2.53"/><path class="cls-15" d="M25.8,24.68v2.54"/><path class="cls-15" d="M27.67,24.42v3"/><path class="cls-15" d="M35.22,27.46a4.76,4.76,0,0,1-.16-2.31A8.16,8.16,0,0,0,35.22,27.46Z"/><path class="cls-15" d="M36.94,27.2l-.34-1.81"/><path class="cls-15" d="M38.35,25.13l.39,2.56"/><path class="cls-15" d="M40.17,24.86l.34,2.31"/><path class="cls-15" d="M41.89,23.6a4.17,4.17,0,0,0,.47,2.3"/><path class="cls-15" d="M35.25,58.65q.18,3.06.6,6.11"/><path class="cls-15" d="M70.79,24.28a37.6,37.6,0,0,0,11,4.06"/><path class="cls-15" d="M15.31,65.74c-1.13,0-2.59.24-2.8,1.35a2.16,2.16,0,0,0,.38,1.42C15,72,19.47,73,23.48,73.44,34.21,74.74,45,74.86,55.85,75c7.79.08,16.81.5,24.05-2.89-1-3.11-8.4-2.37-11-2.71q-9-1.18-18-2Q33.16,65.82,15.31,65.74Z"/><path class="cls-15" d="M81.55,31.15a5.39,5.39,0,0,0-2-.07q-.62,4.8-1,9.63a8.71,8.71,0,0,1,1.24-.33l1.93-9.06"/><path class="cls-15" d="M67.38,44.59A.92.92,0,0,0,66,44.08a1.4,1.4,0,0,0-.44,1.59A3,3,0,0,0,66.65,47a7,7,0,0,0,2.1,1.1,5.21,5.21,0,0,0-1.44-4"/><path class="cls-15" d="M63,54.81l-3-1.46c-1-.46-2.37-.78-2.84.17s.49,1.79,1.35,2.22a10.16,10.16,0,0,0,4.62,1.06c.75,0,1.7-.29,1.76-1a1.25,1.25,0,0,0-1-1.16c-.52-.17-1.09-.15-1.62-.28"/><path class="cls-15" d="M66.76,30.13a15.75,15.75,0,0,1-.18,3.5.73.73,0,0,1-.21.48.79.79,0,0,1-.55.12l-11.69-.57c.11-3.93.94-3.27,4.5-3.26C59.22,30.4,66.77,30.26,66.76,30.13Z"/><path class="cls-10" d="M26.4,23.29a10,10,0,0,0-3.17-1,3.33,3.33,0,0,0-3,1.18c1.16,1.63,3.39,2,5.37,2.23A2.82,2.82,0,0,0,28,25.28a4,4,0,0,0-2-2.09"/></g></svg>