<svg xmlns="http://www.w3.org/2000/svg" viewBox="0 0 97.28 94.22"><defs><style>.cls-1{opacity:0.33;}.cls-2{fill:#663717;}.cls-3{fill:#b75d21;}.cls-4{fill:#834c20;}.cls-5{fill:#a35119;}.cls-6{fill:none;stroke:#000;stroke-miterlimit:10;stroke-width:0.25px;}</style></defs><title>come cabo verde</title><g id="Camada_3" data-name="Camada 3"><path class="cls-2" d="M78.41,26.31c1-.85,1.68-2.3,1-3.37-.83-1.3-2.94-.83-4,.31S74,26,73,27.14a9.51,9.51,0,0,1-5,2.64c-14.72,4-30.27-.28-45.52-.29-1.43,0-3.29.38-3.48,1.8a2.77,2.77,0,0,0,.56,1.77,12.14,12.14,0,0,0,10.25,5.51,3.38,3.38,0,0,0,2-.52c1.39-1,.81-3.28-.27-4.63a9.79,9.79,0,0,0-10.76-3,3.06,3.06,0,0,0-2,1.71c-.45,1.41.91,2.73,1.2,4.19.43,2.21-1.57,4-3.27,5.51-3.29,2.82-6.38,6.44-6.62,10.76-.21,3.8,1.89,7.46,4.8,9.91A27.72,27.72,0,0,0,25.1,67.44a72.82,72.82,0,0,0,48.09-2.73c6.07-2.55,12.21-6.43,14.37-12.64A14.41,14.41,0,0,0,83.7,37C79.84,33.53,73,31.17,78.41,26.31Z"/><path class="cls-3" d="M76.64,45.44C75,49.51,71,52.07,67,54.07a94.75,94.75,0,0,1-16.47,6.57C46.44,61.85,42,62.91,39,66c2.76,2.24,6.79,1.55,10.22.63,6.54-1.76,13.08-4,18.65-7.85A29.33,29.33,0,0,0,76.8,49.2c.55-1,3-5.22,2.4-6.3C78,40.86,77,44.53,76.64,45.44Z"/><path class="cls-4" d="M20.79,32.62a6.43,6.43,0,0,1,7.26,3.56,12.94,12.94,0,0,1-7.82-4.24"/><path class="cls-2" d="M30.62,69.93a6.43,6.43,0,0,0-3.83.27,7.94,7.94,0,0,0,.08,4c.24.85.93,1.81,1.77,1.56a1.66,1.66,0,0,0,.76-.58,6.29,6.29,0,0,0,1.27-5.3"/><path class="cls-2" d="M38,72a2,2,0,0,0-2.95,1,2.26,2.26,0,0,0,1.7,2.74.75.75,0,0,0,.51,0,.93.93,0,0,0,.34-.48,8.61,8.61,0,0,0,.55-4"/><path class="cls-2" d="M54.56,70.46a5.89,5.89,0,0,0-2.57,1,.87.87,0,0,0-.46.65,1,1,0,0,0,.36.62l1.43,1.44c.35.35.91.72,1.29.41A1,1,0,0,0,54.9,74c.26-1.07.49-2.32-.22-3.17"/><path class="cls-2" d="M63.27,69.31a4.79,4.79,0,0,0-1.92.27,1.65,1.65,0,0,0-1.09,1.47,2.3,2.3,0,0,0,.4,1.08A18.45,18.45,0,0,0,62.76,75a2.42,2.42,0,0,0,1.83-2.27,7,7,0,0,0-.67-3c-.12-.31-.29-.67-.62-.74"/><path class="cls-4" d="M34.2,30.83c-2.26.7-5,2.23-4.57,4.63C35,35,40.16,33.43,45.3,31.9L51.64,30l17.28-5.16c5.11-1.54,6.74-5.44.57-5C64.2,20.19,58,23.45,52.87,25Z"/><path class="cls-4" d="M47,25.81c.49.23,1-.46.85-1a2,2,0,0,0-1.19-1,2.69,2.69,0,0,1-1.3-.93,16.77,16.77,0,0,1,6.83-.45c.29.68-.76,1.1-1.5,1.07s-1.8.35-1.54,1.05c.16.45.76.5,1.23.47a3.07,3.07,0,0,1-3.14,1"/><path class="cls-5" d="M61.59,54.32a5.88,5.88,0,0,0-2.3,2.42,1.56,1.56,0,0,0,.26,1.78,2,2,0,0,0,1.65.19c2.57-.51,15.64-5.27,14.18-9.36S63.07,53.28,61.59,54.32Z"/><path class="cls-6" d="M73.61,26.9A2.4,2.4,0,0,1,73,25.22,4.45,4.45,0,0,1,75.89,24c1.06.09,2,1.39,1.33,2.22a2.06,2.06,0,0,0-2.16,1.9,5,5,0,0,0,.91,3c3.54,6.06,10.21,11.26,9.5,18.24C85,54.23,81,57.9,77,60.63A69.27,69.27,0,0,1,40.7,72.51c-10.22.37-21.12-1.88-28.43-9a11.08,11.08,0,0,1-2.9-4.15C7.85,54.9,11,50.29,14.27,47a66.49,66.49,0,0,1,10.15-8.41C24,37,22.49,36.17,21.08,35.49c-4.09-2-3.86-6.57,1.26-5.46,2,.42,11,6.44,11.08,8.19.07,1.11-1.56,1.33-2.64,1.06C24.51,37.7,15.6,32,26.82,31c9.86-.89,19.7.61,29.66-.68C58.28,30.07,73,26.23,73.61,26.9Z"/><path class="cls-6" d="M75.73,47.28A14.61,14.61,0,0,1,71,52.49c-9.49,6.84-22.21,7.08-32.76,12.14a2.09,2.09,0,0,0-1.1.9c-.57,1.25,1.34,2.13,2.72,2.14,7.28,0,14.35-2.24,21.2-4.71S75.57,57.09,78.6,50.3c.91-2,1.7-6.29-.07-8.16C75.87,39.32,76.6,45.48,75.73,47.28Z"/><path class="cls-6" d="M71.2,23.24c-.67-1.83-3.28-1.67-5.16-1.17L45.26,27.65c-4.31,1.16-14.7,1.91-17.21,5.84C32,34,72.29,26,71.2,23.24Z"/><path class="cls-6" d="M60,56.7a1.23,1.23,0,0,0-.44,1.07c.15.57.92.63,1.5.55,5.63-.76,11.4-3.89,14.63-8.63C72.22,45.4,62.44,54,60,56.7Z"/><path class="cls-6" d="M30.78,70.56c-1.3.6-3.37-.86-4,.41a1.89,1.89,0,0,0-.1,1.08l.28,2.81c.08.76.25,1.66.95,2,1,.42,1.91-.75,2.38-1.73l1.41-3a1.32,1.32,0,0,0,.18-.9c-.09-.3-.55-.47-.73-.22"/><path class="cls-6" d="M63.14,66.92c-1.36.84-3.71.57-4,2.13a2.74,2.74,0,0,0,.45,1.69l1.81,3.42c1.37-.07,2-1.76,1.95-3.13s-.57-2.77-.14-4.07"/><path class="cls-6" d="M37.7,71.74a12.25,12.25,0,0,0-2.63.44.76.76,0,0,0-.52.33.82.82,0,0,0,.06.61L35.35,75c.23.56.67,1.24,1.25,1.07a1.15,1.15,0,0,0,.54-.46,5.25,5.25,0,0,0,.91-3.9"/><path class="cls-6" d="M55.09,69.55l-2.76.7a3.7,3.7,0,0,0,.78,3c.74.74,2.26.71,2.66-.26l-.43-3.45"/><path class="cls-6" d="M47.18,22a4.66,4.66,0,0,0-2.76,1.3A5.53,5.53,0,0,0,48,23.17a3.11,3.11,0,0,1-.86,2.61A1.62,1.62,0,0,0,49,23.31a5.39,5.39,0,0,0,3.36-1,7.09,7.09,0,0,0-5.69-.14"/></g></svg>