<svg xmlns="http://www.w3.org/2000/svg" viewBox="0 0 97.28 94.22"><defs><style>.cls-1{opacity:0.33;}.cls-2{fill:#663717;}.cls-3{fill:#2ca8c4;}.cls-4{fill:#3cb9ce;}.cls-5,.cls-8{fill:none;}.cls-6{fill:#57d0dd;}.cls-7{fill:#5deded;}.cls-8{stroke:#000;stroke-miterlimit:10;stroke-width:0.25px;}</style></defs><title>come cabo verde</title><g id="Camada_2" data-name="Camada 2"><path class="cls-2" d="M9.88,17.81Q14.23,40.42,20,62.7a6.83,6.83,0,0,0,1.89,3.76,6.82,6.82,0,0,0,2.12,1l19.88,6.8a2.52,2.52,0,0,1,1.32.79,3.91,3.91,0,0,1,.41,1.16c.85,2.64,4.66,3,7.1,1.62a6.78,6.78,0,0,1,1.51-.73,5.16,5.16,0,0,1,1.92,0q12,1.42,24,2.13a1.63,1.63,0,0,0,2-2.14Q82,58.17,81.79,39.24c-5.9.67-11.64-2-16.81-4.94S54.64,28,48.75,27.18c-3.26-.46-6.63-.14-9.85-.86a34.43,34.43,0,0,1-8.2-3.51c-3.13-1.63-6.33-3.16-9.57-4.57C19.59,17.58,9.54,16,9.88,17.81Z"/><path class="cls-3" d="M58.78,33.31c-7.93-2-15.08-6.26-22.44-9.86s-15.34-6.65-23.5-6c0,10.05,4,19.6,6.47,29.34,1.35,5.31,2.26,10.72,3.41,16.08a4.56,4.56,0,0,0,1,2.32,4.68,4.68,0,0,0,1.83.9l19,5.93A6,6,0,0,1,47,73.14c.49.45.83,1,1.28,1.52,1.89,2,5.12,1.59,7.85,1.16A69.19,69.19,0,0,1,78.52,76a2.48,2.48,0,0,0,2.25-.35,2.39,2.39,0,0,0,.46-1A33.11,33.11,0,0,0,82,62.47c-.28-2.41-.84-4.78-1-7.2s.07-5,.13-7.45c0-2.12.56-6.17-.45-8.1s-4.49-2.64-6.35-3.19C69.27,35,63.92,34.63,58.78,33.31Z"/><path class="cls-4" d="M66,34.68C62,33,58.1,31.12,54,29.71c-9.85-3.38-20.68-4-29.81-9C22,19.5,20,18.08,17.57,17.46a1.68,1.68,0,0,0-1.15,0c-.64.3-.7,1.17-.66,1.87.67,12,6,23.27,6.77,35.22.12,1.76.26,3.78,1.67,4.85a6.16,6.16,0,0,0,2.16.86A66.09,66.09,0,0,1,49.27,71.36,17,17,0,0,0,53.44,74c3.14,1.15,6.61.09,9.89-.57A40.24,40.24,0,0,1,76.51,73a3.41,3.41,0,0,0,1.62,0c1.11-.43,1.35-1.87,1.43-3.05q.78-12.24,1.55-24.47c.27-4.29.67-5.28-3.62-6.6C73.61,37.62,69.78,36.24,66,34.68Z"/><path class="cls-5" d="M70.06,23.12l-.28.05"/><path class="cls-6" d="M78.54,68.7c.35-6.5-1-13.06-.09-19.51.65-4.65,3.07-10.15,1.66-14.86-.84-2.79-2.34-1.91-4.72-1.64a29.28,29.28,0,0,1-8.86-.46C60.61,31,55.22,27.47,49.19,27.17c-1.64-.09-3.34.06-4.85-.56a13.52,13.52,0,0,1-3-2c-6.68-5.18-16.58-5.95-21.68-12.7a15.55,15.55,0,0,0-.37,6c.82,10,3.58,19.78,3.85,29.8.1,4.17-.21,8.41.85,12.45a31.2,31.2,0,0,1,26,9.55,4.93,4.93,0,0,0,2.22,1.66,4.75,4.75,0,0,0,2.21-.18,53.91,53.91,0,0,1,21.87-.62,2.16,2.16,0,0,0,1.53-.1A2.05,2.05,0,0,0,78.54,68.7Z"/><path class="cls-7" d="M40.67,10.15c-.15-.23-.37-.49-.65-.45a.67.67,0,0,0-.45.38A7.48,7.48,0,0,0,38.72,13L34.84,39.46,33.29,50a5.37,5.37,0,0,0,0,2.36c.44,1.44,1.94,2.22,3.27,2.93A42.24,42.24,0,0,1,51,67.83a2.79,2.79,0,0,0,1,1,2.47,2.47,0,0,0,1.24.11,38.64,38.64,0,0,0,7-1.88,33.73,33.73,0,0,1,9.42-1.4,2.05,2.05,0,0,0,1-.18c.89-.49.61-1.81.24-2.74a59.89,59.89,0,0,1-1.52-39.26c.25-.79.41-1.86-.31-2.27a1.84,1.84,0,0,0-1.4,0Q63,22.5,58.29,23.94c-2.25.69-5.19,2.34-7.42.9-1.77-1.15-2.9-4.08-4.06-5.77C44.78,16.09,42.72,13.12,40.67,10.15Z"/><path class="cls-3" d="M63.6,86.83q0-1.6,0-3.21c-.29-4.54-.35-9.1-.65-13.64a.42.42,0,0,0-.38-.34,6.47,6.47,0,0,0-.85-.09.48.48,0,0,0-.57,0,6.73,6.73,0,0,0-2,.41.31.31,0,0,0-.2.22c0-.1-.06-.21-.1-.31s-.39-.12-.41.08c-.28,2.71.17,5.47.19,8.19,0,1.52-.1,3.09-.12,4.64.11,1.21.06,2.47.07,3.64v1.28l.06-.07c.43-.61.86-1.21,1.34-1.79A14.6,14.6,0,0,0,61.32,83c.16.56.33,1.12.53,1.67a6.63,6.63,0,0,0,.87,1.6c.05.2.1.39.16.58s.33.45.49.68l.24.29C63.6,87.49,63.6,87.16,63.6,86.83Z"/><path class="cls-6" d="M61.63,69.23a.27.27,0,0,0-.18-.43,4.61,4.61,0,0,0-.91,0,10.13,10.13,0,0,0-3.28.9.11.11,0,0,0,0,.2l-.32.15a.23.23,0,0,0,.14.43,26.45,26.45,0,0,0,3.67-.8,5.11,5.11,0,0,0,.76-.23A.31.31,0,0,0,61.63,69.23Z"/></g><g id="Camada_3" data-name="Camada 3"><path class="cls-8" d="M48.14,26.32c-6.2-6.56-16.27-7.25-24.28-11.39-3.07-1.58-6-3.88-7.16-7.13q3,26,7.34,51.86"/><path class="cls-8" d="M24.25,59.67A35.36,35.36,0,0,1,53.09,72.52a450.14,450.14,0,0,0-4.7-46.07c3.44-1.16,7.25,0,10.56,1.49s6.52,3.42,10.11,4c3.93.6,7.89-.5,11.7-1.62q-1,20.81-1.38,41.63L69.19,70.27c-5-.8-10.71-1.38-14.38,2"/><path class="cls-8" d="M51.37,74.34C46.15,66.61,36.61,63.2,27.58,60.89a5.63,5.63,0,0,1-2.95-1.41,5.66,5.66,0,0,1-1-3.18A179,179,0,0,0,14,15.61l3-.23"/><path class="cls-8" d="M53.41,74.65l.21-.08c7.83-2.94,16.59-2.36,24.67-.23"/><path class="cls-8" d="M81.16,38.41a2.88,2.88,0,0,1,2.3.13A111.61,111.61,0,0,0,83,72.72"/><path class="cls-8" d="M55.53,75.24a76.79,76.79,0,0,1,17.66-.84,10.51,10.51,0,0,1,4.61,1.07"/><path class="cls-8" d="M30.08,63.49a48.11,48.11,0,0,1,16.86,7.94,6.52,6.52,0,0,1,1.77,1.7"/><path class="cls-8" d="M49.61,75.43c-.45.92.64,2,1.67,1.93a4.46,4.46,0,0,0,2.62-1.49"/><path class="cls-8" d="M52.28,70.48a40.41,40.41,0,0,1,19.16-3.36,1.55,1.55,0,0,0,1.2-.24A1.48,1.48,0,0,0,73,65.75c.09-6.33-1.11-12.6-1.84-18.89a127,127,0,0,1-.23-27.15,32.59,32.59,0,0,1-13.61,4.06c-2.24.15-6.94,0-8.22,2.4-1.14,2.17.75,8.68,1,11.17q1.24,12.09,2.5,24.18c.11,1.09,1.6,7.65.74,8.41-1.52,1.35-3.69-2.71-4.46-3.63a37,37,0,0,0-13.6-10.15c-1.14-.49-2.41-1-3-2.12a5.13,5.13,0,0,1-.15-3.2L39.57,7.1A27.65,27.65,0,0,0,44.75,15a15.12,15.12,0,0,1,2.94,3.65,11.88,11.88,0,0,1,.85,3.89l.38,3.67"/><path class="cls-8" d="M12.13,16.79l-2.11-1a31,31,0,0,0,1.07,6.39L21.3,64.89A3.69,3.69,0,0,0,22,66.44a3.48,3.48,0,0,0,1.54.85l23.75,8.36c-.76,1.41,1.06,3,2.66,2.91s3-1.09,4.55-1.51a12.73,12.73,0,0,1,3.7-.24q12.17.43,24.28,1.52a20.71,20.71,0,0,0,.14-7"/><path class="cls-8" d="M21.86,60.25c.35,1.87.68,4.2,1.78,5.76a9.76,9.76,0,0,1,2.19.61l22.83,8.32"/><path class="cls-8" d="M54.53,76a259.61,259.61,0,0,1,26.32.55"/><path class="cls-8" d="M11.92,16.92A455.69,455.69,0,0,0,22.7,65.39"/><path class="cls-8" d="M10.87,16.28l3.46.66"/></g></svg>