<svg xmlns="http://www.w3.org/2000/svg" xmlns:xlink="http://www.w3.org/1999/xlink" viewBox="0 0 97.28 94.22"><defs><style>.cls-1,.cls-7{fill:none;}.cls-2{opacity:0.33;}.cls-3{fill:#834c20;}.cls-4{fill:#54280a;}.cls-5{clip-path:url(#clip-path);}.cls-6{fill:#5deded;}.cls-7{stroke:#000;stroke-linecap:round;stroke-linejoin:round;stroke-width:0.25px;}</style><clipPath id="clip-path"><path class="cls-1" d="M27.2,19.31c-1.59.55-3.45,1.43-3.63,3.11-.25,2.46,3.14,3.5,4.4,5.63s.13,4.73-.2,7.15C27.18,39.69,29.44,44,30,48.53,31.58,60.17,22.12,70,17.56,80.85c-.86,2-1.5,4.53-.24,6.35,2,2.89,6.5,1.47,9.58-.23C39.22,80.15,52,73.05,66.07,72.14c3.26-.21,7.21-.47,8.7-3.37,1.35-2.64-.33-5.88-2.53-7.85s-5-3.36-6.77-5.72a9.81,9.81,0,0,1,.74-12.37c2.08-2.14,5.49-4.13,4.75-7-.38-1.5-1.89-2.59-2-4.14-.16-1.76,1.46-3.1,2.37-4.62a6.37,6.37,0,0,0-3.24-8.87c-3-1-6.57.24-9.16-1.52a19.8,19.8,0,0,1-2.65-2.76C49.74,7.2,34.11,16.89,27.2,19.31Z"/></clipPath></defs><title>Prancheta 1 cópia 14ldpi</title><g id="Camada_2" data-name="Camada 2"><path class="cls-3" d="M27,19.49c-1.59.55-3.45,1.43-3.63,3.11-.25,2.46,3.15,3.5,4.4,5.63s.13,4.73-.19,7.15c-.6,4.49,1.66,8.83,2.26,13.33C31.39,60.35,21.93,70.2,17.37,81c-.86,2-1.5,4.53-.24,6.35,2,2.89,6.5,1.47,9.58-.23C39,80.33,51.83,73.23,65.88,72.32c3.26-.21,7.21-.47,8.7-3.37,1.35-2.64-.33-5.88-2.53-7.86s-5-3.35-6.77-5.71A9.81,9.81,0,0,1,66,43c2.09-2.14,5.5-4.13,4.76-7-.39-1.5-1.9-2.59-2-4.14-.16-1.76,1.47-3.1,2.37-4.62a6.37,6.37,0,0,0-3.24-8.87c-3-1-6.57.24-9.16-1.52a19.74,19.74,0,0,1-2.64-2.76C49.55,7.38,33.92,17.07,27,19.49Z"/><path class="cls-4" d="M51.54,8.37a8.39,8.39,0,0,0-8.06,1.84,2.2,2.2,0,0,0-.84,1.43c0,1.07,1.2,1.69,2.24,1.93a17.29,17.29,0,0,0,9.19-.44c1.56-.52,3.33-2.16,2.38-3.5A2.65,2.65,0,0,0,55,8.77a14.38,14.38,0,0,0-7.78,0"/><path class="cls-4" d="M57.75,72.48C62,70.8,66.29,69.1,70.83,68.6c1.91-.21,4.1-.11,5.4,1.32,1.47,1.61,1.06,4.31-.32,6a13,13,0,0,1-5.53,3.38c-13,5-33.15,11.06-47,7.13C33.3,80.21,46.71,76.85,57.75,72.48Z"/><g class="cls-5"><path class="cls-6" d="M24.65,47.75c-.12-14.29.09-28.64-.55-42.91,0-.07-.11-.07-.12,0-.36,14.28.13,28.62.28,42.91s.37,28.61.09,42.9a.52.52,0,0,0,1,0C24.83,76.37,24.77,62,24.65,47.75Z"/><path class="cls-6" d="M34,73.46c-.11.21-.23.41-.35.61.13-.19.27-.38.42-.56S34,73.41,34,73.46Z"/><path class="cls-6" d="M30.94,81.3c.4.91.72,1.84,1.09,2.76a8.15,8.15,0,0,0,1,2c.23.28.65,0,.57-.33a8.81,8.81,0,0,0-1.21-2.26c-.46-.75-.95-1.49-1.39-2.26l0-.07c.06-.16-.17-.27-.28-.16A11.81,11.81,0,0,0,29,83.8c-.48.85-.94,1.72-1.48,2.53a.54.54,0,0,0-.05-.11c0-.11,0-.22,0-.33-.08-1.84-.14-3.68-.2-5.53q-.12-3.47-.23-6.93a24.5,24.5,0,0,0,1.41,3.14c.43.73,1,2.05,1.88,2.29a.28.28,0,0,0,.42.07,8.68,8.68,0,0,0,1.41-2.42c.24-.44.5-.88.76-1.31-.33.47-.68.92-1,1.37a15,15,0,0,0-1.34,1.64,10.72,10.72,0,0,0-1.52-2,20.22,20.22,0,0,1-2-3.07c-.05-1.29-.09-2.58-.13-3.86-.22-7.12-.42-14.24-.46-21.36s0-14.23-.06-21.35c-.06-7.38.17-14.78-.17-22.15,0,0,0,0,0,0-.62,7.36-.56,14.77-.66,22.15-.09,7.13,0,14.23.2,21.35s.28,14.24.5,21.36q.16,5.52.4,11.06c.08,1.85.18,3.69.25,5.53.06,1.59-.19,3.28.38,4.78a.15.15,0,0,0,.28,0,12.09,12.09,0,0,0,0-4.2A17.88,17.88,0,0,0,29,89.34a5,5,0,0,0,2.16,2.15.17.17,0,0,0,.19-.25l-.08-.09c.68-.22.85-1.06,1.1-1.66.35-.86.69-1.71,1-2.57,0,0,0,0,0,0-.54.7-1.07,1.4-1.59,2.11-.35.48-.92,1-.95,1.62-.48-.46-1.06-.85-1.52-1.32a8.78,8.78,0,0,1-1.78-2.94c.52-.85,1.11-1.65,1.68-2.45A13.31,13.31,0,0,0,30.94,81.3Z"/><path class="cls-6" d="M32.91,75.2c.26-.37.51-.75.75-1.13C33.4,74.43,33.15,74.81,32.91,75.2Z"/><path class="cls-6" d="M28.57,11.36c.21.31.43.61.65.91A10,10,0,0,0,28.57,11.36Z"/><path class="cls-6" d="M34.08,7.72A14.38,14.38,0,0,0,32.4,5.31a.38.38,0,0,0-.13-.1c-.13-.16-.25-.33-.37-.49s-.11,0-.08.06l0,.07a.07.07,0,0,0-.11,0,28.37,28.37,0,0,0-2.26,3.74,10.4,10.4,0,0,0-.5.92c-.26.44-.52.88-.8,1.31l0,0s-.1,0-.06.05l0,0L28,11.1c0,.05.05.09.07,0l.12-.21c.07.07.13.15.2.23A19.19,19.19,0,0,1,29.59,14,7,7,0,0,0,31,16.6a.34.34,0,0,0,.48,0l.09,0a.27.27,0,0,0,.39-.06c.37-.56.72-1.13,1.08-1.7a10,10,0,0,0,2.12-3.41c.13-.21.26-.42.38-.63l.14.16c.14.14.43,0,.35-.2A15,15,0,0,0,34.08,7.72Zm-.25,4c-.12.14-.27.3-.44.52-.58.77-1.16,1.54-1.76,2.3-.49-.91-1.12-1.73-1.6-2.66a2.91,2.91,0,0,1,0-2.48,13.07,13.07,0,0,0,1.36-2.66.71.71,0,0,0,0-.14c.11-.28.21-.56.31-.84l0,.06h0a7.56,7.56,0,0,0,.76,1.43c.5,1,.94,2,1.41,3a2.16,2.16,0,0,1,.2.54A4,4,0,0,1,33.83,11.69Z"/><path class="cls-6" d="M34.9,26.68c-.1.23-.21.45-.33.67l.39-.63S34.92,26.64,34.9,26.68Z"/><path class="cls-6" d="M33.12,29.81a10,10,0,0,0-1.55,2.73v0a34.93,34.93,0,0,1-3.28-5.05,24.84,24.84,0,0,0,2.84,5.3.28.28,0,0,0,.48-.07.1.1,0,0,0,.14,0,9.56,9.56,0,0,0,1.52-2.79c.22-.48.45-1,.7-1.44C33.69,28.92,33.4,29.37,33.12,29.81Z"/><path class="cls-6" d="M34,28.46c.22-.36.42-.73.61-1.11C34.36,27.71,34.15,28.08,34,28.46Z"/><path class="cls-6" d="M27.62,25.91a15.53,15.53,0,0,0,.66,1.56C28.06,27,27.85,26.43,27.62,25.91Z"/><path class="cls-6" d="M33.86,23.52c-.82-1.08-1.7-2.11-2.52-3.19-.06-.07-.18,0-.13.08s.05.09.07.14a.11.11,0,0,0-.09,0,47,47,0,0,0-3.69,4.94c0-.14-.1-.28-.14-.43s-.09,0-.07,0,.12.29.19.43l-.19.28s0,0,0,0,.13-.15.2-.23l.12.29c0-.1-.06-.21-.1-.31a48.1,48.1,0,0,0,3.9-4.8c.59,1,1.13,2.1,1.74,3.13s1,2.12,2,2.63c.16.09.42,0,.39-.22C35.39,25.26,34.48,24.36,33.86,23.52Z"/><path class="cls-6" d="M34.88,43.48c-.47.92-.94,1.83-1.43,2.73A14.25,14.25,0,0,0,34.88,43.48Z"/><path class="cls-6" d="M35.23,44c-.17.2-.32.41-.47.62Z"/><path class="cls-6" d="M36.07,43.16c-1.25-2.4-3-4.54-4.46-6.82h0c.08-.21-.23-.36-.37-.21C29.33,38,28.1,40.91,26.8,43.27h0c1.64-2.12,3.72-4.34,4.75-6.83,1.2,2.13,2.21,4.41,3.53,6.47-.06.19-.14.37-.21.56.09-.16.17-.32.25-.48.09.13.17.27.26.41-.49.81-1,1.6-1.55,2.41-.23.3-.46.6-.68.91l.29-.52a19,19,0,0,1-2,2.54c-.13-.26-.25-.52-.35-.78a.28.28,0,0,0,.11-.37A2.9,2.9,0,0,0,30.7,47l-.05-.14a.1.1,0,0,0-.15,0c-.44-.38-.93-.72-1.34-1.09A15.85,15.85,0,0,1,27,43.34s-.05,0,0,0A25.8,25.8,0,0,0,28.76,46a7.68,7.68,0,0,0,1.69,1.82,4.4,4.4,0,0,0,.68,1.56.28.28,0,0,0,.47,0c.23-.34.44-.69.65-1-.09.2-.18.4-.25.6,0,0,0,0,0,0l0,0c-.07.15-.15.3-.21.45s0,.1.07.06a52.9,52.9,0,0,0,3.53-5.88l0,0,.06.06c-.09.15-.19.29-.29.44.1-.14.22-.27.33-.4A.35.35,0,0,0,36.07,43.16Z"/><path class="cls-6" d="M34.76,57.27c-.77,1-1.62,1.85-2.41,2.79a6.65,6.65,0,0,0-1.66,2.41c-.9-1.41-2-2.68-2.85-4.13.9,1.51,1.48,3.18,2.34,4.72.21.38.78.09.68-.28h.08c.85-.41,1.38-1.57,1.88-2.35.66-1,1.26-2.12,2-3.14C34.78,57.27,34.76,57.26,34.76,57.27Z"/><path class="cls-6" d="M27.75,58.18l.09.16Z"/><path class="cls-6" d="M33.55,54.69c-.81-.93-1.82-1.76-2.56-2.73v0s-.06-.11-.11-.06h0c-.75.94-1.42,1.93-2.08,2.94s-1.56,2-1.61,3.11a.27.27,0,0,0,.4.23l.1-.09a.86.86,0,0,0,.07.1l-.06-.1a8.3,8.3,0,0,0,1.84-2.82A14,14,0,0,0,31,52.05c.76.94,1.34,2.08,2.06,3.05a6,6,0,0,0,1.92,2,.12.12,0,0,0,.17-.13A6,6,0,0,0,33.55,54.69Z"/><path class="cls-6" d="M32.33,70.16a28.48,28.48,0,0,1-2-2.91c.09-.32.18-.63.26-.94,0-.11-.14-.19-.2-.08s-.2.37-.31.56c0,0,0,0,0,0s-.1,0-.07,0l0,.07c-1.07,1.9-2.49,3.86-2.86,6a.11.11,0,0,0,.18.1c1.64-1.36,2.36-3.6,3-5.65.63,1,1.16,2.19,1.78,3.24a9.38,9.38,0,0,0,2,2.8.17.17,0,0,0,.25-.19A14,14,0,0,0,32.33,70.16Z"/><path class="cls-6" d="M39.19,29.52a0,0,0,0,0,.09,0,8.6,8.6,0,0,0-.93-2.16c-.08-.16-.16-.33-.23-.49l.19.51A8.31,8.31,0,0,0,39.19,29.52Z"/><path class="cls-6" d="M37.39,25.1c.21.59.47,1.17.73,1.73C37.9,26.24,37.66,25.67,37.39,25.1Z"/><path class="cls-6" d="M37.26,14.09a17,17,0,0,0,1-2.13c.26-.59.52-1.2.8-1.79a.39.39,0,0,0,.57-.48l-.15-.3c.06-.09.1-.19.16-.28s0-.08-.07,0l-.12.25c-.82-1.63-2-3.1-2.74-4.78,0,0-.09,0-.06,0,1,1.73,1.41,3.73,2.33,5.47a.86.86,0,0,0,.07.1c-.33.63-.71,1.25-1.08,1.86a9.8,9.8,0,0,0-1.23,2.3c0,.15.17.3.28.16a.78.78,0,0,0,.1-.15,25.19,25.19,0,0,1,1.62,3.14A12.46,12.46,0,0,0,39.94,20c-1,1.47-2,2.91-2.92,4.41-.11.16,0,.31.18.33s.13.28.19.41c0-.13-.09-.27-.14-.41a.18.18,0,0,0,.16-.1c.92-1.48,1.74-3,2.61-4.53l.08.12a.35.35,0,0,0,.59-.25C40.46,17.84,38.45,15.75,37.26,14.09Z"/><path class="cls-6" d="M39,30c0,.14-.09.27-.14.4l.21-.37S39,29.94,39,30Z"/><path class="cls-6" d="M37.41,35.3c-.13-.32-.27-.64-.41-1C37.12,34.66,37.26,35,37.41,35.3Z"/><path class="cls-6" d="M39.77,39.66c-.79-1.39-1.68-2.85-2.36-4.36.59,1.53,1.1,3.1,1.77,4.59a7.79,7.79,0,0,1-1.07,2.62c-.38.57-1.14,1.07-1.12,1.8a.17.17,0,0,0,.22.17c.71-.23.86-1.08,1.1-1.72A27.06,27.06,0,0,0,39.23,40C39.41,40.34,40,40,39.77,39.66Z"/><path class="cls-6" d="M37.89,32.19c.17-.28.31-.57.46-.87-.18.28-.37.55-.56.8-.33.43-.82.83-1.12,1.3,0,0-.07,0-.05,0v0s-.07.1-.1.16,0,.19.14.13,0,0,.07-.05c.09.2.17.4.26.61-.08-.22-.15-.43-.22-.65A4.84,4.84,0,0,0,37.89,32.19Z"/><path class="cls-6" d="M38.35,31.32a5.91,5.91,0,0,0,.49-.93C38.66,30.69,38.5,31,38.35,31.32Z"/><path class="cls-6" d="M38.38,47A24.06,24.06,0,0,1,37,44.35s0,0,0,0c.29,1.66.52,4.08,2,5.13a.24.24,0,0,0,.35-.2A5.45,5.45,0,0,0,38.38,47Z"/><path class="cls-6" d="M39.74,59A20.31,20.31,0,0,0,38,56.86a8.85,8.85,0,0,1-1.28-2.21c.6,1.72,1.15,3.79,2.7,4.74A.26.26,0,0,0,39.74,59Z"/><path class="cls-6" d="M36.68,54.65v0Z"/><path class="cls-6" d="M36.79,54.34a.07.07,0,0,0,0-.09l0,0a.08.08,0,0,0-.07,0c.13-.43.78-2,.82-2.12l.24-.6q-.34.75-.72,1.47a9.79,9.79,0,0,0-.5.89s0,0,0-.06-.1,0-.08,0l.06.15a.54.54,0,0,0,.05.48.14.14,0,0,0,.13.06h0l0,.1s0-.07,0-.1S36.76,54.46,36.79,54.34Z"/><path class="cls-6" d="M37.69,51.51c.21-.45.41-.91.58-1.37C38.07,50.59,37.87,51,37.69,51.51Z"/><path class="cls-6" d="M38.55,49.37c-.09.26-.18.51-.28.77.12-.25.22-.5.35-.74C38.65,49.35,38.56,49.31,38.55,49.37Z"/><path class="cls-6" d="M38.57,60.42l0-.08A.56.56,0,0,0,38.57,60.42Z"/><path class="cls-6" d="M37.37,62.5A5.59,5.59,0,0,0,36.48,65a.15.15,0,0,0,.28.08,10.12,10.12,0,0,0,.87-2.44,12.69,12.69,0,0,1,.94-2.18C38.18,61.11,37.74,61.79,37.37,62.5Z"/><path class="cls-6" d="M39,59.65c-.11.23-.24.46-.36.69a4.88,4.88,0,0,1,.43-.65S39,59.6,39,59.65Z"/><path class="cls-6" d="M37.82,67.94c-.58-.81-1.17-1.61-1.75-2.43a0,0,0,1,0-.07,0c.46.89.9,1.78,1.35,2.66a9.05,9.05,0,0,0,1.32,2.23,25.93,25.93,0,0,1-1.16,2.65A4.67,4.67,0,0,0,36.67,75a.16.16,0,0,0,.27.11A5.11,5.11,0,0,0,37.75,73a25.39,25.39,0,0,1,1-2.5h0a.29.29,0,0,0,.49-.28A8.2,8.2,0,0,0,37.82,67.94Z"/><path class="cls-6" d="M38.76,78.46c-.67-1-1.67-2-1.92-3.15,0,0-.1,0-.08,0,.47,1.14.43,2.38,1,3.51.4.81,1,2.13,2,2.33a.33.33,0,0,0,.41-.31C40.11,80,39.24,79.17,38.76,78.46Z"/><path class="cls-6" d="M39.54,81.38l-2.43,4s0,.08.07,0l2.43-4S39.57,81.34,39.54,81.38Z"/><path class="cls-6" d="M37.71,84.89a6.5,6.5,0,0,0,.59-.69A5.52,5.52,0,0,0,37.71,84.89Z"/><path class="cls-6" d="M38.43,84l-.13.21.18-.15C38.54,84,38.45,83.94,38.43,84Z"/><path class="cls-6" d="M38.46,88.42A11.23,11.23,0,0,1,37,85.74c.21-.24.41-.49.62-.74l.09-.11-.1.1-.62.72s0-.07-.05-.1-.09,0-.07,0,0,.1.05.15l-.06.07a0,0,0,1,0,0,0l0-.06c.32.91.64,1.82,1,2.7.3.69.71,1.81,1.52,2a.11.11,0,0,0,.13-.1C39.65,89.67,38.88,89,38.46,88.42Z"/><path class="cls-6" d="M42.06,17.26a13.08,13.08,0,0,1-2-3.1,16.78,16.78,0,0,0,1.72-2.58,2.29,2.29,0,0,0,.55-1.69A5.18,5.18,0,0,0,41.31,8c-.8-1.21-1.64-2.4-2.34-3.67,0,0-.09,0-.07,0a31.37,31.37,0,0,1,2.27,5c.62,1.94-.89,2.9-1.52,4.58-.08.22.2.39.38.27a32.73,32.73,0,0,1,1.23,3.3c.34.83.77,2,1.62,2.37a.25.25,0,0,0,.37-.21A4.63,4.63,0,0,0,42.06,17.26Z"/><path class="cls-6" d="M42.71,21.25c-.63.83-1.28,1.64-2,2.43a6.17,6.17,0,0,0-1.35,1.8c0,.16.16.34.3.24a6.61,6.61,0,0,0,1.39-2c.52-.85,1.06-1.67,1.63-2.48C42.72,21.25,42.71,21.24,42.71,21.25Z"/><path class="cls-6" d="M41,37.58a19.24,19.24,0,0,1-1.27-2.32,10.45,10.45,0,0,0,1.65-2.88c-.22.37-.46.73-.69,1.08s-.78,1-1.09,1.49l-.07-.18a0,0,0,0,0-.08,0c0,.11,0,.21.07.31l-.08.14a.12.12,0,0,0,.15.16,11.42,11.42,0,0,0,.72,2.38c.37.8.82,1.92,1.67,2.29a.24.24,0,0,0,.35-.27A7,7,0,0,0,41,37.58Z"/><path class="cls-6" d="M41.53,29.43c-.45-1-.94-1.93-1.36-2.92a.08.08,0,0,0-.15.06c.32,1,.57,2.09.87,3.13a8.21,8.21,0,0,0,.77,2.13l-.27.55c.1-.18.19-.36.28-.54.06.09.11.19.18.28s.54,0,.53-.22A6.73,6.73,0,0,0,41.53,29.43Z"/><path class="cls-6" d="M41.4,40.59c-.46,1-.87,2.14-1.37,3.18a8,8,0,0,0-1.12,2.39.11.11,0,0,0,.19.08A7.29,7.29,0,0,0,40,44c.42-1.14,1-2.24,1.46-3.36C41.49,40.59,41.42,40.54,41.4,40.59Z"/><path class="cls-6" d="M40.82,57.78c-.57-.8-1.12-1.61-1.66-2.42a.23.23,0,0,0,.07-.07C40,54.15,41.6,52.48,41.28,51S39.67,47.85,39,46.43c0,0-.09,0-.08,0a27.94,27.94,0,0,1,1.39,3.8c.47,1.91-.66,3.21-1.52,4.77a.25.25,0,0,0,.3.36c.47.86.92,1.73,1.36,2.6a8.53,8.53,0,0,0,.95,1.82c-.42.76-1,1.47-1.45,2.18a7.12,7.12,0,0,0-1.4,2.38.18.18,0,0,0,.3.17,7.35,7.35,0,0,0,1.39-2.38c.38-.77.74-1.58,1.19-2.32a1.63,1.63,0,0,0,.34.3.21.21,0,0,0,.32-.18C42,59.12,41.29,58.44,40.82,57.78Z"/><path class="cls-6" d="M40.25,68.65c-.56-1.16-1.15-2.27-1.63-3.47,0,0-.07,0-.06,0,.38,1.09.65,2.19.92,3.31.21.86.29,2,1,2.54.14.12.42.11.46-.12A3.66,3.66,0,0,0,40.25,68.65Z"/><path class="cls-6" d="M39.87,73.12a3.33,3.33,0,0,0-.67,1.39.11.11,0,0,0,.18.08A3.18,3.18,0,0,0,40,73.18l.38-1C40.23,72.51,40.05,72.82,39.87,73.12Z"/><path class="cls-6" d="M40.39,72.19a6,6,0,0,0,.32-.68C40.59,71.73,40.49,72,40.39,72.19Z"/><path class="cls-6" d="M40.88,71.07c-.05.15-.11.3-.17.44A3.38,3.38,0,0,1,41,71.1S40.89,71,40.88,71.07Z"/><path class="cls-6" d="M39.9,76.82c-.13-.35-.26-.68-.39-1A7.39,7.39,0,0,0,39.9,76.82Z"/><path class="cls-6" d="M41.91,80.09c-.64-1.12-1.46-2.13-2-3.27a9.16,9.16,0,0,0,1.89,3.36A.08.08,0,0,0,41.91,80.09Z"/><path class="cls-6" d="M39.3,75.3l.21.5c0-.17-.1-.35-.14-.54S39.28,75.24,39.3,75.3Z"/><path class="cls-6" d="M41.37,82.39a8.07,8.07,0,0,0,.4-1.17C41.64,81.61,41.49,82,41.37,82.39Z"/><path class="cls-6" d="M40.86,83.46c-.39.71-1.06,1.32-1.17,2.13,0,.09.08.21.18.14a4,4,0,0,0,1.07-2c.16-.42.29-.86.43-1.29C41.21,82.76,41,83.12,40.86,83.46Z"/><path class="cls-6" d="M41.91,80.58a4.56,4.56,0,0,1-.14.64c.07-.2.14-.41.22-.62C42,80.56,41.92,80.53,41.91,80.58Z"/><path class="cls-6" d="M42.59,89.76A9.42,9.42,0,0,0,41,88.14a6.66,6.66,0,0,1-1.48-2.51h0a8.58,8.58,0,0,0,1.08,2.68c.43.66,1.06,1.51,1.88,1.62A.12.12,0,0,0,42.59,89.76Z"/><path class="cls-6" d="M55.11,65.86a.05.05,0,0,1,.1,0,8.28,8.28,0,0,1-.94,2.16c-.08.16-.15.33-.23.49l.19-.51A8.45,8.45,0,0,1,55.11,65.86Z"/><path class="cls-6" d="M53.31,70.28c.22-.59.47-1.16.73-1.73C53.82,69.14,53.58,69.71,53.31,70.28Z"/><path class="cls-6" d="M53.18,81.29a15.67,15.67,0,0,1,1,2.13c.26.6.52,1.2.81,1.79.26-.24.74.1.56.49,0,.1-.1.19-.15.29s.11.19.16.28-.05.08-.07,0-.08-.17-.11-.25c-.83,1.63-2,3.11-2.74,4.79,0,0-.1,0-.07,0,1-1.74,1.41-3.73,2.33-5.48a.24.24,0,0,1,.08-.09c-.34-.64-.72-1.26-1.09-1.87a9.41,9.41,0,0,1-1.22-2.3c0-.15.17-.3.28-.16a1.3,1.3,0,0,0,.1.15,28.22,28.22,0,0,0,1.62-3.14,11.9,11.9,0,0,1,1.22-2.48c-1-1.47-2-2.91-2.92-4.41a.22.22,0,0,1,.18-.33c.07-.13.13-.28.19-.41-.05.13-.09.27-.14.41a.24.24,0,0,1,.17.1c.91,1.48,1.73,3,2.6,4.53,0,0,.05-.08.09-.12.18-.2.62,0,.58.25C56.38,77.54,54.37,79.63,53.18,81.29Z"/><path class="cls-6" d="M54.9,65.39a3.17,3.17,0,0,0-.14-.4l.21.37S54.92,65.45,54.9,65.39Z"/><path class="cls-6" d="M53.33,60.08c-.13.32-.27.64-.41,1C53.05,60.72,53.18,60.4,53.33,60.08Z"/><path class="cls-6" d="M55.7,55.72c-.79,1.39-1.69,2.85-2.37,4.36.59-1.53,1.1-3.1,1.77-4.59A8,8,0,0,0,54,52.87c-.39-.57-1.14-1.07-1.13-1.8a.18.18,0,0,1,.23-.17c.71.23.85,1.08,1.09,1.72.34.91.68,1.82.93,2.76C55.34,55,55.9,55.36,55.7,55.72Z"/><path class="cls-6" d="M53.81,63.19a9,9,0,0,1,.46.87c-.18-.28-.37-.55-.56-.8-.33-.43-.81-.83-1.11-1.3,0,0-.08,0-.06,0v0l-.1-.17c0-.08,0-.19.14-.13s0,0,.07,0c.09-.2.18-.4.26-.6-.08.21-.15.42-.22.64A4.84,4.84,0,0,1,53.81,63.19Z"/><path class="cls-6" d="M54.27,64.06a5.91,5.91,0,0,1,.49.93C54.59,64.69,54.43,64.37,54.27,64.06Z"/><path class="cls-6" d="M54.3,48.37A24.06,24.06,0,0,0,52.9,51a0,0,0,0,1,0,0c.29-1.67.52-4.08,2-5.14a.23.23,0,0,1,.34.2A5.4,5.4,0,0,1,54.3,48.37Z"/><path class="cls-6" d="M55.67,36.35a21.6,21.6,0,0,1-1.78,2.17,8.28,8.28,0,0,0-1.28,2.21c.59-1.71,1.14-3.79,2.7-4.74A.27.27,0,0,1,55.67,36.35Z"/><path class="cls-6" d="M52.61,40.73v0Z"/><path class="cls-6" d="M52.72,41s0,.08,0,.09l-.06,0a.06.06,0,0,1-.07,0c.13.43.78,2,.83,2.12s.16.4.23.6c-.23-.49-.47-1-.71-1.46-.12-.24-.38-.58-.51-.9,0,0,0,0,0,.06s-.1,0-.08,0l.06-.16a.54.54,0,0,1,0-.48.11.11,0,0,1,.13,0h0l0-.1a.38.38,0,0,0,0,.1C52.67,40.9,52.68,40.92,52.72,41Z"/><path class="cls-6" d="M53.61,43.87c.21.46.41.91.59,1.38C54,44.79,53.79,44.34,53.61,43.87Z"/><path class="cls-6" d="M54.47,46c-.08-.25-.18-.51-.27-.76.11.24.21.5.34.73A0,0,0,1,1,54.47,46Z"/><path class="cls-6" d="M53.74,27.44c-.58.81-1.17,1.61-1.74,2.43a0,0,0,0,1-.08,0c.46-.88.9-1.78,1.36-2.66a8.47,8.47,0,0,1,1.32-2.23c-.37-.89-.71-1.79-1.17-2.65a4.67,4.67,0,0,1-.84-1.91.16.16,0,0,1,.28-.11,5.15,5.15,0,0,1,.8,2.11,25.39,25.39,0,0,0,1,2.5h0a.29.29,0,0,1,.49.28A8.47,8.47,0,0,1,53.74,27.44Z"/><path class="cls-6" d="M54.68,16.92c-.67,1-1.66,2-1.92,3.15,0,.05-.1,0-.08,0,.47-1.14.43-2.38,1-3.5.4-.82,1-2.14,2-2.34a.33.33,0,0,1,.41.31C56,15.4,55.16,16.21,54.68,16.92Z"/><path class="cls-6" d="M55.47,14,53,10.06a0,0,0,1,1,.07,0L55.54,14S55.49,14,55.47,14Z"/><path class="cls-6" d="M53.63,10.49a7.68,7.68,0,0,1,.59.69A6.5,6.5,0,0,1,53.63,10.49Z"/><path class="cls-6" d="M54.35,11.39a2.39,2.39,0,0,0-.13-.21l.18.16C54.46,11.38,54.37,11.44,54.35,11.39Z"/><path class="cls-6" d="M54.39,7a11.3,11.3,0,0,0-1.47,2.68l.62.74.09.11-.09-.1-.63-.72a1,1,0,0,1,0,.1c0,.05-.1,0-.08,0l.06-.15-.07-.07s0,0,0,0l0,.06c.32-.91.64-1.82,1-2.7.3-.68.71-1.81,1.52-2a.1.1,0,0,1,.13.1C55.57,5.71,54.8,6.39,54.39,7Z"/><path class="cls-6" d="M58,78.12a13.41,13.41,0,0,0-2,3.1,16.88,16.88,0,0,1,1.72,2.59,2.23,2.23,0,0,1,.55,1.68,5.18,5.18,0,0,1-1.06,1.88c-.79,1.21-1.63,2.41-2.34,3.67,0,0-.09,0-.07,0a30.55,30.55,0,0,0,2.28-5c.61-1.94-.9-2.9-1.53-4.58-.08-.22.2-.38.38-.27a29,29,0,0,0,1.23-3.3c.34-.83.78-2,1.63-2.37a.25.25,0,0,1,.36.21A4.48,4.48,0,0,1,58,78.12Z"/><path class="cls-6" d="M58.63,74.13c-.63-.83-1.28-1.64-2-2.43a6.35,6.35,0,0,1-1.35-1.8c0-.16.16-.34.31-.23a6.59,6.59,0,0,1,1.38,2c.52.85,1.06,1.67,1.63,2.48C58.64,74.13,58.63,74.14,58.63,74.13Z"/><path class="cls-6" d="M56.94,57.81a17.88,17.88,0,0,0-1.28,2.32A10.39,10.39,0,0,1,57.31,63c-.21-.37-.45-.73-.69-1.08s-.77-1-1.08-1.49a1.42,1.42,0,0,0-.08.18,0,0,0,0,1-.08,0c0-.11,0-.21.07-.31a1,1,0,0,0-.08-.14.12.12,0,0,1,.15-.16,11.45,11.45,0,0,1,.73-2.38c.36-.8.81-1.92,1.67-2.29a.24.24,0,0,1,.34.27C58.12,56.41,57.37,57.1,56.94,57.81Z"/><path class="cls-6" d="M57.45,66c-.45,1-.94,1.93-1.36,2.92,0,.09-.17,0-.15-.06.33-1,.58-2.09.87-3.13a7.88,7.88,0,0,1,.78-2.13c-.1-.18-.19-.36-.28-.55.1.18.2.36.28.54.06-.09.11-.19.18-.28s.54,0,.53.22A6.73,6.73,0,0,1,57.45,66Z"/><path class="cls-6" d="M57.32,54.79c-.46-1-.87-2.14-1.37-3.18a8.54,8.54,0,0,1-1.12-2.39c0-.09.13-.14.19-.08a7.31,7.31,0,0,1,.92,2.25c.42,1.14,1,2.25,1.45,3.36C57.41,54.8,57.34,54.84,57.32,54.79Z"/><path class="cls-6" d="M56.74,37.61c-.56.79-1.12,1.6-1.66,2.41a.23.23,0,0,1,.07.07c.75,1.14,2.37,2.81,2.05,4.28S55.59,47.53,54.92,49a0,0,0,1,1-.07,0,28.81,28.81,0,0,0,1.39-3.8c.46-1.91-.67-3.21-1.52-4.77A.25.25,0,0,1,55,40c.46-.86.91-1.73,1.35-2.6a8.67,8.67,0,0,1,1-1.81c-.42-.76-1-1.48-1.45-2.19A7.29,7.29,0,0,1,54.47,31a.18.18,0,0,1,.3-.17,7.17,7.17,0,0,1,1.39,2.38c.38.77.74,1.58,1.19,2.32a2,2,0,0,1,.35-.3.21.21,0,0,1,.31.18C58,36.26,57.21,36.94,56.74,37.61Z"/><path class="cls-6" d="M56.18,26.73C55.61,27.89,55,29,54.54,30.2c0,0-.07,0-.06,0,.38-1.09.65-2.19.93-3.31.21-.86.29-2,1-2.54.15-.12.42-.1.46.12A3.64,3.64,0,0,1,56.18,26.73Z"/><path class="cls-6" d="M55.8,22.26a3.18,3.18,0,0,1-.68-1.39.11.11,0,0,1,.19-.08,3.29,3.29,0,0,1,.63,1.41c.12.33.24.66.38,1C56.15,22.87,56,22.56,55.8,22.26Z"/><path class="cls-6" d="M56.32,23.19c.11.22.22.45.31.68C56.52,23.65,56.41,23.42,56.32,23.19Z"/><path class="cls-6" d="M56.8,24.32c0-.15-.11-.3-.17-.45l.24.42S56.82,24.37,56.8,24.32Z"/><path class="cls-6" d="M55.82,18.57c-.12.34-.25.68-.39,1A8.13,8.13,0,0,1,55.82,18.57Z"/><path class="cls-6" d="M57.83,15.3c-.64,1.11-1.45,2.12-2,3.27a9,9,0,0,1,1.9-3.36A.07.07,0,0,1,57.83,15.3Z"/><path class="cls-6" d="M55.23,20.09c.07-.17.14-.34.2-.51a4.72,4.72,0,0,0-.13.54C55.29,20.17,55.2,20.14,55.23,20.09Z"/><path class="cls-6" d="M57.29,13a8.07,8.07,0,0,1,.4,1.17Z"/><path class="cls-6" d="M56.78,11.92c-.38-.7-1.06-1.32-1.17-2.13,0-.09.08-.21.18-.14a4,4,0,0,1,1.07,2c.16.43.29.86.43,1.29A9.56,9.56,0,0,0,56.78,11.92Z"/><path class="cls-6" d="M57.83,14.8a4.56,4.56,0,0,0-.14-.64c.08.21.14.42.22.62C57.93,14.82,57.84,14.85,57.83,14.8Z"/><path class="cls-6" d="M58.51,5.62c-.35.66-1.09,1.08-1.59,1.62a6.76,6.76,0,0,0-1.49,2.51h0A8.12,8.12,0,0,1,56.5,7.07c.42-.66,1-1.51,1.88-1.62C58.48,5.44,58.56,5.52,58.51,5.62Z"/><path class="cls-6" d="M30,10.93a2.58,2.58,0,0,1,.19-.37c-.08.12-.16.23-.25.34S30,11,30,10.93Z"/><path class="cls-6" d="M30.22,10.56l.05-.09Z"/><path class="cls-6" d="M31.62,8.55a.86.86,0,0,0,.05-.27.08.08,0,0,0-.12-.07c-.39.21-.53.68-.71,1.06s-.35.82-.57,1.2c.23-.38.54-.72.79-1.07a4.05,4.05,0,0,0,.53-.77,1.15,1.15,0,0,1,.14.17,2.72,2.72,0,0,1-.11-.25Z"/><path class="cls-6" d="M32,9.27a4.66,4.66,0,0,0-.3-.47A3.76,3.76,0,0,0,32,9.27Z"/><path class="cls-6" d="M32.38,9.73,32,9.27c.11.2.2.41.29.59s.24.69.54.9c.07,0,.14,0,.13-.11C32.94,10.28,32.6,10,32.38,9.73Z"/><path class="cls-6" d="M34.59,10.31a.44.44,0,0,0-.36-.2s0-.09-.07-.13a.61.61,0,0,0,.11-.47,4.42,4.42,0,0,0-1.11-1.77L33,7.58a.47.47,0,0,0,.21-.35c0-.57-.61-1.07-1-1.47a.33.33,0,0,0-.2-.12.33.33,0,0,0-.61-.17c-.32.56-.95,1.3-.74,2a6.72,6.72,0,0,0-.66,1.07,11.94,11.94,0,0,0-.56,1.27,1.75,1.75,0,0,0-.22.51l-.12.25a.21.21,0,0,0,.12.28s0,.06,0,.08a.37.37,0,0,0,.21.23,11.78,11.78,0,0,0,.62,1.56,4.93,4.93,0,0,0,1.27,1.92.09.09,0,0,0,0,.05A.41.41,0,0,0,32,15a3.47,3.47,0,0,0,1.13-1.81c.3-.34.59-.68.86-1.05C34.37,11.6,34.9,11,34.59,10.31Zm-2.12,1.45c-.09.35-.16.7-.23,1.05h0a0,0,0,0,0,0,0,1,1,0,0,1,0-.1,9.55,9.55,0,0,0,.5-2.3s-.06,0-.07,0a6.59,6.59,0,0,1-.62,2,4.11,4.11,0,0,0-.3-.29,3.61,3.61,0,0,0-.33-.35,3,3,0,0,1-.75-1.38s0,0,0,0c.13-.25.24-.53.34-.77s.18-.44.26-.67a6.67,6.67,0,0,0,.48-.7,6.59,6.59,0,0,1,.81,1.53c.11.27.2.56.33.83A7.48,7.48,0,0,0,32.47,11.76Z"/><path class="cls-6" d="M29.66,26.76s.05.11.07,0a2.27,2.27,0,0,1,.21-.41A2.57,2.57,0,0,1,29.66,26.76Z"/><path class="cls-6" d="M29.94,26.39l.18-.29A1.75,1.75,0,0,0,29.94,26.39Z"/><path class="cls-6" d="M31.8,25.91c-.29-.36-.56-.74-.84-1.11a1.39,1.39,0,0,0,.06-.13,0,0,0,0,0-.05,0l-.06.08-.05-.06s0,0,0,0a.43.43,0,0,0,0,.07,7.57,7.57,0,0,0-.77,1.36A8.65,8.65,0,0,0,31,24.83c.23.36.47.72.7,1.09a3,3,0,0,0,.69,1s.07,0,.06,0A3,3,0,0,0,31.8,25.91Z"/><path class="cls-6" d="M35,27.08c.12-.25.25-.5.38-.75,0,0,0-.09-.06,0s-.21.24-.31.37a.93.93,0,0,0-.12-.33.17.17,0,0,0-.12-.1,11.56,11.56,0,0,0-1.46-2.67,13.2,13.2,0,0,0-1.86-2.42c-.17-.17-.52,0-.43.25l0,.06a14.67,14.67,0,0,0-3.45,3.7.65.65,0,0,0-.1.76c.64,1,1.24,2.07,1.85,3.11A4.88,4.88,0,0,0,31,31.91a.61.61,0,0,0,1.11.37c.62-.94,1.19-1.92,1.76-2.9.19-.33.35-.67.52-1A3.64,3.64,0,0,0,35,27.08Zm-4.84-.43c.19-.21.37-.44.53-.63s.42-.59.61-.9a3.91,3.91,0,0,0,1.06,1.82.41.41,0,0,0,0,.11l0-.08,0,0-.15.34c0-.1.06-.19.08-.29a7,7,0,0,0-.24.69l.06-.13,0,.08a6.14,6.14,0,0,0-.3,1,1.16,1.16,0,0,0,0-.18,4.12,4.12,0,0,0,.32-.78l-.18.32a2.92,2.92,0,0,1-.21.28,3.82,3.82,0,0,0-.57-.63A8.24,8.24,0,0,1,30.14,26.65Z"/><path class="cls-6" d="M34.08,40.78a6.51,6.51,0,0,0-.51-.64c-.63-1.1-1.33-2.1-2-3.16a.07.07,0,0,0-.12.05l0,.13a.61.61,0,0,0-.76.39l-.05.15a7.1,7.1,0,0,0-1.64,2,.6.6,0,0,0,.05.61,9.69,9.69,0,0,0-1.12,1.78,6.89,6.89,0,0,0-.52.56l-.07.08,0,0h0a.48.48,0,0,0,0,.42.07.07,0,0,0,0,.06c0,1.15,1,2.14,1.58,3a11.62,11.62,0,0,0,2.18,3c.41.3.84-.2.78-.6a.43.43,0,0,0,.28-.26A12,12,0,0,0,33.65,46a11.22,11.22,0,0,0,1.17-2.32.5.5,0,0,0,.23-.28C35.33,42.49,34.55,41.47,34.08,40.78Zm-2.24,2.69-.28.22a3.13,3.13,0,0,0-.5.45,4.52,4.52,0,0,0-.62-.46,4.34,4.34,0,0,1-.68-.39s0-.08.07-.12h0a5,5,0,0,0,.58-.73c.19-.26.48-.84.77-1l.07,0A4.69,4.69,0,0,0,32,43.09C32,43.21,31.9,43.34,31.84,43.47Z"/><path class="cls-6" d="M34.55,57.06a.37.37,0,0,0-.29-.54A7.17,7.17,0,0,0,33,54.38a5.36,5.36,0,0,0-1.86-2,.22.22,0,0,0-.33.19v0a.14.14,0,0,0-.1.17c0,.1.05.2.08.3a.55.55,0,0,0-.61.16,8.34,8.34,0,0,0-1.39,2.26,7.66,7.66,0,0,0-.5,1.72.2.2,0,0,0-.17.29s0,0,0,0l-.49-.13a.27.27,0,0,0-.3.39c.19.36.36.73.54,1.09h0a9.12,9.12,0,0,0,.53,1.2,5.86,5.86,0,0,0,.54.74,5,5,0,0,0,1,1.28.6.6,0,0,0,.64.07.75.75,0,0,0,0,.21.3.3,0,0,0,.38.29c.92-.3,1.32-1.44,1.83-2.21.71-1.08,1.22-2.22,1.83-3.36a.08.08,0,0,0,0-.09Zm-4.67,1.31.09-.24,0-.05s0,.08.07,0a2.58,2.58,0,0,1,.13-.31,7.17,7.17,0,0,0,.46-.75c.09-.14.19-.27.27-.4s.15-.21.22-.31a1.87,1.87,0,0,0,.07.22.31.31,0,0,1,.05.1.53.53,0,0,1,0,.13,1.45,1.45,0,0,0,.25.83.55.55,0,0,0,.35.25,10.6,10.6,0,0,1-1,1.34s0,0,0,0c-.17-.13-.35-.23-.53-.35A1.71,1.71,0,0,1,29.88,58.37Z"/><path class="cls-6" d="M29.63,73.7a.21.21,0,0,0,0,.06A.21.21,0,0,1,29.63,73.7Z"/><path class="cls-6" d="M29.41,74.13a1.82,1.82,0,0,1,.18-.37,2.39,2.39,0,0,1-.25.33S29.39,74.19,29.41,74.13Z"/><path class="cls-6" d="M31.91,73.86A10.84,10.84,0,0,0,30.7,72.3s0,0,0-.06a2.43,2.43,0,0,0,0-.66s-.07-.08-.1,0-.32.22-.44.38a1.5,1.5,0,0,0-.2.57,4.13,4.13,0,0,1-.36,1.21,10.21,10.21,0,0,1,.84-1c.05-.07.11-.14.15-.21a9.23,9.23,0,0,0,.51,1.85C31.4,74.82,32.16,74.37,31.91,73.86Z"/><path class="cls-6" d="M33.58,72.4a1.5,1.5,0,0,0-.85-.38h0a3.07,3.07,0,0,0-.36-1.13c.16-.41-.28-1-.48-1.33a20.34,20.34,0,0,0-1.27-2.11.47.47,0,0,0-.72.09,1,1,0,0,0-.1.5c-.09,0-.18.1-.15.19.11.32.2.63.29,1a.62.62,0,0,0-.74.22c-.05.07-.08.14-.13.21a.3.3,0,0,0-.21,0c-.78.2-.79,1.21-.91,1.89a6.48,6.48,0,0,0-.06,1.15.5.5,0,0,0-.74.64q.39.77.81,1.5c0,.07-.06.13-.08.2-.09.24.19.39.38.31.12.2.23.4.35.59a7.76,7.76,0,0,0,1.29,1.8,2.87,2.87,0,0,0-.25.67.47.47,0,0,0,.78.45A8.52,8.52,0,0,0,32.1,76.4c.28-.45.58-.89.83-1.35a4.37,4.37,0,0,0,.27-.64.68.68,0,0,0,.43-.56.57.57,0,0,0,.32-.36A1.11,1.11,0,0,0,33.58,72.4Zm-2.1,1.65a8,8,0,0,0-.85,1.2,7.87,7.87,0,0,0-.74-.79,2.08,2.08,0,0,0,.69.87l0,.06c-.4-.41-.81-.8-1.21-1.21a19.29,19.29,0,0,0,1.45-1.89,15.93,15.93,0,0,0,.76,1.62h0Z"/><path class="cls-6" d="M29.89,74.46l-.05-.07Z"/><path class="cls-6" d="M29.61,74.11a1.56,1.56,0,0,1,.23.28.8.8,0,0,1-.16-.32C29.66,74,29.57,74.07,29.61,74.11Z"/><path class="cls-6" d="M33.48,86.26a.59.59,0,0,0,.1-.71A22.83,22.83,0,0,0,31,81.31c-.05-.06-.13,0-.11.07,0,.21.09.4.13.61a3.15,3.15,0,0,1-.27-.59c0-.06-.1,0-.07,0a3.76,3.76,0,0,1,.2.46c-.4-.24-1,0-.84.6a.56.56,0,0,0,0,.12.5.5,0,0,0-.65.56,9.75,9.75,0,0,0-1.38,2.35L28,85.6a1.83,1.83,0,0,0-.37.65.24.24,0,0,0,.21.3,2.11,2.11,0,0,0,0,.25c0,1.27,1.5,2.64,2.27,3.55a.41.41,0,0,0,.2.13.54.54,0,0,0,.9-.11l0,0a.56.56,0,0,0,.66-.32A13.55,13.55,0,0,0,33,87.43l0-.09a.66.66,0,0,0,0-.51l.21-.47A.65.65,0,0,0,33.48,86.26Zm-3.06.89-.27-.24c-.15-.12-.4-.25-.59-.39.16-.41.54-.49.83-.77l.16-.2a.44.44,0,0,1,.07.17c0,.15,0,.31,0,.46a1,1,0,0,0,.26.6A4.83,4.83,0,0,0,30.42,87.15Z"/><path class="cls-6" d="M44.48,11.59l.66.91A8.44,8.44,0,0,0,44.48,11.59Z"/><path class="cls-6" d="M50,7.94a14.71,14.71,0,0,0-1.68-2.4.33.33,0,0,0-.14-.1c-.12-.16-.24-.33-.37-.49s-.1,0-.08.06a.43.43,0,0,1,0,.07.07.07,0,0,0-.11,0,26.68,26.68,0,0,0-2.25,3.74c-.19.31-.36.61-.51.91s-.51.89-.8,1.32v0s-.11,0-.07.05l0,0-.14.22s0,.09.07,0a2.12,2.12,0,0,1,.11-.21,2.2,2.2,0,0,1,.2.23,18.22,18.22,0,0,1,1.21,2.84,6.72,6.72,0,0,0,1.37,2.59.33.33,0,0,0,.48,0,.16.16,0,0,0,.09,0,.27.27,0,0,0,.39-.06c.37-.56.72-1.13,1.08-1.7A9.85,9.85,0,0,0,51,11.59l.39-.63a1.83,1.83,0,0,1,.13.16c.14.14.43,0,.35-.2A14.61,14.61,0,0,0,50,7.94Zm-.25,4c-.13.14-.27.3-.44.52-.58.77-1.16,1.54-1.76,2.3-.5-.92-1.13-1.73-1.61-2.66A3,3,0,0,1,46,9.6a12.42,12.42,0,0,0,1.36-2.67.2.2,0,0,0,0-.13c.12-.28.22-.56.32-.85,0,0,0,0,0,.07h0a8.24,8.24,0,0,0,.77,1.43c.49,1,.94,2,1.41,3a2.68,2.68,0,0,1,.19.53A3.8,3.8,0,0,1,49.75,11.92Z"/><path class="cls-6" d="M50.81,26.91c-.1.23-.21.45-.32.67.13-.21.25-.43.39-.63C50.91,26.91,50.83,26.86,50.81,26.91Z"/><path class="cls-6" d="M49,30a10.23,10.23,0,0,0-1.55,2.72v0a32.74,32.74,0,0,1-3.28-5A24,24,0,0,0,47,33a.28.28,0,0,0,.48-.07.11.11,0,0,0,.14,0,9.59,9.59,0,0,0,1.51-2.8c.23-.47.46-1,.7-1.43Q49.47,29.38,49,30Z"/><path class="cls-6" d="M49.87,28.69c.22-.37.43-.74.62-1.11C50.27,27.94,50.07,28.31,49.87,28.69Z"/><path class="cls-6" d="M43.54,26.14a15.18,15.18,0,0,0,.66,1.56Z"/><path class="cls-6" d="M49.77,23.75c-.81-1.08-1.7-2.11-2.51-3.19-.06-.07-.19,0-.14.08l.08.14a.13.13,0,0,0-.1,0,46.9,46.9,0,0,0-3.68,4.94c-.05-.15-.1-.28-.14-.43s-.1,0-.07,0l.18.43-.19.28s0,0,0,0,.13-.15.2-.23l.12.29c0-.1-.07-.21-.1-.31A47,47,0,0,0,47.33,21c.59,1,1.14,2.11,1.74,3.14s1,2.12,2,2.63a.26.26,0,0,0,.39-.23C51.31,25.49,50.4,24.59,49.77,23.75Z"/><path class="cls-6" d="M50.8,43.7c-.48.93-.95,1.84-1.43,2.74A14,14,0,0,0,50.8,43.7Z"/><path class="cls-6" d="M51.14,44.24l-.47.63Z"/><path class="cls-6" d="M52,43.39c-1.26-2.4-3-4.54-4.46-6.83h0c.09-.21-.22-.36-.37-.22-1.91,1.93-3.14,4.8-4.44,7.16h0c1.63-2.12,3.71-4.34,4.75-6.83,1.2,2.13,2.21,4.4,3.52,6.47-.06.19-.13.37-.2.55l.25-.48.26.42c-.5.81-1,1.6-1.56,2.41-.23.29-.46.6-.67.9.09-.17.19-.34.29-.51a20.73,20.73,0,0,1-2,2.54c-.14-.26-.25-.52-.36-.78a.3.3,0,0,0,.12-.38,3.63,3.63,0,0,0-.48-.57l-.06-.13c0-.07-.09-.07-.15,0-.43-.38-.93-.72-1.33-1.09a16.47,16.47,0,0,1-2.15-2.42s0,0,0,0a24.15,24.15,0,0,0,1.77,2.59A7.69,7.69,0,0,0,46.37,48a4.2,4.2,0,0,0,.68,1.57.27.27,0,0,0,.46,0c.23-.34.44-.69.65-1a6.25,6.25,0,0,0-.24.6s0,0,0,0l0,0c-.08.15-.15.3-.22.45s0,.1.07.05a53.59,53.59,0,0,0,3.54-5.88v0s.05,0,.07.06-.19.29-.3.43l.34-.39A.35.35,0,0,0,52,43.39Z"/><path class="cls-6" d="M50.67,57.49c-.77,1-1.62,1.86-2.41,2.8A6.69,6.69,0,0,0,46.6,62.7c-.89-1.41-2-2.68-2.84-4.13.9,1.51,1.47,3.18,2.33,4.71a.38.38,0,0,0,.69-.27.1.1,0,0,0,.07,0c.86-.4,1.38-1.56,1.88-2.34.67-1,1.26-2.12,2-3.14Z"/><path class="cls-6" d="M43.66,58.41l.1.16A1.4,1.4,0,0,0,43.66,58.41Z"/><path class="cls-6" d="M49.47,54.92c-.81-.93-1.82-1.76-2.57-2.74v0c0-.06-.07-.11-.11-.06h0a33.84,33.84,0,0,0-2.08,2.94c-.6.91-1.56,2-1.62,3.1a.27.27,0,0,0,.4.23l.11-.08.06.1,0-.11a8.26,8.26,0,0,0,1.84-2.81,14.6,14.6,0,0,0,1.42-3.21c.77.94,1.35,2.07,2.06,3a6,6,0,0,0,1.93,2.05.12.12,0,0,0,.17-.13A6.06,6.06,0,0,0,49.47,54.92Z"/><path class="cls-6" d="M48.24,70.39a29.16,29.16,0,0,1-2-2.92l.27-.93a.11.11,0,0,0-.2-.08L46,67l0,0s-.1,0-.07,0l0,.07c-1.07,1.9-2.49,3.86-2.87,6a.11.11,0,0,0,.18.11c1.65-1.36,2.37-3.6,2.95-5.65.64,1,1.16,2.19,1.79,3.24a9.47,9.47,0,0,0,2,2.8c.12.09.31-.06.26-.2A13.58,13.58,0,0,0,48.24,70.39Z"/><path class="cls-6" d="M46,11.16a3.26,3.26,0,0,1,.18-.38,1.66,1.66,0,0,1-.25.34C45.84,11.17,45.93,11.22,46,11.16Z"/><path class="cls-6" d="M46.13,10.78l.06-.09Z"/><path class="cls-6" d="M47.53,8.78a.88.88,0,0,0,.06-.27.09.09,0,0,0-.13-.08c-.38.21-.52.69-.7,1.07s-.35.81-.57,1.19c.23-.37.53-.71.79-1.06a3.59,3.59,0,0,0,.52-.77,1.22,1.22,0,0,1,.15.17c0-.08-.09-.17-.12-.25Z"/><path class="cls-6" d="M48,9.5a4.66,4.66,0,0,0-.3-.47A2.66,2.66,0,0,0,48,9.5Z"/><path class="cls-6" d="M48.29,10c-.11-.14-.23-.3-.34-.46l.29.59c.15.32.23.69.54.89.07,0,.14,0,.13-.1C48.85,10.51,48.51,10.25,48.29,10Z"/><path class="cls-6" d="M50.5,10.54a.45.45,0,0,0-.36-.21.75.75,0,0,0-.07-.12.63.63,0,0,0,.11-.47A4.31,4.31,0,0,0,49.07,8c0-.06-.1-.1-.15-.16a.44.44,0,0,0,.21-.36c0-.57-.6-1.06-1-1.46a.29.29,0,0,0-.2-.12.33.33,0,0,0-.62-.17c-.31.56-1,1.3-.74,2A7.53,7.53,0,0,0,46,8.75c-.21.41-.38.84-.55,1.26a2.36,2.36,0,0,0-.23.52,1.89,1.89,0,0,1-.11.25.2.2,0,0,0,.11.28s0,0,0,.08a.43.43,0,0,0,.21.23A12.35,12.35,0,0,0,46,12.93a5,5,0,0,0,1.27,1.92s0,0,0,.05a.41.41,0,0,0,.61.35A3.43,3.43,0,0,0,49,13.44a12.18,12.18,0,0,0,.85-1C50.29,11.83,50.81,11.22,50.5,10.54ZM48.38,12c-.08.35-.15.7-.23,1h0s0,0,0,0a.31.31,0,0,0,0-.1,9.57,9.57,0,0,0,.51-2.3,0,0,0,0,0-.07,0,6.89,6.89,0,0,1-.63,2,4,4,0,0,0-.29-.29L47.29,12a3.08,3.08,0,0,1-.75-1.38v0c.13-.26.23-.53.34-.77a5.54,5.54,0,0,0,.25-.68,5.71,5.71,0,0,0,.49-.69,6.36,6.36,0,0,1,.8,1.53c.11.27.21.56.34.82A9.4,9.4,0,0,0,48.38,12Z"/><path class="cls-6" d="M45.58,27a0,0,0,1,0,.07,0,2.6,2.6,0,0,1,.2-.41A2,2,0,0,1,45.58,27Z"/><path class="cls-6" d="M45.85,26.62c.06-.1.13-.19.18-.29A2.82,2.82,0,0,0,45.85,26.62Z"/><path class="cls-6" d="M47.71,26.14c-.28-.37-.56-.74-.83-1.12l.06-.13s0,0,0,0,0,.05-.07.08l0-.06s0,0,0,0l.05.07A7.28,7.28,0,0,0,46,26.33a7.91,7.91,0,0,0,.83-1.27c.24.36.48.72.7,1.09a3.21,3.21,0,0,0,.7,1s.06,0,.05-.05A2.86,2.86,0,0,0,47.71,26.14Z"/><path class="cls-6" d="M50.9,27.31c.12-.25.24-.51.38-.75,0,0,0-.09-.06,0l-.31.36a1.46,1.46,0,0,0-.12-.33.23.23,0,0,0-.12-.1,12.53,12.53,0,0,0-1.46-2.66,13.66,13.66,0,0,0-1.86-2.42c-.18-.17-.52,0-.43.25,0,0,0,0,0,.06a14.41,14.41,0,0,0-3.44,3.69.65.65,0,0,0-.1.77c.63,1,1.24,2.07,1.84,3.11a4.94,4.94,0,0,0,1.66,2.9.61.61,0,0,0,1.11.37c.63-.95,1.2-1.92,1.76-2.9.19-.33.36-.67.52-1A3.81,3.81,0,0,0,50.9,27.31Zm-4.85-.43a7.16,7.16,0,0,0,.53-.64,9.31,9.31,0,0,0,.61-.89,4,4,0,0,0,1.06,1.82.41.41,0,0,1,0,.11s0-.05,0-.08l0,0c-.05.11-.1.22-.14.33a1.43,1.43,0,0,0,.07-.28c-.09.21-.16.45-.24.69a.84.84,0,0,0,.06-.14l0,.09a6.39,6.39,0,0,0-.31,1,1,1,0,0,0,0-.17A4.09,4.09,0,0,0,48,28l-.18.32a1.86,1.86,0,0,1-.21.28,3.42,3.42,0,0,0-.57-.63A9.94,9.94,0,0,1,46.05,26.88Z"/><path class="cls-6" d="M50,41a6.51,6.51,0,0,0-.51-.64c-.63-1.1-1.33-2.1-2-3.16a.07.07,0,0,0-.12,0l0,.13a.61.61,0,0,0-.76.38,1,1,0,0,0-.06.16,6.9,6.9,0,0,0-1.63,2,.57.57,0,0,0,.05.61,8.46,8.46,0,0,0-1.12,1.78,4.6,4.6,0,0,0-.52.56.27.27,0,0,0-.07.08l0,0h0a.48.48,0,0,0,0,.42.07.07,0,0,0,0,.06c0,1.14,1,2.14,1.59,3a11.62,11.62,0,0,0,2.18,3c.41.3.84-.2.77-.6a.44.44,0,0,0,.29-.26,12.46,12.46,0,0,0,1.55-2.46,11.7,11.7,0,0,0,1.16-2.32.51.51,0,0,0,.24-.28C51.24,42.71,50.47,41.7,50,41Zm-2.24,2.68-.28.23a3.57,3.57,0,0,0-.5.45,3.12,3.12,0,0,0-.62-.46,3.6,3.6,0,0,1-.67-.4l.06-.11h0a6.88,6.88,0,0,0,.58-.73c.19-.26.48-.85.76-1l.07,0a4.76,4.76,0,0,0,.76,1.65Z"/><path class="cls-6" d="M50.46,57.29a.37.37,0,0,0-.29-.54,6.86,6.86,0,0,0-1.31-2.14,5.34,5.34,0,0,0-1.85-2,.22.22,0,0,0-.34.19s0,0,0,0a.16.16,0,0,0-.11.17c0,.1.06.2.08.3a.54.54,0,0,0-.61.16,8.87,8.87,0,0,0-1.39,2.26,7.49,7.49,0,0,0-.49,1.72.2.2,0,0,0-.18.29l0,0a3.8,3.8,0,0,0-.49-.13.27.27,0,0,0-.31.39c.19.36.37.72.54,1.09h0a8.45,8.45,0,0,0,.53,1.19,4.63,4.63,0,0,0,.54.75,5.2,5.2,0,0,0,1,1.28.58.58,0,0,0,.64.06,1.8,1.8,0,0,0,0,.22.3.3,0,0,0,.39.29c.91-.3,1.32-1.44,1.82-2.21.71-1.08,1.22-2.23,1.84-3.36a.1.1,0,0,0,0-.09ZM45.79,58.6a2.44,2.44,0,0,0,.1-.24l0,0a0,0,0,1,0,.07,0,2,2,0,0,1,.13-.31q.24-.36.45-.75l.28-.4a3.46,3.46,0,0,1,.22-.31,1.72,1.72,0,0,0,.07.21.54.54,0,0,0,.05.11s0,.08,0,.13a1.44,1.44,0,0,0,.24.83.57.57,0,0,0,.36.25,11.47,11.47,0,0,1-1,1.34s0,0,0,0a5.91,5.91,0,0,0-.52-.35A1.92,1.92,0,0,1,45.79,58.6Z"/><path class="cls-6" d="M45.54,73.92l0,.06Z"/><path class="cls-6" d="M45.32,74.35a2.58,2.58,0,0,1,.19-.37,2,2,0,0,1-.25.34S45.3,74.42,45.32,74.35Z"/><path class="cls-6" d="M47.82,74.08a10,10,0,0,0-1.21-1.55l0-.06a2.43,2.43,0,0,0,0-.66.06.06,0,0,0-.1,0c-.13.14-.32.22-.43.38a1.44,1.44,0,0,0-.2.57,4.3,4.3,0,0,1-.37,1.2c.24-.37.56-.67.84-1l.16-.21a8.61,8.61,0,0,0,.51,1.85C47.31,75.05,48.07,74.6,47.82,74.08Z"/><path class="cls-6" d="M49.5,72.63a1.47,1.47,0,0,0-.85-.38h0a3.07,3.07,0,0,0-.36-1.13c.15-.41-.28-1-.48-1.33a18.81,18.81,0,0,0-1.28-2.11.46.46,0,0,0-.71.09,1.16,1.16,0,0,0-.11.5c-.09,0-.18.1-.14.19.1.32.2.63.29,1a.62.62,0,0,0-.75.22l-.12.21a.31.31,0,0,0-.21,0C44,70,44,71,43.87,71.69a5.66,5.66,0,0,0-.06,1.15.5.5,0,0,0-.75.64c.26.5.54,1,.82,1.5l-.09.2c-.09.24.19.39.39.31.11.2.22.4.35.59a7.73,7.73,0,0,0,1.28,1.8,4.17,4.17,0,0,0-.25.67.47.47,0,0,0,.79.45A8.89,8.89,0,0,0,48,76.63c.28-.45.58-.89.83-1.35a5.82,5.82,0,0,0,.27-.64.7.7,0,0,0,.43-.56.61.61,0,0,0,.31-.37A1.07,1.07,0,0,0,49.5,72.63Zm-2.11,1.64a8.57,8.57,0,0,0-.85,1.21,6.86,6.86,0,0,0-.74-.79,2.08,2.08,0,0,0,.7.87l0,0-1.22-1.2a19,19,0,0,0,1.46-1.89,13.16,13.16,0,0,0,.76,1.61v0Z"/><path class="cls-6" d="M45.8,74.69a.43.43,0,0,1,0-.07A.43.43,0,0,0,45.8,74.69Z"/><path class="cls-6" d="M45.53,74.34a1.56,1.56,0,0,1,.23.28.8.8,0,0,1-.16-.32C45.58,74.24,45.48,74.29,45.53,74.34Z"/><path class="cls-6" d="M49.4,86.49a.59.59,0,0,0,.09-.71A22.47,22.47,0,0,0,47,81.54c-.05-.06-.13,0-.12.07s.09.4.14.6a2.55,2.55,0,0,1-.27-.58,0,0,0,1,0-.07,0,3.76,3.76,0,0,1,.2.46c-.4-.24-1,0-.85.59,0,.05,0,.09.05.13a.5.5,0,0,0-.65.56A9.26,9.26,0,0,0,44,85.75l-.08.08a1.83,1.83,0,0,0-.37.65.25.25,0,0,0,.22.3,2.13,2.13,0,0,0,0,.25c0,1.27,1.5,2.63,2.28,3.55a.43.43,0,0,0,.19.13.56.56,0,0,0,.91-.11v0a.57.57,0,0,0,.66-.32A13.58,13.58,0,0,0,49,87.66l0-.09a.66.66,0,0,0,0-.51l.21-.47Zm-3.06.89-.28-.24c-.14-.12-.4-.25-.58-.39.15-.41.54-.49.82-.78a1.63,1.63,0,0,0,.17-.2.48.48,0,0,1,.06.18c0,.15,0,.31,0,.46a1,1,0,0,0,.27.6A3.92,3.92,0,0,0,46.34,87.38Z"/><path class="cls-6" d="M60.87,12.32l.66.91C61.32,12.91,61.1,12.61,60.87,12.32Z"/><path class="cls-6" d="M66.38,8.68A13.81,13.81,0,0,0,64.7,6.27a.31.31,0,0,0-.13-.1c-.13-.16-.24-.33-.37-.49s-.1,0-.08.06l0,.07a.07.07,0,0,0-.11,0A27.27,27.27,0,0,0,61.8,9.55c-.19.31-.36.61-.51.92s-.51.88-.8,1.31l0,0s-.1,0-.06,0l0,0-.15.22s.05.08.07,0l.12-.22.2.23A18.22,18.22,0,0,1,61.9,15a6.83,6.83,0,0,0,1.37,2.6.33.33,0,0,0,.47,0l.1,0a.26.26,0,0,0,.38-.06c.37-.56.73-1.13,1.08-1.7a9.88,9.88,0,0,0,2.12-3.41l.39-.62.13.15c.14.14.43,0,.35-.2A14.59,14.59,0,0,0,66.38,8.68Zm-.25,4c-.12.14-.27.3-.43.52-.59.77-1.17,1.54-1.76,2.3-.5-.91-1.13-1.73-1.61-2.66a3,3,0,0,1,0-2.48,12.58,12.58,0,0,0,1.36-2.66.23.23,0,0,0,0-.14c.12-.28.21-.56.31-.84l0,.06h0a7.61,7.61,0,0,0,.77,1.43c.49,1,.93,2,1.41,3a2.53,2.53,0,0,1,.19.54A3.51,3.51,0,0,1,66.13,12.65Z"/><path class="cls-6" d="M67.2,27.64c-.1.23-.21.45-.32.67q.18-.31.39-.63S67.22,27.6,67.2,27.64Z"/><path class="cls-6" d="M65.42,30.77a10,10,0,0,0-1.55,2.73s0,0,0,0a34,34,0,0,1-3.27-5,24.36,24.36,0,0,0,2.83,5.3.28.28,0,0,0,.48-.07.11.11,0,0,0,.15,0,9.77,9.77,0,0,0,1.51-2.79c.23-.48.46-1,.7-1.44Q65.85,30.11,65.42,30.77Z"/><path class="cls-6" d="M66.26,29.42c.22-.36.42-.73.62-1.11C66.66,28.67,66.46,29,66.26,29.42Z"/><path class="cls-6" d="M59.93,26.87a13.51,13.51,0,0,0,.66,1.56Z"/><path class="cls-6" d="M66.16,24.48c-.81-1.08-1.7-2.1-2.52-3.18,0-.08-.18,0-.13.07l.08.14a.13.13,0,0,0-.1,0,47,47,0,0,0-3.69,4.94c0-.14-.09-.28-.13-.43s-.1,0-.08,0,.13.29.19.44l-.19.27s0,0,0,0a2.2,2.2,0,0,0,.2-.23c.05.1.09.2.13.29,0-.1-.07-.21-.1-.31a49.44,49.44,0,0,0,3.89-4.8c.59,1,1.14,2.1,1.74,3.13s1,2.12,2,2.63c.15.09.41,0,.39-.22C67.7,26.22,66.79,25.32,66.16,24.48Z"/><path class="cls-6" d="M67.19,44.44c-.48.92-1,1.83-1.44,2.73A14.31,14.31,0,0,0,67.19,44.44Z"/><path class="cls-6" d="M67.53,45c-.16.2-.32.41-.47.62C67.22,45.39,67.38,45.19,67.53,45Z"/><path class="cls-6" d="M68.38,44.12c-1.26-2.39-3-4.54-4.46-6.82h0c.08-.21-.23-.36-.37-.21-1.92,1.93-3.15,4.79-4.44,7.15,0,0,0,0,0,0,1.63-2.12,3.71-4.34,4.74-6.83,1.2,2.13,2.22,4.41,3.53,6.47-.06.19-.13.37-.2.56.08-.16.16-.32.25-.48l.25.41c-.49.81-1,1.6-1.55,2.41-.23.3-.46.6-.68.91l.29-.52a19.77,19.77,0,0,1-2,2.54,6.78,6.78,0,0,1-.36-.78.28.28,0,0,0,.11-.37A2.6,2.6,0,0,0,63,48l0-.14a.1.1,0,0,0-.15,0c-.44-.38-.93-.72-1.34-1.09a17,17,0,0,1-2.14-2.42s0,0,0,0a26.85,26.85,0,0,0,1.78,2.58,7.89,7.89,0,0,0,1.69,1.82,4.55,4.55,0,0,0,.69,1.57.27.27,0,0,0,.46,0c.23-.35.44-.7.65-1-.09.2-.18.4-.25.6,0,0,0,0,0,0l0,0c-.08.15-.15.3-.22.45s0,.1.07.06a54.55,54.55,0,0,0,3.54-5.88v0a.46.46,0,0,0,.07.07l-.3.43.33-.4A.36.36,0,0,0,68.38,44.12Z"/><path class="cls-6" d="M67.06,58.23c-.77,1-1.62,1.85-2.41,2.79A6.77,6.77,0,0,0,63,63.43c-.9-1.41-2-2.68-2.84-4.13.89,1.51,1.47,3.18,2.33,4.72a.38.38,0,0,0,.69-.28h.07c.85-.41,1.38-1.57,1.88-2.35.67-1,1.26-2.12,2-3.14C67.08,58.23,67.07,58.22,67.06,58.23Z"/><path class="cls-6" d="M60.05,59.14c0,.06.07.11.1.16A.86.86,0,0,1,60.05,59.14Z"/><path class="cls-6" d="M65.86,55.65c-.82-.93-1.82-1.76-2.57-2.73v0c0-.06-.07-.12-.11-.07h0c-.76.94-1.43,1.94-2.09,2.94s-1.55,2-1.61,3.11a.27.27,0,0,0,.4.23L60,59l.06.1s0-.07,0-.1a8.3,8.3,0,0,0,1.84-2.82A14.4,14.4,0,0,0,63.26,53c.77.94,1.35,2.08,2.06,3.06a6.09,6.09,0,0,0,1.93,2,.12.12,0,0,0,.17-.13A6.06,6.06,0,0,0,65.86,55.65Z"/><path class="cls-6" d="M64.63,71.12a30.21,30.21,0,0,1-2-2.91l.27-.94c0-.11-.15-.19-.2-.08l-.31.56,0,0s-.1,0-.07,0a.25.25,0,0,1,0,.07c-1.07,1.9-2.49,3.86-2.86,6a.11.11,0,0,0,.18.1c1.65-1.36,2.37-3.6,2.95-5.65.64,1,1.16,2.19,1.79,3.24a9.35,9.35,0,0,0,2,2.8c.12.1.31-.06.26-.19A14,14,0,0,0,64.63,71.12Z"/><path class="cls-6" d="M62.34,11.9a2.22,2.22,0,0,1,.18-.38,2,2,0,0,1-.25.34S62.32,12,62.34,11.9Z"/><path class="cls-6" d="M62.52,11.52l.06-.09Z"/><path class="cls-6" d="M63.92,9.51A.88.88,0,0,0,64,9.24a.08.08,0,0,0-.13-.07c-.38.21-.52.68-.71,1.06s-.34.82-.56,1.2c.23-.38.53-.72.79-1.07a4,4,0,0,0,.52-.77l.15.18a1.51,1.51,0,0,1-.12-.26Z"/><path class="cls-6" d="M64.33,10.23A3.58,3.58,0,0,0,64,9.77,3.21,3.21,0,0,0,64.33,10.23Z"/><path class="cls-6" d="M64.68,10.69l-.35-.46c.11.2.21.41.3.59a2,2,0,0,0,.53.9c.08,0,.15,0,.14-.11C65.24,11.24,64.9,11,64.68,10.69Z"/><path class="cls-6" d="M66.89,11.28a.42.42,0,0,0-.36-.21c0-.05,0-.09-.07-.13a.61.61,0,0,0,.11-.47A4.42,4.42,0,0,0,65.46,8.7l-.15-.16a.44.44,0,0,0,.21-.35c0-.57-.6-1.07-1-1.47a.39.39,0,0,0-.2-.12.33.33,0,0,0-.62-.17c-.31.56-1,1.3-.74,2a7.53,7.53,0,0,0-.66,1.07c-.22.41-.38.84-.56,1.27a2.07,2.07,0,0,0-.22.51c0,.09-.07.17-.11.25a.2.2,0,0,0,.11.28s0,.06,0,.08a.4.4,0,0,0,.21.23,11.78,11.78,0,0,0,.62,1.56,5,5,0,0,0,1.27,1.92s0,0,0,.05a.41.41,0,0,0,.61.35,3.35,3.35,0,0,0,1.13-1.81,12.3,12.3,0,0,0,.86-1.05C66.67,12.56,67.2,12,66.89,11.28Zm-2.12,1.44c-.09.35-.16.7-.23,1.06h0s0-.07-.05-.11a10.07,10.07,0,0,0,.51-2.3s-.07,0-.07,0a6.89,6.89,0,0,1-.63,2,2.76,2.76,0,0,0-.3-.29c-.1-.12-.21-.23-.33-.35a3.12,3.12,0,0,1-.75-1.38v0c.14-.25.24-.53.35-.77a5.4,5.4,0,0,0,.25-.67,6.76,6.76,0,0,0,.49-.7,7,7,0,0,1,.8,1.53c.11.28.21.56.34.83A8.78,8.78,0,0,0,64.77,12.72Z"/><path class="cls-6" d="M62,27.72c0,.05,0,.11.06,0a2.65,2.65,0,0,1,.21-.41A2.51,2.51,0,0,1,62,27.72Z"/><path class="cls-6" d="M62.24,27.35l.18-.29A2.82,2.82,0,0,0,62.24,27.35Z"/><path class="cls-6" d="M64.1,26.87c-.29-.36-.56-.74-.83-1.11,0-.05,0-.09,0-.13s0-.05,0,0l-.07.08,0-.06s0,0,0,0l.05.07a7,7,0,0,0-.78,1.36,7.91,7.91,0,0,0,.83-1.27c.24.36.48.72.7,1.09a2.94,2.94,0,0,0,.7,1s.06,0,0,0A2.8,2.8,0,0,0,64.1,26.87Z"/><path class="cls-6" d="M67.29,28c.12-.25.24-.5.38-.75,0,0,0-.09-.07-.05s-.2.25-.31.37a1.07,1.07,0,0,0-.11-.33.21.21,0,0,0-.13-.1,11.56,11.56,0,0,0-1.46-2.67,13.15,13.15,0,0,0-1.85-2.42c-.18-.17-.52,0-.43.25a.14.14,0,0,0,0,.06,14.67,14.67,0,0,0-3.45,3.7.65.65,0,0,0-.09.76c.63,1,1.24,2.07,1.84,3.11a4.94,4.94,0,0,0,1.66,2.9.61.61,0,0,0,1.11.37c.63-.94,1.2-1.92,1.76-2.9.19-.33.36-.67.52-1A3.85,3.85,0,0,0,67.29,28Zm-4.85-.43A7.1,7.1,0,0,0,63,27c.22-.29.42-.59.61-.9a4,4,0,0,0,1.06,1.82.37.37,0,0,1,0,.11l0-.08,0,0c0,.12-.1.22-.14.34a1.53,1.53,0,0,0,.07-.29c-.09.22-.16.45-.24.69l.06-.13a.36.36,0,0,1,0,.09,7.17,7.17,0,0,0-.3,1,.58.58,0,0,0,0-.18,4.12,4.12,0,0,0,.32-.78l-.18.32a1.86,1.86,0,0,1-.21.28,3.42,3.42,0,0,0-.57-.63A9,9,0,0,1,62.44,27.61Z"/><path class="cls-6" d="M66.38,41.74a6.51,6.51,0,0,0-.51-.64c-.63-1.1-1.33-2.1-2-3.16a.06.06,0,0,0-.11.05.51.51,0,0,0,0,.13.61.61,0,0,0-.76.39c0,.05,0,.1,0,.15a6.9,6.9,0,0,0-1.63,2,.55.55,0,0,0,.05.61,9.23,9.23,0,0,0-1.13,1.78c-.18.18-.35.36-.52.56l-.06.08,0,0h0a.48.48,0,0,0,0,.42.07.07,0,0,0,0,.06c0,1.15,1,2.14,1.58,3a11.43,11.43,0,0,0,2.19,3c.41.3.83-.2.77-.59a.51.51,0,0,0,.29-.27A12.18,12.18,0,0,0,66,46.93a11.55,11.55,0,0,0,1.17-2.33.5.5,0,0,0,.23-.28C67.63,43.45,66.86,42.43,66.38,41.74Zm-2.24,2.69-.28.22a3.13,3.13,0,0,0-.5.45,4.52,4.52,0,0,0-.62-.46,4,4,0,0,1-.68-.39.75.75,0,0,0,.07-.12h0a5.73,5.73,0,0,0,.57-.73c.19-.26.49-.84.77-1l.07,0a4.54,4.54,0,0,0,.76,1.64Z"/><path class="cls-6" d="M66.85,58a.37.37,0,0,0-.29-.54,7.17,7.17,0,0,0-1.31-2.14,5.28,5.28,0,0,0-1.86-2,.23.23,0,0,0-.33.19s0,0,0,0a.15.15,0,0,0-.11.17c0,.1.06.2.08.3a.55.55,0,0,0-.61.16A8.77,8.77,0,0,0,61,56.5a7.15,7.15,0,0,0-.49,1.72.2.2,0,0,0-.18.29l0,0-.49-.13a.27.27,0,0,0-.3.4c.19.35.36.72.54,1.08h0a8,8,0,0,0,.53,1.2,4.38,4.38,0,0,0,.54.74,5,5,0,0,0,1,1.28.6.6,0,0,0,.64.07,1.49,1.49,0,0,0,0,.21.31.31,0,0,0,.38.3c.92-.31,1.33-1.45,1.83-2.22.71-1.08,1.22-2.22,1.83-3.36a.08.08,0,0,0,0-.09Zm-4.67,1.31.1-.24,0-.05s.06.08.07,0a2.73,2.73,0,0,1,.14-.31q.24-.36.45-.75c.1-.14.19-.27.27-.4l.22-.31a2,2,0,0,0,.08.22.93.93,0,0,0,.05.1s0,.08,0,.13a1.44,1.44,0,0,0,.24.83.58.58,0,0,0,.35.25,9.72,9.72,0,0,1-1,1.34s0,0,0,0a4.79,4.79,0,0,0-.53-.34A1.92,1.92,0,0,1,62.18,59.33Z"/><path class="cls-6" d="M61.93,74.66a.21.21,0,0,1,0,.06A.21.21,0,0,0,61.93,74.66Z"/><path class="cls-6" d="M61.71,75.09a1.82,1.82,0,0,1,.18-.37,1.72,1.72,0,0,1-.24.33S61.69,75.15,61.71,75.09Z"/><path class="cls-6" d="M64.21,74.82A9.58,9.58,0,0,0,63,73.26l0-.06a2.43,2.43,0,0,0,0-.66c0-.05-.07-.08-.1,0s-.32.22-.43.38a1.35,1.35,0,0,0-.2.57,4.48,4.48,0,0,1-.37,1.21,11.8,11.8,0,0,1,.84-1l.16-.21a8.61,8.61,0,0,0,.51,1.85C63.7,75.78,64.46,75.33,64.21,74.82Z"/><path class="cls-6" d="M65.88,73.36A1.48,1.48,0,0,0,65,73h0a3.33,3.33,0,0,0-.36-1.13c.15-.41-.28-1-.49-1.33a18.73,18.73,0,0,0-1.27-2.11.46.46,0,0,0-.71.09,1.06,1.06,0,0,0-.11.5.17.17,0,0,0-.15.2c.11.31.2.63.29.94a.62.62,0,0,0-.74.22,2.25,2.25,0,0,0-.12.21.31.31,0,0,0-.21,0c-.79.2-.8,1.22-.91,1.9a6.35,6.35,0,0,0-.07,1.14.5.5,0,0,0-.74.64q.39.77.81,1.5a1.67,1.67,0,0,1-.08.2c-.09.24.19.39.39.32.11.19.22.39.34.58a7.76,7.76,0,0,0,1.29,1.8,3.4,3.4,0,0,0-.25.67.47.47,0,0,0,.78.46,8.76,8.76,0,0,0,1.68-2.38c.28-.45.57-.89.83-1.35a5.11,5.11,0,0,0,.27-.64.67.67,0,0,0,.42-.56.57.57,0,0,0,.32-.36A1.07,1.07,0,0,0,65.88,73.36ZM63.78,75a8,8,0,0,0-.85,1.2,7.87,7.87,0,0,0-.74-.79,2.08,2.08,0,0,0,.69.87l0,.06c-.4-.41-.81-.8-1.21-1.21a17.85,17.85,0,0,0,1.45-1.89,14.11,14.11,0,0,0,.77,1.62h0Z"/><path class="cls-6" d="M62.19,75.42l0-.06A.21.21,0,0,0,62.19,75.42Z"/><path class="cls-6" d="M61.92,75.07a1.34,1.34,0,0,1,.23.29A1.14,1.14,0,0,1,62,75C62,75,61.87,75,61.92,75.07Z"/><path class="cls-6" d="M65.79,87.22a.59.59,0,0,0,.09-.7,22.54,22.54,0,0,0-2.54-4.25c-.05-.06-.13,0-.12.07s.09.4.13.61a3.11,3.11,0,0,1-.26-.59c0-.06-.1,0-.08,0a2.07,2.07,0,0,1,.2.46c-.39-.24-1,.05-.84.6a.56.56,0,0,1,0,.12.5.5,0,0,0-.64.56,9.35,9.35,0,0,0-1.39,2.36l-.07.07a1.83,1.83,0,0,0-.37.65.25.25,0,0,0,.22.3,2.42,2.42,0,0,0,0,.25c0,1.27,1.5,2.64,2.27,3.55a.46.46,0,0,0,.2.13.55.55,0,0,0,.91-.11v0a.56.56,0,0,0,.66-.32,14.23,14.23,0,0,0,1.16-2.59.36.36,0,0,1,0-.09.66.66,0,0,0,0-.51l.21-.47A1,1,0,0,0,65.79,87.22Zm-3.07.9a3.2,3.2,0,0,0-.27-.25c-.15-.12-.4-.25-.59-.39.16-.41.54-.49.83-.77.06-.07.12-.13.17-.2a.43.43,0,0,1,.06.17c0,.15,0,.31,0,.46a.93.93,0,0,0,.27.6A3.86,3.86,0,0,0,62.72,88.12Z"/><path class="cls-6" d="M22.73,26.05c0-2.93-.11-5.86-.19-8.8-.05,2.81-.12,5.61-.12,8.4,0,7.27-.07,14.53-.07,21.8q0,21.6.19,43.2a.24.24,0,0,0,.48,0q0-21.6-.09-43.2C22.9,40.31,22.78,33.18,22.73,26.05Z"/><path class="cls-6" d="M22.57,7q.32,4.18.38,8.38a0,0,0,0,0,.08,0C23,12,22.8,8.64,22.51,5.29c0-.35,0-.7,0-1,0-.06-.09-.06-.08,0l0,1c0-.32-.05-.64-.08-1a0,0,0,1,0-.08,0c.06.57.1,1.15.15,1.72-.11,3.75,0,7.52.05,11.28C22.61,13.83,22.66,10.4,22.57,7Z"/><path class="cls-6" d="M71,47c-.12-14.29.09-28.63-.55-42.91,0-.07-.11-.07-.12,0-.36,14.29.13,28.62.28,42.91s.37,28.61.09,42.9a.52.52,0,0,0,1,0C71.19,75.63,71.14,61.3,71,47Z"/><path class="cls-6" d="M73.63,80c0-.11,0-.22,0-.34-.08-2.31-.16-4.61-.23-6.92l.21.53c0-.11,0-.23,0-.36s-.17-.3-.24-.45c0-1.29-.09-2.58-.13-3.86-.22-7.12-.42-14.24-.46-21.35s0-14.24-.05-21.36c-.06-7.38.16-14.77-.18-22.14a0,0,0,1,0,0,0c-.62,7.35-.56,14.77-.65,22.14-.09,7.13,0,14.23.19,21.36s.28,14.23.5,21.35q.16,5.53.4,11.06c.08,1.85.18,3.69.25,5.54.06,1.59-.19,3.27.38,4.78a.15.15,0,0,0,.28,0,5.79,5.79,0,0,0,.13-.68A38.63,38.63,0,0,1,73.63,80Z"/><path class="cls-6" d="M69.09,25.31c0-2.92-.11-5.86-.18-8.79-.06,2.8-.12,5.6-.13,8.39,0,7.27-.07,14.53-.06,21.8q0,21.61.19,43.21a.24.24,0,0,0,.47,0q0-21.61-.09-43.21C69.26,39.58,69.14,32.44,69.09,25.31Z"/><path class="cls-6" d="M68.93,6.25q.31,4.18.38,8.38s.09,0,.08,0c0-3.37-.23-6.73-.52-10.08,0-.35,0-.7,0-1,0,0-.09,0-.08,0,0,.32,0,.64,0,1,0-.32-.05-.64-.08-1,0,0-.09,0-.08,0,.05.57.09,1.15.14,1.72-.11,3.75,0,7.52.06,11.29C69,13.09,69,9.66,68.93,6.25Z"/><path class="cls-6" d="M52.14,30.5c.12.16.22.34.33.52-.08-.18-.18-.37-.26-.56S52.11,30.45,52.14,30.5Z"/><path class="cls-6" d="M55.23,35c-.65-1.73-2.2-2.93-2.83-4.7a0,0,0,1,0-.07,0,11,11,0,0,1,.87,2c-.23-.43-.47-.85-.73-1.26.25.52.53,1,.82,1.52a7.93,7.93,0,0,0,1.43,2.73A.31.31,0,0,0,55.23,35Z"/></g></g><g id="Camada_3" data-name="Camada 3"><path class="cls-7" d="M22.42,88A110.92,110.92,0,0,1,71.61,70.35c2.15-.23,4.84-.13,5.82,1.81,1.25,2.44-1.45,5-3.85,6.32a84.48,84.48,0,0,1-54.51,9.3,3,3,0,0,1-1.22-.39c-1.13-.78-.76-2.51-.25-3.78q3.3-8.25,7.28-16.21c2.21-4.42,4.6-8.84,5.7-13.66s.78-10.23-2.12-14.25c-1.24-1.73-3-3.31-3.22-5.43-.2-1.85.84-3.7.48-5.52S23.5,25,24,23.1s2.91-2.45,4.87-2.83a25.1,25.1,0,0,0,14.21-8.33c4.55,1.68,6.72,4.37,11.19,2.51,1-.42,2.11-1.09,2.27-2.17.25-1.72-2-2.7-3.7-2.74a14,14,0,0,0-11.14,5.3"/><path class="cls-7" d="M56.51,12.28c-1.38,2.52,1.44,3.57,4,4.82s5.58,1.4,8.21,2.55,5,4.07,3.88,6.73c-.78,1.93-3.18,3.36-2.77,5.4.2,1,1.06,1.72,1.51,2.64,1,2-.12,4.4-1.6,6s-3.38,3-4.44,4.92c-2.58,4.73.89,10.43,4.54,14.4s8.67,9.39,7.89,14.72"/></g></svg>