<svg xmlns="http://www.w3.org/2000/svg" viewBox="0 0 97.28 94.22"><defs><style>.cls-1{opacity:0.33;}.cls-2{fill:#2ca8c4;}.cls-3{fill:#1e90b3;}.cls-4{fill:#663717;}.cls-5{fill:#834c20;}.cls-6{fill:#5deded;}.cls-7{fill:#57d0dd;}.cls-8{fill:#3cb9ce;}.cls-9{fill:none;stroke:#000;stroke-linecap:round;stroke-linejoin:round;stroke-width:0.25px;}</style></defs><title>Prancheta 1 cópia 16ldpi</title><g id="Camada_2" data-name="Camada 2"><path class="cls-2" d="M43.16,30.68a32.69,32.69,0,0,0,.23,14c1.56,7.46,5.09,14.94,11.51,19,7.06,4.5,16.8,3.92,23.69-.83S89.46,49.69,89.44,41.32s-3.78-16.53-9.61-22.54C67.66,6.24,47,14.36,43.16,30.68Z"/><path class="cls-3" d="M43,40.31A25.5,25.5,0,0,0,74.15,65.8c-4.79,5.86-13.84,7.1-20.72,4S41.79,59.86,39.6,52.61a33.78,33.78,0,0,1,1.1-23c2.8-6.44,8.68-13.27,15.62-15.17C50.31,22.72,43.24,29.19,43,40.31Z"/><path class="cls-4" d="M63.87,51.63c5.94-.69,11.06-4.69,14.42-9.54S83.53,31.58,85.35,26a51.69,51.69,0,0,1-8.58,28.59c-1.87,2.82-4.11,5.54-7.15,7.1s-7,1.72-9.72-.36a12.66,12.66,0,0,1-2.51-2.85c-2.34-3.31-5.3-7.29-6.23-11.11C55.4,49.47,58.71,52.22,63.87,51.63Z"/><path class="cls-5" d="M81,46.66a39.1,39.1,0,0,1-6.8,10.25,19.28,19.28,0,0,1-10.61,5.88c3.12,2.95,8.37,1.61,11.77-1,2.94-2.29,14.15-18.27,8.13-20.17C82.49,43.21,81.78,45,81,46.66Z"/><path class="cls-6" d="M43.41,59.88a6.15,6.15,0,0,0-.95,3.29,2.22,2.22,0,0,0,2.26,2.12,2.79,2.79,0,0,0,1.56-1c2.54-2.87,3.29-6.86,3.94-10.65.37-2.15.8-4.3,1-6.46C48,50.69,45.62,55.58,43.41,59.88Z"/><path class="cls-6" d="M81.73,34a122,122,0,0,0,9.48,11.55c.56.6,1.42,1.25,2.12.81a1.63,1.63,0,0,0,.49-1.68,9.32,9.32,0,0,0-4.43-6.19,27.63,27.63,0,0,0-7.27-2.9"/><path class="cls-7" d="M50.88,29.11a48.78,48.78,0,0,1,9,.2c.93.11,2,.35,2.38,1.21a2.63,2.63,0,0,1,0,1.75,34.69,34.69,0,0,1-2,5.77c-.28.62-.72,1.32-1.4,1.3s-1.17-1.1-.93-1.86.83-1.38,1.14-2.12c.73-1.75-.34-3.84-1.92-4.89a12.67,12.67,0,0,0-5.44-1.54"/><path class="cls-7" d="M74,19.5l-4.21,6.19a5.18,5.18,0,0,0-.87,1.7A3.3,3.3,0,0,0,71,31a6.14,6.14,0,0,0,4.4-.14L71,27.27a31.59,31.59,0,0,0,3.5-7.8"/><path class="cls-7" d="M17,31.65a13.86,13.86,0,0,0-2.8,13.91,16.76,16.76,0,0,0,10.4,10c2.81,1,6.12,1.18,8.61-.46a9.5,9.5,0,0,0,2.94-3.38,16.07,16.07,0,0,0,.22-14.91C32.88,30,23.19,25.23,17,31.65Z"/><path class="cls-2" d="M32.4,53.78c-1.67,1.11-3.69,1.62-5.33,2.77,4.25,2.05,9.77.12,12.43-3.77s2.66-9.22.7-13.51c-.72-1.57-3.24-6.39-5.27-6.63-4.42-.53-.7,3.69,0,5.26C37.16,43.09,37.81,50.17,32.4,53.78Z"/><path class="cls-5" d="M16.9,41.85a8.23,8.23,0,0,0,9.63,5.47c3-.78,5.24-3.21,7.11-5.66.06,2.94.09,6-1.06,8.69s-3.82,5-6.76,4.74c-3.3-.3-5.49-3.52-6.83-6.56a41.67,41.67,0,0,1-2.14-6l1.42-.11"/><path class="cls-4" d="M18.71,46.06a11.18,11.18,0,0,0,10.43,8.1c-2,1.35-4.77.74-6.62-.77a16.79,16.79,0,0,1-4-5.87.89.89,0,0,1-.1-.8c.14-.24.63-.13.55.13"/><path class="cls-8" d="M15.73,41.74a27.25,27.25,0,0,0-6.57,10,2.49,2.49,0,0,0,2.9-.45,7.28,7.28,0,0,0,1.65-2.67L16.58,42"/><path class="cls-6" d="M33.7,41.45a33,33,0,0,0,2.42,13.13c1.4,0,1.63-2,1.31-3.39a42.32,42.32,0,0,0-3.63-9.68"/><path class="cls-3" d="M17.56,35.49a17.47,17.47,0,0,1,3,2.32.58.58,0,0,1,.23.42.56.56,0,0,1-.17.32,8.73,8.73,0,0,1-2,1.66c-.32.19-.88.26-.94-.11a2.92,2.92,0,0,0,0-4.35c-.07-.06-.15-.13-.13-.21s.2,0,.14,0"/><path class="cls-3" d="M29.46,33.72l-2.95,2.7a.54.54,0,0,0-.18.27.46.46,0,0,0,.15.32l2.15,2.68c.32.39.8.83,1.26.61.24-1.44-1.77-2.48-1.65-3.93a2.76,2.76,0,0,1,.3-.92l.87-2"/><path class="cls-6" d="M52.19,21.64c-4.1,6.21-8.15,13.33-6.84,21,0,.17.32.18.34,0,1.11-7.44,1.67-14.83,6.61-20.94A.07.07,0,1,0,52.19,21.64Z"/><path class="cls-6" d="M82.55,25.35A40.24,40.24,0,0,1,75.65,42s0,.11.08.07c4.14-5.2,6-10.16,6.85-16.7C82.58,25.34,82.55,25.33,82.55,25.35Z"/><path class="cls-6" d="M86.6,49.85a1,1,0,0,0,0,2.07A1,1,0,0,0,86.6,49.85Z"/><path class="cls-6" d="M84.88,52.71a.93.93,0,0,0,0,1.86A.93.93,0,0,0,84.88,52.71Z"/><path class="cls-2" d="M20.1,31.22a16.86,16.86,0,0,0-3.53,3.16c-.81,1.07-1.89,2.74-1.49,4.14a.37.37,0,0,0,.61.16c1-.8,1.33-2.35,1.9-3.44a13.26,13.26,0,0,1,2.68-3.81C20.38,31.33,20.23,31.12,20.1,31.22Z"/><path class="cls-2" d="M29.4,43.51a.83.83,0,0,0,0,1.65A.83.83,0,0,0,29.4,43.51Z"/><path class="cls-2" d="M28,45a.07.07,0,0,0,0,.14A.07.07,0,0,0,28,45Z"/><path class="cls-2" d="M27.34,45.5a.56.56,0,0,0,0,1.12A.56.56,0,0,0,27.34,45.5Z"/><path class="cls-5" d="M42.94,72.26A42,42,0,0,0,20,76.09c.4,1.85,2.71,2.42,4.59,2.62,11.7,1.23,23.41,2.47,35.16,3,3.95.18,8,.28,11.77-.86A2.05,2.05,0,0,0,72.84,80c.5-1-.8-2-1.88-2.39a89.11,89.11,0,0,0-37.44-5.45"/><path class="cls-4" d="M21.26,75.81c-.3.17-.64.42-.59.75a.77.77,0,0,0,.48.53,6.79,6.79,0,0,0,3.13.56c.56,0,1.11,0,1.67,0,2.14-.08,13.29-.47,8.6-3.36C31,72.07,24.5,74,21.26,75.81Z"/><path class="cls-4" d="M66.07,76.08c-6.8-2-14.21-4-21-2.46-.58.13-1.25.36-1.33.84s.31.78.69,1.09a25,25,0,0,0,12.8,4.84,41.29,41.29,0,0,0,13.92-1.11,1.45,1.45,0,0,0,.73-.33c.41-.48-.38-1.09-1.06-1.37a37,37,0,0,0-12.89-2.75"/></g><g id="Camada_3" data-name="Camada 3"><path class="cls-9" d="M60.84,12.79A25.77,25.77,0,0,0,42.55,26.13C38.63,33.4,37.71,42,38.92,50.2c.75,5,2.4,10.19,6,13.8a28.9,28.9,0,0,0,2.3,2c17,13.6,40.87-1.7,43-21.77,1-9.52-2.21-19.72-9.51-25.92C68.61,8,52.28,13.72,46,27.81,43,34.42,43.26,42,44.05,49.17c.43,4,1.06,8,3.12,11.45A15.49,15.49,0,0,0,63.59,67.5"/><path class="cls-9" d="M63.48,51.39c6.16-.26,11.62-4.49,14.91-9.71s4.78-11.34,6.08-17.37c.7,11.12,1.18,23.1-4.86,32.47A18.24,18.24,0,0,1,71.51,64,11.38,11.38,0,0,1,61,63.24a15.69,15.69,0,0,1-4.39-5c-2.79-4.57-5.57-10.32-6-15.69C53.17,47.6,57.26,51.66,63.48,51.39Z"/><path class="cls-9" d="M45.88,61.77c1.44.71,2.71-1.19,3.17-2.72,1.38-4.66,3-9.89,3.11-14.7C51.26,45.84,44.12,60.91,45.88,61.77Z"/><path class="cls-9" d="M81.28,34.17,87,41.59c1.15,1.49,2.4,3.06,4.19,3.65a1.68,1.68,0,0,0,1.08.07c1.21-.43.61-2.27-.24-3.24A31.44,31.44,0,0,0,81.9,34.49"/><path class="cls-9" d="M64.41,62.87c5-.37,9.39-3.66,12.31-7.72s4.58-8.88,6.2-13.61"/><path class="cls-9" d="M51.16,28.76a40,40,0,0,1,10.26,1.4c.48.13,1,.32,1.18.79a1.58,1.58,0,0,1-.12,1,61.1,61.1,0,0,1-3.92,8.69l.88-1.23"/><path class="cls-9" d="M73.56,19.16a74.82,74.82,0,0,1-4.72,8.55c2.64,1.25,5.34,2.38,8.08,3.38"/><path class="cls-9" d="M33.51,53.59a6.49,6.49,0,0,0,3.8-4.78c3.35-14.42-16.67-29.33-22.57-11.24-3.29,10,6.09,21.69,16.56,20.6A11.28,11.28,0,0,0,36,56.75a11,11,0,0,0,3.56-3.83c5.52-9.21-.69-22.39-10-24.25"/><path class="cls-9" d="M16.86,42.26a9.2,9.2,0,0,0,9,5.32,9.18,9.18,0,0,0,7.93-6.78,34.4,34.4,0,0,1-1.63,9.11c-.71,2.21-1.88,4.58-4.07,5.34-2.53.87-5.25-.81-7-2.82A17.15,17.15,0,0,1,17,42.67"/><path class="cls-9" d="M17.93,34.78c-.1-.25-.53-.07-.54.2a.91.91,0,0,0,.43.64l3,2.43L18,40.67l.85-1.23"/><path class="cls-9" d="M29.45,33.51l-3.2,3.23c1.4,1.51,2.7,2.55,4.1,4.06"/><path class="cls-9" d="M15.45,42a13.51,13.51,0,0,0-5.88,9.26,10.5,10.5,0,0,0,5.72-9"/><path class="cls-9" d="M33.12,40.78a46.3,46.3,0,0,1,6,8.91c.38.75.59,1.92-.19,2.21-.58.21-1.14-.31-1.52-.79a19.62,19.62,0,0,1-4-9.87"/><path class="cls-9" d="M45.89,76.07c2.87,2.78,7,3.67,11,4.3a43.49,43.49,0,0,0,11,.69c.58-.06,1.31-.31,1.3-.89s-.59-.75-1.06-.89c-4.69-1.38-9.65-2.44-14.21-4.21-3.33-1.28-5.49-2.81-9.23-1.35A3.26,3.26,0,0,0,45.89,76.07Z"/><path class="cls-9" d="M22,76.7c.22.77,1.23.93,2,.9a19.21,19.21,0,0,0,8.54-2.24C31.49,71.82,21.7,75.51,22,76.7Z"/><path class="cls-9" d="M21.52,74.93a2.39,2.39,0,0,0-1.45.85,1.66,1.66,0,0,0,.57,2.1,4.89,4.89,0,0,0,2.25.75C38.28,81,54,83.39,69.35,80.81c.88-.15,1.94-.49,2.09-1.36a2,2,0,0,0-.71-1.6c-2.41-2.56-6-3.6-9.43-4.36a90,90,0,0,0-22.89-2.34C32.84,71.39,26.84,73.38,21.52,74.93Z"/></g></svg>