<svg xmlns="http://www.w3.org/2000/svg" viewBox="0 0 97.28 94.22"><defs><style>.cls-1{opacity:0.33;}.cls-2{fill:#2ca8c4;}.cls-3{fill:#d37231;}.cls-4{fill:#a35119;}.cls-5{fill:#3cb9ce;}.cls-6{fill:#57d0dd;}.cls-7{fill:#1e90b3;}.cls-8{fill:#5deded;}.cls-9{fill:none;stroke:#000;stroke-miterlimit:10;stroke-width:0.25px;}.cls-10{fill:#663717;}</style></defs><title>Prancheta 1 cópia 8ldpi</title><g id="Camada_3" data-name="Camada 3"><path class="cls-2" d="M20.86,18c-5-2.6-10.13-6-15.76-5.55a15.87,15.87,0,0,1,8.33,17.67,5.5,5.5,0,0,0-7.12,1.56,5.5,5.5,0,0,0,1.17,7.2,16.85,16.85,0,0,0,3.41,1.67c6.28,2.81,9.76,9.59,11.79,16.16s3.14,13.58,6.81,19.4c4.31-4.18,5.86-10.38,7.22-16.23a55.11,55.11,0,0,0,1.88-11.93c.07-7.63-2.64-15-2.18-22.63.29-4.88.28-4.62-4.35-4.6A23.15,23.15,0,0,1,20.86,18Z"/><path class="cls-3" d="M32.49,25.21c-1.19,5.21,1.41,10.42,2.6,15.62,2,8.65.08,17.7-2.43,26.22-1.88,6.41-.63,2.85-3.17,9,6.43-5,7.4-2.37,10.33-10s-.18-16.3,1.34-24.31c.29-1.55,5.24-2.53,4.84-4.05a3.71,3.71,0,0,0-3.25-2.95A45.55,45.55,0,0,0,46.81,24.2c.81-3.31,2.22-6.32-.79-7.55C40.68,14.48,33.6,20.37,32.49,25.21Z"/><path class="cls-4" d="M15.26,29.63a26.63,26.63,0,0,1,7.33-7.77,1.2,1.2,0,0,1,.77-.3c.44,0,.7.51.85.93a17.5,17.5,0,0,1-.82,13.82l-1.48-7.86a2.76,2.76,0,0,0-.74-1.67c-.93-.78-2.31-.06-3.28.66l-2.28,1.68"/><path class="cls-5" d="M35.1,35.35A31.48,31.48,0,0,1,37,24.66c.44-1.21,1.27-2.6,2.56-2.52s2,1.71,2.28,3.05l1.59,7.16A19,19,0,0,0,40.4,28.9a1.84,1.84,0,0,0-1.48-.62c-.53.1-.86.62-1.11,1.09a36.43,36.43,0,0,0-2.74,6.35"/><path class="cls-2" d="M38.27,40.43a5.58,5.58,0,0,0-1.82-2.85,3.75,3.75,0,0,0-.79-.8,1.37,1.37,0,0,0-.13-.2,28,28,0,0,1-1.81-3,14.27,14.27,0,0,1-1.25-3.68,11.11,11.11,0,0,1,.78-6.27.47.47,0,0,0-.54-.58q.13-.35.27-.72c.19-.56-.54-.87-.92-.53-2.5,2.16-1.53,7.18-.65,9.9.05.17.13.34.19.51a6.23,6.23,0,0,0,.56,2.57A3.37,3.37,0,0,0,33,36.42c1.12,1.78,2.76,4.18.92,5.45a.71.71,0,0,0,.1,1.21,2.42,2.42,0,0,0-.27.36.68.68,0,0,0,.76,1L35,44.3a7.44,7.44,0,0,0-1.64,2.44c-.1.28.24.48.48.36a12,12,0,0,0,3.48-3.45A3.83,3.83,0,0,0,38.27,40.43Z"/><path class="cls-6" d="M31.1,49.51c.65-1.16,1.61-2.43,2.95-2.37s2.16,1.34,2.64,2.55c1.55,3.89,1.35,8.23,1.09,12.41a32.68,32.68,0,0,0-1.89-6c-.45-1.06-1.2-2.26-2.35-2.26A2.79,2.79,0,0,0,31.67,55C29,57.81,28,61.68,27.08,65.37,26,60.49,28.75,53.72,31.1,49.51Z"/><path class="cls-7" d="M7.89,29.33A11.07,11.07,0,0,0,9.05,34.6a5,5,0,0,0,3.12,2.84,2,2,0,0,0,2-.59,2.44,2.44,0,0,0,.24-1.92,10.8,10.8,0,0,0-2.37-5,4.33,4.33,0,0,0-1.8-1.4,2.05,2.05,0,0,0-2.14.38,1.37,1.37,0,0,0,.12,2"/><path class="cls-8" d="M18.66,44.21c2.28,3.43,3.43,7.8,4.81,11.57a.19.19,0,0,0,.36-.1A26,26,0,0,0,18.66,44.21Z"/><path class="cls-8" d="M13.41,39.57c.2.09.39.2.58.3l-.54-.37S13.37,39.55,13.41,39.57Z"/><path class="cls-8" d="M14,39.87a22.41,22.41,0,0,1,4.67,4.34A12.84,12.84,0,0,0,14,39.87Z"/><path class="cls-8" d="M35.14,36.76c-1.46-1.94-2.8-3.49-3.37-5.94a13.78,13.78,0,0,1-.25-4.72,12.37,12.37,0,0,0,.55,6.4c.9,2.48,6.12,8.25,2,10-.53.23-.15,1.13.4.94C37.46,42.39,36.63,38.73,35.14,36.76Z"/><path class="cls-8" d="M32.27,23c-.09.28-.16.56-.24.83a7.77,7.77,0,0,1,.31-.8A0,0,0,1,0,32.27,23Z"/><path class="cls-8" d="M31.52,26.1A19.07,19.07,0,0,1,32,23.85,10.65,10.65,0,0,0,31.52,26.1Z"/><path class="cls-8" d="M12.49,17.49a16.37,16.37,0,0,0-1.73-2.92C11.37,15.52,12,16.49,12.49,17.49Z"/><path class="cls-8" d="M12.49,17.49a36.23,36.23,0,0,1,2.26,7.35s.06,0,.06,0A17.94,17.94,0,0,0,12.49,17.49Z"/><path class="cls-8" d="M10.17,13.8c.22.25.4.51.59.77-.17-.27-.35-.54-.53-.81A0,0,0,1,0,10.17,13.8Z"/><path class="cls-8" d="M19.69,28.44l-.31.16.34-.09C19.77,28.5,19.74,28.42,19.69,28.44Z"/><path class="cls-8" d="M18.35,29.11c.34-.18.69-.34,1-.51A4.12,4.12,0,0,0,18.35,29.11Z"/><path class="cls-8" d="M16.39,31s0,0,0,0a8.48,8.48,0,0,1,1.93-1.95,5.83,5.83,0,0,0-.62.39A5.19,5.19,0,0,0,16.39,31Z"/><path class="cls-8" d="M11.63,31.29A3.66,3.66,0,0,0,10,30.1,4.26,4.26,0,0,1,12,33.63c0,.06.1.08.11,0A2.88,2.88,0,0,0,11.63,31.29Z"/><path class="cls-8" d="M10,30.1l-.08,0Z"/><path class="cls-8" d="M9.45,29.93a1.63,1.63,0,0,1,.49.14l-.47-.21C9.41,29.84,9.39,29.92,9.45,29.93Z"/><path class="cls-8" d="M25.29,21.12c0-.07-.15,0-.12,0,.33,1,.68,2,1.07,2.95,0,.07.15,0,.12,0C26,23.08,25.67,22.1,25.29,21.12Z"/><path class="cls-9" d="M32.48,25.83a11.5,11.5,0,0,0,2.73,9.74c1.33,1.47,3.17,2.82,3.26,4.8s-1.85,3.69-3.6,4.89c2.49,3.37,1.76,8.07.65,12.11A89.52,89.52,0,0,1,28.08,75.9c6-1.85,10.24-7.54,12-13.59s1.41-12.49,1-18.77a4,4,0,0,1,.14-1.76,4.29,4.29,0,0,1,1.73-1.7c1.41-1,2.81-2.36,2.78-4.07s-2.44-3.12-3.53-1.79a15.78,15.78,0,0,0,5.31-10.81c.14-2.41-.41-5.07-2.3-6.56C40.37,13.07,33.27,21.75,32.48,25.83Z"/><path class="cls-9" d="M37.19,24.1c.43-1.11,1.34-2.43,2.48-2.08a2.28,2.28,0,0,1,1.19,1.23,13.12,13.12,0,0,1,1.34,8.14c-1.59-.49-1.81-2.72-3.09-3.76a.7.7,0,0,0-1.09,0A4.81,4.81,0,0,0,36.87,30c-.54,1.81-1,3.68-1.66,5.45C33.31,33.38,36.3,26.42,37.19,24.1Z"/><path class="cls-9" d="M27.79,56.69a21.43,21.43,0,0,1,3.57-7.77,3.79,3.79,0,0,1,2.92-1.77,2.82,2.82,0,0,1,2.15,1.47,6.9,6.9,0,0,1,.76,2.57,31.07,31.07,0,0,1-.35,10.92A23.53,23.53,0,0,0,35,55.57c-.41-.94-1.05-2-2.07-2.07a2.94,2.94,0,0,0-2.35,1.39,21.28,21.28,0,0,0-4,8.67A37.32,37.32,0,0,1,27.79,56.69Z"/><path class="cls-9" d="M20.55,23c.74-.67,1.76-1.34,2.66-.91s1,1.6,1.05,2.57c.07,3.51.13,7.12-1.14,10.39-1.4-1.82-.42-4.5-1.09-6.7a2,2,0,0,0-1.55-1.56,2.32,2.32,0,0,0-1.45.54,21.93,21.93,0,0,0-4.49,4.22C14.25,28.69,18.55,24.79,20.55,23Z"/><path class="cls-9" d="M5.07,11.08a22.18,22.18,0,0,1,8.17,19.3c-.5-2-3.37-2.78-5.08-1.59a5,5,0,0,0-1.54,5.63A10.06,10.06,0,0,0,10.5,39.2c1.69,1.23,3.55,2.2,5.19,3.49,4.45,3.47,7,8.9,8.4,14.36s2,11.11,3.49,16.56a4.36,4.36,0,0,0,1.68,2.84A73.86,73.86,0,0,0,37,48.16a12,12,0,0,1,.6-3.73,19.8,19.8,0,0,0,1.28-2.87c.67-3-2.46-5.37-3.58-8.23-1.2-3.07,2.34-10.43.6-12.34-.62-.67-4.05-.5-5-.71a30.6,30.6,0,0,1-5.24-1.8C22.11,17,18.82,15,15.34,13.5a31.53,31.53,0,0,0-5-1.8C9.21,11.42,5.78,11.64,5.07,11.08Z"/><path class="cls-9" d="M9.41,36.14c.58.7,1.46,1.36,2.32,1.07,1.12-.38,1.2-1.93.95-3.08a19.39,19.39,0,0,0-1.93-5.25c-1.33-2.44-3-2.16-3.44.23A9.25,9.25,0,0,0,9.41,36.14Z"/><path class="cls-8" d="M15.63,38.84a.24.24,0,0,0,0,.47A.24.24,0,0,0,15.63,38.84Z"/><path class="cls-8" d="M16.8,39.92a.33.33,0,0,0,0,.66A.33.33,0,0,0,16.8,39.92Z"/><path class="cls-8" d="M18.2,41.82h0a.23.23,0,0,0-.23-.2.27.27,0,0,0,0,.53.23.23,0,0,0,.23-.2h0A.07.07,0,0,0,18.2,41.82Z"/><path class="cls-8" d="M18.9,42.78a.28.28,0,0,0,0,.55A.28.28,0,0,0,18.9,42.78Z"/><path class="cls-8" d="M20.54,44.62a.07.07,0,0,0,0,.14A.07.07,0,0,0,20.54,44.62Z"/><path class="cls-8" d="M20.07,44a.26.26,0,0,0,0,.51A.26.26,0,0,0,20.07,44Z"/><path class="cls-8" d="M23.12,49.08a.53.53,0,0,0,0,1.05A.53.53,0,0,0,23.12,49.08Z"/><path class="cls-8" d="M23.82,51.39a.09.09,0,0,0,0,.18A.09.09,0,0,0,23.82,51.39Z"/><path class="cls-8" d="M24.29,51.63a.79.79,0,0,0,0,1.58A.79.79,0,0,0,24.29,51.63Z"/><path class="cls-8" d="M24.52,54.22a.07.07,0,0,0,0,.14A.07.07,0,0,0,24.52,54.22Z"/><path class="cls-8" d="M24.75,54.89a.34.34,0,0,0,0,.67A.34.34,0,0,0,24.75,54.89Z"/><path class="cls-8" d="M25.07,56.87a.45.45,0,0,0,.7.54C26.24,57,25.37,56.3,25.07,56.87Z"/><path class="cls-8" d="M25.69,60.07a.07.07,0,0,0,0,.14A.07.07,0,0,0,25.69,60.07Z"/><path class="cls-8" d="M21.24,44.64a.87.87,0,0,0,0,1.74A.87.87,0,0,0,21.24,44.64Z"/><path class="cls-8" d="M22.3,47.55h0a.27.27,0,0,0-.18-.07.32.32,0,0,0,0,.63A.31.31,0,0,0,22.3,47.55Z"/><path class="cls-8" d="M35.17,48.73a1.73,1.73,0,0,0-1.65-.12s0,0,0,0a3.28,3.28,0,0,1,1,.8c.29.3.37.72.69,1a.49.49,0,0,0,.81-.22A1.52,1.52,0,0,0,35.17,48.73Z"/><path class="cls-8" d="M83.26,30.68a.62.62,0,0,0-.09,1.23A.62.62,0,0,0,83.26,30.68Z"/><path class="cls-2" d="M64,30.8c2.1,2.93-.15,6.91-2.76,9.37s-5.86,5-5.94,8.54A9.42,9.42,0,0,1,61.64,48,55.94,55.94,0,0,0,45,81.85c-2.5-11,1.44-22.24,5.33-32.78-3.22,0-5.73-3.9-4.37-6.73.84-1.73,2.65-2.76,4.1-4.05a15.26,15.26,0,0,0,3.48-4.69c.78-1.54,1.1-5.71,2.23-6.74C57.65,25.12,62.3,28.38,64,30.8Z"/><path class="cls-3" d="M92.67,28c-12.38,13.91-19.26,32-31.56,46-3.53,4-7.6,7.72-12.56,9.7a3.92,3.92,0,0,1-2.46.35c-2.06-.59-2-3.52-1.42-5.59A89,89,0,0,1,59.51,48.56a10.2,10.2,0,0,1-8,1c1-2.43,3.05-4.25,5-6S60.37,39.7,61,37.16s-.91-4.42-1.63-6.63c5.65,0,11.21,1,17,.56C79.81,30.83,90.25,30.67,92.67,28Z"/><path class="cls-10" d="M68.63,43.65c.2,1.55.86,3.28,2.34,3.77s2.79-.33,3.91-1.22A17.15,17.15,0,0,0,80.76,37L75,42.43a3.46,3.46,0,0,1-1.73,1.08c-1.51.25-2.59-1.43-3-2.91-.31-1.18-.37-2.46-.61-3.59C68.36,38.68,68.36,41.59,68.63,43.65Z"/><path class="cls-8" d="M52.78,40.87a1.76,1.76,0,0,0,.78.65,1.89,1.89,0,0,0,1.19-.11,10.12,10.12,0,0,0,6-5.79l-4.29,2.1a2.69,2.69,0,0,1-1.64.4c-.87-.18-1.32-1.13-1.6-2-.4-1.23-.54-2.78-1.26-3.75C50,33.7,51.51,39.21,52.78,40.87Z"/><path class="cls-6" d="M48.09,65.45a9,9,0,0,0,.36,3.77,3.42,3.42,0,0,0,2.78,2.31c1.45.09,2.66-1,3.66-2.07,5.24-5.52,10-11.88,11.6-19.32l-11,13.3c-1,1.16-2.5,2.43-3.77,1.63a3.14,3.14,0,0,1-1.06-2.39c-.29-2.39-.08-5.23-.74-7.48C48.47,58.07,48.29,62.24,48.09,65.45Z"/><path class="cls-2" d="M66.84,54.75a3.85,3.85,0,0,0-.9,2.09,1.81,1.81,0,0,0,1.13,1.82,2.61,2.61,0,0,0,1.48-.14c1.92-.61,9.36-4.36,7.14-7S68.1,53.06,66.84,54.75Z"/><path class="cls-8" d="M89.24,29.6l-.73.78c.26-.24.51-.49.78-.72C89.33,29.63,89.27,29.57,89.24,29.6Z"/><path class="cls-8" d="M84.84,34.3c1.2-1.33,2.44-2.62,3.67-3.92A36.58,36.58,0,0,0,84.84,34.3Z"/><path class="cls-8" d="M78,43.65c0,.07.07.12.11.06,2.21-3.17,4.28-6.43,6.71-9.41A42.69,42.69,0,0,0,78,43.65Z"/><path class="cls-8" d="M59.07,71.67c-1.56,1.7-3.12,3.41-4.7,5.1-1.75,1.88-3.12,3.19-5.85,3.08a.19.19,0,0,0-.13.35c1.24.85,2.52.11,3.56-.74a51.39,51.39,0,0,0,5.13-5.4c1.19-1.32,2.35-2.67,3.49-4Z"/><path class="cls-8" d="M67.88,61l-.51.75.57-.7S67.9,60.91,67.88,61Z"/><path class="cls-8" d="M60.57,70a79.48,79.48,0,0,0,6.8-8.33C65.11,64.49,62.87,67.29,60.57,70Z"/><path class="cls-8" d="M67.81,57.23a2.43,2.43,0,0,1,.13-.38,3.72,3.72,0,0,1-.19.34C67.72,57.24,67.8,57.27,67.81,57.23Z"/><path class="cls-8" d="M68.19,56.43a2.58,2.58,0,0,0-.25.42C68,56.71,68.11,56.57,68.19,56.43Z"/><path class="cls-8" d="M71.65,54.36a3.36,3.36,0,0,0-2.3.64,4.36,4.36,0,0,0-1.16,1.43,5.57,5.57,0,0,1,3.47-1.85A.11.11,0,0,0,71.65,54.36Z"/><path class="cls-8" d="M49.79,48.23C48,46.8,46.72,44.7,47.6,42.36c0-.06-.07-.11-.1,0-1.18,2.15-.66,5.64,2,6.44A.3.3,0,0,0,49.79,48.23Z"/><path class="cls-8" d="M58,28.13a1.38,1.38,0,0,0-1.87,1.26.21.21,0,0,0,.41.09,1.3,1.3,0,0,1,1.33-.74C58.19,28.8,58.31,28.23,58,28.13Z"/><path class="cls-9" d="M94,27.2c-8.08,6-13.88,14.55-19,23.22s-9.79,17.7-16.27,25.41c-3.44,4.1-8,8-13.36,7.85-.29-6.51,1.61-13,4.48-18.82s6.7-11.17,10.51-16.46A13.29,13.29,0,0,1,53,50.27a1.73,1.73,0,0,1-1.18-.38c-.55-.58-.12-1.52.37-2.14a49.84,49.84,0,0,1,5.39-5.18c1.81-1.71,3.48-3.76,3.93-6.21a5.67,5.67,0,0,0-2.5-6C70.63,33.15,82.74,30.14,94,27.2Z"/><path class="cls-9" d="M68.11,42.84c-.06,1.51.15,3.25,1.39,4.1,1.6,1.09,3.77,0,5.24-1.25a21.79,21.79,0,0,0,5.9-8.09c.14-.32.2-.79-.12-.92l-7,6.28c-.65.58-1.52,1.2-2.3.83s-.86-1.16-.94-1.89c-.2-1.64,0-3.82-.65-5.24C68.19,37.39,68.16,41.21,68.11,42.84Z"/><path class="cls-9" d="M50.73,63.84a2,2,0,0,0,.66,1.23c.75.53,1.75-.07,2.44-.66A64.73,64.73,0,0,0,66,50.77,49.21,49.21,0,0,1,55.1,69.46c-.93,1-2.12,2-3.46,1.82-1.77-.27-2.47-2.41-2.76-4.17-.56-3.38-1.3-8.09.75-11.1C50.87,56.71,50.3,62.11,50.73,63.84Z"/><path class="cls-9" d="M53.1,36.92a3.13,3.13,0,0,0,3.59.81,9.24,9.24,0,0,0,3.16-2.34A23.18,23.18,0,0,1,54,41.91a1.63,1.63,0,0,1-1.39.44,1.52,1.52,0,0,1-.77-.89,12,12,0,0,1,.38-9.19C52.83,33.69,52.11,35.55,53.1,36.92Z"/><path class="cls-9" d="M67.68,55a4.72,4.72,0,0,0-1.25,2.1,2.22,2.22,0,0,0,.67,2.25,3.18,3.18,0,0,0,2.77.22,17.1,17.1,0,0,0,6.06-3,6.18,6.18,0,0,0,1.86-2A2.81,2.81,0,0,0,77.85,52C76.21,49.2,69.14,53.48,67.68,55Z"/><path class="cls-8" d="M65.47,62.77a.45.45,0,0,0-.07.9A.45.45,0,0,0,65.47,62.77Z"/><path class="cls-8" d="M64.23,63.65a.88.88,0,0,0-.14,1.76A.88.88,0,0,0,64.23,63.65Z"/><path class="cls-8" d="M62.88,65.83a.71.71,0,0,0-.11,1.42A.71.71,0,0,0,62.88,65.83Z"/><path class="cls-8" d="M61.6,67.86a0,0,0,0,0,0-.08.5.5,0,0,0-.45-.31.57.57,0,1,0,.49.39Z"/><path class="cls-8" d="M60.24,69.88l-.1-.07a.29.29,0,0,0-.31,0l-.11.06a.51.51,0,1,0,.52,0Z"/><path class="cls-8" d="M58.18,71.54l-.13.1a.22.22,0,0,0,0,.3l.11.12C58.84,72.82,59,70.9,58.18,71.54Z"/><path class="cls-8" d="M56.69,72.88a.45.45,0,0,0-.07.89A.45.45,0,0,0,56.69,72.88Z"/><path class="cls-8" d="M55.13,74.76a.56.56,0,0,0-.08,1.11A.56.56,0,0,0,55.13,74.76Z"/><path class="cls-8" d="M53.58,76.66a.41.41,0,0,0-.07.81A.41.41,0,0,0,53.58,76.66Z"/><path class="cls-8" d="M51.35,78a.27.27,0,0,0,0,.53A.27.27,0,0,0,51.35,78Z"/><path class="cls-8" d="M58.21,64.41c.07-.33-.26-.63-.56-.39-1.66,1.34-2.54,3.79-4.29,5.06a31,31,0,0,0,2.7-1.66A5.31,5.31,0,0,0,58.21,64.41Z"/><path class="cls-8" d="M53.19,69.2a1.77,1.77,0,0,0,.17-.12A1.77,1.77,0,0,1,53.19,69.2Z"/><path class="cls-8" d="M52.48,69.73a7.71,7.71,0,0,1,.71-.53,4,4,0,0,1-.79.42C52.31,69.65,52.4,69.8,52.48,69.73Z"/></g></svg>