<svg xmlns="http://www.w3.org/2000/svg" viewBox="0 0 97.28 94.22"><defs><style>.cls-1{opacity:0.33;}.cls-2{fill:#1e90b3;}.cls-3{fill:#3cb9ce;}.cls-4{fill:#57d0dd;}.cls-5{fill:#2ca8c4;}.cls-6{fill:#5deded;}.cls-7{fill:none;stroke:#000;stroke-linecap:round;stroke-linejoin:round;stroke-width:0.25px;}</style></defs><title>come cabo verde</title><g id="Camada_2" data-name="Camada 2"><path class="cls-2" d="M33.78,28A107.75,107.75,0,0,0,45.19,57.43a45.64,45.64,0,0,1-10.95-5.17,144.62,144.62,0,0,1,.27,18.15c-1.6-3.59-4.26-6.43-6.6-9.48C24.72,56.79,17.76,47.4,18,41.59,18.16,36.52,29.86,30.52,33.78,28Z"/><path class="cls-3" d="M57.59,17.26a3.57,3.57,0,0,0-.4-2c-.63-.94-1.9-.87-2.95-.69q-5.46.92-10.87,2.11c-3.74.82-5.86.41-4.78,5,.9,3.79,1.75,7.59,2.51,11.42.33,1.63,2.8,9.76,2,11l7.34-10.54A48.64,48.64,0,0,1,58,42.47Q57.78,29.87,57.59,17.26Z"/><path class="cls-4" d="M63.78,31.05c-2,2.87-2.49,9.49-3.26,13q-.69,3.15-1.29,6.32c-.18,1-.47,5.91-1.11,6.36a44.22,44.22,0,0,1,9.44-5.09c1.09,4,2.36,7.89,3.8,11.73a241.15,241.15,0,0,1,11-22.22C79.4,38.83,66.32,27.37,63.78,31.05Z"/><path class="cls-4" d="M16.67,28.15c-1.66-1.79-3.62,1.49-3.94,3-.44,2.1.71,4.13,2.72,4.25s3.3-1.59,3.36-3.62A3.79,3.79,0,0,0,16.67,28.15Z"/><path class="cls-3" d="M71.58,21.86a1.82,1.82,0,0,0-2.47-.3,2.27,2.27,0,0,0-.88,1.28,2.57,2.57,0,0,0,0,2.83,2.15,2.15,0,0,0,4-.9A3.58,3.58,0,0,0,71.58,21.86Z"/><path class="cls-2" d="M39.88,79.63a2.09,2.09,0,0,0-2.37-.19,2,2,0,0,0-.82,1,2.62,2.62,0,0,0-.29,2.89,2.38,2.38,0,0,0,3.84.53A3,3,0,0,0,39.88,79.63Z"/><path class="cls-5" d="M29.83,12a.92.92,0,0,0-1,.28,19.21,19.21,0,0,0-3.16,5.65c-.58,1.67-1.33,3.9-.37,5.55a.86.86,0,0,0,1.6-.07.34.34,0,0,0,.08-.09c.53-1.27.9-2.61,1.48-3.86s1.45-2.51,2.16-3.79S31.45,12.56,29.83,12Z"/><path class="cls-3" d="M23,69.16a10.21,10.21,0,0,0-1.6-2.75A7.17,7.17,0,0,0,19,63.84c-1.73-.73-3.47,1-4.08,2.63a.63.63,0,0,0,.39.75c1.75.63,2.74,1.88,4.06,3.15.31.51.64,1,1.12,1.14A2,2,0,0,0,23,69.16Z"/><path class="cls-2" d="M65.26,74.53a20.93,20.93,0,0,1-1-3.84c0-.46-.41-.72-.81-.51-1.59.86-2.21,2-3.18,3.54,0,.06,0,.13.1.08l.13-.11a.92.92,0,0,0,.2.57c1.28,1.61,1.59,3.46,2,5.49a.47.47,0,0,0,.92,0c.43-1.31,2.14-1.84,2.15-3.25A8,8,0,0,0,65.26,74.53Z"/><path class="cls-4" d="M53.39,64.81c-.56-.73-1.33-1.43-1.84-2.17a.7.7,0,0,0-.23-.2l0-.06c.07-.05,0-.17-.09-.1a.81.81,0,0,1-.1.09.51.51,0,0,0-.44.16,4.22,4.22,0,0,0-.47.49,3.91,3.91,0,0,0-1.1.8,10.31,10.31,0,0,0-.83,1.24,13.63,13.63,0,0,0-1.54,3.54c-.64,2.27-.16,3.47,1.63,4.71a.28.28,0,0,0,.41-.19c.77-3,2.68-4.93,4.56-7.16A.89.89,0,0,0,53.39,64.81Z"/><path class="cls-5" d="M32.67,62.77c-1-6.43-.83-14.08-4.45-19.5-1.92-2.88-5.58-7.66-8.81-3.84a1.36,1.36,0,0,0-.27,1.19c-.44,1.92,1.65,5.62,2.19,6.67,3,5.82,5.87,11.48,10.3,16.15C32.11,63.94,32.77,63.42,32.67,62.77Z"/><path class="cls-5" d="M41.65,54.43c-.79-1.9-1.83-3.7-2.75-5.52-.51-1-1-3.26-2.18-3.66-1.78-.61-3.68,3.26-2.28,4.56a.83.83,0,0,0,.25.15,3.78,3.78,0,0,0,.22.4,14.11,14.11,0,0,0,6.07,5C41.52,55.6,41.85,54.91,41.65,54.43Z"/><path class="cls-5" d="M33.11,30.41a.08.08,0,0,0-.15,0,23,23,0,0,0,2.11,9.36c.09.18.37.05.31-.15A84.73,84.73,0,0,1,33.11,30.41Z"/><path class="cls-5" d="M33.69,54.06a.07.07,0,1,0-.13,0c0,1.45-.42,2.84-.4,4.31a14,14,0,0,0,.56,3.76.22.22,0,0,0,.43-.06C34,59.53,33.21,56.56,33.69,54.06Z"/><path class="cls-4" d="M56.58,36.1a85.19,85.19,0,0,1-.57-11,44.78,44.78,0,0,0-.13-7c-.71-4.09-4.29-2.44-7-1.83a1,1,0,0,0-.71.62c-1,.62-1.11,2.28-1.13,3.49,0,2-.13,4.82.78,6.68a7.52,7.52,0,0,0,.3,1.27c.12.35.27.72.43,1.1,0,.11.07.23.11.35,1.29,3.21,4,5.58,6.62,7.39C56,37.65,56.69,36.86,56.58,36.1Z"/><path class="cls-4" d="M43.73,29.36c-.55-.46-1.34.17-1.33.84a30.67,30.67,0,0,0,1.27,8.15.41.41,0,0,0,.16.22c0,.35,0,.7,0,1a.45.45,0,0,0,.85.25c1.24-1.84,3-4.25,3.2-6.67S45.09,30.51,43.73,29.36Z"/><path class="cls-4" d="M41.42,21.77c-.12-.79-.4-2.58.42-3.09.19-.13.11-.47-.11-.47-2.85,0-1.44,6-.3,7.35.23.27.62.05.63-.3A17.69,17.69,0,0,0,41.42,21.77Z"/><path class="cls-3" d="M78.93,40.65c-2.41-4.13-6.33-3.27-8.17.43C67,45,68.65,54.67,71.43,58.39a.31.31,0,0,0,.52-.07,61.21,61.21,0,0,0,2.77-6.06c1-1.76,2.1-3.48,3.08-5.19C79.05,44.91,80.36,43.1,78.93,40.65Z"/><path class="cls-3" d="M66,39.34c-.09-1.2-.31-2.72-1.66-2.85-1.53-.15-1.59,1.66-1.79,2.92s-.42,2.69-.57,4A14.52,14.52,0,0,0,62,45.52c-.51,2.38-.78,4.74-1.1,7.21-.05.45.24.91.69.77A4.72,4.72,0,0,0,63,52.76a4.1,4.1,0,0,0,3.13-4.21c.06-1,.06-2.06,0-3.09A29,29,0,0,0,66,39.34Z"/><path class="cls-3" d="M71,36.41a15.43,15.43,0,0,0-2.67-1.87,33,33,0,0,1-3.17-2.24s-.1,0-.06.07c1.45,1.78,3.25,4.28,5.5,4.8A.46.46,0,0,0,71,36.41Z"/><path class="cls-3" d="M69.53,39.43a.27.27,0,0,0,0-.39c-1-.89-2.08-1.64-3.17-2.44-.07-.05-.13.09,0,.13.35.16,2.82,1.69,2.5,2.46-.17.41-1.11.34-1.34.89s0,.48.13.89c.23,1,.69,1.36.47,2.21-.12.46-.34.82-.44,1.29,0,.14.13.26.23.14a3.82,3.82,0,0,0,.74-2.81c-.05-.37-.35-.7-.39-1C68.17,40.1,69.07,39.77,69.53,39.43Z"/><path class="cls-4" d="M45.9,28a6.29,6.29,0,0,1-1-2.93,3.58,3.58,0,0,0-.06-1.18c-.11-.25-.38-.3-.46-.46-.42-.82.33-1.91.67-2.76,1.07-2.68-1.66-1.22-2.9-.93-.08,0,0,.16,0,.14.7-.23,2.16-.94,2.38.47.09.6-.92,1.76-1,2.37-.18.85,0,.4.21,1a.18.18,0,0,0,.08,0c.47,0,.68.31.64,1,.06.35-.05.81,0,1.18a3.49,3.49,0,0,0,1.21,2.38C45.79,28.41,46,28.15,45.9,28Z"/><path class="cls-5" d="M32,43.6c-1-1.63,0-2.73-.11-4.37a.45.45,0,0,0-.29-.42c-2.42-.49-.28-4.19.32-5.77a.4.4,0,0,0-.56-.48,38.43,38.43,0,0,0-6.27,4.25c-.1.08,0,.27.11.2a62,62,0,0,1,5.41-3.11c-1.06,2-2.52,4.72-.76,6,.12.09.34-.14.45-.06.39.29.49.47.39,1.18-.07.45-.41.81-.41,1.31,0,1.88,2,2.23,2.15,4.39a.4.4,0,1,0,.8,0A5.84,5.84,0,0,0,32,43.6Z"/><path class="cls-5" d="M81.28,23.4c-1.9,1-3.3,3.54-4.23,5.53-.6,1.27,1,2.35,1.73,1.13a19.14,19.14,0,0,1,1.83-2.76,22.26,22.26,0,0,0,2-2.46A1,1,0,0,0,81.28,23.4Z"/><path class="cls-5" d="M83.88,28.58c-1.16-.12-2.23,1-3.14,1.7-1.21.91-.08,3.11,1.16,2.2,1-.73,2.4-1.39,2.78-2.74A.91.91,0,0,0,83.88,28.58Z"/><path class="cls-6" d="M18.21,20.82a3.71,3.71,0,0,0-1.75-.46,12,12,0,0,0,0-4.23.61.61,0,0,0-.9-.41c-1.12.88-2.22,1.77-3.3,2.7a.22.22,0,0,0,.2.38c.95-.46,1.89-.95,2.83-1.45a8,8,0,0,1-.72,3.52,1,1,0,0,0,.79,1.54,5,5,0,0,0,2.89-.28A.8.8,0,0,0,18.21,20.82Z"/><path class="cls-6" d="M17.87,16.56c.05.12.1.25.14.38a.32.32,0,0,0,.57,0c0-.13.09-.26.14-.38C19.12,15.52,17.47,15.52,17.87,16.56Z"/><path class="cls-6" d="M52.85,75.81a5.19,5.19,0,0,0-1.91,2.71,10.31,10.31,0,0,0-.75,3.39.39.39,0,0,0,.73.22c.44-1.07.9-2.15,1.38-3.2a9.16,9.16,0,0,0,1.12-2.75A.39.39,0,0,0,52.85,75.81Z"/><path class="cls-6" d="M57,84.59c-.54-2.13-1-4.12-.41-6.31.15-.54-.62-.93-.84-.39-1,2.36-1.15,5.17.43,7.24C56.49,85.56,57.12,85.09,57,84.59Z"/><path class="cls-6" d="M30.22,74.75c-.67,0-.67,1.16,0,1.16S30.89,74.75,30.22,74.75Z"/><path class="cls-6" d="M30.6,80.55a1.37,1.37,0,0,0-2-1,1.39,1.39,0,0,0-.59,1.1,1.26,1.26,0,0,0,.14.6.79.79,0,0,0,.18.29l.05,0a1,1,0,0,0,.88.5,1.53,1.53,0,0,0,1.06-.66A.87.87,0,0,0,30.6,80.55Z"/><path class="cls-6" d="M26,76.22c-1.16,0-1.16,2,0,2S27.13,76.22,26,76.22Z"/><path class="cls-6" d="M69.37,14.68A1.1,1.1,0,0,0,68,13.83a2.41,2.41,0,0,0-1.36,1.08,1.78,1.78,0,0,0,0,1.65.64.64,0,0,0,.06.22,1.41,1.41,0,0,0,2,.61A2.48,2.48,0,0,0,69.37,14.68Z"/><path class="cls-6" d="M68.85,8.66c-1.23,0-1.24,2.12,0,2.12S70.08,8.66,68.85,8.66Z"/><path class="cls-6" d="M73.53,14.76c-.18,0-.18.31,0,.31S73.71,14.76,73.53,14.76Z"/><path class="cls-6" d="M73.11,14c-.49,0-.49.84,0,.84S73.6,14,73.11,14Z"/><path class="cls-4" d="M29.44,60.26c-2.69-6.27-7.22-11.63-9-18.38a.07.07,0,0,0-.13,0c2.46,6.61,3.83,13.63,8.9,18.52C29.35,60.55,29.51,60.41,29.44,60.26Z"/><path class="cls-4" d="M40.6,53.13c-.87-2.42-2.55-4.4-4-6.43a.27.27,0,1,0-.46.29c1.1,2.26,2,4.77,3.68,6.62A.46.46,0,0,0,40.6,53.13Z"/><path class="cls-4" d="M23.94,45.48c-1.18,0-1.18,2,0,2S25.12,45.48,23.94,45.48Z"/><path class="cls-4" d="M25.22,48.42c-1,0-1,1.8,0,1.8S26.26,48.42,25.22,48.42Z"/><path class="cls-4" d="M27.13,51.79c-1.24,0-1.25,2.15,0,2.15S28.38,51.79,27.13,51.79Z"/><path class="cls-4" d="M35.44,48.93c-.87,0-.87,1.49,0,1.49S36.31,48.93,35.44,48.93Z"/><path class="cls-2" d="M55,26.83c-.24-3.23-.29-6.48-.29-9.72,0,0,0,0,0,0-.11,3.24-.19,6.48-.34,9.72-.12,2.82-.48,5.71.11,8.48a.47.47,0,0,0,.93,0C55.69,32.5,55.15,29.65,55,26.83Z"/><path class="cls-2" d="M53,21.15c-1,0-1.06,1.83,0,1.83S54.07,21.15,53,21.15Z"/><path class="cls-2" d="M52.69,25.59c-.43,0-.44.74,0,.74S53.12,25.59,52.69,25.59Z"/><path class="cls-2" d="M53,27.62c-1.35,0-1.35,2.34,0,2.34S54.36,27.62,53,27.62Z"/><path class="cls-2" d="M44,33.5a14.56,14.56,0,0,1-.41-2.94.19.19,0,1,0-.37,0c-.12,1.74-.39,4.07.65,5.54.18.25.5,0,.52-.24A7.58,7.58,0,0,0,44,33.5Z"/><path class="cls-5" d="M78.58,43.32s0,0,0,0h0a.18.18,0,0,0-.29,0c-2.5,3.8-6,7.65-7.58,12a.75.75,0,0,0,1.22.79c.28-.33.53-.69.78-1a.18.18,0,0,0,.31,0c1.67-3,3.09-6.23,4.53-9.41.35-.72.69-1.45,1-2.16a.19.19,0,0,0,0-.18Z"/><path class="cls-5" d="M75.36,42.51c-1.33,0-1.33,2.29,0,2.29S76.7,42.51,75.36,42.51Z"/><path class="cls-5" d="M73.45,45.55c-1.09,0-1.1,1.88,0,1.88S74.54,45.55,73.45,45.55Z"/><path class="cls-5" d="M72.81,47.61c-.35,0-.35.6,0,.6S73.16,47.61,72.81,47.61Z"/><path class="cls-5" d="M64.52,49.5a5.42,5.42,0,0,0-2.59,1.31c.06-.35.11-.69.16-1A43.4,43.4,0,0,0,63,45c0-.18.07-.37.12-.54s0-.08,0-.1l.12-.76c0,.25-.1.49-.15.74a.1.1,0,0,0-.11.06c-1,2.63-2.11,5.25-2.83,8-.18.68.58,1.42,1.14,1,1.23-1,2.88-1.52,3.7-3C65.15,50,64.91,49.46,64.52,49.5Z"/><path class="cls-5" d="M63.48,41.53c0,.45-.08.9-.15,1.34.09-.45.17-.89.27-1.32A.06.06,0,1,0,63.48,41.53Z"/><path class="cls-5" d="M63.21,43.59q.07-.36.12-.72Z"/></g><g id="Camada_3" data-name="Camada 3"><path class="cls-7" d="M34.15,28.18A67.89,67.89,0,0,0,37,44.58c1.73,5.17,4.56,9.86,8.41,12.44a12,12,0,0,1-10.21-3.5A44.22,44.22,0,0,0,35,69.9c-5-7.69-12.3-16.27-15.82-25.27-2.16-5.54.49-5.51,4.55-8.57C24.79,35.23,34.23,29.24,34.15,28.18Z"/><path class="cls-7" d="M57.13,14.59q.32,13.9-.14,27.81a36.65,36.65,0,0,1-7.65-8.2l-6,10.43c-.71-4.53-1.5-9.05-2.36-13.53-.45-2.41-3-9.85-2.3-12.12C39.75,15.65,57.14,14.86,57.13,14.59Z"/><path class="cls-7" d="M58.48,57.6a40.26,40.26,0,0,1,8.38-5.84L71.65,64,81.34,43a2.11,2.11,0,0,0,.26-1.48,1.42,1.42,0,0,0-.8-.78C77.94,39.33,66.55,28.9,64.67,30.14,61.74,32.08,59.45,53.14,58.48,57.6Z"/><path class="cls-7" d="M20,45.32c-2.21,5-4.49,10.08-7.25,12.71-1.39,1.33-3,1.94-4.32.12a2.76,2.76,0,0,1-.51-1.23,6.34,6.34,0,0,1,.08-2A16.33,16.33,0,0,1,9.9,49.59c.65-1.21,1.42-2.39,2.21-2,1.15.63,1.61,4.43,1.34,7.37s-1,5.44-1.44,8.26-.4,6.56.56,8.29"/><path class="cls-7" d="M34.54,33.93a43.51,43.51,0,0,0,4.29-10.78"/><path class="cls-7" d="M57.18,20.79a4.73,4.73,0,0,0,3.85,0A3.47,3.47,0,0,0,62.3,16.6c-.79-.43-1.59.58-2,1.55-2.07,4.87-1,11.62,2.39,15"/><path class="cls-7" d="M80.08,45.46C81.61,48.2,84.79,49,86,52c.82,2.13.38,4.73-.41,6.87a62.71,62.71,0,0,0-2.48,6.37c-.57,2.26-.45,5.06.93,6.62"/><path class="cls-7" d="M51.29,62.38a5.92,5.92,0,0,0,2.18,2.68,13.1,13.1,0,0,0-4.57,8.68,10.57,10.57,0,0,0-2.52-2.48c.3-3.89,2.49-7.43,5.35-8.64"/><path class="cls-7" d="M63.46,70.49,60,73.43a12.51,12.51,0,0,1,3.3,6.42l2.6-2.64-2-6.73"/><path class="cls-7" d="M29.64,11.57a26,26,0,0,0-3.71,7.51,6.55,6.55,0,0,0-.38,3.13c.19,1.05,1,2,1.8,1.69a17.7,17.7,0,0,1,4.45-10l-1.86-1.52"/><path class="cls-7" d="M14.88,67.51a3.28,3.28,0,0,1,4.56-3.27c1.92,1,3,3.57,4,6L21,72.11a9.87,9.87,0,0,0-6.1-5"/><path class="cls-7" d="M69.41,21.65c1.33-.56,2.87,1.24,2.58,3s-2.26,2.61-3.3,1.4-.61-3.85.72-4.42"/><path class="cls-7" d="M16.2,28.82c-1.76-.15-3.39,2-3.09,4s2.45,3.42,4.07,2.57,2.21-3.64,1.12-5.29a5.7,5.7,0,0,0-3.05-2"/><path class="cls-7" d="M37.68,80.05c1-.67,2.45.5,2.43,2s-1.5,2.58-2.5,1.84a2.74,2.74,0,0,1-.07-3.74"/><path class="cls-7" d="M83.81,71a2.25,2.25,0,0,0,3.25-.42,4.36,4.36,0,0,0,.46-4.21c-2.21,1.57-4.36,4.78-3.36,7.78a3.68,3.68,0,0,0,5,2.26c1.84-.82,3.23-2.77,4.49-4.7"/><path class="cls-7" d="M20,41.17a61.1,61.1,0,0,1,9.58-7.55"/><path class="cls-7" d="M39.81,19.14A32.17,32.17,0,0,1,49.3,17"/><path class="cls-7" d="M65.22,31.81A70,70,0,0,0,75.33,39"/><path class="cls-7" d="M59.3,58a35,35,0,0,1,8.56-5.53"/><path class="cls-7" d="M36.17,54.13a59.76,59.76,0,0,0,.12,14.94"/><path class="cls-7" d="M44.58,44.89l5.54-8.75"/><path class="cls-7" d="M80.93,46.89a117.61,117.61,0,0,0-7.19,16.47"/><path class="cls-7" d="M35.79,35.08a36.77,36.77,0,0,0,6.55,17.29"/><path class="cls-7" d="M58.37,27.35A84.16,84.16,0,0,1,58,40.73"/></g></svg>