<svg xmlns="http://www.w3.org/2000/svg" viewBox="0 0 97.28 94.22"><defs><style>.cls-1{opacity:0.33;}.cls-2{fill:#2ca8c4;}.cls-3{fill:#57d0dd;}.cls-4{fill:#a35119;}.cls-5{fill:#663717;}.cls-6{fill:none;stroke:#000;stroke-miterlimit:10;stroke-width:0.25px;}</style></defs><title>come cabo verde</title><g id="Camada_3" data-name="Camada 3"><path class="cls-2" d="M59,24.27C51.08,24,43,24.84,35.79,28s-13.54,9-16,16.52a17.36,17.36,0,0,0-.79,8.3c.69,4.1,3.17,7.68,6,10.74A36.75,36.75,0,0,0,41.67,74.27a25.53,25.53,0,0,0,19.45-2C65,70,68.2,66.42,69,62.06c1.44-7.76-5.14-15-12.43-18-3.42-1.43-7.25-2.26-10.83-1.31s-6.76,4-6.89,7.75,3.67,7.27,7.21,6.2c-2.29-1.56-1.72-5.48.57-7s5.45-1.16,7.94.07c3.63,1.81,6.5,6.13,4.93,9.87-1.08,2.59-3.92,4-6.69,4.52a14.26,14.26,0,0,1-12.25-3.49,11.59,11.59,0,0,1-3-12.12c1.52-4.05,5.35-6.69,9-9,6.94-4.27,14.53-8.24,22.68-8.25C66.72,26.25,65.1,24.52,59,24.27Z"/><path class="cls-3" d="M30,55.44A28.17,28.17,0,0,1,63.51,37.58a12.94,12.94,0,0,1,4.72,2.08c2.55,1.93,3.77,5.13,4.53,8.24,1,4.28,1.37,9-.48,13-2.2,4.77-7.09,7.72-12,9.64-4,1.57-8.28,2.66-12.53,2.18s-8.47-2.75-10.44-6.55a10.47,10.47,0,0,1,10.61-15.2A8.26,8.26,0,0,1,54,54.6a5.83,5.83,0,0,1-.5,6.82c-1.69,1.78-5,1.88-6.5,0l2.49-.59a3.11,3.11,0,0,0-2.42-3.49,4,4,0,0,0-4.5,3.29A5.66,5.66,0,0,0,45,66a9.62,9.62,0,0,0,5.9,1.58A15.17,15.17,0,0,0,61.7,62.63,10.23,10.23,0,0,0,64.63,55c-.39-4-3.92-7.06-7.77-8s-7.92-.11-11.67,1.17c-5.73,1.95-11.42,5.25-14.1,10.68a8.77,8.77,0,0,1,1.28-9.56"/><path class="cls-4" d="M37.28,44.29C34.58,45.72,33.6,49,32.87,52c.42.25.88-.23,1.17-.63,1.29-1.84,3.69-3.23,6-2.57,1.83.53,3.33,3.93,5.46,2.25C49.51,47.85,40.94,42.34,37.28,44.29Z"/><path class="cls-4" d="M22.23,45c-3.28,1.32-6.87,3.47-7.3,7a7.85,7.85,0,0,0,2.47,6.13A16.36,16.36,0,0,0,30,62.74,25.56,25.56,0,0,0,42.93,58c1-.71,2.16-1.67,2.17-2.94a22.87,22.87,0,0,1-17.49,3.4c-3-.65-6.28-2.59-6.22-5.62.05-2.53,2.41-4.31,4.53-5.68a79.31,79.31,0,0,0,7.41-4.92C31,40.82,24.7,44,22.23,45Z"/><path class="cls-5" d="M32.15,49.2c0,.72.24,1.62,1,1.71.94.12,1.29-1.15,1.6-2a4.41,4.41,0,0,1,6.52-2c2,1.56,2.11,4.79.73,6.94s-3.84,3.37-6.31,4.05a21.82,21.82,0,0,1-7.06.75c-2.43-.13-5.19-1-6.12-3.22s.39-4.69,2.08-6.34,3.82-2.88,5.24-4.77a55.53,55.53,0,0,0-6.93,3.07,9.23,9.23,0,0,0-3.55,2.8c-1.71,2.59-.55,6.32,1.84,8.31s5.64,2.58,8.74,2.74a22.81,22.81,0,0,0,8.5-1,12.29,12.29,0,0,0,6.67-5.14,8.5,8.5,0,0,0,.34-8.22C42.46,41.52,32.4,42.41,32.15,49.2Z"/><path class="cls-5" d="M25.34,64.74c-.56,1.44-1.11,2.89-1.74,4.3a6.79,6.79,0,0,1-1.37,2.21,2.15,2.15,0,0,1-2.28.57c-1-.45-1.25-1.95-.77-3a5.08,5.08,0,0,1,2.51-2.31,4,4,0,0,0-5.53,1.6,4.8,4.8,0,0,0,1.29,6,4.61,4.61,0,0,0,5.85-.82,11.48,11.48,0,0,0,2.12-4.09c3.74-10.49,7.68-20.94,11.24-31.5-1.64,0-2.27,3.56-2.77,4.84L31,50Z"/><path class="cls-5" d="M43.13,16.3c1-2.36,2.15-4.78,4.11-6.46a4.42,4.42,0,0,1,3.51-1.26,4.5,4.5,0,0,1,2.67,1.89,11.88,11.88,0,0,1,1.79,9.23,25,25,0,0,1-3.88,8.79C47,35.27,40.59,41.36,32.65,42.83,39.82,38,47.41,32.62,50.41,24.5a7,7,0,0,0,.41-4.68c-.53-1.51-2.25-2.68-3.74-2.1a4.56,4.56,0,0,0-2,2C40.94,26.18,38.32,33.21,34.74,40A143,143,0,0,1,43.13,16.3Z"/><path class="cls-4" d="M49.7,32.78c4-3.8,6.84-9.29,6-14.76-.31-2.14-1.47-4.46-3.58-4.92s-4.25,1.32-5.72,3.06A54,54,0,0,0,34.7,40.67c2.73-4,4.06-8.83,6.35-13.12a32.59,32.59,0,0,1,4.55-6.5,8.28,8.28,0,0,1,2.78-2.22,3.39,3.39,0,0,1,3.4.3c1.51,1.23,1.12,3.63.4,5.45C49.31,31.82,44,35.66,37.69,39.65,40.59,40.7,47.52,34.84,49.7,32.78Z"/><path class="cls-6" d="M37.83,42.37a7.49,7.49,0,0,1,7.9,4.2A9.84,9.84,0,0,1,45,55.78a14.52,14.52,0,0,1-7.49,5.77,19.33,19.33,0,0,1-18.45-3.14c-2.06-1.67-3.86-4.12-3.51-6.75.45-3.46,4.2-5.35,7.5-6.49,5.34-1.85,10.82-3.3,16-5.57s10.11-5.45,13.39-10,4.69-10.78,2.64-16c-.9-2.32-3-4.62-5.42-4.25a5.75,5.75,0,0,0-3,1.68c-4.32,4-6.22,9.94-8,15.57Q32.07,47.44,24.55,68.09c-.6,1.64-1.29,3.4-2.76,4.36s-3.92.53-4.33-1.17c-.53-2.21,2.4-3.49,4.65-3.84-1.08-2.33-5-2.23-6.24,0s.17,5.36,2.58,6.24a6.16,6.16,0,0,0,6.78-2.33,14.72,14.72,0,0,0,2-4.9Q33.51,44.4,41.44,22.89a11.37,11.37,0,0,1,2.47-4.48,4,4,0,0,1,4.72-.84,4.85,4.85,0,0,1,1.82,3.57c.77,5.74-2.41,11.43-6.79,15.23s-9.84,6.05-15.18,8.32A18.39,18.39,0,0,0,23,47.8a6.44,6.44,0,0,0-2.29,5.62,6.42,6.42,0,0,0,4.65,4.67,17.67,17.67,0,0,0,6.88.29c2.61-.25,5.32-.6,7.51-2.05s3.65-4.31,2.67-6.74a4.48,4.48,0,0,0-5.32-2.51,4.58,4.58,0,0,0-3,5C31.27,48.74,33.73,43.21,37.83,42.37Z"/><path class="cls-4" d="M57,49.57c2.69-1.44,3.67-4.74,4.4-7.71-.41-.25-.88.23-1.16.63-1.3,1.84-3.69,3.23-6,2.57-1.83-.53-3.33-3.93-5.46-2.25C44.78,46,53.35,51.52,57,49.57Z"/><path class="cls-4" d="M72.06,48.89c3.28-1.32,6.87-3.47,7.3-7a7.85,7.85,0,0,0-2.47-6.13,16.33,16.33,0,0,0-12.64-4.66,25.59,25.59,0,0,0-12.89,4.7c-1,.71-2.16,1.67-2.16,2.93a22.88,22.88,0,0,1,17.48-3.39C69.65,36,73,38,72.9,41c0,2.53-2.4,4.31-4.53,5.68A79.31,79.31,0,0,0,61,51.58C63.35,53,69.59,49.86,72.06,48.89Z"/><path class="cls-5" d="M62.15,44.66c0-.72-.25-1.62-1-1.71-.94-.12-1.3,1.15-1.6,2a4.41,4.41,0,0,1-6.52,2c-2-1.57-2.12-4.79-.74-6.94a10.66,10.66,0,0,1,6.31-4,21.85,21.85,0,0,1,7.06-.75c2.43.13,5.19,1,6.12,3.21s-.39,4.7-2.08,6.35-3.81,2.88-5.24,4.77a54.26,54.26,0,0,0,6.93-3.07A9.16,9.16,0,0,0,75,43.73c1.71-2.59.55-6.32-1.84-8.31s-5.63-2.58-8.74-2.74a22.53,22.53,0,0,0-8.49,1,12.22,12.22,0,0,0-6.67,5.14A8.48,8.48,0,0,0,48.89,47C51.83,52.34,61.9,51.45,62.15,44.66Z"/><path class="cls-5" d="M69,29.12c.55-1.44,1.11-2.89,1.73-4.3a6.71,6.71,0,0,1,1.38-2.21A2.13,2.13,0,0,1,74.34,22c1,.45,1.25,1.95.77,3a5.08,5.08,0,0,1-2.51,2.31,4,4,0,0,0,5.53-1.6,4.79,4.79,0,0,0-1.28-6,4.61,4.61,0,0,0-5.85.82,11.5,11.5,0,0,0-2.13,4.09c-3.74,10.49-7.68,20.94-11.23,31.5,1.64,0,2.27-3.56,2.76-4.84l2.9-7.55Z"/><path class="cls-5" d="M51.17,77.56c-1,2.36-2.16,4.78-4.11,6.46a4.46,4.46,0,0,1-3.52,1.26,4.48,4.48,0,0,1-2.66-1.89,11.88,11.88,0,0,1-1.8-9.23A24.91,24.91,0,0,1,43,65.37C47.35,58.59,53.7,52.5,61.64,51c-7.17,4.85-14.75,10.21-17.76,18.33A7.1,7.1,0,0,0,43.47,74c.53,1.51,2.26,2.68,3.75,2.1a4.54,4.54,0,0,0,2-2C53.36,67.68,56,60.65,59.55,53.91A144.23,144.23,0,0,1,51.17,77.56Z"/><path class="cls-4" d="M44.59,61.08c-4,3.8-6.84,9.29-6.05,14.76C38.85,78,40,80.3,42.12,80.75s4.25-1.31,5.72-3A54.13,54.13,0,0,0,59.6,53.19c-2.73,4-4.06,8.83-6.35,13.12a33,33,0,0,1-4.56,6.5A8.25,8.25,0,0,1,45.91,75a3.34,3.34,0,0,1-3.39-.29c-1.52-1.24-1.13-3.63-.41-5.45C45,62,50.35,58.2,56.6,54.21,53.7,53.16,46.77,59,44.59,61.08Z"/><path class="cls-6" d="M56.46,51.49a7.51,7.51,0,0,1-7.9-4.2,9.84,9.84,0,0,1,.74-9.21,14.54,14.54,0,0,1,7.48-5.77,19.33,19.33,0,0,1,18.46,3.14c2.05,1.67,3.85,4.12,3.51,6.75-.46,3.46-4.21,5.35-7.51,6.49-5.33,1.84-10.82,3.3-16,5.57s-10.11,5.45-13.4,10-4.69,10.78-2.64,16c.9,2.32,3,4.62,5.42,4.25a5.75,5.75,0,0,0,3-1.68c4.32-4,6.22-9.94,8-15.57q6.63-20.93,14.15-41.57c.6-1.64,1.3-3.4,2.76-4.36s3.92-.53,4.33,1.17c.53,2.21-2.4,3.49-4.64,3.84,1.07,2.33,5,2.23,6.24,0s-.18-5.36-2.59-6.24a6.17,6.17,0,0,0-6.78,2.33,14.85,14.85,0,0,0-2,4.9Q60.8,49.46,52.85,71a11.37,11.37,0,0,1-2.47,4.48,4,4,0,0,1-4.71.83,4.79,4.79,0,0,1-1.83-3.56c-.76-5.74,2.42-11.44,6.79-15.23s9.85-6.05,15.18-8.32a18.56,18.56,0,0,0,5.48-3.11,6.43,6.43,0,0,0,2.28-5.62,6.44,6.44,0,0,0-4.64-4.68A17.92,17.92,0,0,0,62,35.48c-2.61.25-5.32.6-7.5,2.05s-3.66,4.31-2.68,6.74a4.49,4.49,0,0,0,5.32,2.51,4.57,4.57,0,0,0,3-5C63,45.12,60.57,50.65,56.46,51.49Z"/></g></svg>