<svg xmlns="http://www.w3.org/2000/svg" viewBox="0 0 165.42 212.79"><defs><style>.cls-1{opacity:0.33;}.cls-2{fill:#1e90b3;}.cls-3{fill:#fff;}.cls-4{fill:#834c20;}.cls-5{fill:#663717;}.cls-6{fill:none;stroke:#000;stroke-linecap:round;stroke-linejoin:round;stroke-width:0.25px;}</style></defs><title>come cabo verde</title><g id="Camada_4" data-name="Camada 4"><path class="cls-2" d="M76.18,45.75c-23.72,0-44.69,21.69-39.42,46.39,4.66,21.84,36.45,81.55,36.45,81.55a3.3,3.3,0,0,0,5.94,0s32-60.08,36.71-82C121.13,66.94,99.91,45.75,76.18,45.75Z"/><circle class="cls-3" cx="76.82" cy="87.86" r="26.45"/><path class="cls-4" d="M88.43,56c.83.13,1.9.61,1.72,1.44-.12.55-.77.8-1.33.9-2.91.56-5.89,0-8.84-.31-5.27-.57-10.27.33-15.46.4C65.64,53.13,84.53,55.4,88.43,56Z"/><path class="cls-5" d="M66.91,60.86a66.58,66.58,0,0,1,20,.28c.45.07,1,.12,1.29-.21a1.15,1.15,0,0,0,.23-.53,3.64,3.64,0,0,0-.17-2.14,93.17,93.17,0,0,0-20.51-.5,6.44,6.44,0,0,0-2.93.75C64.94,59.53,65.64,61,66.91,60.86Z"/><path class="cls-4" d="M63.41,67.08a45.38,45.38,0,0,0,24.83,2.43,2,2,0,0,0,1.52-.84,1.85,1.85,0,0,0,0-1.07,21.25,21.25,0,0,0-1.63-5.52,2.43,2.43,0,0,0-.8-1.11,2.51,2.51,0,0,0-1-.33,64.41,64.41,0,0,0-15.06-.9c-2,.11-4.59-.14-5.86,1.32C64.41,62.25,63.76,65.55,63.41,67.08Z"/><path class="cls-5" d="M63,66.78c-1.34,2.28-3.06,6.3-4.41,8.58,11.09.85,22.61-.68,33.72-1.09-.69-3.39-.48-4.85-3.93-5-2.83-.14-5.67-.12-8.5-.32C78.23,68.81,63.3,66.28,63,66.78Z"/><path class="cls-4" d="M90.48,73.5a5.27,5.27,0,0,1,2.13.24,4.77,4.77,0,0,1,1.87,1.7c5.11,7,6,16.36,4.2,24.81a28.57,28.57,0,0,1-5.32,11.88,21.27,21.27,0,0,1-36-4.78,29.27,29.27,0,0,1-2.1-8.3,45.94,45.94,0,0,1,.44-13.75c.51-2.82,1.29-9.47,4.09-11,1.6-.86,5.17-.25,7-.29l7.72-.18Z"/><path class="cls-5" d="M89.72,82.05a7.06,7.06,0,0,1,2.1-1.9,2.77,2.77,0,0,1,2.72,0,3.8,3.8,0,0,1,1.3,3.15,17.93,17.93,0,0,1-1.26,7.34c-.08.2-.19.42-.41.46s-.53-.37-.59-.72l-.47-2.64a3,3,0,0,0-1-2.15,2.32,2.32,0,0,0-2.14.1c-2,1-3.16,3.12-4.17,5.12a36.59,36.59,0,0,1-2.13,4C82.68,91.15,87.5,84.78,89.72,82.05Z"/><path class="cls-6" d="M64,58.86s-2.63-.73,0-1.46,12-2.93,27.06,0c0,0,1.9.44-.73,1.46S83.43,55.12,64,58.86Z"/><path class="cls-6" d="M64,58.86l2.19,2s16.68-1,22.24,0L89.55,59S79.75,55.06,64,58.86Z"/><path class="cls-6" d="M88.38,60.91l2.05,7.31C83.61,71.4,63.22,69.39,64,67.64s2.19-6.73,2.19-6.73S80,59.15,88.38,60.91Z"/><path class="cls-6" d="M64.27,67.64l-3.69,5.68S41.83,100.8,68,118.17c0,0,10.41,4.07,17.12.5,0,0,26-16,8.1-44.3l-2.78-6.15S74.6,72.38,64.27,67.64Z"/><path class="cls-6" d="M64,67.64a44.17,44.17,0,0,0,26.48.58l2.78,6.15S77.7,73.14,60.58,73.32Z"/><path class="cls-6" d="M86.26,87.11c1.26-2,2.88-3.91,5.11-4.62a3.33,3.33,0,0,1,1.71-.15c1.45.34,2.17,2,2.47,3.43a30.28,30.28,0,0,1,.36,5.71,24.31,24.31,0,0,0-.86-5.32c-.44-1.21-1.3-2.52-2.59-2.53a3.35,3.35,0,0,0-2.07,1c-3.17,2.58-4.9,5.75-7.2,9A24.65,24.65,0,0,1,86.26,87.11Z"/></g></svg>