<svg xmlns="http://www.w3.org/2000/svg" viewBox="0 0 165.42 212.79"><defs><style>.cls-1{opacity:0.33;}.cls-2{fill:#1e90b3;}.cls-3{fill:#fff;}.cls-4{fill:#57d0dd;}.cls-5{fill:#3cb9ce;}.cls-6{fill:#834c20;}.cls-7{fill:#d37231;}.cls-8{fill:#663717;}.cls-9{fill:#a35119;}.cls-10{fill:#5deded;}.cls-11{fill:#b75d21;}.cls-12{fill:#2ca8c4;}.cls-13{fill:none;stroke:#000;stroke-linecap:round;stroke-linejoin:round;stroke-width:0.25px;}</style></defs><title>come cabo verde6</title><g id="Camada_4" data-name="Camada 4"><path class="cls-2" d="M88.25,43C64.53,43,43.56,64.71,48.83,89.41,53.49,111.25,85.28,171,85.28,171a3.31,3.31,0,0,0,5.94,0s32-60.09,36.71-82.06C133.2,64.21,112,43,88.25,43Z"/><circle class="cls-3" cx="88.88" cy="85.13" r="26.45"/><path class="cls-4" d="M93.84,119.82c1.18-2.67-.35-6.06,1.16-8.55,1-1.6,2.9-2.3,4.68-2.89,6.13-2,16.84-5.06,19-12.09,2.07-6.68-2.3-15.35-6.65-20.12-5.47-6-13-9.68-20.63-12.54-3.61-1.35-7.48-2.57-11.26-1.81-3.3.65-6.14,2.76-8.49,5.16A33.7,33.7,0,0,0,83,121.77C86.79,123.31,92.19,123.54,93.84,119.82Zm-11.47-5.89a6.17,6.17,0,0,1-1.84-.72l-.27-.07a4,4,0,0,1-2-1.11,2.57,2.57,0,0,1-.69-1.77,2.74,2.74,0,0,1,0-1.58A4.71,4.71,0,0,1,80.11,106a6.91,6.91,0,0,1,1.57-.53l.08,0a2.62,2.62,0,0,1,1.26-.12,5.42,5.42,0,0,1,1.27.13,3.69,3.69,0,0,1,1.75,1,1.7,1.7,0,0,1,.38.61,2.17,2.17,0,0,1,.19.33,1.09,1.09,0,0,1,.07.24,3.1,3.1,0,0,1,1,3.76A4.67,4.67,0,0,1,82.37,113.93Z"/><path class="cls-5" d="M89.92,109c.91-2.41,3.29-4,5.74-4.8s5-1,7.55-1.71c8.81-2.33,14.66-10.65,9.48-18.77A38.83,38.83,0,0,0,88.6,66.76a19.57,19.57,0,0,0-7.5-.4c-8.24,1.43-13.19,10.26-14.29,18.55C65.08,98,71.3,112.73,83.51,117.84a4.81,4.81,0,0,0,2.31.51c1.84-.17,3-2.12,3.31-3.93S89.27,110.69,89.92,109Zm-7.55,5a6.17,6.17,0,0,1-1.84-.72l-.27-.07a4,4,0,0,1-2-1.11,2.57,2.57,0,0,1-.69-1.77,2.74,2.74,0,0,1,0-1.58A4.71,4.71,0,0,1,80.11,106a6.91,6.91,0,0,1,1.57-.53l.08,0a2.62,2.62,0,0,1,1.26-.12,5.42,5.42,0,0,1,1.27.13,3.69,3.69,0,0,1,1.75,1,1.7,1.7,0,0,1,.38.61,2.17,2.17,0,0,1,.19.33,1.09,1.09,0,0,1,.07.24,3.1,3.1,0,0,1,1,3.76A4.67,4.67,0,0,1,82.37,113.93Z"/><path class="cls-6" d="M89.72,84.34a12.18,12.18,0,0,1,.76-3.57C91.68,77,93,73.08,96,70.52c.75.44.61,1.55.33,2.36s-.55,1.86.11,2.44c.72-.77,1.9-1.57,2.71-.87a2,2,0,0,1,.53,1.31,12,12,0,0,1-7.11,12.16C90.61,88.71,89.72,85.79,89.72,84.34Z"/><path class="cls-7" d="M94.42,79.14a16,16,0,0,0-2.79,5c-.24.72-.39,1.57.11,2,.66.6,1.89,0,2.65-.74A8.26,8.26,0,0,0,97,79.7c-.22.66-1.43.58-1.35-.09a6.22,6.22,0,0,1,.28-.79c.07-.26-.09-.59-.36-.52a1.87,1.87,0,0,0-1,1.39"/><path class="cls-2" d="M91,87.94a180.74,180.74,0,0,0-15.6,29.86,4.89,4.89,0,0,0-.52,2.14,1.72,1.72,0,0,0,1.26,1.63,2.4,2.4,0,0,0,1.9-.87c3.36-3.18,5.4-7.47,7.36-11.65,3.28-7,8.13-15.39,8.55-23.22C92.6,85.75,91.85,86.68,91,87.94Z"/><path class="cls-8" d="M94.86,95.6a9,9,0,0,1,1.35-2.4c1.72-2.44,3.57-5,6.29-6.17.44.49.09,1.26-.3,1.78s-.82,1.22-.47,1.79c.69-.39,1.73-.7,2.15,0a1.46,1.46,0,0,1,.09,1.07,9.07,9.07,0,0,1-7.89,7.18C94.51,99,94.52,96.66,94.86,95.6Z"/><path class="cls-9" d="M99.43,92.91a12,12,0,0,0-3.15,3c-.33.46-.64,1-.38,1.48.35.59,1.37.43,2.09.07a6.28,6.28,0,0,0,3.18-3.54c-.31.42-1.16.09-1-.37a4.78,4.78,0,0,1,.39-.5c.1-.18.07-.46-.14-.46a1.39,1.39,0,0,0-1,.78"/><path class="cls-10" d="M95,98.51a136.06,136.06,0,0,0-18,18A3.75,3.75,0,0,0,76.1,118a1.3,1.3,0,0,0,.55,1.46,1.82,1.82,0,0,0,1.57-.2c3.14-1.53,5.59-4.17,8-6.76,4-4.3,9.35-9.28,11.42-14.84C96.61,97.28,95.86,97.78,95,98.51Z"/><path class="cls-2" d="M109.05,105c-3.88,1.71-8,3-11.67,5.05-2,1.13-4.12,3-3.78,5.28.25,1.67,1.8,3.11,1.46,4.77-.1.51-.39,1-.5,1.5a1.16,1.16,0,0,0,.54,1.35c1.61-.11,2.53-2,2.59-3.59s-.42-3.26-.08-4.85a6.76,6.76,0,0,1,3.4-4.2,27.56,27.56,0,0,1,5.18-2c4.72-1.57,10.87-4.56,12.61-9.59C115.49,99.92,112.57,103.41,109.05,105Z"/><path class="cls-11" d="M87.4,71.67A7.61,7.61,0,0,0,78,70.11a2.37,2.37,0,0,0-1.21,1.36,2.6,2.6,0,0,0,.63,2,8.53,8.53,0,0,0,4.11,3.31,4.91,4.91,0,0,0,5-1A3.48,3.48,0,0,0,86.6,71"/><path class="cls-8" d="M78.64,84.08a6.77,6.77,0,0,0-7-2.7c-2.57.75-4.35,3.84-3.31,6.3s4,3.31,6.59,3.31c2.11,0,4.59-.74,5.2-2.75.56-1.81-.72-3.66-2.06-5"/><path class="cls-2" d="M73.66,98.62a5.66,5.66,0,0,0-4.2-2.71,1.35,1.35,0,0,0-1.39.56,2,2,0,0,0,.17,1.58,7.46,7.46,0,0,0,2.69,3.54c1.25.81,2.89.9,3.66,0A2.54,2.54,0,0,0,73.48,98"/><path class="cls-2" d="M114.08,94.08a1.17,1.17,0,0,0,0-.11A1.17,1.17,0,0,1,114.08,94.08Z"/><path class="cls-2" d="M113.71,94.7c.13-.2.25-.41.37-.62Z"/><path class="cls-2" d="M109.86,98.61a13.27,13.27,0,0,0,3.85-3.91,10.79,10.79,0,0,1-1.86,2.21c-3.21,2.87-7.49,3.88-11.51,5-2.44.68-6.19,1.22-7.86,3.36s-1.76,6-1.67,8.64a.47.47,0,0,0,.94.06,57.75,57.75,0,0,1,1.17-6.69c.93-3.14,4.83-3.85,7.55-4.7A34.75,34.75,0,0,0,109.86,98.61Z"/><path class="cls-2" d="M113.87,85.19a8.34,8.34,0,0,1,.26,8.78C115.64,91.18,116,87.73,113.87,85.19Z"/><path class="cls-2" d="M113.34,84.59a6,6,0,0,1,.53.6,7.25,7.25,0,0,0-.46-.67S113.29,84.54,113.34,84.59Z"/><path class="cls-2" d="M107.47,95.91c0-.54-.46-1.15-.45-1.67.07-2,1.83-1.87,3-2.29a4.12,4.12,0,0,0,2-1.4c3.37-4.58-2.3-10.91-6-13a.06.06,0,0,0-.07.1c2.87,2.05,6.23,6,5.94,9.84a5.55,5.55,0,0,1-1.6,3.31,9,9,0,0,1-2.29.66,3.26,3.26,0,0,0-1.69.93c-1,1.24.17,2.1.09,3.32-.13,2-1.62,1.79-2.58,2.81a1.26,1.26,0,0,0-.44,1.14.38.38,0,0,0,.73.14C104.9,97.87,107.58,98.31,107.47,95.91Z"/><path class="cls-2" d="M108.58,84.71a.36.36,0,0,0-.65.32,4.33,4.33,0,0,1,.33,2.51,22.26,22.26,0,0,0-.5,2.26.36.36,0,0,0,.52.34C110.11,89.12,109.46,86.13,108.58,84.71Z"/><path class="cls-2" d="M104.55,94.75s0,0,0,0a0,0,0,0,0,0,0c-.62-.64-1.66.29-1,1A.72.72,0,0,0,104.55,94.75Z"/><path class="cls-2" d="M103.2,96.36s-.08,0,0,0A0,0,0,1,0,103.2,96.36Z"/><path class="cls-2" d="M101.19,98.62l-.12.12a.67.67,0,0,0,.89,1l.14-.11C102.78,99.09,101.83,98,101.19,98.62Z"/><path class="cls-2" d="M102.65,97.14l.15-.31a.46.46,0,0,0-.58-.66l-.32.12C100.94,96.63,102.19,98.05,102.65,97.14Z"/><path class="cls-2" d="M78.55,64.59a.88.88,0,0,0-1.32,1.16A.88.88,0,0,0,78.55,64.59Z"/><path class="cls-2" d="M76,66.83a.48.48,0,0,0-.29-.64c-.34-.47-.75-.26-1,.13-.42.21-.68.59-.25,1,.05.25.24.41.6.37A.73.73,0,0,0,76,66.83Z"/><path class="cls-2" d="M72.59,68.46a.48.48,0,0,0-.72.64A.48.48,0,0,0,72.59,68.46Z"/><path class="cls-10" d="M66,84.94a15.85,15.85,0,0,1,3.36-11s0,0,0,0a11.88,11.88,0,0,0-4,11.06C65.38,85.35,66,85.32,66,84.94Z"/><path class="cls-12" d="M90.45,106.12c2-2.92,4.32-5.62,7.65-7,.06,0,0-.12,0-.09-3.43,1.43-6.46,3.35-8.15,6.75A.32.32,0,0,0,90.45,106.12Z"/><path class="cls-10" d="M91.18,118.53c.15-.22-.17-.51-.36-.31a6,6,0,0,1-4.66,1.7c-.4,0-.54.61-.13.71A4.65,4.65,0,0,0,91.18,118.53Z"/><path class="cls-10" d="M82.5,102.62a.05.05,0,1,0,0-.1c-3.36-.44-6.9,1-7.17,4.77,0,.31.47.43.55.11C76.53,104.7,79.5,101.69,82.5,102.62Z"/><path class="cls-10" d="M89.53,88.36A21.13,21.13,0,0,1,93,78.93c0-.05-.05-.11-.09-.06A18,18,0,0,0,89,88.33C89,88.68,89.48,88.7,89.53,88.36Z"/><path class="cls-10" d="M85,105.7a.14.14,0,0,0-.26-.09c-1.83,4.11-4.13,8-6.15,12.08a.31.31,0,0,0,.52.34A41,41,0,0,0,85,105.7Z"/><path class="cls-10" d="M70.55,84a4.06,4.06,0,0,0-.26.36A3.32,3.32,0,0,1,70.55,84Z"/><polygon class="cls-10" points="71.31 83.24 71.31 83.23 71.31 83.23 71.31 83.24"/><path class="cls-10" d="M71.19,83.32a1.82,1.82,0,0,1,1.42-.58h.08l-.1,0a2.11,2.11,0,0,1,.26,0c.1,0,.08-.13,0-.1l-.06,0c.24-.13.29-.56,0-.63A2.23,2.23,0,0,0,70,84.54a.31.31,0,0,0,.61,0,2.18,2.18,0,0,1,.58-1.15.83.83,0,0,1,.15-.11Z"/><path class="cls-10" d="M72.59,82.76a2.22,2.22,0,0,0-1.28.47A4.83,4.83,0,0,1,72.59,82.76Z"/><path class="cls-10" d="M70.55,84a2.55,2.55,0,0,1,.26-.3A2.55,2.55,0,0,0,70.55,84Z"/><path class="cls-10" d="M82.59,69.75a2.11,2.11,0,0,0-2.91,1.44c0,.25.32.34.44.15a2.23,2.23,0,0,1,2.34-1.17A.22.22,0,0,0,82.59,69.75Z"/><path class="cls-10" d="M69.88,99.38c-.36-.61-.53-1.56.13-2,.34-.24,0-.74-.4-.59-1.18.5-1.64,2.67-.09,3C69.75,99.85,70,99.62,69.88,99.38Z"/><path class="cls-10" d="M71.8,84.54c0-.05-.13,0-.08.07S71.84,84.59,71.8,84.54Z"/><path class="cls-10" d="M72.51,84.84a.38.38,0,0,0-.57.51A.38.38,0,0,0,72.51,84.84Z"/><path class="cls-10" d="M71,85.76a.35.35,0,0,0-.53.47A.35.35,0,0,0,71,85.76Z"/><path class="cls-10" d="M82.06,71.69v-.08a.53.53,0,0,0,0-.33.62.62,0,0,0-1.07-.07.45.45,0,0,0-.09.32l0,.09A.63.63,0,1,0,82.06,71.69Z"/><path class="cls-10" d="M80.4,72.73a.36.36,0,0,0-.54.48A.36.36,0,0,0,80.4,72.73Z"/><path class="cls-10" d="M71.94,98.39c-.34-.38-.94.15-.6.53A.4.4,0,0,0,71.94,98.39Z"/><path class="cls-10" d="M71.23,100.42c-.23-.26-.63.1-.4.35S71.45,100.68,71.23,100.42Z"/><path class="cls-10" d="M85.75,121.59a.26.26,0,0,0-.39.34C85.58,122.18,86,121.83,85.75,121.59Z"/><path class="cls-10" d="M82.12,120.52l-.29-.07a.61.61,0,0,0-.78.69l0,.3a.8.8,0,1,0,1-.92Z"/><path class="cls-10" d="M74.2,112.71a.82.82,0,0,0,.1-1.58c-.54-.16-1.28,0-1.33.71a.77.77,0,0,0,.54.79.22.22,0,0,0,.06.16.23.23,0,0,0,.39-.07A1,1,0,0,0,74.2,112.71Z"/><path class="cls-10" d="M73.34,107.4a.83.83,0,0,0-.73-.38.61.61,0,0,0-.63.56.84.84,0,0,0,.29.77A.72.72,0,0,0,73.34,107.4Z"/><path class="cls-10" d="M83.92,92.45s-.12,0-.08.07S84,92.5,83.92,92.45Z"/><path class="cls-10" d="M82.06,98.45c.65-2.7,3.5-3.89,4.16-6.49a2.84,2.84,0,0,0-1.43-3.49c-.07,0-.1.07,0,.11,2.54,1.17.65,3.63-.54,4.68a20.72,20.72,0,0,0-2,1.81A3.77,3.77,0,0,0,81,98.39.55.55,0,0,0,82.06,98.45Z"/><path class="cls-10" d="M82.3,91.09c-.07-.08-.2,0-.13.11S82.36,91.17,82.3,91.09Z"/><path class="cls-10" d="M82.52,91.55l-.18.29c-.07.09,0,.22.15.17l.3-.15C83.11,91.71,82.71,91.25,82.52,91.55Z"/><path class="cls-10" d="M81.76,93.43a.22.22,0,0,0-.33.3C81.61,93.94,81.94,93.65,81.76,93.43Z"/><path class="cls-10" d="M81.24,93.43c-.16-.18-.44.06-.28.24A.18.18,0,0,0,81.24,93.43Z"/><path class="cls-13" d="M92.26,64.49c-4.48-1.53-9.33-2.49-14-1.43-9,2.07-14.65,11.37-15.86,20.48a36.66,36.66,0,0,0,26.72,40.2c1.29.35,2.78.6,3.86-.18,1.3-.92,1.37-2.84,1-4.39s-1.07-3.09-.82-4.67c.53-3.35,4.62-4.55,7.89-5.47a39.75,39.75,0,0,0,13.25-6.62C130.89,89.78,103.61,68.35,92.26,64.49Z"/><path class="cls-13" d="M87.22,106.87a6.55,6.55,0,0,0-6.17-3.68,5,5,0,0,0-4.55,5.15,5.43,5.43,0,0,0,2.83,4,10,10,0,0,0,5,1.1,4.24,4.24,0,0,0,2.09-.42,3.2,3.2,0,0,0,1.32-3.1,9.39,9.39,0,0,0-1.25-3.31"/><path class="cls-13" d="M87.11,108.26a5,5,0,0,0-9.41.61"/><path class="cls-13" d="M119.36,96.86c-1.2,4.26-5.15,7.18-9.18,9s-8.41,3-12.12,5.4A5.83,5.83,0,0,0,96.21,113c-1,1.64-.44,3.73-.29,5.64s-.62,4.34-2.53,4.5"/><path class="cls-13" d="M75.75,122.23a3.22,3.22,0,0,0,3.37-.86A9.39,9.39,0,0,0,81,118.21q6.3-14.83,12.59-29.68c.5-1.18,1.4-3.91-.71-4-1.31,0-2,3.68-2.33,4.58a116.11,116.11,0,0,1-5.46,11.15C84.11,102.08,73.75,121.36,75.75,122.23Z"/><path class="cls-13" d="M91.38,78.57a61.3,61.3,0,0,1,5.22-7.34,5.16,5.16,0,0,1-.39,3.52c.62.35,1.42-.74,2-.31a.84.84,0,0,1,.26.48c1,3.57,0,10.79-4.28,12.2C88.71,88.93,89.67,81.24,91.38,78.57Z"/><path class="cls-13" d="M76.19,119.83a2.43,2.43,0,0,0,2.63.14,7.15,7.15,0,0,0,2.06-1.86L96.69,99.5c.63-.74,1.89-2.51.39-3-1-.32-2.26,2.22-2.72,2.79a88.68,88.68,0,0,1-6.47,6.82C86.79,107.16,74.94,118.75,76.19,119.83Z"/><path class="cls-13" d="M97.36,91.81a46.16,46.16,0,0,1,5.43-4.12,3.93,3.93,0,0,1-1.08,2.46c.37.38,1.2-.22,1.5.21a.72.72,0,0,1,.08.41c-.07,2.81-2.48,7.79-5.85,7.85C93.09,98.7,95.52,93.36,97.36,91.81Z"/><path class="cls-13" d="M86.75,70.4c-.65-1.45-2.44-2.05-4-1.93A5.12,5.12,0,0,0,79.35,70a3.46,3.46,0,0,0-.76,3.51c.75,1.87,3.14,2.42,5.15,2.34,1.78-.08,3.91-.8,4.19-2.55.2-1.28-.73-2.44-1.6-3.4"/><path class="cls-13" d="M76.64,82.14c-.61-1.39-2.28-2-3.79-2.14-1.89-.22-4.11.08-5.15,1.68a3.94,3.94,0,0,0,.71,4.72,7,7,0,0,0,4.68,1.84c1.52.08,3.27-.28,4-1.6,1-1.75-.36-3.89-1.85-5.24"/><path class="cls-13" d="M71.21,97.35a1.66,1.66,0,0,0-2-1.71,2.17,2.17,0,0,0-1.47,2.43,3.15,3.15,0,0,0,1.94,2.27,2.32,2.32,0,0,0,2.44-.2c1-.94.39-2.7-.57-3.73"/></g></svg>