<svg xmlns="http://www.w3.org/2000/svg" viewBox="0 0 165.42 212.79"><defs><style>.cls-1{opacity:0.33;}.cls-2{fill:#834c20;}.cls-3{fill:#fff;}.cls-4{fill:#2ca8c4;}.cls-5{fill:#1e90b3;}.cls-6{fill:#57d0dd;}.cls-7{fill:#663717;}.cls-8{fill:none;stroke:#000;stroke-linecap:round;stroke-linejoin:round;stroke-width:0.25px;}</style></defs><title>come cabo verde9</title><g id="Camada_4" data-name="Camada 4"><path class="cls-2" d="M81.58,46.32c-23.72,0-44.69,21.7-39.43,46.39,4.66,21.85,36.45,81.56,36.45,81.56a3.31,3.31,0,0,0,6,0s32-60.08,36.71-82.06C126.53,67.51,105.31,46.32,81.58,46.32Z"/><circle class="cls-3" cx="82.21" cy="88.43" r="26.45"/><path class="cls-4" d="M90.51,79.87c-2.87-1.31-5.56-3-8.55-4s-6.46-1.14-9.12.54c-3.15,2-4.33,5.91-5.88,9.29A33,33,0,0,1,58.52,97c-1,.84-2.11,1.87-1.93,3.15a2.23,2.23,0,0,0,2.29,1.76,3.42,3.42,0,0,0,2.6-1.61,2.86,2.86,0,0,0-1,2.88,8.5,8.5,0,0,0,1.36,2.89,6.59,6.59,0,0,0,2,2.25,5,5,0,0,0,2.27.59,48.58,48.58,0,0,0,11.39-1.1c2.3-.42,4.2-1.54,6.52-1.86a23.72,23.72,0,0,0,19.13-16.51c.86-3-.8-7.62-2.59-7.61A22.3,22.3,0,0,1,90.51,79.87Z"/><path class="cls-3" d="M72.55,86.58a1.55,1.55,0,0,1,1.12-.85.82.82,0,0,1,.84.78c0,.39,0,0,0,.39,0,2.12-3.84,5.57-6.3,6.73A68.47,68.47,0,0,1,72.55,86.58Z"/><path class="cls-5" d="M89.33,56c2.11-4.36,5.77,10.91,8.13,17.36.91,2.47,2.12,4.82,3.19,7.23.19.4.31,1-.08,1.2a.94.94,0,0,1-.5.06,41.53,41.53,0,0,1-7.9-1.4,1.16,1.16,0,0,1-.74-.44,1.24,1.24,0,0,1-.06-.74l1.15-8.54c.55-4.16,1.08-8.59-.68-12.4-.16-.35-.38-.73-.75-.82-.64-.16-1.1.6-1.33,1.21-1.7,4.48-4.37,11.48-8.8,13.83C84.31,66.73,87.21,60.39,89.33,56Z"/><path class="cls-6" d="M79.62,74.77A46,46,0,0,1,91.43,80c2.13-3.29,1.41-7.81,1.92-11.69.28-2.18,1.12-9.43-1.45-10.7-2.23-1.1-4.38,5.47-5.31,7.06C86,65.79,80.68,75.06,79.62,74.77Z"/><path class="cls-6" d="M58.63,97.76c-.74.67-1.39,1.76-.88,2.62a2.6,2.6,0,0,0,1.15.86,3.23,3.23,0,0,0,1.15.37,1,1,0,0,0,1-.52,4.79,4.79,0,0,0,.16-.84c.25-1,1.67-1.44,1.56-2.42a3.38,3.38,0,0,0-4.91.47"/><path class="cls-2" d="M76.42,107.05c-3.68-.08-7.44-.85-11,.12-.48.14-1,.43-1,.92,0,.23.18.43.16.66-.06.63-1.31.76-1.12,1.37.72.88,2.77,0,3,1.16s-2,1.12-2.34,2.22c.31.69,1.46.4,2,1s-.2,1.66-.46,2.53a2.66,2.66,0,0,0,1.85,3,6.78,6.78,0,0,0,3.81-.08,41,41,0,0,0,17.36-9.15,56.56,56.56,0,0,0,12.19-15.51c-.07.12-.92.38-1.13.54a11.75,11.75,0,0,0-1.11,1.38,25.13,25.13,0,0,1-2.4,2.44,29.19,29.19,0,0,1-19.79,7.46Z"/><path class="cls-6" d="M70.9,106.42a17.2,17.2,0,0,1,1.66-2.23l.46,1.53a11.26,11.26,0,0,1-2,.57h.1"/><path class="cls-6" d="M75.58,78.79a17.2,17.2,0,0,1,1.66-2.23l.45,1.53a11.83,11.83,0,0,1-2,.58l.1,0"/><path class="cls-6" d="M79.08,78.79a17.2,17.2,0,0,1,1.66-2.23l.45,1.53a11.83,11.83,0,0,1-2,.58l.1,0"/><path class="cls-6" d="M82.68,79.9a19,19,0,0,1,1.66-2.23l.46,1.53a12.24,12.24,0,0,1-2,.58l.1,0"/><path class="cls-6" d="M86.15,81a18.14,18.14,0,0,1,1.67-2.22l.45,1.53a12.09,12.09,0,0,1-2,.57l.1,0"/><path class="cls-6" d="M89.17,82.71a17.91,17.91,0,0,1,1.66-2.23L91.28,82a12.12,12.12,0,0,1-2,.58l.1,0"/><path class="cls-6" d="M74.26,106.42a17.2,17.2,0,0,1,1.66-2.23l.45,1.53a10.91,10.91,0,0,1-2,.57h.1"/><path class="cls-6" d="M78,106.34a17.81,17.81,0,0,1,1.66-2.22l.45,1.53a10.91,10.91,0,0,1-1.95.57l.1,0"/><path class="cls-6" d="M82.13,105.3a18.94,18.94,0,0,1,1.67-2.22l.45,1.53a12.09,12.09,0,0,1-2,.57l.1,0"/><path class="cls-6" d="M87.56,104.7c.08,2.89.59,6,2.58,8.07a20.46,20.46,0,0,0-.2-6.24,34.13,34.13,0,0,1,1-12.12c.58-2.17,2.41-6,1.44-8.14-2.15.74-3.2,6.39-3.69,8.38A38.19,38.19,0,0,0,87.56,104.7Z"/><path class="cls-5" d="M90.36,97.05A18.57,18.57,0,0,0,95,107.6a4,4,0,0,0,1.77,1.24,1.65,1.65,0,0,0,1.9-.69,2.2,2.2,0,0,0,0-1.56c-.63-2.35-2.15-4.34-3.32-6.47a24.53,24.53,0,0,1-3-11.41c0-1,0-2.24-.77-2.91C89.61,88.1,90,94.21,90.36,97.05Z"/><path class="cls-6" d="M94.85,91.18a14.93,14.93,0,0,0,7.83,8.19c1.61.68,3.72.94,4.89-.36a.78.78,0,0,0,.24-.43.83.83,0,0,0-.12-.46c-1.2-2.42-4.41-2.81-6.78-4.1a11.57,11.57,0,0,1-5-6.2c-.92-2.46-.84-5.19-1.69-7.59C92.72,83.16,93.65,88.21,94.85,91.18Z"/><path class="cls-5" d="M95.37,84.59a13.91,13.91,0,0,0,3.47,6,10.36,10.36,0,0,0,12.71,1c.38-.27.78-.72.58-1.13a.91.91,0,0,0-.46-.38,9.61,9.61,0,0,0-3.79-.4,12.43,12.43,0,0,1-11.49-9.61c-.25-1.19-1-4.86-2-2.23C93.75,79.55,94.86,83,95.37,84.59Z"/><path class="cls-6" d="M98.69,83.86a12,12,0,0,0,9,2.87,4,4,0,0,0,3.14-1.25A.8.8,0,0,0,111,85c0-.32-.37-.51-.67-.62a28,28,0,0,0-4.68-.72,11,11,0,0,1-7.87-5.77,13.53,13.53,0,0,0-1.12-2.09,2.5,2.5,0,0,0-2-1.1C93.49,76.71,97.24,82.46,98.69,83.86Z"/><path class="cls-4" d="M98,78.09a10.48,10.48,0,0,0,11.42,2.17c.24-.11.51-.26.55-.52s-.22-.55-.47-.71A6.52,6.52,0,0,0,106,78c-.77,0-1.53.12-2.3.13a7.69,7.69,0,0,1-4.5-1.4,12.35,12.35,0,0,1-2.12-2c-.94-1.1-2.06-2.49-1.61-.23A9.07,9.07,0,0,0,98,78.09Z"/><path class="cls-5" d="M69,99.71c2.71-2.15,4.06-5.55,5.19-8.83a2.45,2.45,0,0,0,0-2.13c-1.63,2.32-4.52,3.67-5.77,6.28C68.06,95.84,67.15,101.16,69,99.71Z"/><path class="cls-6" d="M102.92,75.88A6.35,6.35,0,0,0,108.44,73c.11-.19.2-.44.06-.61a.58.58,0,0,0-.5-.13,63.43,63.43,0,0,1-7.41.39c-2.62-.15-4.33-1.27-6.52-2.4C94.61,73.74,99.83,75.94,102.92,75.88Z"/><path class="cls-6" d="M67.38,87.66c.26,0,.43-.29.56-.53a60.79,60.79,0,0,1,3.14-5.43c1.23-1.74,2.8-3.31,3.41-5.34-2.38-.36-5.11,2.91-6.12,4.8C67.93,82,65.82,87.91,67.38,87.66Z"/><path class="cls-7" d="M70,115.53a3.15,3.15,0,0,0-2.38.71c-.8.9-.18,2.44.89,3a5.52,5.52,0,0,0,3.53.16,26.12,26.12,0,0,0,8.46-3c2.1-1.24,5.22-3.6,5.67-6.15C80.79,113.09,76.19,115.33,70,115.53Z"/><path class="cls-5" d="M93.17,67.24c3.87.65,8.27,1.17,11.32-1.3.14,2.61-1.47,5.48-4,5.94-2.8.5-5.24-1.79-7.16-3.89"/><path class="cls-6" d="M104.09,61.76a5.43,5.43,0,0,1-.15,2.09,4.28,4.28,0,0,1-1.14,1.6c-.87.81-8.16,3.83-7.72,1.57.12-.63,3.8-1.78,4.46-2.14A27.17,27.17,0,0,0,104.09,61.76Z"/><path class="cls-5" d="M101.11,58.85a9.91,9.91,0,0,0,.58-1.77c-.17,1.54.31,3.16-.2,4.63a7.19,7.19,0,0,1-2.29,2.8c-.68.6-2.51,2.41-3.55,2.2-1.52-.33-.21-1.26.49-1.89C98.09,63.06,100.05,61.31,101.11,58.85Z"/><path class="cls-8" d="M100,82.81a26.3,26.3,0,0,1-6.32-1.53c-2.07-.9-3.82-2.32-5.82-3.34-5.92-3.06-14.63-3.58-18.38,2.41C67.5,83.42,66.86,87,65.18,90.2a18.88,18.88,0,0,1-5.77,6.51c-1.1.78-2.41,1.65-2.43,2.91,0,1.69,2.32,1.84,3.06,2.87,1.12,1.55.75,3.35,2.73,4.54,1.78,1.08,4.08.79,6.06.44a20.08,20.08,0,0,1,6.29-.22,27.48,27.48,0,0,0,14.23-3,26.89,26.89,0,0,0,9.83-7.6,15.06,15.06,0,0,0,3.25-11.17c-.66-4.41-3.63-8.23-5.22-12.43-2.1-5.52-2-12-6.15-16.45-.44-.47-1.17-.94-1.73-.59a1.35,1.35,0,0,0-.45.6c-1.16,2.44-3.39,11.38-9.95,18.2"/><path class="cls-8" d="M68.16,95l3.34-6c.5-.91,1.26-2,2.37-1.87a.89.89,0,0,1,.44.15.71.71,0,0,1,.21.55c0,1.21-1.13,2.13-2.18,2.89l-2.19,1.57"/><path class="cls-8" d="M83.19,71.15a42,42,0,0,0,6.1-12c.15-.47.36-1,.87-1.15.77-.22,1.36.62,1.61,1.32a25.31,25.31,0,0,1-.92,19.18"/><path class="cls-8" d="M88.19,76.57l0,.48c.1-3.76,1.66-7.14,2.06-10.81"/><path class="cls-8" d="M88.25,70.63A6.83,6.83,0,0,1,86.32,75c-.1.11-.2.26-.11.36s.27-.14.12-.12"/><path class="cls-8" d="M94,66.43A59.72,59.72,0,0,0,97.25,54.7a7.89,7.89,0,0,1,.38,6.42,19.25,19.25,0,0,1-3.48,5.76,17.65,17.65,0,0,0,7.31-9.18,16.41,16.41,0,0,1-1.67,6.1,6.58,6.58,0,0,1-5.44,3.44A13.12,13.12,0,0,0,105,60.67c-1,2.23-2.09,4.54-4.08,6.14s-5.17,2.26-7.31.83c3.91,2,9.48.74,11.84-2.74a7.18,7.18,0,0,1-4.77,6.57c-2.89,1-6.64-.61-7.21-3.35,0,2.8,2.76,5.16,5.78,5.74a14.44,14.44,0,0,0,8.89-1.62,6.55,6.55,0,0,1-4.78,4.41A7.67,7.67,0,0,1,97.43,75a20,20,0,0,1-4-4.53c2,5.87,9.61,9.63,16.13,8-.83,2.11-3.52,3.31-6,3.07A9.57,9.57,0,0,1,97.5,78.1a24.83,24.83,0,0,1-3.45-5.93c1.25,3.82,3.27,7.59,6.69,10.1s8.43,3.49,12.31,1.62a11.28,11.28,0,0,1-8,3.76,10.34,10.34,0,0,1-8.22-5.08c-1.7-2.74-2.31-5.91-2.89-9,.84,3.89,1.71,7.86,4,11.25A11.05,11.05,0,0,0,103,89.2c2.84,1.07,6.07.6,9.11.12-1.2,3.12-5.56,4.59-9,3.63a11.54,11.54,0,0,1-7.31-6.89c-1.28-3.09-1.48-6.45-1.68-9.75.19,4.64.43,9.45,2.79,13.57s7.5,7.31,12.47,6.22a8.21,8.21,0,0,1-5.82,3.41c-3,.12-5.45-2-7-4.27A18.17,18.17,0,0,1,93.88,80c-.13,4.37-.24,8.88,1.43,13a17.89,17.89,0,0,0,7.87,8.73,5.93,5.93,0,0,1-5.39-1.46A11.08,11.08,0,0,1,95,95.61a29.1,29.1,0,0,1-1.38-14,25.94,25.94,0,0,0,7.75,25c-7.89-5-11.46-15-8.32-23.22a40.78,40.78,0,0,0,2.6,27.69,19.28,19.28,0,0,1-5.69-13.27,32.14,32.14,0,0,1,3.15-14.17c-4,9.46-6.28,19.86-3.87,29.74-5.46-9.66-3.53-22.34,4.61-30.31"/><path class="cls-8" d="M62.77,107c.78.07,1.93,1.14,1.65,1.81s-1.27.57-.91,1.35c.45,1,2.68.4,2.76,1.43,0,.54-.65.83-1.18,1.09s-1,1-.49,1.28c.92-.38,2.13.47,1.94,1.37a6,6,0,0,1-.63,1.23c-.66,1.44.73,3.11,2.39,3.51a9,9,0,0,0,5-.66c6.6-2.29,12.87-5.65,17.51-10.48s12.37-15.35,11.74-21.74"/><path class="cls-8" d="M59.9,102.4a1.78,1.78,0,0,1,.64-1.78A6.73,6.73,0,0,0,62,99.21c.33-.58.22-1.49-.41-1.7"/></g></svg>