<svg xmlns="http://www.w3.org/2000/svg" viewBox="0 0 165.42 212.79"><defs><style>.cls-1{opacity:0.33;}.cls-2{fill:#1e90b3;}.cls-3{fill:#fff;}.cls-4{fill:#b75d21;}.cls-5{fill:#a35119;}.cls-6{fill:none;stroke:#000;stroke-linecap:round;stroke-linejoin:round;stroke-width:0.25px;}</style></defs><title>come cabo verde 7</title><g id="Camada_4" data-name="Camada 4"><path class="cls-2" d="M81.61,41.49c-23.71,0-44.69,21.7-39.42,46.4,4.66,21.84,36.45,81.55,36.45,81.55a3.3,3.3,0,0,0,5.94,0s32-60.08,36.71-82.06C126.57,62.69,105.34,41.49,81.61,41.49Z"/><circle class="cls-3" cx="82.25" cy="83.6" r="26.45"/><path class="cls-4" d="M54.84,106.56q26.32-.68,52.65.55a25.18,25.18,0,0,0-6.23-8.24,4,4,0,0,0-1.51-1,4.79,4.79,0,0,0-1.69,0,69.69,69.69,0,0,1-11-.23c-6.49-.48-13-1.14-19.48-1.44C62.48,96,58,102.85,54.84,106.56Z"/><path class="cls-4" d="M83.91,52A15.86,15.86,0,0,0,71.6,58.1c-2.12,2.77-3.27,6.53-2,9.79.68,1.82,2.09,3.59,1.65,5.49-.39,1.67-2.15,2.89-2.13,4.61s1.7,2.76,2.78,4.05c2.11,2.54,2,6.2,1.87,9.5a2.07,2.07,0,0,0,1.48,2.58,103.06,103.06,0,0,0,17.12,5.56A15.15,15.15,0,0,1,91,86.34a4.79,4.79,0,0,0,4.71-1.1,6.1,6.1,0,0,0,1.36-2.14,9,9,0,0,0,0-6.67c.53.09.73-.72.53-1.22s-.55-1.06-.29-1.54S98.41,73.2,99,73c1.35-.54,1.11-2.51.62-3.89C96.6,60.47,95.05,52,83.91,52Z"/><path class="cls-4" d="M97,103.42c-1.13,1.54-3.37,1.57-5.28,1.45a5.71,5.71,0,0,1-1.65-.28,6.38,6.38,0,0,1-1.78-1.29,12,12,0,0,0-6-2.94,7.52,7.52,0,0,0-6.25,1.82c-.79.76-1.36,1.72-2.18,2.45a5.66,5.66,0,0,1-7.29,0c-.37-1.08.56-2.11,1.34-2.94,1.93-2,2.48-5.2,4.2-7.08,1.9-2.08,4.35.29,6.57,1.41A121.66,121.66,0,0,0,97,103.42Z"/><path class="cls-5" d="M79.64,100.59a5.92,5.92,0,0,1,2.42-.36,7.74,7.74,0,0,1,3.38,1.56c2.43,1.65,5,3.54,5.75,6.39H77c-2.92,0-5.82.28-3.6-3.12A12.24,12.24,0,0,1,79.64,100.59Z"/><path class="cls-4" d="M55.28,110.49a2.1,2.1,0,0,0,1.33.34l49.28,1c1.23-1.26.46-3.56-1-4.49s-3.38-.88-5.14-.82q-12.81.44-25.63.33-6.4-.06-12.82-.26c-1.29,0-4.51-.77-5.57.07C54.93,107.25,54.54,109.88,55.28,110.49Z"/><path class="cls-5" d="M76.19,58.47C75,60,73.4,61.19,72.9,63c-.87,3.14,2,6.33,1.38,9.51-.24,1.18-1,2.24-1,3.43-.16,2.16,1.7,3.86,2.6,5.82A12.05,12.05,0,0,1,76.74,86c.35,4.92-.13,10-2.33,14.43a9.12,9.12,0,0,1-3,3.71,4.35,4.35,0,0,1-4.59.19,32.75,32.75,0,0,0,6-8.66c1.35-3.25,1.64-7.11,0-10.21-1.43-2.65-4.28-5.11-3.52-8,.21-.79.67-1.48.89-2.26.52-1.87-.41-3.78-.95-5.64a14,14,0,0,1,2.12-11.63c.72-1,3-4.12,4.47-4.06C78.31,54,77.28,57.08,76.19,58.47Z"/><path class="cls-5" d="M66.66,96a2,2,0,0,0-.93-.09,2,2,0,0,0-.87.61l-9.64,9.93a65.94,65.94,0,0,0,13-.23l-1.82-2.38a16.7,16.7,0,0,0,4.78-4.2C73.67,96.4,68.73,96.57,66.66,96Z"/><path class="cls-5" d="M70.05,109.51a5.8,5.8,0,0,0,2.9.81,6,6,0,0,1,2.9.79q-10.25.38-20.5.47c-.15-1.52-.3-3-.46-4.57,4.41-1.12,9.71-.22,14.16.17A2.74,2.74,0,0,0,70.05,109.51Z"/><path class="cls-6" d="M95.5,55.6c-4.39-3.18-12.39-4.5-17.7-2.46-4.74,1.82-9.65,9-8.73,15.54.28,2,.69,2,.4,4-.25,1.79-1.29,3.46-1.24,5.26.07,2.53,2.15,4.46,3.54,6.57,4.12,6.24,1.44,15.86-5.31,19.08.54,2.47,3.69,3.17,6.22,3.24a84.83,84.83,0,0,0,22.45-2.29,2.16,2.16,0,0,0,.82-.32,1.65,1.65,0,0,0,0-2.35,8.25,8.25,0,0,0-2.23-1.4,8.33,8.33,0,0,1-3.18-10.86"/><path class="cls-6" d="M71.05,97.24a10.35,10.35,0,0,1-6.1-.9l-9.88,9.49.46,5c0,.31.13.71.44.75s.22-.64,0-.42c17,.21,33.47,1,50.46.46,0-2.25.75-3.74.73-6-2.32-2.72-4.66-5.07-7-7.8a17,17,0,0,1-7.84.26"/><path class="cls-6" d="M56,106.18a85.74,85.74,0,0,1,13,.24"/><path class="cls-6" d="M92.39,106.12l14.57,1"/><path class="cls-6" d="M68.39,106.81a65.32,65.32,0,0,1,8.5.35c6.41.36,12.82-.5,19.19-1.35"/><path class="cls-6" d="M73,94.49c7.06,3.74,15.18,4.77,22.94,6.65"/><path class="cls-6" d="M73.44,107.25A5.35,5.35,0,0,1,75.51,104a12.09,12.09,0,0,1,3-2,8.57,8.57,0,0,1,11.38,4.34"/><path class="cls-6" d="M96.65,56.51a22.88,22.88,0,0,0,3.17,13,3.15,3.15,0,0,1,.67,1.91c-.15,1.21-1.59,1.71-2.78,2-.47.1-.55,1.7-.25,2.06s.7.83.46,1.24-.67.39-.75.74c-.11.52.78.77.8,1.3,0,.29-.25.5-.42.74-.61.84-.06,2-.09,3a3.61,3.61,0,0,1-2.39,3,10.4,10.4,0,0,1-4,.53,25.6,25.6,0,0,1-5.67-.37A8.76,8.76,0,0,1,80.54,83"/><path class="cls-6" d="M96.68,55.44c-4.67,2.94-9.25,6.18-14.07,8.85-2,1.09-9.37.81-7.33,4.76.46.88,1.41,1.41,2,2.22.9,1.28.71,3,.49,4.56a1.3,1.3,0,0,0,1.5-1.68"/></g></svg>