<svg xmlns="http://www.w3.org/2000/svg" viewBox="0 0 165.42 212.79"><defs><style>.cls-1{opacity:0.33;}.cls-2{fill:#1e90b3;}.cls-3{fill:#fff;}.cls-4{fill:#d37231;}.cls-5{fill:#b75d21;}.cls-6{fill:#834c20;}.cls-7{fill:#663717;}.cls-8{fill:#ed9254;}.cls-9{fill:#57d0dd;}.cls-10{fill:#3cb9ce;}.cls-11,.cls-13,.cls-14,.cls-15,.cls-16{fill:none;}.cls-12{fill:#5deded;}.cls-13{stroke:#5deded;}.cls-13,.cls-14,.cls-15{stroke-miterlimit:10;}.cls-13,.cls-14,.cls-15,.cls-16{stroke-width:0.25px;}.cls-14{stroke:#a35119;}.cls-15{stroke:#ed9254;}.cls-16{stroke:#000;stroke-linecap:round;stroke-linejoin:round;}</style></defs><title>come cabo verde5</title><g id="Camada_4" data-name="Camada 4"><path class="cls-2" d="M86.71,41.49C63,41.49,42,63.19,47.29,87.89c4.65,21.84,36.45,81.55,36.45,81.55a3.3,3.3,0,0,0,5.94,0s32-60.08,36.71-82.06C131.66,62.69,110.44,41.49,86.71,41.49Z"/><circle class="cls-3" cx="87.34" cy="83.6" r="26.45"/><path class="cls-4" d="M63.05,103.56c-2.1.09-4.3.28-6,1.46.59,2,2.73,2.91,4.67,3.52,8,2.52,16.47,3.08,24.84,3.63,6.58.43,13.22.85,19.71-.23,1.87-.32,6.44-2.31,4-4.8-1.78-1.77-7.57-1.37-9.92-1.64-7.91-.92-15.84-1.69-23.8-2C72,103.36,67.52,103.35,63.05,103.56Z"/><path class="cls-2" d="M102,74.46c-11.34.81-22.68-1.7-34.05-1.64a1.3,1.3,0,0,0-.8.18,1.27,1.27,0,0,0-.38.91,45.55,45.55,0,0,0,0,8.66l1.11,18.48a4.64,4.64,0,0,0,.33,1.77c.77,1.69,3,1.93,4.89,1.94q15,.09,29.92,1.48c2.53.24,5.14.5,7.55-.28a3.76,3.76,0,0,0,1.55-.86,4.51,4.51,0,0,0,.86-1.6,111.78,111.78,0,0,0,6.4-26.74,5.35,5.35,0,0,0-.08-2.29C118.14,71,105,74.25,102,74.46Z"/><path class="cls-5" d="M96.86,77.72a13.23,13.23,0,0,0-11.48,6.65,12.48,12.48,0,0,0,.81,13.16,13.22,13.22,0,0,0,8.54,5c4.7.75,9.9-1.11,12.54-5.08a12.32,12.32,0,0,0-.53-13.65,15.2,15.2,0,0,0-12.61-6"/><path class="cls-6" d="M60.6,72.84a2.61,2.61,0,0,0-1.15.08c-.87.34-1.12,1.42-1.24,2.34q-1.86,14-2.39,28.18a2.39,2.39,0,0,0,.27,1.5c.47.65,1.41.66,2.21.62l9-.55c.25,0,.11-18.37.11-20.06,0-3.1.69-7.12,0-10.13C66.79,72.28,62.89,73,60.6,72.84Z"/><path class="cls-7" d="M57.22,85.5l-.57,3.62a1.71,1.71,0,0,0,0,.81,1.63,1.63,0,0,0,1.07.77c1.37.47,2.76.89,4.16,1.26a8,8,0,0,0,4.17.29,1.86,1.86,0,0,0,1-.62,2.38,2.38,0,0,0,.34-.82c.25-1,1.55-3.75,1.22-4.65-.45-1.26-1.81-.21-3,.06C64.94,86.4,57,86.79,57.22,85.5Z"/><path class="cls-7" d="M89.41,89.21A8.9,8.9,0,0,0,94,99.29a10.37,10.37,0,0,0,7.4.29,9.21,9.21,0,0,0,4.65-3,8.88,8.88,0,0,0,1.09-7.94,9.59,9.59,0,0,0-3.54-5.07C98.59,80.08,90.92,83.61,89.41,89.21Z"/><path class="cls-8" d="M99.77,95.16a12.89,12.89,0,0,1-4.81-.7c-.48-.16-1.14-.3-1.39.14a.76.76,0,0,0,0,.69c.34.72,1.26.93,2,1.06l2.58.39a2.41,2.41,0,0,0,1.72-.16c.49-.33.55-1.25,0-1.43-.37-.11-.86.12-1.12-.17"/><path class="cls-8" d="M102.93,87.28a1.64,1.64,0,0,0-.58-1.43c-.19-.21-.47-.42-.74-.33s-.35.41-.39.68a5.74,5.74,0,0,0,.15,2.26,2.52,2.52,0,0,0,.61,1.18,1.21,1.21,0,0,0,1.24.33,3.87,3.87,0,0,0-.72-3.71"/><path class="cls-9" d="M110.66,89.82c-.83,4.64-2.35,9.4-5.76,12.65,2,.67,4.17-.49,5.36-2.18a14.58,14.58,0,0,0,2-5.83l3-16.33c.15-.82.44-3.6-1.19-3.22-1.16.27-1.53,3.54-1.73,4.45C111.59,82.81,111.28,86.34,110.66,89.82Z"/><path class="cls-9" d="M70.81,77c-.71,3.82-.25,7.75.21,11.61l1.62,13.54c.09.75.27,1.61,1,1.92s1.69-.35,1.91-1.17a5.16,5.16,0,0,0-.24-2.51A23.83,23.83,0,0,1,79.87,80c1.38-1.68,1.86-3.58-.74-3.32C76.36,76.92,73.63,77,70.81,77Z"/><path class="cls-10" d="M96.75,74.28l-5,.24a.58.58,0,0,0-.65.83l.19,1.23a.69.69,0,0,0,.17.41.6.6,0,0,0,.41.11c2.81.1,5.62.21,8.43.08,1.36-.07,3.69-1.45,1.83-2.87C101,73.48,98,74.22,96.75,74.28Z"/><path class="cls-11" d="M109.61,107.54l-25-1.87c-9.08-.67-18.35-1.33-27.15,1,1.22,1.86,3.54,2.64,5.7,3.16a113.45,113.45,0,0,0,18.11,2.33c11.07.83,22.36,1.64,33.14-1a8.43,8.43,0,0,0-7.7-2.93"/><path class="cls-9" d="M62.2,73a45.37,45.37,0,0,0,12.17,1.52q20.5.62,41-.28c-2.58-3.45-7.16-3.87-11.23-4l-25.86-1a111.64,111.64,0,0,0-18,.31,1.19,1.19,0,0,0-.81.31C58.39,71.09,61.55,72.77,62.2,73Z"/><path class="cls-9" d="M85.26,90.5a9.31,9.31,0,0,0,1,3.32c1,2.16,2.74,4.3,5.11,4.62l-2-4.57c-.78-1.81-1.57-3.8-1-5.69.43-1.47,1.6-2.59,2.26-4a1.57,1.57,0,0,0,.2-1c-.52-2.16-3.4,1.38-3.86,2A7.94,7.94,0,0,0,85.26,90.5Z"/><path class="cls-12" d="M86.09,93.32c-.47,0-.53.68-.39,1.13a10.33,10.33,0,0,0,4.8,6C90.21,98.74,88.35,93.34,86.09,93.32Z"/><path class="cls-13" d="M58.93,84.45l-.84,7.36"/><path class="cls-13" d="M61,85.56c-.32,2.45-.57,4.9-.74,7.37"/><path class="cls-13" d="M62.72,86l-.46,6.73"/><path class="cls-13" d="M64.36,86.18l-.26,7.36"/><path class="cls-13" d="M66.26,86l-.12,7.21"/><path class="cls-13" d="M84.72,82a16.84,16.84,0,0,0-3.41,10.09,10.47,10.47,0,0,0,5.18,9"/><path class="cls-5" d="M71.38,105.34c-.59,0-1.36.08-1.49.65a1.11,1.11,0,0,0,.18.77c1.23,2.15,4.12,2.52,6.59,2.6a183.42,183.42,0,0,0,20.44-.48c1.55-.12,3.52-.25,4.7-1.38C98,104.79,94.15,106,90,106.1,83.8,106.25,77.54,105.61,71.38,105.34Z"/><path class="cls-13" d="M98,80.73l3,2.11"/><path class="cls-13" d="M96.16,81.27,99.24,83"/><path class="cls-13" d="M94.42,81.88a18.19,18.19,0,0,1,2.75,1.56"/><path class="cls-13" d="M93,82.52l2.58,1.25"/><path class="cls-13" d="M91.21,83.53l3.06,1.57"/><path class="cls-13" d="M90.61,85.4l2.22.84"/><path class="cls-13" d="M90.13,86.69l1.76.81"/><path class="cls-13" d="M89.8,88a3.35,3.35,0,0,0,1.77.62"/><path class="cls-13" d="M89.49,89.27l1.61.63"/><path class="cls-13" d="M89.5,91l1.6.34"/><path class="cls-13" d="M89.82,92.33l1.6.32"/><path class="cls-13" d="M90.32,94.06l1.61.29"/><path class="cls-13" d="M79.64,81.42a24.33,24.33,0,0,0-4.31,11.75"/><path class="cls-2" d="M79.31,68.33a8.68,8.68,0,0,0-2.28.19,2.92,2.92,0,0,0-1.82,1.31.62.62,0,0,0,0,.63.67.67,0,0,0,.54.2A7.11,7.11,0,0,0,80,69.43c.23-.16.47-.38.44-.65s-.29-.42-.53-.5a2.17,2.17,0,0,0-2.23.55"/><path class="cls-2" d="M68.72,69a15.61,15.61,0,0,0-4.87-1,2.43,2.43,0,0,0-1,.12c-.31.14-.54.45-.42.72a1,1,0,0,0,.6.44,17,17,0,0,0,4.54,1.14,2.48,2.48,0,0,0,1,0,.93.93,0,0,0,.68-1.11A1.16,1.16,0,0,0,68,68.68"/><path class="cls-14" d="M60.46,74.88c1.12.08,2.24.16,3.36.22a1.77,1.77,0,0,1,.88.22.61.61,0,0,1,.25.79,1,1,0,0,1-.67.31,2.81,2.81,0,0,0-1.65.76.67.67,0,0,0-.17.32c0,.34.35.57.7.59a3.47,3.47,0,0,1,1,0,1.22,1.22,0,0,1,.57,1.42c-.1.55-.39,1-.47,1.6A1.16,1.16,0,0,0,65,82.51"/><path class="cls-15" d="M99.08,84.43a5.06,5.06,0,0,0-5.94,6.27"/><path class="cls-16" d="M73,105.27a389.42,389.42,0,0,0,39.24-1.71q3.06-15.21,5.39-30.55c-19.58-.33-40.38,1.42-59.72-.92-1,10.43-.07,23.14-1.7,33.48,3.55,1.27,9.22.07,12.95-.47L66.76,74.44a1.73,1.73,0,0,0-.26-1,1.18,1.18,0,0,0-.32-.27"/><path class="cls-16" d="M105.31,99.05c12.34-12-6.86-27.36-17.77-17.11C75.42,93.35,92.78,111.29,105.31,99.05Z"/><path class="cls-16" d="M97.71,98.41A7.81,7.81,0,0,0,101,98a7.41,7.41,0,0,0,1.71-.86A8.14,8.14,0,0,0,106.06,91c.44-7.16-6.6-10.27-12.22-6.63C87.62,88.35,90.23,97.84,97.71,98.41Z"/><path class="cls-16" d="M115.72,70.77c-16.69-1-33.44-.8-50.16-.6"/><path class="cls-16" d="M57.45,85.23a9.42,9.42,0,0,0,10,.41"/><path class="cls-16" d="M56.73,89.34A12.77,12.77,0,0,0,67.5,91.4"/><path class="cls-16" d="M94.74,81.26a9.45,9.45,0,1,0,3.6,18.43"/><path class="cls-16" d="M65.37,68.41a2.34,2.34,0,0,0-2.05,0,.86.86,0,0,0-.46.42c-.22.52.42,1,1,1.16a12.67,12.67,0,0,0,6.26.48,5.86,5.86,0,0,0-5.53-2.18"/><path class="cls-16" d="M61.08,70.15a12.87,12.87,0,0,0,5.35,2,7.28,7.28,0,0,0,5.43-1.42"/><path class="cls-16" d="M78.83,68.65A6.66,6.66,0,0,0,74.94,70a2.74,2.74,0,0,0,2.64,1,8.08,8.08,0,0,0,2.72-1.12c.18-.1.38-.23.43-.43.1-.37-.32-.65-.69-.74a3.34,3.34,0,0,0-2.49.37"/><path class="cls-16" d="M74.12,71.83A8.18,8.18,0,0,0,83,69.27"/><path class="cls-16" d="M59.11,92.34q0-4.28.42-8.54A81.25,81.25,0,0,1,59.11,92.34Z"/><path class="cls-16" d="M61.21,84.64,61,93.55l0-1.22"/><path class="cls-16" d="M62.72,85.27a88.66,88.66,0,0,1,.2,8.93v-.6"/><path class="cls-16" d="M66.3,84.83c-.8,2.49.55,5.21.12,7.87"/><path class="cls-16" d="M87.24,80.36a12.89,12.89,0,0,0-4.62,11.8,13.69,13.69,0,0,0,7.7,10.16,14.58,14.58,0,0,0,12.8-.47"/><path class="cls-16" d="M72.67,104.65,69.12,76a48.39,48.39,0,0,0,10.81.83"/><path class="cls-16" d="M106.6,69.48a97.65,97.65,0,0,0,9.61,3.63"/><path class="cls-16" d="M112,95.07c-.44,2.15-1.52,3.81-1.6,6l0,.55-5.75.52"/><path class="cls-16" d="M73.47,87.36q.32,7.69,1.39,15.33c-.13-.55-1.09-.47-1.22-1l-.08,1q-1.2-11.07-2.15-22.15"/><path class="cls-16" d="M64.38,84.84a97,97,0,0,0,.68,9.78l-.21-.81"/><path class="cls-16" d="M62.39,70.54V68.41C62.38,69.05,62.4,69.9,62.39,70.54Z"/><path class="cls-16" d="M64.11,71.17V69"/><path class="cls-16" d="M65.61,69.67a4.06,4.06,0,0,1,.15,2.13"/><path class="cls-16" d="M67.43,69.67V71.8"/><path class="cls-16" d="M69,69.44V72"/><path class="cls-16" d="M75.36,72a4,4,0,0,1-.13-1.94A7,7,0,0,0,75.36,72Z"/><path class="cls-16" d="M76.81,71.78l-.29-1.52"/><path class="cls-16" d="M78,70l.33,2.15"/><path class="cls-16" d="M79.52,69.82l.29,1.94"/><path class="cls-16" d="M81,68.75a3.62,3.62,0,0,0,.4,1.94"/><path class="cls-16" d="M75.39,98.24c.1,1.72.27,3.44.5,5.14"/><path class="cls-16" d="M105.29,69.32a31.25,31.25,0,0,0,9.25,3.42"/><path class="cls-16" d="M58.61,104.2c-1,0-2.18.21-2.35,1.15a1.76,1.76,0,0,0,.32,1.18c1.74,2.92,5.53,3.75,8.9,4.15A247.55,247.55,0,0,0,92.72,112c6.55.07,14.14.42,20.23-2.43-.87-2.62-7.06-2-9.23-2.28q-7.56-1-15.16-1.67Q73.62,104.28,58.61,104.2Z"/><path class="cls-16" d="M114.34,75.11a4.48,4.48,0,0,0-1.71-.06q-.52,4-.86,8.1a7.24,7.24,0,0,1,1-.28l1.62-7.63"/><path class="cls-16" d="M102.42,86.41a.78.78,0,0,0-1.17-.43,1.17,1.17,0,0,0-.37,1.34,2.56,2.56,0,0,0,.92,1.14,6.3,6.3,0,0,0,1.78.93A4.43,4.43,0,0,0,102.36,86"/><path class="cls-16" d="M98.76,95l-2.55-1.23c-.8-.39-2-.65-2.39.14s.41,1.51,1.14,1.87a8.44,8.44,0,0,0,3.89.89c.63,0,1.42-.24,1.48-.87a1.06,1.06,0,0,0-.82-1c-.44-.14-.92-.12-1.36-.23"/><path class="cls-16" d="M101.9,74.24a13.84,13.84,0,0,1-.16,3,.61.61,0,0,1-.17.41.65.65,0,0,1-.46.09l-9.84-.47c.1-3.31.8-2.76,3.79-2.75C95.56,74.48,101.9,74.36,101.9,74.24Z"/><path class="cls-11" d="M67.94,68.5a8.17,8.17,0,0,0-2.66-.84,2.81,2.81,0,0,0-2.5,1c1,1.38,2.85,1.68,4.53,1.88a2.41,2.41,0,0,0,2-.36,3.34,3.34,0,0,0-1.67-1.76"/></g></svg>