<svg xmlns="http://www.w3.org/2000/svg" viewBox="0 0 165.42 212.79"><defs><style>.cls-1{opacity:0.33;}.cls-2{fill:#1e90b3;}.cls-3{fill:#fff;}.cls-4{fill:#663717;}.cls-5{fill:#b75d21;}.cls-6{fill:#834c20;}.cls-7{fill:#a35119;}.cls-8{fill:none;stroke:#000;stroke-miterlimit:10;stroke-width:0.25px;}</style></defs><title>come cabo verde6</title><g id="Camada_4" data-name="Camada 4"><path class="cls-2" d="M75.35,41.49c-23.72,0-44.69,21.7-39.42,46.4,4.65,21.84,36.45,81.55,36.45,81.55a3.3,3.3,0,0,0,5.94,0s32-60.08,36.71-82.06C120.3,62.69,99.08,41.49,75.35,41.49Z"/><circle class="cls-3" cx="75.98" cy="83.6" r="26.45"/><path class="cls-4" d="M100.6,64.33c.8-.72,1.42-1.93.84-2.84-.7-1.08-2.47-.69-3.34.27S96.87,64,96,65a8,8,0,0,1-4.18,2.22C79.47,70.58,66.39,67,53.56,67c-1.21,0-2.77.33-2.93,1.52A2.34,2.34,0,0,0,51.1,70a10.21,10.21,0,0,0,8.63,4.64,2.86,2.86,0,0,0,1.68-.44c1.16-.87.68-2.76-.23-3.9a8.25,8.25,0,0,0-9-2.5,2.58,2.58,0,0,0-1.69,1.44c-.38,1.19.76,2.3,1,3.53.37,1.85-1.31,3.4-2.75,4.63-2.77,2.37-5.36,5.42-5.56,9.06a10.47,10.47,0,0,0,4,8.33,23.13,23.13,0,0,0,8.59,4.13,61.23,61.23,0,0,0,40.47-2.29c5.1-2.14,10.26-5.41,12.08-10.63a12.09,12.09,0,0,0-3.25-12.68C101.81,70.41,96.07,68.42,100.6,64.33Z"/><path class="cls-5" d="M99.11,80.42C97.72,83.85,94.34,86,91,87.69a79.5,79.5,0,0,1-13.85,5.52c-3.48,1-7.22,1.91-9.74,4.52,2.32,1.88,5.71,1.3,8.6.53,5.5-1.49,11-3.36,15.68-6.61a24.67,24.67,0,0,0,7.52-8.06c.46-.82,2.55-4.39,2-5.3C100.27,76.58,99.42,79.66,99.11,80.42Z"/><path class="cls-6" d="M52.13,69.64a5.4,5.4,0,0,1,6.1,3,10.85,10.85,0,0,1-6.57-3.57"/><path class="cls-4" d="M60.4,101a5.48,5.48,0,0,0-3.23.23,6.79,6.79,0,0,0,.07,3.38c.21.71.78,1.52,1.49,1.32a1.42,1.42,0,0,0,.64-.5A5.25,5.25,0,0,0,60.44,101"/><path class="cls-4" d="M66.64,102.76a1.69,1.69,0,0,0-2.48.85,1.9,1.9,0,0,0,1.43,2.31.6.6,0,0,0,.42,0,.74.74,0,0,0,.29-.4,7.11,7.11,0,0,0,.47-3.38"/><path class="cls-4" d="M80.54,101.47a5.15,5.15,0,0,0-2.17.87.76.76,0,0,0-.38.55.8.8,0,0,0,.3.52l1.21,1.21c.29.3.76.61,1.08.35a.84.84,0,0,0,.24-.5,3,3,0,0,0-.18-2.67"/><path class="cls-4" d="M87.86,100.51a4.16,4.16,0,0,0-1.61.22,1.44,1.44,0,0,0-.92,1.24,1.91,1.91,0,0,0,.34.91,16.08,16.08,0,0,0,1.76,2.42A2,2,0,0,0,89,103.4a6.11,6.11,0,0,0-.56-2.57c-.11-.26-.25-.56-.52-.62"/><path class="cls-6" d="M63.41,68.13c-1.9.59-4.24,1.88-3.85,3.9a66.81,66.81,0,0,0,13.19-3l5.33-1.59L92.62,63.1c4.3-1.3,5.67-4.58.48-4.22-4.45.31-9.7,3-14,4.37Z"/><path class="cls-6" d="M74.2,63.91c.41.2.85-.38.72-.82a1.67,1.67,0,0,0-1-.89,2.18,2.18,0,0,1-1.09-.78A14.08,14.08,0,0,1,78.57,61c.25.58-.64.93-1.26.91s-1.52.29-1.3.88c.14.37.64.42,1,.39a2.56,2.56,0,0,1-2.64.88"/><path class="cls-7" d="M86.45,87.9a4.86,4.86,0,0,0-1.93,2,1.32,1.32,0,0,0,.21,1.49,1.68,1.68,0,0,0,1.39.16c2.17-.43,13.17-4.44,11.93-7.87S87.7,87,86.45,87.9Z"/><path class="cls-8" d="M96.57,64.83a2,2,0,0,1-.49-1.42,3.71,3.71,0,0,1,2.4-1c.89.07,1.68,1.17,1.12,1.87a1.71,1.71,0,0,0-1.81,1.59,4.22,4.22,0,0,0,.76,2.56c3,5.09,8.59,9.46,8,15.34-.42,4.06-3.79,7.15-7.17,9.45a58.28,58.28,0,0,1-30.5,10c-8.6.3-17.77-1.59-23.92-7.61a9.29,9.29,0,0,1-2.44-3.49c-1.28-3.72,1.35-7.6,4.12-10.4a55.66,55.66,0,0,1,8.54-7.08c-.33-1.27-1.62-2-2.81-2.57-3.44-1.66-3.25-5.53,1.07-4.6,1.65.35,9.23,5.42,9.32,6.89.05.94-1.32,1.12-2.23.9-5.27-1.34-12.77-6.14-3.33-7,8.29-.75,16.57.51,25-.57C83.67,67.49,96.08,64.26,96.57,64.83Z"/><path class="cls-8" d="M98.35,82a12.31,12.31,0,0,1-4,4.39c-8,5.75-18.69,6-27.56,10.21a1.72,1.72,0,0,0-.93.76c-.48,1,1.13,1.79,2.29,1.8,6.12,0,12.07-1.89,17.83-4s12.25-4.93,14.79-10.64c.77-1.72,1.43-5.3-.05-6.87C98.47,75.28,99.09,80.46,98.35,82Z"/><path class="cls-8" d="M94.54,61.75c-.57-1.54-2.76-1.41-4.34-1L72.71,65.46c-3.62,1-12.36,1.61-14.47,4.92C61.56,70.84,95.45,64.1,94.54,61.75Z"/><path class="cls-8" d="M85.11,89.9a1.05,1.05,0,0,0-.37.9c.13.48.78.53,1.27.46A18.14,18.14,0,0,0,98.32,84C95.39,80.39,87.17,87.59,85.11,89.9Z"/><path class="cls-8" d="M60.54,101.56c-1.1.5-2.84-.72-3.4.35a1.64,1.64,0,0,0-.09.91l.24,2.36c.07.64.22,1.39.81,1.64.84.36,1.6-.62,2-1.45l1.19-2.48a1.09,1.09,0,0,0,.15-.76c-.08-.25-.46-.4-.61-.18"/><path class="cls-8" d="M87.75,98.5c-1.14.7-3.11.48-3.37,1.79a2.17,2.17,0,0,0,.38,1.42l1.52,2.88c1.15-.06,1.71-1.48,1.64-2.63s-.48-2.33-.12-3.43"/><path class="cls-8" d="M66.35,102.55a10.33,10.33,0,0,0-2.21.38.62.62,0,0,0-.44.27.66.66,0,0,0,.06.51l.62,1.56c.19.47.56,1,1.05.9a.86.86,0,0,0,.45-.39,4.4,4.4,0,0,0,.77-3.28"/><path class="cls-8" d="M81,100.71l-2.32.59a3.14,3.14,0,0,0,.66,2.5c.62.62,1.9.6,2.23-.22l-.36-2.9"/><path class="cls-8" d="M74.33,60.69A3.93,3.93,0,0,0,72,61.78a4.61,4.61,0,0,0,3-.09,2.6,2.6,0,0,1-.72,2.19,1.35,1.35,0,0,0,1.58-2.07A4.59,4.59,0,0,0,78.7,61a5.94,5.94,0,0,0-4.78-.12"/></g></svg>