<svg xmlns="http://www.w3.org/2000/svg" viewBox="0 0 165.42 212.79"><defs><style>.cls-1{opacity:0.33;}.cls-2{fill:#834c20;}.cls-3{fill:#fff;}.cls-4{fill:#663717;}.cls-5{fill:#2ca8c4;}.cls-6{fill:#3cb9ce;}.cls-10,.cls-7{fill:none;}.cls-8{fill:#57d0dd;}.cls-9{fill:#5deded;}.cls-10{stroke:#000;stroke-miterlimit:10;stroke-width:0.25px;}</style></defs><title>come cabo verde6</title><g id="Camada_4" data-name="Camada 4"><path class="cls-2" d="M82.59,37.85c-23.72,0-44.69,21.7-39.43,46.39,4.66,21.84,36.45,81.56,36.45,81.56a3.31,3.31,0,0,0,6,0s32-60.08,36.71-82.06C127.54,59,106.32,37.85,82.59,37.85Z"/><circle class="cls-3" cx="83.22" cy="79.96" r="26.45"/><path class="cls-4" d="M52.16,64.72Q55.52,82.21,60,99.48a5.27,5.27,0,0,0,1.47,2.91,5.09,5.09,0,0,0,1.64.79l15.4,5.27a2,2,0,0,1,1,.61,3.32,3.32,0,0,1,.32.9c.65,2.05,3.61,2.28,5.49,1.25a5.24,5.24,0,0,1,1.17-.56,3.93,3.93,0,0,1,1.49,0q9.27,1.11,18.6,1.65a1.68,1.68,0,0,0,1-.16c.46-.3.5-.95.5-1.5l-.26-29.32c-4.58.52-9-1.55-13-3.83s-8-4.85-12.57-5.5c-2.53-.37-5.13-.11-7.63-.67a26.91,26.91,0,0,1-6.35-2.72q-3.65-1.91-7.41-3.54C59.68,64.54,51.89,63.33,52.16,64.72Z"/><path class="cls-5" d="M90,76.72c-6.14-1.57-11.68-4.85-17.38-7.64s-11.88-5.14-18.2-4.66c0,7.78,3.09,15.18,5,22.72,1,4.12,1.75,8.31,2.64,12.45a3.39,3.39,0,0,0,.79,1.8,3.47,3.47,0,0,0,1.41.7L79,106.68a4.62,4.62,0,0,1,1.84.88c.39.35.64.81,1,1.19,1.47,1.55,4,1.22,6.09.89a53.85,53.85,0,0,1,17.37.14,1.88,1.88,0,0,0,1.74-.26,1.78,1.78,0,0,0,.35-.79A25.59,25.59,0,0,0,108,99.3c-.22-1.86-.65-3.7-.78-5.57s0-3.85.1-5.77c0-1.65.43-4.78-.35-6.27s-3.48-2-4.92-2.48C98.15,78,94,77.74,90,76.72Z"/><path class="cls-6" d="M95.65,77.78c-3.11-1.3-6.15-2.76-9.33-3.85-7.63-2.62-16-3.13-23.09-7a23.56,23.56,0,0,0-5.12-2.5,1.36,1.36,0,0,0-.89,0c-.49.23-.54.9-.51,1.44.52,9.26,4.62,18,5.24,27.28.09,1.37.2,2.93,1.3,3.75a4.52,4.52,0,0,0,1.67.67,51.32,51.32,0,0,1,17.74,8.61,13.26,13.26,0,0,0,3.23,2c2.44.9,5.12.07,7.66-.44a31.26,31.26,0,0,1,10.21-.33,2.63,2.63,0,0,0,1.25,0c.86-.33,1-1.44,1.11-2.36l1.2-19c.21-3.32.52-4.09-2.81-5.11Q100,79.6,95.65,77.78Z"/><path class="cls-7" d="M98.77,68.83l-.22,0"/><path class="cls-8" d="M105.33,104.13c.27-5-.76-10.12-.07-15.11.5-3.61,2.38-7.86,1.28-11.51-.64-2.16-1.81-1.48-3.65-1.27A22.57,22.57,0,0,1,96,75.88C91.44,74.94,87.27,72.2,82.6,72a11.22,11.22,0,0,1-3.76-.43A10.51,10.51,0,0,1,76.55,70c-5.18-4-12.85-4.61-16.8-9.84a12,12,0,0,0-.28,4.63c.63,7.74,2.77,15.32,3,23.08.08,3.23-.17,6.51.66,9.64a24.15,24.15,0,0,1,20.15,7.39A3.75,3.75,0,0,0,85,106.14a3.7,3.7,0,0,0,1.71-.14,41.68,41.68,0,0,1,16.94-.48,1.64,1.64,0,0,0,1.18-.08A1.59,1.59,0,0,0,105.33,104.13Z"/><path class="cls-9" d="M76,58.78c-.13-.18-.29-.37-.51-.35a.52.52,0,0,0-.35.3A5.86,5.86,0,0,0,74.49,61l-3,20.49-1.19,8.13a4.18,4.18,0,0,0,0,1.83c.34,1.11,1.5,1.72,2.53,2.27A32.84,32.84,0,0,1,84,103.45a2,2,0,0,0,.75.74,1.7,1.7,0,0,0,1,.09,29.66,29.66,0,0,0,5.43-1.46,26.17,26.17,0,0,1,7.3-1.08,1.71,1.71,0,0,0,.81-.13c.68-.39.47-1.41.18-2.13a46.36,46.36,0,0,1-1.18-30.4c.19-.62.32-1.44-.24-1.76a1.4,1.4,0,0,0-1.08,0q-3.66,1-7.27,2.13c-1.74.54-4,1.81-5.75.7-1.37-.89-2.25-3.16-3.14-4.47C79.18,63.38,77.59,61.08,76,58.78Z"/><path class="cls-5" d="M93.76,118.17q0-1.24,0-2.49c-.23-3.52-.27-7-.5-10.56a.34.34,0,0,0-.3-.27,4.93,4.93,0,0,0-.66-.07.38.38,0,0,0-.43,0,5.49,5.49,0,0,0-1.57.32.27.27,0,0,0-.16.17,2.17,2.17,0,0,1-.07-.24c-.06-.16-.31-.09-.32.06a56.15,56.15,0,0,0,.15,6.35c0,1.18-.08,2.39-.1,3.59.09.94,0,1.91.06,2.82v1l0-.06c.33-.47.67-.94,1-1.38A11.8,11.8,0,0,0,92,115.2c.12.43.25.87.4,1.29a5.66,5.66,0,0,0,.68,1.24l.12.45c.13.17.26.35.38.53l.18.23Z"/><path class="cls-8" d="M92.23,104.54a.21.21,0,0,0-.14-.34,4.09,4.09,0,0,0-.7,0,8.07,8.07,0,0,0-2.54.7c-.08,0-.07.11,0,.16l-.25.11a.18.18,0,0,0,.11.33,20.62,20.62,0,0,0,2.84-.62,3.09,3.09,0,0,0,.59-.18A.2.2,0,0,0,92.23,104.54Z"/><path class="cls-10" d="M81.78,71.31C77,66.23,69.19,65.69,63,62.49c-2.37-1.23-4.64-3-5.54-5.53q2.3,20.16,5.68,40.17"/><path class="cls-10" d="M63.29,97.13a27.39,27.39,0,0,1,22.33,10A347.18,347.18,0,0,0,82,71.4c2.67-.89,5.61,0,8.18,1.16s5,2.65,7.83,3.07c3,.47,6.11-.38,9.06-1.25q-.78,16.11-1.07,32.24l-7.89-1.27c-3.85-.63-8.3-1.07-11.14,1.58"/><path class="cls-10" d="M84.29,108.49c-4-6-11.43-8.62-18.43-10.41a3.26,3.26,0,0,1-3.08-3.56A138.36,138.36,0,0,0,55.32,63l2.31-.17"/><path class="cls-10" d="M85.87,108.73l.16-.06c6.06-2.27,12.85-1.82,19.1-.18"/><path class="cls-10" d="M107.36,80.67a2.21,2.21,0,0,1,1.78.1,86.38,86.38,0,0,0-.34,26.47"/><path class="cls-10" d="M87.51,109.19a59.65,59.65,0,0,1,13.68-.65,8.21,8.21,0,0,1,3.57.83"/><path class="cls-10" d="M67.8,100.09a37.32,37.32,0,0,1,13.06,6.15,5.22,5.22,0,0,1,1.37,1.32"/><path class="cls-10" d="M82.92,109.34c-.34.71.5,1.54,1.3,1.5a3.54,3.54,0,0,0,2-1.16"/><path class="cls-10" d="M85,105.5a31.51,31.51,0,0,1,14.84-2.6,1.24,1.24,0,0,0,.93-.18,1.22,1.22,0,0,0,.26-.88c.07-4.9-.86-9.75-1.43-14.63a98.47,98.47,0,0,1-.18-21,25.2,25.2,0,0,1-10.54,3.14c-1.73.12-5.37,0-6.36,1.86-.89,1.68.57,6.73.77,8.65l1.93,18.72c.09.85,1.25,5.93.58,6.52-1.18,1-2.86-2.1-3.46-2.81a28.43,28.43,0,0,0-10.52-7.86,4.34,4.34,0,0,1-2.32-1.64,4.05,4.05,0,0,1-.11-2.49l5.77-33.85a21.62,21.62,0,0,0,4,6.08,11.63,11.63,0,0,1,2.28,2.82,9.39,9.39,0,0,1,.66,3l.29,2.84"/><path class="cls-10" d="M53.9,63.93l-1.64-.76a24.53,24.53,0,0,0,.83,4.94L61,101.18a2.77,2.77,0,0,0,.51,1.19,2.7,2.7,0,0,0,1.19.67l18.39,6.47c-.59,1.09.82,2.33,2.06,2.26s2.32-.85,3.52-1.17a9.85,9.85,0,0,1,2.87-.19q9.42.34,18.8,1.17a16,16,0,0,0,.11-5.4"/><path class="cls-10" d="M61.43,97.58a11.8,11.8,0,0,0,1.39,4.47,7.2,7.2,0,0,1,1.69.47L82.19,109"/><path class="cls-10" d="M86.74,109.75a203.8,203.8,0,0,1,20.38.42"/><path class="cls-10" d="M53.74,64a349.36,349.36,0,0,0,8.35,37.54"/><path class="cls-10" d="M52.93,63.53,55.6,64"/></g></svg>