<svg xmlns="http://www.w3.org/2000/svg" viewBox="0 0 165.42 212.79"><defs><style>.cls-1{opacity:0.33;}.cls-2{fill:#834c20;}.cls-3{fill:#fff;}.cls-4{fill:#2ca8c4;}.cls-5{fill:#1e90b3;}.cls-6{fill:#663717;}.cls-7{fill:#5deded;}.cls-8{fill:#57d0dd;}.cls-9{fill:#3cb9ce;}.cls-10{fill:none;stroke:#000;stroke-linecap:round;stroke-linejoin:round;stroke-width:0.25px;}</style></defs><title>come cabo verde9</title><g id="Camada_4" data-name="Camada 4"><path class="cls-2" d="M74.3,41.49c-23.71,0-44.69,21.7-39.42,46.4,4.66,21.84,36.45,81.55,36.45,81.55a3.31,3.31,0,0,0,6,0s32-60.08,36.7-82.06C119.26,62.69,98,41.49,74.3,41.49Z"/><circle class="cls-3" cx="74.94" cy="83.6" r="26.45"/><path class="cls-4" d="M69.81,68.73A27.34,27.34,0,0,0,70,80.5c1.31,6.28,4.28,12.57,9.69,16,5.93,3.79,14.12,3.3,19.93-.69a22.19,22.19,0,0,0,9.12-18.15,27.79,27.79,0,0,0-8.08-19C90.42,48.17,73,55,69.81,68.73Z"/><path class="cls-5" d="M69.64,76.83A21.45,21.45,0,0,0,95.88,98.28c-4,4.93-11.65,6-17.44,3.33s-9.79-8.33-11.63-14.43a28.36,28.36,0,0,1,.93-19.37c2.35-5.42,7.3-11.17,13.14-12.76C75.82,62,69.87,67.48,69.64,76.83Z"/><path class="cls-6" d="M87.23,86.36c5-.58,9.31-4,12.13-8s4.41-8.85,5.94-13.54a43.44,43.44,0,0,1-7.22,24,16.85,16.85,0,0,1-6,6c-2.56,1.31-5.92,1.45-8.18-.3a10.73,10.73,0,0,1-2.11-2.4c-2-2.78-4.47-6.13-5.24-9.35C80.11,84.54,82.89,86.85,87.23,86.36Z"/><path class="cls-2" d="M101.6,82.18a32.94,32.94,0,0,1-5.72,8.62,16.24,16.24,0,0,1-8.93,5c2.63,2.48,7,1.35,9.9-.86,2.48-1.92,11.91-15.37,6.84-17C102.9,79.28,102.29,80.75,101.6,82.18Z"/><path class="cls-7" d="M70,93.3a5.25,5.25,0,0,0-.79,2.77c.09,1,.93,1.94,1.9,1.79A2.39,2.39,0,0,0,72.43,97c2.14-2.42,2.77-5.78,3.32-9,.31-1.81.66-3.62.81-5.44C73.85,85.57,71.88,89.69,70,93.3Z"/><path class="cls-7" d="M102.26,71.56a101.66,101.66,0,0,0,8,9.72c.48.5,1.19,1,1.78.68a1.38,1.38,0,0,0,.42-1.41,7.89,7.89,0,0,0-3.73-5.21,23.31,23.31,0,0,0-6.11-2.44"/><path class="cls-8" d="M76.3,67.41a42.21,42.21,0,0,1,7.54.17c.78.09,1.68.3,2,1a2.25,2.25,0,0,1,0,1.47,28.94,28.94,0,0,1-1.72,4.86c-.24.51-.61,1.11-1.18,1.09s-1-.92-.78-1.57.7-1.15,1-1.78a3.6,3.6,0,0,0-1.62-4.11,10.51,10.51,0,0,0-4.57-1.3"/><path class="cls-8" d="M95.74,59.33,92.2,64.54A4.17,4.17,0,0,0,91.47,66a2.78,2.78,0,0,0,1.76,3,5.19,5.19,0,0,0,3.7-.11l-3.71-3a26,26,0,0,0,3-6.56"/><path class="cls-8" d="M47.81,69.55a11.64,11.64,0,0,0-2.36,11.7,14.08,14.08,0,0,0,8.74,8.41c2.38.81,5.16,1,7.25-.39a7.87,7.87,0,0,0,2.47-2.84,13.49,13.49,0,0,0,.19-12.55C61.16,68.18,53,64.15,47.81,69.55Z"/><path class="cls-4" d="M60.75,88.17c-1.4.93-3.1,1.36-4.48,2.33,3.57,1.72,8.22.1,10.45-3.17A11.81,11.81,0,0,0,67.32,76c-.61-1.32-2.74-5.37-4.44-5.58-3.72-.44-.59,3.1,0,4.43C64.76,79.17,65.31,85.13,60.75,88.17Z"/><path class="cls-2" d="M47.71,78.13a6.92,6.92,0,0,0,8.11,4.6c2.51-.66,4.4-2.7,6-4.76,0,2.47.08,5-.89,7.32s-3.22,4.2-5.69,4c-2.78-.26-4.62-3-5.75-5.52a34.82,34.82,0,0,1-1.8-5.08l1.19-.09"/><path class="cls-6" d="M49.24,81.68A9.4,9.4,0,0,0,58,88.49c-1.65,1.14-4,.62-5.57-.65a14.19,14.19,0,0,1-3.35-4.94.74.74,0,0,1-.08-.67c.11-.2.53-.11.46.11"/><path class="cls-9" d="M46.73,78a23.06,23.06,0,0,0-5.53,8.44,2.1,2.1,0,0,0,2.44-.38A6.31,6.31,0,0,0,45,83.85l2.41-5.61"/><path class="cls-7" d="M61.84,77.79a27.87,27.87,0,0,0,2,11c1.18,0,1.38-1.7,1.1-2.85a34.73,34.73,0,0,0-3.05-8.14"/><path class="cls-5" d="M48.27,72.78a14.66,14.66,0,0,1,2.49,2,.51.51,0,0,1,.2.36.46.46,0,0,1-.15.26,7.09,7.09,0,0,1-1.69,1.4c-.27.16-.75.22-.79-.09a2.46,2.46,0,0,0,0-3.66c-.06,0-.13-.11-.11-.18s.17,0,.12,0"/><path class="cls-5" d="M58.28,71.29,55.8,73.56a.42.42,0,0,0-.15.23.42.42,0,0,0,.12.27l1.81,2.25c.27.33.68.7,1.06.52.2-1.21-1.49-2.09-1.39-3.31a2.58,2.58,0,0,1,.25-.77l.74-1.65"/><path class="cls-7" d="M77.4,61.13C74,66.35,70.55,72.34,71.65,78.82c0,.14.26.14.29,0,.93-6.26,1.4-12.48,5.55-17.62A.06.06,0,1,0,77.4,61.13Z"/><path class="cls-7" d="M102.94,64.25a33.83,33.83,0,0,1-5.8,14s0,.09.07,0a26.5,26.5,0,0,0,5.76-14S102.94,64.23,102.94,64.25Z"/><path class="cls-7" d="M106.35,84.86a.88.88,0,0,0,0,1.75A.88.88,0,0,0,106.35,84.86Z"/><path class="cls-7" d="M104.91,87.27a.78.78,0,0,0,0,1.56A.78.78,0,0,0,104.91,87.27Z"/><path class="cls-4" d="M50.41,69.19a13.7,13.7,0,0,0-3,2.66c-.68.9-1.59,2.3-1.26,3.48a.32.32,0,0,0,.52.14c.8-.68,1.11-2,1.6-2.9a10.89,10.89,0,0,1,2.25-3.21C50.64,69.28,50.51,69.11,50.41,69.19Z"/><path class="cls-4" d="M58.23,79.53a.7.7,0,0,0,0,1.39A.7.7,0,0,0,58.23,79.53Z"/><path class="cls-4" d="M57.07,80.75a.06.06,0,0,0,0,.11A.06.06,0,1,0,57.07,80.75Z"/><path class="cls-4" d="M56.49,81.2a.47.47,0,0,0,0,.94A.47.47,0,0,0,56.49,81.2Z"/><path class="cls-2" d="M69.62,103.71a35.26,35.26,0,0,0-19.3,3.23c.33,1.55,2.27,2,3.85,2.2,9.85,1,19.7,2.08,29.59,2.55,3.32.15,6.71.24,9.89-.73a1.7,1.7,0,0,0,1.12-.73c.42-.87-.67-1.68-1.58-2a75.07,75.07,0,0,0-31.49-4.58"/><path class="cls-6" d="M51.38,106.71c-.25.13-.54.34-.5.63a.69.69,0,0,0,.4.44,5.79,5.79,0,0,0,2.64.47c.47,0,.94,0,1.4,0,1.81-.06,11.19-.4,7.24-2.82C59.53,103.55,54.11,105.19,51.38,106.71Z"/><path class="cls-6" d="M89.08,106.93c-5.72-1.72-12-3.33-17.68-2.07-.49.11-1.05.3-1.13.7s.27.67.59.92a20.93,20.93,0,0,0,10.76,4.07,34.3,34.3,0,0,0,11.72-.93,1.12,1.12,0,0,0,.61-.28c.34-.4-.32-.91-.89-1.15a31.38,31.38,0,0,0-10.84-2.31"/><path class="cls-10" d="M84.68,53.68A21.72,21.72,0,0,0,69.29,64.9C66,71,65.22,78.29,66.24,85.16c.63,4.25,2,8.57,5.06,11.6a22.08,22.08,0,0,0,1.94,1.73c14.34,11.44,34.38-1.43,36.19-18.31.86-8-1.85-16.6-8-21.82-10.21-8.67-24-3.9-29.26,8-2.49,5.56-2.28,11.92-1.62,18,.37,3.34.89,6.76,2.62,9.63A13,13,0,0,0,87,99.71"/><path class="cls-10" d="M86.9,86.16c5.19-.22,9.77-3.78,12.54-8.17s4-9.55,5.12-14.62c.59,9.36,1,19.44-4.09,27.32a15.28,15.28,0,0,1-6.81,6,9.56,9.56,0,0,1-8.87-.61,13.23,13.23,0,0,1-3.69-4.24C78.75,88,76.41,83.2,76,78.69,78.23,83,81.67,86.39,86.9,86.16Z"/><path class="cls-10" d="M72.1,94.89c1.2.6,2.28-1,2.66-2.29,1.16-3.92,2.48-8.32,2.62-12.37C76.62,81.49,70.61,94.16,72.1,94.89Z"/><path class="cls-10" d="M101.88,71.67l4.78,6.24A8,8,0,0,0,110.18,81a1.49,1.49,0,0,0,.91.05c1-.36.52-1.91-.2-2.72a26.38,26.38,0,0,0-8.5-6.38"/><path class="cls-10" d="M87.68,95.82c4.2-.31,7.91-3.08,10.36-6.5s3.85-7.47,5.22-11.45"/><path class="cls-10" d="M76.54,67.12a34,34,0,0,1,8.63,1.17c.4.11.85.28,1,.67a1.29,1.29,0,0,1-.1.84,51.7,51.7,0,0,1-3.3,7.32l.74-1"/><path class="cls-10" d="M95.38,59a62.26,62.26,0,0,1-4,7.2q3.33,1.58,6.8,2.84"/><path class="cls-10" d="M61.68,88a5.47,5.47,0,0,0,3.21-4c2.82-12.13-14-24.68-19-9.46C43.13,83,51,92.78,59.83,91.86a9.5,9.5,0,0,0,4-1.19,9.48,9.48,0,0,0,3-3.23c4.64-7.75-.59-18.83-8.44-20.4"/><path class="cls-10" d="M47.67,78.48a7.55,7.55,0,0,0,14.24-1.23,29.45,29.45,0,0,1-1.38,7.67c-.6,1.86-1.57,3.84-3.42,4.48-2.13.74-4.41-.67-5.89-2.37a14.46,14.46,0,0,1-3.47-8.21"/><path class="cls-10" d="M48.58,72.19c-.08-.21-.45-.06-.45.16s.18.4.36.54l2.55,2-2.41,2.19.72-1"/><path class="cls-10" d="M58.27,71.11l-2.69,2.72C56.75,75.1,57.85,76,59,77.25"/><path class="cls-10" d="M46.49,78.22A11.31,11.31,0,0,0,41.55,86a8.82,8.82,0,0,0,4.81-7.58"/><path class="cls-10" d="M61.36,77.23a39.19,39.19,0,0,1,5,7.5c.32.63.5,1.61-.16,1.85-.48.18-1-.25-1.27-.66a16.36,16.36,0,0,1-3.35-8.3"/><path class="cls-10" d="M72.1,106.92c2.42,2.34,5.92,3.09,9.24,3.62a36.64,36.64,0,0,0,9.28.58c.49-.05,1.1-.26,1.09-.75s-.49-.63-.89-.75c-3.94-1.16-8.12-2.05-11.95-3.54-2.81-1.08-4.62-2.36-7.77-1.13A2.72,2.72,0,0,0,72.1,106.92Z"/><path class="cls-10" d="M52,107.45c.18.65,1,.78,1.71.76a16,16,0,0,0,7.18-1.89C60,103.35,51.75,106.45,52,107.45Z"/><path class="cls-10" d="M51.6,106a2.1,2.1,0,0,0-1.22.71,1.41,1.41,0,0,0,.48,1.78,4.11,4.11,0,0,0,1.89.62c13,2,26.17,4,39.09,1.84.74-.12,1.63-.41,1.75-1.14a1.66,1.66,0,0,0-.59-1.35c-2-2.16-5-3-7.94-3.67a75.6,75.6,0,0,0-19.25-2C61.12,103,56.08,104.66,51.6,106Z"/></g></svg>