<svg xmlns="http://www.w3.org/2000/svg" viewBox="0 0 165.42 212.79"><defs><style>.cls-1{opacity:0.33;}.cls-2{fill:#834c20;}.cls-3{fill:#fff;}.cls-4{fill:#2ca8c4;}.cls-5{fill:#d37231;}.cls-6{fill:#a35119;}.cls-7{fill:#3cb9ce;}.cls-8{fill:#57d0dd;}.cls-9{fill:#1e90b3;}.cls-10{fill:#5deded;}.cls-11{fill:none;stroke:#000;stroke-miterlimit:10;stroke-width:0.25px;}.cls-12{fill:#663717;}</style></defs><title>come cabo verde10</title><g id="Camada_4" data-name="Camada 4"><path class="cls-2" d="M81.86,41.49c-23.72,0-44.69,21.7-39.42,46.4,4.65,21.84,36.45,81.55,36.45,81.55a3.3,3.3,0,0,0,5.94,0s32-60.08,36.71-82.06C126.81,62.69,105.59,41.49,81.86,41.49Z"/><circle class="cls-3" cx="82.49" cy="83.6" r="26.45"/><path class="cls-4" d="M62.28,60.2C58.05,58,53.76,55.12,49,55.53A13.36,13.36,0,0,1,56,70.4a4.46,4.46,0,0,0-5,7.36,14,14,0,0,0,2.88,1.41c5.28,2.36,8.21,8.06,9.91,13.59s2.64,11.43,5.73,16.32c3.63-3.51,4.93-8.73,6.08-13.65a46.34,46.34,0,0,0,1.57-10c.07-6.42-2.21-12.59-1.83-19,.25-4.1.24-3.88-3.65-3.86A19.56,19.56,0,0,1,62.28,60.2Z"/><path class="cls-5" d="M72.07,66.29c-1,4.38,1.18,8.76,2.18,13.14,1.68,7.28.07,14.89-2,22.06-1.59,5.39-.53,2.4-2.67,7.59,5.41-4.22,6.23-2,8.69-8.39S78.08,87,79.36,80.23c.24-1.3,4.4-2.13,4.07-3.41a3.12,3.12,0,0,0-2.73-2.48,38.42,38.42,0,0,0,3.41-8.9c.69-2.79,1.87-5.32-.66-6.35C79,57.26,73,62.22,72.07,66.29Z"/><path class="cls-6" d="M57.56,70a22.41,22.41,0,0,1,6.18-6.54,1,1,0,0,1,.64-.26c.38,0,.59.44.72.79a14.73,14.73,0,0,1-.69,11.62L63.16,69a2.32,2.32,0,0,0-.62-1.41c-.78-.66-1.94,0-2.76.55l-1.92,1.42"/><path class="cls-7" d="M74.26,74.82a26.52,26.52,0,0,1,1.63-9c.37-1,1.07-2.19,2.16-2.12s1.67,1.44,1.92,2.56l1.33,6a16.12,16.12,0,0,0-2.58-2.89,1.54,1.54,0,0,0-1.25-.53c-.44.09-.72.52-.93.92a29.66,29.66,0,0,0-2.3,5.34"/><path class="cls-4" d="M76.93,79.09A4.71,4.71,0,0,0,75.4,76.7a3.27,3.27,0,0,0-.67-.67,1.74,1.74,0,0,0-.11-.18,23.93,23.93,0,0,1-1.52-2.56,11.5,11.5,0,0,1-1-3.09,9.35,9.35,0,0,1,.65-5.28.39.39,0,0,0-.45-.48c.08-.2.15-.4.22-.61.16-.47-.45-.73-.77-.45-2.1,1.83-1.28,6.05-.55,8.33,0,.15.11.29.16.44a5.17,5.17,0,0,0,.47,2.15,2.91,2.91,0,0,0,.74,1.42c.94,1.5,2.32,3.52.77,4.58a.59.59,0,0,0,.09,1,3.55,3.55,0,0,0-.23.31.57.57,0,0,0,.64.83,2.89,2.89,0,0,0,.35-.11,6.28,6.28,0,0,0-1.38,2.05c-.08.24.21.4.4.31a10.12,10.12,0,0,0,2.93-2.9A3.3,3.3,0,0,0,76.93,79.09Z"/><path class="cls-8" d="M70.89,86.73c.55-1,1.36-2,2.48-2s1.82,1.13,2.23,2.14c1.3,3.28,1.14,6.93.91,10.44a28.2,28.2,0,0,0-1.58-5c-.38-.89-1-1.9-2-1.9a2.35,2.35,0,0,0-1.57.89c-2.27,2.41-3.05,5.66-3.85,8.77C66.58,96,68.92,90.27,70.89,86.73Z"/><path class="cls-9" d="M51.37,69.76a9.17,9.17,0,0,0,1,4.42A4.15,4.15,0,0,0,55,76.58a1.63,1.63,0,0,0,1.67-.5,2.08,2.08,0,0,0,.21-1.61,9.1,9.1,0,0,0-2-4.24,3.68,3.68,0,0,0-1.51-1.17,1.7,1.7,0,0,0-1.8.32,1.15,1.15,0,0,0,.1,1.69"/><path class="cls-10" d="M60.43,82.27c1.92,2.89,2.88,6.57,4.05,9.73a.16.16,0,0,0,.3-.08A22,22,0,0,0,60.43,82.27Z"/><path class="cls-10" d="M56,78.37c.17.07.33.17.49.25L56,78.31S56,78.35,56,78.37Z"/><path class="cls-10" d="M56.5,78.62a18.94,18.94,0,0,1,3.93,3.65A10.87,10.87,0,0,0,56.5,78.62Z"/><path class="cls-10" d="M74.3,76c-1.23-1.64-2.36-2.94-2.84-5a11.7,11.7,0,0,1-.22-4,10.44,10.44,0,0,0,.47,5.39c.76,2.08,5.15,6.93,1.68,8.4-.44.19-.12,1,.34.79C76.25,80.74,75.55,77.66,74.3,76Z"/><path class="cls-10" d="M71.88,64.45l-.21.7c.08-.23.17-.46.27-.68C72,64.43,71.9,64.41,71.88,64.45Z"/><path class="cls-10" d="M71.24,67a16.07,16.07,0,0,1,.43-1.89A9.11,9.11,0,0,0,71.24,67Z"/><path class="cls-10" d="M55.24,59.79a14.27,14.27,0,0,0-1.46-2.45C54.29,58.13,54.79,59,55.24,59.79Z"/><path class="cls-10" d="M55.24,59.79A30.45,30.45,0,0,1,57.14,66a0,0,0,0,0,0,0A15.12,15.12,0,0,0,55.24,59.79Z"/><path class="cls-10" d="M53.29,56.69c.18.21.33.43.49.65-.14-.23-.29-.46-.44-.69C53.31,56.61,53.26,56.65,53.29,56.69Z"/><path class="cls-10" d="M61.3,69l-.26.13a1.43,1.43,0,0,1,.28-.07S61.34,69,61.3,69Z"/><path class="cls-10" d="M60.17,69.57c.28-.15.58-.28.87-.43A3.07,3.07,0,0,0,60.17,69.57Z"/><path class="cls-10" d="M58.52,71.2a0,0,0,1,0,0,0,7.44,7.44,0,0,1,1.63-1.64,3.89,3.89,0,0,0-1.65,1.63Z"/><path class="cls-10" d="M54.52,71.4a3.06,3.06,0,0,0-1.36-1,3.53,3.53,0,0,1,1.63,3s.09.07.09,0A2.44,2.44,0,0,0,54.52,71.4Z"/><path class="cls-10" d="M53.16,70.41l-.06,0Z"/><path class="cls-10" d="M52.68,70.26a1.66,1.66,0,0,1,.42.12l-.41-.18S52.63,70.25,52.68,70.26Z"/><path class="cls-10" d="M66,62.85c0-.06-.13,0-.11,0,.29.83.58,1.66.9,2.48,0,.06.13,0,.11,0C66.63,64.49,66.33,63.67,66,62.85Z"/><path class="cls-11" d="M72.06,66.81A9.63,9.63,0,0,0,74.35,75c1.12,1.24,2.67,2.38,2.75,4s-1.56,3.11-3,4.11c2.09,2.84,1.48,6.8.54,10.2a75.4,75.4,0,0,1-6.26,15.59c5.07-1.56,8.62-6.35,10.09-11.44s1.19-10.5.8-15.79a3.2,3.2,0,0,1,.12-1.48,3.59,3.59,0,0,1,1.46-1.43c1.18-.82,2.35-2,2.33-3.43s-2.05-2.62-3-1.5a13.31,13.31,0,0,0,4.47-9.1c.12-2-.35-4.26-1.94-5.52C78.69,56.08,72.72,63.38,72.06,66.81Z"/><path class="cls-11" d="M76,65.35c.36-.93,1.13-2,2.09-1.74a1.87,1.87,0,0,1,1,1,11,11,0,0,1,1.12,6.85c-1.33-.42-1.52-2.29-2.6-3.17a.74.74,0,0,0-.52-.2.68.68,0,0,0-.39.21,4.06,4.06,0,0,0-1,1.94c-.45,1.53-.84,3.1-1.39,4.59C72.75,73.16,75.27,67.31,76,65.35Z"/><path class="cls-11" d="M68.11,92.78a17.92,17.92,0,0,1,3-6.54,3.14,3.14,0,0,1,2.45-1.49A2.37,2.37,0,0,1,75.38,86,6,6,0,0,1,76,88.15a26,26,0,0,1-.3,9.18,19.77,19.77,0,0,0-1.55-5.5c-.35-.79-.89-1.65-1.74-1.74a2.47,2.47,0,0,0-2,1.17,17.88,17.88,0,0,0-3.36,7.29A31.28,31.28,0,0,1,68.11,92.78Z"/><path class="cls-11" d="M62,64.42c.62-.56,1.48-1.12,2.24-.76s.86,1.34.88,2.16c.06,3,.11,6-1,8.74-1.18-1.53-.35-3.79-.92-5.64A1.69,1.69,0,0,0,62,67.61a2,2,0,0,0-1.22.45A18.46,18.46,0,0,0,57,71.61C56.72,69.21,60.34,65.94,62,64.42Z"/><path class="cls-11" d="M49,54.4a18.67,18.67,0,0,1,6.88,16.23c-.42-1.7-2.84-2.33-4.28-1.33A4.25,4.25,0,0,0,50.29,74a8.57,8.57,0,0,0,3.28,4c1.41,1,3,1.85,4.36,2.93,3.75,2.92,5.85,7.49,7.07,12.08s1.69,9.36,2.93,13.94a3.7,3.7,0,0,0,1.42,2.39,62.16,62.16,0,0,0,6.46-23.8,10.37,10.37,0,0,1,.51-3.14A15.82,15.82,0,0,0,77.4,80c.56-2.52-2.07-4.52-3-6.92-1-2.58,2-8.78.5-10.38-.52-.57-3.41-.42-4.21-.6a24.72,24.72,0,0,1-4.41-1.52c-2.94-1.26-5.7-2.91-8.64-4.19a26.63,26.63,0,0,0-4.23-1.51C52.48,54.69,49.59,54.87,49,54.4Z"/><path class="cls-11" d="M52.64,75.49c.49.58,1.24,1.14,2,.89.94-.32,1-1.62.8-2.59a16.15,16.15,0,0,0-1.63-4.41c-1.11-2.06-2.49-1.82-2.89.19A7.81,7.81,0,0,0,52.64,75.49Z"/><path class="cls-10" d="M57.88,77.76a.19.19,0,0,0,0,.39A.19.19,0,0,0,57.88,77.76Z"/><path class="cls-10" d="M58.86,78.66a.28.28,0,0,0,0,.56A.28.28,0,0,0,58.86,78.66Z"/><path class="cls-10" d="M60,80.26h0a.19.19,0,0,0-.19-.16.22.22,0,0,0,0,.44.19.19,0,0,0,.19-.17h0A.06.06,0,1,0,60,80.26Z"/><path class="cls-10" d="M60.63,81.07a.23.23,0,0,0,0,.46A.23.23,0,0,0,60.63,81.07Z"/><path class="cls-10" d="M62,82.62c-.07,0-.07.12,0,.12A.06.06,0,1,0,62,82.62Z"/><path class="cls-10" d="M61.62,82.07a.22.22,0,0,0,0,.43A.22.22,0,0,0,61.62,82.07Z"/><path class="cls-10" d="M64.18,86.37a.45.45,0,0,0,0,.89A.45.45,0,0,0,64.18,86.37Z"/><path class="cls-10" d="M64.77,88.32a.07.07,0,1,0,0,.14A.07.07,0,0,0,64.77,88.32Z"/><path class="cls-10" d="M65.16,88.51a.67.67,0,0,0,0,1.33A.67.67,0,0,0,65.16,88.51Z"/><path class="cls-10" d="M65.36,90.69a.06.06,0,0,0,0,.12C65.43,90.81,65.43,90.69,65.36,90.69Z"/><path class="cls-10" d="M65.56,91.26a.28.28,0,0,0,0,.56A.28.28,0,0,0,65.56,91.26Z"/><path class="cls-10" d="M65.82,92.93a.38.38,0,0,0,.59.45C66.81,93,66.07,92.44,65.82,92.93Z"/><path class="cls-10" d="M66.34,95.61c-.07,0-.07.12,0,.12A.06.06,0,0,0,66.34,95.61Z"/><path class="cls-10" d="M62.6,82.64a.73.73,0,0,0,0,1.46A.73.73,0,0,0,62.6,82.64Z"/><path class="cls-10" d="M63.49,85.09h0a.23.23,0,0,0-.15-.06.27.27,0,0,0,0,.54A.26.26,0,0,0,63.49,85.09Z"/><path class="cls-10" d="M74.32,86.08c-.52-.35-.84-.23-1.39-.1,0,0,0,0,0,0a2.66,2.66,0,0,1,.82.67c.25.26.31.61.58.84a.41.41,0,0,0,.68-.18A1.25,1.25,0,0,0,74.32,86.08Z"/><path class="cls-10" d="M114.78,70.89a.52.52,0,0,0-.08,1A.52.52,0,0,0,114.78,70.89Z"/><path class="cls-4" d="M98.6,71c1.77,2.47-.13,5.82-2.32,7.89s-4.94,4.18-5,7.18a7.91,7.91,0,0,1,5.31-.63,47,47,0,0,0-14,28.51c-2.1-9.26,1.21-18.71,4.48-27.57-2.7,0-4.81-3.29-3.67-5.67.71-1.46,2.23-2.32,3.45-3.41a13,13,0,0,0,2.93-3.94c.66-1.29.92-4.81,1.87-5.67C93.23,66.21,97.14,69,98.6,71Z"/><path class="cls-5" d="M122.7,68.59c-10.42,11.71-16.21,26.94-26.56,38.7-3,3.37-6.39,6.49-10.56,8.15a3.2,3.2,0,0,1-2.07.3c-1.74-.5-1.69-3-1.2-4.7a74.89,74.89,0,0,1,12.48-25.1,8.62,8.62,0,0,1-6.7.8c.84-2,2.56-3.57,4.18-5.08s3.25-3.18,3.82-5.32-.78-3.72-1.38-5.58c4.76,0,9.43.83,14.26.47C111.87,71,120.66,70.88,122.7,68.59Z"/><path class="cls-12" d="M102.47,81.8c.16,1.31.72,2.76,2,3.18a3.69,3.69,0,0,0,3.28-1,14.42,14.42,0,0,0,5-7.74l-4.87,4.57a3,3,0,0,1-1.45.91c-1.27.2-2.18-1.21-2.51-2.46-.26-1-.31-2.06-.51-3C102.24,77.62,102.24,80.07,102.47,81.8Z"/><path class="cls-10" d="M89.13,79.46a1.53,1.53,0,0,0,.66.55,1.57,1.57,0,0,0,1-.09,8.52,8.52,0,0,0,5.07-4.87l-3.61,1.76a2.24,2.24,0,0,1-1.38.34c-.74-.15-1.12-1-1.35-1.66a11.3,11.3,0,0,0-1.06-3.16C86.82,73.43,88.07,78.06,89.13,79.46Z"/><path class="cls-8" d="M85.19,100.14a7.57,7.57,0,0,0,.3,3.18,2.88,2.88,0,0,0,2.34,1.94c1.22.07,2.24-.86,3.08-1.74,4.41-4.64,8.41-10,9.75-16.26L91.43,98.45c-.81,1-2.1,2-3.17,1.37a2.62,2.62,0,0,1-.89-2c-.25-2-.07-4.4-.63-6.29C85.5,93.93,85.36,97.44,85.19,100.14Z"/><path class="cls-4" d="M101,91.14a3.26,3.26,0,0,0-.75,1.76,1.52,1.52,0,0,0,1,1.53,2.13,2.13,0,0,0,1.24-.12c1.62-.51,7.87-3.66,6-5.88S102,89.72,101,91.14Z"/><path class="cls-10" d="M119.81,70l-.62.66c.22-.2.43-.41.66-.61A0,0,0,0,0,119.81,70Z"/><path class="cls-10" d="M116.1,73.94c1-1.12,2.06-2.21,3.09-3.3A31,31,0,0,0,116.1,73.94Z"/><path class="cls-10" d="M110.37,81.81s.06.1.1,0c1.85-2.68,3.59-5.42,5.63-7.92A35.65,35.65,0,0,0,110.37,81.81Z"/><path class="cls-10" d="M94.43,105.38c-1.32,1.43-2.63,2.86-4,4.28-1.47,1.59-2.62,2.69-4.92,2.6a.16.16,0,0,0-.11.29c1,.72,2.12.09,3-.62a44.15,44.15,0,0,0,4.32-4.54c1-1.11,2-2.25,2.94-3.39Z"/><path class="cls-10" d="M101.84,96.36l-.43.63c.16-.2.31-.4.48-.59C101.91,96.36,101.86,96.33,101.84,96.36Z"/><path class="cls-10" d="M95.69,104a68.35,68.35,0,0,0,5.72-7C99.5,99.33,97.63,101.69,95.69,104Z"/><path class="cls-10" d="M101.78,93.22c0-.1.07-.21.11-.31l-.16.29S101.77,93.26,101.78,93.22Z"/><path class="cls-10" d="M102.1,92.55a2.24,2.24,0,0,0-.21.36Z"/><path class="cls-10" d="M105,90.82a2.71,2.71,0,0,0-1.94.54,3.64,3.64,0,0,0-1,1.19A4.68,4.68,0,0,1,105,91C105.12,91,105.11,90.82,105,90.82Z"/><path class="cls-10" d="M86.62,85.66c-1.47-1.21-2.58-3-1.84-4.94,0,0-.06-.1-.09,0-1,1.81-.56,4.75,1.7,5.43A.25.25,0,0,0,86.62,85.66Z"/><path class="cls-10" d="M93.5,68.74a1.17,1.17,0,0,0-1.57,1.06.18.18,0,0,0,.34.08,1.09,1.09,0,0,1,1.12-.62C93.68,69.31,93.79,68.83,93.5,68.74Z"/><path class="cls-11" d="M123.81,68c-6.8,5.06-11.68,12.25-16,19.54s-8.24,14.89-13.69,21.38c-2.89,3.45-6.73,6.77-11.23,6.6a32.87,32.87,0,0,1,3.76-15.83A97.61,97.61,0,0,1,95.5,85.8a11.18,11.18,0,0,1-6.16,1.57,1.39,1.39,0,0,1-1-.32c-.46-.48-.1-1.27.31-1.8a43.33,43.33,0,0,1,4.53-4.35,10.12,10.12,0,0,0,3.32-5.23,4.79,4.79,0,0,0-2.11-5C104.16,73,114.34,70.43,123.81,68Z"/><path class="cls-11" d="M102,81.12c0,1.27.12,2.73,1.17,3.45,1.35.92,3.18,0,4.41-1a18.3,18.3,0,0,0,5-6.81c.12-.27.17-.66-.09-.77l-5.89,5.28c-.54.49-1.27,1-1.93.7s-.72-1-.8-1.59c-.16-1.38,0-3.22-.54-4.41C102.09,76.54,102.08,79.75,102,81.12Z"/><path class="cls-11" d="M87.41,98.79a1.68,1.68,0,0,0,.55,1c.63.45,1.48,0,2.06-.55A54.76,54.76,0,0,0,100.25,87.8a41.61,41.61,0,0,1-9.16,15.72c-.78.84-1.79,1.71-2.92,1.53-1.49-.23-2.07-2-2.32-3.51-.47-2.84-1.09-6.8.63-9.34C87.53,92.79,87,97.33,87.41,98.79Z"/><path class="cls-11" d="M89.4,76.14a2.65,2.65,0,0,0,3,.68,7.82,7.82,0,0,0,2.65-2,19.09,19.09,0,0,1-5,5.49,1.37,1.37,0,0,1-1.16.37,1.28,1.28,0,0,1-.65-.75,10.08,10.08,0,0,1,.32-7.74C89.18,73.42,88.57,75,89.4,76.14Z"/><path class="cls-11" d="M101.67,91.38a4.08,4.08,0,0,0-1.06,1.77,1.9,1.9,0,0,0,.57,1.89,2.7,2.7,0,0,0,2.33.18,14.41,14.41,0,0,0,5.1-2.48,5.31,5.31,0,0,0,1.57-1.7,2.36,2.36,0,0,0,0-2.22C108.85,86.47,102.9,90.07,101.67,91.38Z"/><path class="cls-10" d="M99.81,97.89a.38.38,0,0,0-.06.76A.38.38,0,0,0,99.81,97.89Z"/><path class="cls-10" d="M98.77,98.63a.74.74,0,0,0-.12,1.48A.74.74,0,0,0,98.77,98.63Z"/><path class="cls-10" d="M97.63,100.46a.6.6,0,0,0-.09,1.19A.6.6,0,0,0,97.63,100.46Z"/><path class="cls-10" d="M96.55,102.17s0-.06,0-.07a.41.41,0,0,0-.38-.26.48.48,0,0,0-.07,1A.47.47,0,0,0,96.55,102.17Z"/><path class="cls-10" d="M95.41,103.87l-.08-.06a.29.29,0,0,0-.27,0l-.08,0a.43.43,0,1,0,.43,0Z"/><path class="cls-10" d="M93.67,105.26l-.11.09a.19.19,0,0,0,0,.25l.1.11C94.23,106.35,94.36,104.72,93.67,105.26Z"/><path class="cls-10" d="M92.42,106.39a.38.38,0,0,0-.06.76A.38.38,0,0,0,92.42,106.39Z"/><path class="cls-10" d="M91.11,108a.47.47,0,0,0-.07.94A.47.47,0,0,0,91.11,108Z"/><path class="cls-10" d="M89.8,109.58a.34.34,0,0,0,0,.68A.34.34,0,0,0,89.8,109.58Z"/><path class="cls-10" d="M87.93,110.74a.22.22,0,0,0,0,.44A.22.22,0,0,0,87.93,110.74Z"/><path class="cls-10" d="M93.7,99.27c.06-.28-.22-.53-.47-.33-1.4,1.13-2.14,3.19-3.61,4.26.75-.48,1.57-.85,2.27-1.4A4.44,4.44,0,0,0,93.7,99.27Z"/><path class="cls-10" d="M89.48,103.3l.14-.1Z"/><path class="cls-10" d="M88.88,103.75a5.22,5.22,0,0,1,.6-.45,3.28,3.28,0,0,1-.67.35C88.74,103.68,88.81,103.81,88.88,103.75Z"/></g></svg>